M48
; DRILL file {KiCad 9.0.6} date 2026-02-16T15:05:23+0100
; FORMAT={-:-/ absolute / metric / decimal}
; #@! TF.CreationDate,2026-02-16T15:05:23+01:00
; #@! TF.GenerationSoftware,Kicad,Pcbnew,9.0.6
; #@! TF.FileFunction,Plated,1,4,PTH
FMAT,2
METRIC
; #@! TA.AperFunction,Plated,PTH,ViaDrill
T1C0.300
; #@! TA.AperFunction,Plated,PTH,ComponentDrill
T2C1.067
; #@! TA.AperFunction,Plated,PTH,ComponentDrill
T3C1.854
%
G90
G05
T1
X107.45Y-100.91
X108.98Y-100.9
X112.78Y-116.59
X112.785Y-114.02
X112.81Y-115.32
X114.19Y-97.7
X114.53Y-129.3
X115.45Y-122.5
X116.14Y-119.17
X116.14Y-120.4
X116.2Y-104.17
X117.01Y-129.32
X117.15Y-117.71
X118.13Y-121.96
X118.615Y-120.14
X118.625Y-117.01
X119.098Y-123.83
X119.235Y-95.775
X119.63Y-112.86
X119.65Y-109.1
X120.298Y-123.83
X120.91Y-104.96
X121.1Y-133.97
X121.11Y-130.89
X121.12Y-137.1
X121.305Y-123.855
X121.48Y-110.55
X121.54Y-104.54
X122.17Y-97.7
X122.272Y-111.809
X122.295Y-117.16
X123.485Y-103.21
X123.65Y-107.11
X123.76Y-108.56
X123.773Y-118.925
X124.53Y-114.6
X124.94Y-133.98
X125.235Y-96.115
X125.29Y-110.56
X125.47Y-99.58
X125.54Y-93.97
X125.71Y-111.79
X125.964Y-119.794
X126.09Y-102.11
X126.22Y-145.62
X126.27Y-116.27
X126.356Y-111.453
X126.43Y-97.62
X126.47Y-128.6
X126.62Y-102.59
X127.53Y-100.44
X127.54Y-93.5
X127.81Y-101.03
X128.015Y-108.437
X128.53Y-134.13
X128.555Y-109.304
X129.04Y-93.51
X129.07Y-103.01
X129.41Y-128.14
X129.47Y-125.33
X129.56Y-135.2
X129.566Y-122.394
X130.05Y-96.83
X130.35Y-127.2
X130.56Y-110.41
X131.12Y-89.11
X131.23Y-85.2
X131.48Y-116.07
X131.53Y-117.72
X131.621Y-129.43
X132.03Y-114.37
X132.14Y-116.77
X132.16Y-117.73
X132.47Y-83.55
X132.52Y-96.43
X133.0Y-120.19
X133.09Y-129.43
X133.09Y-134.14
X133.35Y-114.32
X133.43Y-92.65
X134.178Y-111.402
X134.33Y-83.55
X135.47Y-139.42
X135.63Y-85.2
X136.02Y-120.4
X136.13Y-111.28
X136.53Y-104.75
X136.674Y-118.6
X136.71Y-112.68
X136.75Y-103.75
X137.25Y-112.18
X137.3Y-112.87
X137.5Y-124.09
X138.174Y-118.57
X138.23Y-86.86
X139.01Y-135.51
X139.17Y-102.86
X139.24Y-96.39
X139.36Y-100.43
X139.381Y-102.14
X139.629Y-107.111
X139.88Y-113.96
X139.94Y-85.59
X140.18Y-130.34
X140.721Y-107.75
X140.754Y-117.59
X141.3Y-112.2
X141.68Y-86.86
X142.483Y-107.004
X142.67Y-139.93
X143.04Y-101.55
X143.11Y-103.67
X143.16Y-96.83
X143.28Y-94.42
X143.96Y-103.46
X144.072Y-108.658
X144.404Y-127.295
X145.64Y-95.33
X145.84Y-133.41
X146.81Y-137.03
X146.89Y-124.58
X147.08Y-108.25
X147.41Y-96.83
X147.77Y-111.78
X148.06Y-124.34
X148.38Y-126.83
X148.42Y-106.05
X148.42Y-111.77
X149.07Y-111.79
X149.43Y-96.19
X149.69Y-134.34
X149.78Y-104.78
X149.8Y-133.41
X150.62Y-125.62
X150.7Y-136.31
X151.2Y-96.51
X151.2Y-100.05
X151.2Y-107.2
X151.2Y-112.51
X151.2Y-116.11
X151.21Y-119.62
X151.21Y-123.12
X151.27Y-103.7
X153.55Y-94.13
X153.6Y-101.42
X153.65Y-97.77
X154.564Y-123.969
X154.59Y-118.189
X154.854Y-101.42
X155.38Y-128.86
X155.4Y-130.27
X155.4Y-134.11
X155.42Y-118.53
X155.871Y-116.871
X155.882Y-123.988
X156.165Y-94.31
X156.331Y-97.763
X156.64Y-129.91
X157.04Y-125.35
X157.08Y-88.8
X157.08Y-90.18
X157.2Y-126.63
X157.52Y-112.97
X157.66Y-91.53
X157.73Y-106.18
X157.898Y-117.585
X158.26Y-92.6
X158.27Y-98.14
X158.28Y-93.98
X158.31Y-122.3
X158.38Y-102.16
X158.41Y-110.2
X158.41Y-114.18
X158.41Y-118.2
X158.57Y-129.3
X162.04Y-88.08
X162.28Y-139.21
T2
X167.5Y-138.1
X167.5Y-141.1
X167.5Y-144.1
X167.516Y-104.117
X167.516Y-107.117
X167.516Y-110.117
X167.516Y-113.117
X167.54Y-122.56
X167.54Y-125.56
X167.54Y-128.56
X167.54Y-82.7
X167.54Y-85.7
X167.54Y-88.7
X167.54Y-91.7
X167.54Y-94.7
T3
X108.44Y-86.19
X108.44Y-91.69
X116.7Y-86.21
X116.7Y-91.71
M30
