%TF.GenerationSoftware,KiCad,Pcbnew,9.0.6*%
%TF.CreationDate,2026-02-16T15:04:55+01:00*%
%TF.ProjectId,WaterSensor,57617465-7253-4656-9e73-6f722e6b6963,rev?*%
%TF.SameCoordinates,Original*%
%TF.FileFunction,Copper,L2,Inr*%
%TF.FilePolarity,Positive*%
%FSLAX46Y46*%
G04 Gerber Fmt 4.6, Leading zero omitted, Abs format (unit mm)*
G04 Created by KiCad (PCBNEW 9.0.6) date 2026-02-16 15:04:55*
%MOMM*%
%LPD*%
G01*
G04 APERTURE LIST*
%TA.AperFunction,ComponentPad*%
%ADD10C,2.362200*%
%TD*%
%TA.AperFunction,ComponentPad*%
%ADD11C,1.574800*%
%TD*%
%TA.AperFunction,ViaPad*%
%ADD12C,0.600000*%
%TD*%
G04 APERTURE END LIST*
D10*
%TO.N,GND*%
%TO.C,J2*%
X116700000Y-86210251D03*
%TO.N,PS_IN*%
X116700000Y-91710250D03*
%TD*%
D11*
%TO.N,/DAC_PROT&SWITCH/BLKA_PWR*%
%TO.C,J7*%
X167500000Y-138100000D03*
%TO.N,/DAC_PROT&SWITCH/GW_DAC_IN_A*%
X167500000Y-141099999D03*
%TO.N,/DAC_PROT&SWITCH/FW_DAC_IN_A*%
X167500000Y-144099998D03*
%TD*%
%TO.N,/BLK-C-Water/+12V_BLK9C-2*%
%TO.C,J5*%
X167515999Y-104117001D03*
%TO.N,/BLK-C-Water/+12V_BLK9C-3*%
X167515999Y-107117000D03*
%TO.N,/BLK-C-Water/+12V_BLK9C-4*%
X167515999Y-110116999D03*
%TO.N,/BLK-C-Water/+12V_BLK9C-5*%
X167515999Y-113116998D03*
%TD*%
%TO.N,/BLK-C-Water/BLKC_PWR*%
%TO.C,J4*%
X167539999Y-82700002D03*
%TO.N,/BLK-C-Water/+12V_BLK8C-2*%
X167539999Y-85700001D03*
%TO.N,/BLK-C-Water/+12V_BLK8C-3*%
X167539999Y-88700000D03*
%TO.N,/BLK-C-Water/+12V_BLK8C-4*%
X167539999Y-91699999D03*
%TO.N,/BLK-C-Water/+12V_BLK8C-5*%
X167539999Y-94699998D03*
%TD*%
%TO.N,/DAC_PROT&SWITCH/BLKB_PWR*%
%TO.C,J8*%
X167539799Y-122560401D03*
%TO.N,/VIConverter/IoutGW*%
X167539799Y-125560400D03*
%TO.N,/VIConverter/IoutFW*%
X167539799Y-128560399D03*
%TD*%
D10*
%TO.N,/LIN_BUS*%
%TO.C,J3*%
X108439600Y-86189750D03*
%TO.N,GND*%
X108439600Y-91689749D03*
%TD*%
D12*
%TO.N,GND*%
X116200000Y-104170000D03*
X138173650Y-118569999D03*
X158570000Y-129300000D03*
X151210000Y-119620000D03*
X143040000Y-101550000D03*
X123760000Y-108560000D03*
X133430400Y-92650251D03*
X143160000Y-96830000D03*
X136673650Y-118599999D03*
X136750000Y-103750000D03*
X114530000Y-129300000D03*
X108980000Y-100900000D03*
X162280000Y-139210000D03*
X137500000Y-124090000D03*
X139010000Y-135510000D03*
X149070000Y-111790000D03*
X140180000Y-130340000D03*
X122272000Y-111809000D03*
X142483000Y-107004000D03*
X141680000Y-86860000D03*
X114190000Y-97700000D03*
X126430000Y-97620000D03*
X145840000Y-133410000D03*
X117150000Y-117710000D03*
X120910000Y-104960000D03*
X132470400Y-83550251D03*
X142670000Y-139930000D03*
X151200000Y-100050000D03*
X132140000Y-116770000D03*
X123773000Y-118925000D03*
X151210000Y-123120000D03*
X129070000Y-103010000D03*
X107450000Y-100910000D03*
X119650000Y-109100000D03*
X125964000Y-119794000D03*
X131230400Y-85200251D03*
X135630400Y-85200251D03*
X125540000Y-93970000D03*
X121100000Y-133970000D03*
X151200000Y-107200000D03*
X121540000Y-104540000D03*
X151200000Y-112510000D03*
X134178299Y-111402112D03*
X123485000Y-103210000D03*
X118130000Y-121960000D03*
X158260000Y-92600000D03*
X131530000Y-117720000D03*
X134330400Y-83550251D03*
X132160000Y-117730000D03*
X139880000Y-113960000D03*
X136130000Y-111280000D03*
X150620000Y-125620000D03*
X155400000Y-134110000D03*
X139240000Y-96390000D03*
X139360000Y-100430000D03*
X157080000Y-88800000D03*
X133090028Y-134140127D03*
X126470000Y-128600000D03*
X112810000Y-115320000D03*
X148420000Y-111770000D03*
X129566000Y-122394000D03*
X121110000Y-130890000D03*
X121120000Y-137100000D03*
X130050000Y-96830000D03*
X138230000Y-86860251D03*
X151270000Y-103700000D03*
X141300000Y-112200000D03*
X147770000Y-111780000D03*
X133000000Y-120190000D03*
X151200000Y-96510000D03*
X127540000Y-93500000D03*
X135470000Y-139420000D03*
X151200000Y-116110000D03*
X136020000Y-120400000D03*
X119234999Y-95775000D03*
X128555000Y-109304000D03*
X126220000Y-145620000D03*
X129040000Y-93510000D03*
X123650000Y-107110000D03*
X143280000Y-94420000D03*
X112780000Y-116590000D03*
%TO.N,NRST*%
X121480000Y-110550000D03*
X119630000Y-112860000D03*
%TO.N,+5V*%
X124940000Y-133980000D03*
X121305025Y-123855025D03*
X149430000Y-96190000D03*
X128530000Y-134130000D03*
%TO.N,+3.3V*%
X124529975Y-114599975D03*
X126090000Y-102110000D03*
X112785000Y-114020000D03*
X131480000Y-116070000D03*
X125710000Y-111790000D03*
X127810000Y-101030000D03*
X147410000Y-96830000D03*
X145640000Y-95330000D03*
X126620000Y-102590000D03*
X125290000Y-110560000D03*
X132520000Y-96430000D03*
X139380675Y-102140195D03*
X117010000Y-129320000D03*
X122295000Y-117160000D03*
X126355785Y-111452785D03*
X143110000Y-103670000D03*
X140753650Y-117589999D03*
X137250000Y-112180000D03*
X143960000Y-103460000D03*
X137300000Y-112870000D03*
X118615000Y-120140000D03*
X127530000Y-100440000D03*
X136710000Y-112680000D03*
X126270000Y-116270000D03*
X118625000Y-117010000D03*
X139170000Y-102860000D03*
%TO.N,PS_RAW*%
X155400000Y-130270000D03*
X148060000Y-124340000D03*
X146890000Y-124580000D03*
X131120000Y-89110000D03*
X162040000Y-88080000D03*
X156640000Y-129910000D03*
X149690000Y-134340000D03*
X149800000Y-133410000D03*
%TO.N,Vdrive*%
X139940000Y-85590000D03*
X115450000Y-122500000D03*
%TO.N,USART1_TX*%
X116140000Y-119170000D03*
X132030000Y-114370000D03*
%TO.N,USART1_RX*%
X116140000Y-120400000D03*
X133350000Y-114320000D03*
%TO.N,/USB_D-*%
X119098300Y-123830000D03*
X120298300Y-123830000D03*
%TO.N,/VIConverter/IoutGW*%
X155380000Y-128860000D03*
%TO.N,Net-(Q1-C)*%
X154854000Y-101420000D03*
X153600000Y-101420000D03*
%TO.N,Net-(Q2-C)*%
X156331000Y-97763000D03*
X153650000Y-97770000D03*
%TO.N,Net-(Q3-C)*%
X153550000Y-94130000D03*
X156165000Y-94310000D03*
%TO.N,Net-(Q5-C)*%
X154590000Y-118189000D03*
X157520000Y-112970000D03*
%TO.N,Net-(Q6-C)*%
X157040000Y-125350000D03*
X157897851Y-117585421D03*
%TO.N,Net-(Q7-C)*%
X154564000Y-123969000D03*
X155882000Y-123988000D03*
%TO.N,Net-(Q8-C)*%
X155420000Y-118530000D03*
X155871000Y-116871000D03*
%TO.N,+12V*%
X158270000Y-98140000D03*
X158380000Y-102160000D03*
X158310000Y-122300000D03*
X157660000Y-91530000D03*
X157200000Y-126630000D03*
X158280000Y-93980000D03*
X158410000Y-114180000D03*
X158410000Y-118200000D03*
X157080000Y-90180000D03*
X157730000Y-106180000D03*
X158410000Y-110200000D03*
%TO.N,FW_DAC_IN_B*%
X133090000Y-129430000D03*
X131620999Y-129430000D03*
%TO.N,Out1*%
X150700000Y-136310000D03*
X146810000Y-137030000D03*
%TO.N,O2Out1*%
X144404201Y-127295112D03*
X148380000Y-126830000D03*
%TO.N,IN_B*%
X130350000Y-127200000D03*
X129410000Y-128140000D03*
%TO.N,BLKC_SEL_B*%
X148420000Y-106050000D03*
X140721000Y-107750000D03*
%TO.N,BLKC_SEL_C*%
X139628500Y-107111500D03*
X149780000Y-104780000D03*
%TO.N,USART2_TX*%
X128015000Y-108437000D03*
X125470000Y-99580000D03*
%TO.N,EN_LIN*%
X122170000Y-97700000D03*
X136530000Y-104750000D03*
%TO.N,IN_A*%
X129470000Y-125330000D03*
X129560000Y-135200000D03*
%TO.N,USART2_RX*%
X125234999Y-96115000D03*
X130560000Y-110410000D03*
%TO.N,BLKC_SEL_A*%
X147080000Y-108250000D03*
X144072000Y-108658000D03*
%TD*%
%TA.AperFunction,Conductor*%
%TO.N,GND*%
G36*
X170542708Y-75320185D02*
G01*
X170588463Y-75372989D01*
X170599669Y-75424330D01*
X170605058Y-79363991D01*
X170585465Y-79431058D01*
X170532724Y-79476885D01*
X170463579Y-79486923D01*
X170399984Y-79457985D01*
X170366497Y-79411613D01*
X170307232Y-79268533D01*
X170307225Y-79268520D01*
X170207542Y-79119335D01*
X170207539Y-79119331D01*
X170080668Y-78992460D01*
X170080664Y-78992457D01*
X169931479Y-78892774D01*
X169931466Y-78892767D01*
X169765704Y-78824107D01*
X169765694Y-78824104D01*
X169589718Y-78789100D01*
X169589716Y-78789100D01*
X169410284Y-78789100D01*
X169410282Y-78789100D01*
X169234305Y-78824104D01*
X169234295Y-78824107D01*
X169068533Y-78892767D01*
X169068520Y-78892774D01*
X168919335Y-78992457D01*
X168919331Y-78992460D01*
X168792460Y-79119331D01*
X168792457Y-79119335D01*
X168692774Y-79268520D01*
X168692767Y-79268533D01*
X168624107Y-79434295D01*
X168624104Y-79434305D01*
X168589100Y-79610281D01*
X168589100Y-79610284D01*
X168589100Y-79789716D01*
X168589100Y-79789718D01*
X168589099Y-79789718D01*
X168624104Y-79965694D01*
X168624107Y-79965704D01*
X168692767Y-80131466D01*
X168692774Y-80131479D01*
X168792457Y-80280664D01*
X168792460Y-80280668D01*
X168919331Y-80407539D01*
X168919335Y-80407542D01*
X169068520Y-80507225D01*
X169068533Y-80507232D01*
X169228955Y-80573680D01*
X169234300Y-80575894D01*
X169234304Y-80575894D01*
X169234305Y-80575895D01*
X169410281Y-80610900D01*
X169410284Y-80610900D01*
X169589718Y-80610900D01*
X169708110Y-80587349D01*
X169765700Y-80575894D01*
X169931473Y-80507229D01*
X170080665Y-80407542D01*
X170207542Y-80280665D01*
X170307229Y-80131473D01*
X170335895Y-80062268D01*
X170367413Y-79986175D01*
X170411253Y-79931771D01*
X170477547Y-79909706D01*
X170545247Y-79926985D01*
X170592858Y-79978122D01*
X170605974Y-80033457D01*
X170629802Y-97451618D01*
X170610209Y-97518685D01*
X170557468Y-97564512D01*
X170488323Y-97574550D01*
X170424728Y-97545612D01*
X170386873Y-97486886D01*
X170384185Y-97475979D01*
X170375895Y-97434307D01*
X170375895Y-97434305D01*
X170375894Y-97434300D01*
X170345942Y-97361988D01*
X170307232Y-97268533D01*
X170307225Y-97268520D01*
X170207542Y-97119335D01*
X170207539Y-97119331D01*
X170080668Y-96992460D01*
X170080664Y-96992457D01*
X169931479Y-96892774D01*
X169931466Y-96892767D01*
X169765704Y-96824107D01*
X169765694Y-96824104D01*
X169589718Y-96789100D01*
X169589716Y-96789100D01*
X169410284Y-96789100D01*
X169410282Y-96789100D01*
X169234305Y-96824104D01*
X169234295Y-96824107D01*
X169068533Y-96892767D01*
X169068520Y-96892774D01*
X168919335Y-96992457D01*
X168919331Y-96992460D01*
X168792460Y-97119331D01*
X168792457Y-97119335D01*
X168692774Y-97268520D01*
X168692767Y-97268533D01*
X168624107Y-97434295D01*
X168624104Y-97434305D01*
X168589100Y-97610281D01*
X168589100Y-97610284D01*
X168589100Y-97789716D01*
X168589100Y-97789718D01*
X168589099Y-97789718D01*
X168624104Y-97965694D01*
X168624107Y-97965704D01*
X168692767Y-98131466D01*
X168692774Y-98131479D01*
X168792457Y-98280664D01*
X168792460Y-98280668D01*
X168919331Y-98407539D01*
X168919335Y-98407542D01*
X169068520Y-98507225D01*
X169068533Y-98507232D01*
X169234295Y-98575892D01*
X169234300Y-98575894D01*
X169234304Y-98575894D01*
X169234305Y-98575895D01*
X169410281Y-98610900D01*
X169410284Y-98610900D01*
X169589718Y-98610900D01*
X169742514Y-98580506D01*
X169765700Y-98575894D01*
X169931473Y-98507229D01*
X170080665Y-98407542D01*
X170207542Y-98280665D01*
X170307229Y-98131473D01*
X170375894Y-97965700D01*
X170384859Y-97920626D01*
X170417243Y-97858719D01*
X170477958Y-97824144D01*
X170547727Y-97827883D01*
X170604400Y-97868748D01*
X170629982Y-97933766D01*
X170630476Y-97944650D01*
X170634682Y-101018809D01*
X170634900Y-101178019D01*
X170699329Y-148275330D01*
X170679736Y-148342397D01*
X170626995Y-148388224D01*
X170575329Y-148399500D01*
X104024500Y-148399500D01*
X103957461Y-148379815D01*
X103911706Y-148327011D01*
X103900500Y-148275500D01*
X103900500Y-147189715D01*
X168549100Y-147189715D01*
X168584105Y-147365691D01*
X168584108Y-147365701D01*
X168652768Y-147531463D01*
X168652775Y-147531476D01*
X168752458Y-147680661D01*
X168752461Y-147680665D01*
X168879332Y-147807536D01*
X168879336Y-147807539D01*
X169028521Y-147907222D01*
X169028534Y-147907229D01*
X169194296Y-147975889D01*
X169194301Y-147975891D01*
X169194305Y-147975891D01*
X169194306Y-147975892D01*
X169370282Y-148010897D01*
X169370285Y-148010897D01*
X169549719Y-148010897D01*
X169668111Y-147987346D01*
X169725701Y-147975891D01*
X169891474Y-147907226D01*
X170040666Y-147807539D01*
X170167543Y-147680662D01*
X170267230Y-147531470D01*
X170335895Y-147365697D01*
X170370901Y-147189713D01*
X170370901Y-147010281D01*
X170370901Y-147010278D01*
X170335896Y-146834302D01*
X170335895Y-146834301D01*
X170335895Y-146834297D01*
X170335893Y-146834292D01*
X170267233Y-146668530D01*
X170267226Y-146668517D01*
X170167543Y-146519332D01*
X170167540Y-146519328D01*
X170040669Y-146392457D01*
X170040665Y-146392454D01*
X169891480Y-146292771D01*
X169891467Y-146292764D01*
X169725705Y-146224104D01*
X169725695Y-146224101D01*
X169549719Y-146189097D01*
X169549717Y-146189097D01*
X169370285Y-146189097D01*
X169370283Y-146189097D01*
X169194306Y-146224101D01*
X169194296Y-146224104D01*
X169028534Y-146292764D01*
X169028521Y-146292771D01*
X168879336Y-146392454D01*
X168879332Y-146392457D01*
X168752461Y-146519328D01*
X168752458Y-146519332D01*
X168652775Y-146668517D01*
X168652768Y-146668530D01*
X168584108Y-146834292D01*
X168584105Y-146834302D01*
X168549101Y-147010278D01*
X168549101Y-147010281D01*
X168549101Y-147189713D01*
X168549101Y-147189715D01*
X168549100Y-147189715D01*
X103900500Y-147189715D01*
X103900500Y-144014378D01*
X166412100Y-144014378D01*
X166412100Y-144185617D01*
X166438887Y-144354745D01*
X166491805Y-144517609D01*
X166569545Y-144670183D01*
X166569546Y-144670186D01*
X166611392Y-144727780D01*
X166670196Y-144808717D01*
X166791281Y-144929802D01*
X166869488Y-144986623D01*
X166929811Y-145030451D01*
X166929812Y-145030451D01*
X166929816Y-145030454D01*
X167082391Y-145108194D01*
X167245249Y-145161110D01*
X167414380Y-145187898D01*
X167414381Y-145187898D01*
X167585619Y-145187898D01*
X167585620Y-145187898D01*
X167754751Y-145161110D01*
X167917609Y-145108194D01*
X168070184Y-145030454D01*
X168208719Y-144929802D01*
X168329804Y-144808717D01*
X168430456Y-144670182D01*
X168508196Y-144517607D01*
X168561112Y-144354749D01*
X168587900Y-144185618D01*
X168587900Y-144014378D01*
X168561112Y-143845247D01*
X168508196Y-143682389D01*
X168430456Y-143529814D01*
X168430453Y-143529810D01*
X168430453Y-143529809D01*
X168401234Y-143489594D01*
X168329804Y-143391279D01*
X168208719Y-143270194D01*
X168156580Y-143232313D01*
X168070188Y-143169544D01*
X168070185Y-143169543D01*
X168070186Y-143169543D01*
X168070184Y-143169542D01*
X167917609Y-143091802D01*
X167754751Y-143038886D01*
X167754749Y-143038885D01*
X167754747Y-143038885D01*
X167636658Y-143020181D01*
X167585620Y-143012098D01*
X167414380Y-143012098D01*
X167375173Y-143018307D01*
X167245252Y-143038885D01*
X167082388Y-143091803D01*
X166929814Y-143169543D01*
X166929811Y-143169544D01*
X166826039Y-143244940D01*
X166791281Y-143270194D01*
X166791279Y-143270196D01*
X166791278Y-143270196D01*
X166670198Y-143391276D01*
X166670198Y-143391277D01*
X166670196Y-143391279D01*
X166644942Y-143426037D01*
X166569546Y-143529809D01*
X166569545Y-143529812D01*
X166491805Y-143682386D01*
X166438887Y-143845250D01*
X166412100Y-144014378D01*
X103900500Y-144014378D01*
X103900500Y-139993713D01*
X113649500Y-139993713D01*
X113649500Y-140206286D01*
X113678799Y-140391277D01*
X113682754Y-140416243D01*
X113719655Y-140529813D01*
X113748444Y-140618414D01*
X113844951Y-140807820D01*
X113969890Y-140979786D01*
X114120213Y-141130109D01*
X114292179Y-141255048D01*
X114292181Y-141255049D01*
X114292184Y-141255051D01*
X114481588Y-141351557D01*
X114683757Y-141417246D01*
X114893713Y-141450500D01*
X114893714Y-141450500D01*
X115106286Y-141450500D01*
X115106287Y-141450500D01*
X115316243Y-141417246D01*
X115518412Y-141351557D01*
X115707816Y-141255051D01*
X115803383Y-141185618D01*
X115879786Y-141130109D01*
X115879788Y-141130106D01*
X115879792Y-141130104D01*
X115995517Y-141014379D01*
X166412100Y-141014379D01*
X166412100Y-141185619D01*
X166438888Y-141354750D01*
X166469999Y-141450500D01*
X166491805Y-141517610D01*
X166569545Y-141670184D01*
X166569546Y-141670187D01*
X166611392Y-141727781D01*
X166670196Y-141808718D01*
X166791281Y-141929803D01*
X166869488Y-141986624D01*
X166929811Y-142030452D01*
X166929812Y-142030452D01*
X166929816Y-142030455D01*
X167082391Y-142108195D01*
X167245249Y-142161111D01*
X167414380Y-142187899D01*
X167414381Y-142187899D01*
X167585619Y-142187899D01*
X167585620Y-142187899D01*
X167754751Y-142161111D01*
X167917609Y-142108195D01*
X168070184Y-142030455D01*
X168208719Y-141929803D01*
X168329804Y-141808718D01*
X168430456Y-141670183D01*
X168508196Y-141517608D01*
X168561112Y-141354750D01*
X168587900Y-141185619D01*
X168587900Y-141014379D01*
X168561112Y-140845248D01*
X168508196Y-140682390D01*
X168430456Y-140529815D01*
X168430453Y-140529811D01*
X168430453Y-140529810D01*
X168401234Y-140489595D01*
X168329804Y-140391280D01*
X168208719Y-140270195D01*
X168120758Y-140206287D01*
X168070188Y-140169545D01*
X168070185Y-140169544D01*
X168070186Y-140169544D01*
X168070184Y-140169543D01*
X167917609Y-140091803D01*
X167754751Y-140038887D01*
X167754749Y-140038886D01*
X167754747Y-140038886D01*
X167636658Y-140020182D01*
X167585620Y-140012099D01*
X167414380Y-140012099D01*
X167375173Y-140018308D01*
X167245252Y-140038886D01*
X167082388Y-140091804D01*
X166929814Y-140169544D01*
X166929811Y-140169545D01*
X166826039Y-140244941D01*
X166791281Y-140270195D01*
X166791279Y-140270197D01*
X166791278Y-140270197D01*
X166670198Y-140391277D01*
X166670198Y-140391278D01*
X166670196Y-140391280D01*
X166652062Y-140416239D01*
X166569546Y-140529810D01*
X166569545Y-140529813D01*
X166491805Y-140682387D01*
X166438887Y-140845251D01*
X166424416Y-140936621D01*
X166412100Y-141014379D01*
X115995517Y-141014379D01*
X116030104Y-140979792D01*
X116042954Y-140962104D01*
X116061470Y-140936621D01*
X116127855Y-140845248D01*
X116155051Y-140807816D01*
X116251557Y-140618412D01*
X116317246Y-140416243D01*
X116350500Y-140206287D01*
X116350500Y-139993713D01*
X116317246Y-139783757D01*
X116251557Y-139581588D01*
X116155051Y-139392184D01*
X116155049Y-139392181D01*
X116155048Y-139392179D01*
X116030109Y-139220213D01*
X115879786Y-139069890D01*
X115707820Y-138944951D01*
X115518414Y-138848444D01*
X115518413Y-138848443D01*
X115518412Y-138848443D01*
X115316243Y-138782754D01*
X115316241Y-138782753D01*
X115316240Y-138782753D01*
X115154957Y-138757208D01*
X115106287Y-138749500D01*
X114893713Y-138749500D01*
X114845042Y-138757208D01*
X114683760Y-138782753D01*
X114481585Y-138848444D01*
X114292179Y-138944951D01*
X114120213Y-139069890D01*
X113969890Y-139220213D01*
X113844951Y-139392179D01*
X113748444Y-139581585D01*
X113682753Y-139783760D01*
X113649500Y-139993713D01*
X103900500Y-139993713D01*
X103900500Y-137997771D01*
X166462100Y-137997771D01*
X166462100Y-138202228D01*
X166501984Y-138402736D01*
X166501987Y-138402748D01*
X166580223Y-138591628D01*
X166580225Y-138591632D01*
X166693806Y-138761618D01*
X166693812Y-138761626D01*
X166838373Y-138906187D01*
X166838381Y-138906193D01*
X167008367Y-139019774D01*
X167008371Y-139019776D01*
X167197251Y-139098012D01*
X167197256Y-139098014D01*
X167397771Y-139137899D01*
X167397774Y-139137900D01*
X167397776Y-139137900D01*
X167602226Y-139137900D01*
X167602227Y-139137899D01*
X167802744Y-139098014D01*
X167991630Y-139019775D01*
X167991632Y-139019774D01*
X168103616Y-138944949D01*
X168161623Y-138906190D01*
X168306190Y-138761623D01*
X168419775Y-138591630D01*
X168498014Y-138402744D01*
X168537900Y-138202224D01*
X168537900Y-137997776D01*
X168537900Y-137997773D01*
X168537899Y-137997771D01*
X168498015Y-137797263D01*
X168498014Y-137797256D01*
X168428942Y-137630500D01*
X168419776Y-137608371D01*
X168419774Y-137608367D01*
X168306193Y-137438381D01*
X168306187Y-137438373D01*
X168161626Y-137293812D01*
X168161618Y-137293806D01*
X167991632Y-137180225D01*
X167991628Y-137180223D01*
X167802748Y-137101987D01*
X167802736Y-137101984D01*
X167602227Y-137062100D01*
X167602224Y-137062100D01*
X167397776Y-137062100D01*
X167397773Y-137062100D01*
X167197263Y-137101984D01*
X167197251Y-137101987D01*
X167008371Y-137180223D01*
X167008367Y-137180225D01*
X166838381Y-137293806D01*
X166838373Y-137293812D01*
X166693812Y-137438373D01*
X166693806Y-137438381D01*
X166580225Y-137608367D01*
X166580223Y-137608371D01*
X166501987Y-137797251D01*
X166501984Y-137797263D01*
X166462100Y-137997771D01*
X103900500Y-137997771D01*
X103900500Y-136950943D01*
X146209500Y-136950943D01*
X146209500Y-137109057D01*
X146228570Y-137180225D01*
X146250423Y-137261783D01*
X146250426Y-137261790D01*
X146329475Y-137398709D01*
X146329479Y-137398714D01*
X146329480Y-137398716D01*
X146441284Y-137510520D01*
X146441286Y-137510521D01*
X146441290Y-137510524D01*
X146578209Y-137589573D01*
X146578216Y-137589577D01*
X146730943Y-137630500D01*
X146730945Y-137630500D01*
X146889055Y-137630500D01*
X146889057Y-137630500D01*
X147041784Y-137589577D01*
X147178716Y-137510520D01*
X147290520Y-137398716D01*
X147369577Y-137261784D01*
X147410500Y-137109057D01*
X147410500Y-136950943D01*
X147369577Y-136798216D01*
X147300585Y-136678717D01*
X147290524Y-136661290D01*
X147290518Y-136661282D01*
X147178717Y-136549481D01*
X147178709Y-136549475D01*
X147041790Y-136470426D01*
X147041786Y-136470424D01*
X147041784Y-136470423D01*
X146889057Y-136429500D01*
X146730943Y-136429500D01*
X146578216Y-136470423D01*
X146578209Y-136470426D01*
X146441290Y-136549475D01*
X146441282Y-136549481D01*
X146329481Y-136661282D01*
X146329475Y-136661290D01*
X146250426Y-136798209D01*
X146250423Y-136798216D01*
X146209500Y-136950943D01*
X103900500Y-136950943D01*
X103900500Y-136230943D01*
X150099500Y-136230943D01*
X150099500Y-136389056D01*
X150140423Y-136541783D01*
X150140426Y-136541790D01*
X150219475Y-136678709D01*
X150219479Y-136678714D01*
X150219480Y-136678716D01*
X150331284Y-136790520D01*
X150331286Y-136790521D01*
X150331290Y-136790524D01*
X150468209Y-136869573D01*
X150468216Y-136869577D01*
X150620943Y-136910500D01*
X150620945Y-136910500D01*
X150779055Y-136910500D01*
X150779057Y-136910500D01*
X150931784Y-136869577D01*
X151068716Y-136790520D01*
X151180520Y-136678716D01*
X151259577Y-136541784D01*
X151300500Y-136389057D01*
X151300500Y-136230943D01*
X151259577Y-136078216D01*
X151200503Y-135975896D01*
X151180524Y-135941290D01*
X151180518Y-135941282D01*
X151068717Y-135829481D01*
X151068709Y-135829475D01*
X150931790Y-135750426D01*
X150931786Y-135750424D01*
X150931784Y-135750423D01*
X150779057Y-135709500D01*
X150620943Y-135709500D01*
X150468216Y-135750423D01*
X150468209Y-135750426D01*
X150331290Y-135829475D01*
X150331282Y-135829481D01*
X150219481Y-135941282D01*
X150219475Y-135941290D01*
X150140426Y-136078209D01*
X150140423Y-136078216D01*
X150099500Y-136230943D01*
X103900500Y-136230943D01*
X103900500Y-135127525D01*
X129009500Y-135127525D01*
X129009500Y-135272475D01*
X129047016Y-135412485D01*
X129047017Y-135412488D01*
X129119488Y-135538011D01*
X129119490Y-135538013D01*
X129119491Y-135538015D01*
X129221985Y-135640509D01*
X129221986Y-135640510D01*
X129221988Y-135640511D01*
X129347511Y-135712982D01*
X129347512Y-135712982D01*
X129347515Y-135712984D01*
X129487525Y-135750500D01*
X129487528Y-135750500D01*
X129632472Y-135750500D01*
X129632475Y-135750500D01*
X129772485Y-135712984D01*
X129898015Y-135640509D01*
X130000509Y-135538015D01*
X130072984Y-135412485D01*
X130110500Y-135272475D01*
X130110500Y-135189719D01*
X168549100Y-135189719D01*
X168584105Y-135365695D01*
X168584108Y-135365705D01*
X168652768Y-135531467D01*
X168652775Y-135531480D01*
X168752458Y-135680665D01*
X168752461Y-135680669D01*
X168879332Y-135807540D01*
X168879336Y-135807543D01*
X169028521Y-135907226D01*
X169028534Y-135907233D01*
X169194296Y-135975893D01*
X169194301Y-135975895D01*
X169194305Y-135975895D01*
X169194306Y-135975896D01*
X169370282Y-136010901D01*
X169370285Y-136010901D01*
X169549719Y-136010901D01*
X169668111Y-135987350D01*
X169725701Y-135975895D01*
X169891474Y-135907230D01*
X170040666Y-135807543D01*
X170167543Y-135680666D01*
X170267230Y-135531474D01*
X170335895Y-135365701D01*
X170370901Y-135189717D01*
X170370901Y-135010285D01*
X170370901Y-135010282D01*
X170335896Y-134834306D01*
X170335895Y-134834305D01*
X170335895Y-134834301D01*
X170304907Y-134759488D01*
X170267233Y-134668534D01*
X170267226Y-134668521D01*
X170167543Y-134519336D01*
X170167540Y-134519332D01*
X170040669Y-134392461D01*
X170040665Y-134392458D01*
X169891480Y-134292775D01*
X169891467Y-134292768D01*
X169725705Y-134224108D01*
X169725695Y-134224105D01*
X169549719Y-134189101D01*
X169549717Y-134189101D01*
X169370285Y-134189101D01*
X169370283Y-134189101D01*
X169194306Y-134224105D01*
X169194296Y-134224108D01*
X169028534Y-134292768D01*
X169028521Y-134292775D01*
X168879336Y-134392458D01*
X168879332Y-134392461D01*
X168752461Y-134519332D01*
X168752458Y-134519336D01*
X168652775Y-134668521D01*
X168652768Y-134668534D01*
X168584108Y-134834296D01*
X168584105Y-134834306D01*
X168549101Y-135010282D01*
X168549101Y-135010285D01*
X168549101Y-135189717D01*
X168549101Y-135189719D01*
X168549100Y-135189719D01*
X130110500Y-135189719D01*
X130110500Y-135127525D01*
X130072984Y-134987515D01*
X130000509Y-134861985D01*
X129898015Y-134759491D01*
X129898013Y-134759490D01*
X129898011Y-134759488D01*
X129772488Y-134687017D01*
X129772489Y-134687017D01*
X129748167Y-134680500D01*
X129632475Y-134649500D01*
X129487525Y-134649500D01*
X129371833Y-134680500D01*
X129347511Y-134687017D01*
X129221988Y-134759488D01*
X129221982Y-134759493D01*
X129119493Y-134861982D01*
X129119488Y-134861988D01*
X129047017Y-134987511D01*
X129047016Y-134987515D01*
X129009500Y-135127525D01*
X103900500Y-135127525D01*
X103900500Y-133907525D01*
X124389500Y-133907525D01*
X124389500Y-134052475D01*
X124426109Y-134189101D01*
X124427017Y-134192488D01*
X124499488Y-134318011D01*
X124499490Y-134318013D01*
X124499491Y-134318015D01*
X124601985Y-134420509D01*
X124601986Y-134420510D01*
X124601988Y-134420511D01*
X124727511Y-134492982D01*
X124727512Y-134492982D01*
X124727515Y-134492984D01*
X124867525Y-134530500D01*
X124867528Y-134530500D01*
X125012472Y-134530500D01*
X125012475Y-134530500D01*
X125152485Y-134492984D01*
X125278015Y-134420509D01*
X125380509Y-134318015D01*
X125452984Y-134192485D01*
X125489147Y-134057525D01*
X127979500Y-134057525D01*
X127979500Y-134202475D01*
X128010460Y-134318017D01*
X128017017Y-134342488D01*
X128089488Y-134468011D01*
X128089490Y-134468013D01*
X128089491Y-134468015D01*
X128191985Y-134570509D01*
X128191986Y-134570510D01*
X128191988Y-134570511D01*
X128317511Y-134642982D01*
X128317512Y-134642982D01*
X128317515Y-134642984D01*
X128457525Y-134680500D01*
X128457528Y-134680500D01*
X128602472Y-134680500D01*
X128602475Y-134680500D01*
X128742485Y-134642984D01*
X128868015Y-134570509D01*
X128970509Y-134468015D01*
X129042984Y-134342485D01*
X129063070Y-134267525D01*
X149139500Y-134267525D01*
X149139500Y-134412475D01*
X149154383Y-134468017D01*
X149177017Y-134552488D01*
X149249488Y-134678011D01*
X149249490Y-134678013D01*
X149249491Y-134678015D01*
X149351985Y-134780509D01*
X149351986Y-134780510D01*
X149351988Y-134780511D01*
X149477511Y-134852982D01*
X149477512Y-134852982D01*
X149477515Y-134852984D01*
X149617525Y-134890500D01*
X149617528Y-134890500D01*
X149762473Y-134890500D01*
X149762475Y-134890500D01*
X149902485Y-134852984D01*
X150028015Y-134780509D01*
X150130509Y-134678015D01*
X150202984Y-134552485D01*
X150240500Y-134412475D01*
X150240500Y-134267525D01*
X150202984Y-134127515D01*
X150130509Y-134001985D01*
X150130508Y-134001984D01*
X150126445Y-133994946D01*
X150129039Y-133993448D01*
X150109006Y-133941621D01*
X150123047Y-133873177D01*
X150144889Y-133843634D01*
X150240509Y-133748015D01*
X150312984Y-133622485D01*
X150350500Y-133482475D01*
X150350500Y-133337525D01*
X150312984Y-133197515D01*
X150240509Y-133071985D01*
X150138015Y-132969491D01*
X150138013Y-132969490D01*
X150138011Y-132969488D01*
X150012488Y-132897017D01*
X150012489Y-132897017D01*
X150001006Y-132893940D01*
X149872475Y-132859500D01*
X149727525Y-132859500D01*
X149598993Y-132893940D01*
X149587511Y-132897017D01*
X149461988Y-132969488D01*
X149461982Y-132969493D01*
X149359493Y-133071982D01*
X149359488Y-133071988D01*
X149287017Y-133197511D01*
X149287016Y-133197515D01*
X149249500Y-133337525D01*
X149249500Y-133482475D01*
X149275498Y-133579500D01*
X149287017Y-133622488D01*
X149363555Y-133755054D01*
X149360961Y-133756551D01*
X149380994Y-133808389D01*
X149366947Y-133876832D01*
X149345105Y-133906371D01*
X149249488Y-134001988D01*
X149177017Y-134127511D01*
X149177016Y-134127515D01*
X149139500Y-134267525D01*
X129063070Y-134267525D01*
X129080500Y-134202475D01*
X129080500Y-134057525D01*
X129042984Y-133917515D01*
X129037217Y-133907527D01*
X128970511Y-133791988D01*
X128970506Y-133791982D01*
X128868017Y-133689493D01*
X128868011Y-133689488D01*
X128742488Y-133617017D01*
X128742489Y-133617017D01*
X128731006Y-133613940D01*
X128602475Y-133579500D01*
X128457525Y-133579500D01*
X128328993Y-133613940D01*
X128317511Y-133617017D01*
X128191988Y-133689488D01*
X128191982Y-133689493D01*
X128089493Y-133791982D01*
X128089488Y-133791988D01*
X128017017Y-133917511D01*
X128017016Y-133917515D01*
X127979500Y-134057525D01*
X125489147Y-134057525D01*
X125490500Y-134052475D01*
X125490500Y-133907525D01*
X125452984Y-133767515D01*
X125441723Y-133748011D01*
X125380511Y-133641988D01*
X125380506Y-133641982D01*
X125278017Y-133539493D01*
X125278011Y-133539488D01*
X125152488Y-133467017D01*
X125152489Y-133467017D01*
X125141006Y-133463940D01*
X125012475Y-133429500D01*
X124867525Y-133429500D01*
X124738993Y-133463940D01*
X124727511Y-133467017D01*
X124601988Y-133539488D01*
X124601982Y-133539493D01*
X124499493Y-133641982D01*
X124499488Y-133641988D01*
X124427017Y-133767511D01*
X124427016Y-133767515D01*
X124389500Y-133907525D01*
X103900500Y-133907525D01*
X103900500Y-131650116D01*
X168588899Y-131650116D01*
X168623904Y-131826092D01*
X168623907Y-131826102D01*
X168692567Y-131991864D01*
X168692574Y-131991877D01*
X168792257Y-132141062D01*
X168792260Y-132141066D01*
X168919131Y-132267937D01*
X168919135Y-132267940D01*
X169068320Y-132367623D01*
X169068333Y-132367630D01*
X169234095Y-132436290D01*
X169234100Y-132436292D01*
X169234104Y-132436292D01*
X169234105Y-132436293D01*
X169410081Y-132471298D01*
X169410084Y-132471298D01*
X169589518Y-132471298D01*
X169707910Y-132447747D01*
X169765500Y-132436292D01*
X169931273Y-132367627D01*
X170080465Y-132267940D01*
X170207342Y-132141063D01*
X170307029Y-131991871D01*
X170375694Y-131826098D01*
X170410700Y-131650114D01*
X170410700Y-131470682D01*
X170410700Y-131470679D01*
X170375695Y-131294703D01*
X170375694Y-131294702D01*
X170375694Y-131294698D01*
X170375692Y-131294693D01*
X170307032Y-131128931D01*
X170307025Y-131128918D01*
X170207342Y-130979733D01*
X170207339Y-130979729D01*
X170080468Y-130852858D01*
X170080464Y-130852855D01*
X169931279Y-130753172D01*
X169931266Y-130753165D01*
X169765504Y-130684505D01*
X169765494Y-130684502D01*
X169589518Y-130649498D01*
X169589516Y-130649498D01*
X169410084Y-130649498D01*
X169410082Y-130649498D01*
X169234105Y-130684502D01*
X169234095Y-130684505D01*
X169068333Y-130753165D01*
X169068320Y-130753172D01*
X168919135Y-130852855D01*
X168919131Y-130852858D01*
X168792260Y-130979729D01*
X168792257Y-130979733D01*
X168692574Y-131128918D01*
X168692567Y-131128931D01*
X168623907Y-131294693D01*
X168623904Y-131294703D01*
X168588900Y-131470679D01*
X168588900Y-131470682D01*
X168588900Y-131650114D01*
X168588900Y-131650116D01*
X168588899Y-131650116D01*
X103900500Y-131650116D01*
X103900500Y-129968995D01*
X109224499Y-129968995D01*
X109251418Y-130104322D01*
X109251421Y-130104332D01*
X109304221Y-130231804D01*
X109304228Y-130231817D01*
X109380885Y-130346541D01*
X109380888Y-130346545D01*
X109478454Y-130444111D01*
X109478458Y-130444114D01*
X109593182Y-130520771D01*
X109593195Y-130520778D01*
X109720667Y-130573578D01*
X109720672Y-130573580D01*
X109720676Y-130573580D01*
X109720677Y-130573581D01*
X109856004Y-130600500D01*
X109856007Y-130600500D01*
X109993995Y-130600500D01*
X110085041Y-130582389D01*
X110129328Y-130573580D01*
X110256811Y-130520775D01*
X110371542Y-130444114D01*
X110469114Y-130346542D01*
X110545775Y-130231811D01*
X110559976Y-130197525D01*
X154849500Y-130197525D01*
X154849500Y-130342475D01*
X154881125Y-130460500D01*
X154887017Y-130482488D01*
X154959488Y-130608011D01*
X154959490Y-130608013D01*
X154959491Y-130608015D01*
X155061985Y-130710509D01*
X155061986Y-130710510D01*
X155061988Y-130710511D01*
X155187511Y-130782982D01*
X155187512Y-130782982D01*
X155187515Y-130782984D01*
X155327525Y-130820500D01*
X155327528Y-130820500D01*
X155472472Y-130820500D01*
X155472475Y-130820500D01*
X155612485Y-130782984D01*
X155738015Y-130710509D01*
X155840509Y-130608015D01*
X155912984Y-130482485D01*
X155950500Y-130342475D01*
X155950500Y-130279524D01*
X155970185Y-130212485D01*
X156022989Y-130166730D01*
X156092147Y-130156786D01*
X156155703Y-130185811D01*
X156181886Y-130217523D01*
X156199491Y-130248015D01*
X156301985Y-130350509D01*
X156301986Y-130350510D01*
X156301988Y-130350511D01*
X156427511Y-130422982D01*
X156427512Y-130422982D01*
X156427515Y-130422984D01*
X156567525Y-130460500D01*
X156567528Y-130460500D01*
X156712472Y-130460500D01*
X156712475Y-130460500D01*
X156852485Y-130422984D01*
X156978015Y-130350509D01*
X157080509Y-130248015D01*
X157152984Y-130122485D01*
X157190500Y-129982475D01*
X157190500Y-129837525D01*
X157152984Y-129697515D01*
X157147904Y-129688717D01*
X157080511Y-129571988D01*
X157080506Y-129571982D01*
X156978017Y-129469493D01*
X156978011Y-129469488D01*
X156852488Y-129397017D01*
X156852489Y-129397017D01*
X156827059Y-129390203D01*
X156712475Y-129359500D01*
X156567525Y-129359500D01*
X156452941Y-129390203D01*
X156427511Y-129397017D01*
X156301988Y-129469488D01*
X156301982Y-129469493D01*
X156199493Y-129571982D01*
X156199488Y-129571988D01*
X156127017Y-129697511D01*
X156127016Y-129697515D01*
X156089500Y-129837525D01*
X156089500Y-129837527D01*
X156089500Y-129900475D01*
X156069815Y-129967514D01*
X156017011Y-130013269D01*
X155947853Y-130023213D01*
X155884297Y-129994188D01*
X155858114Y-129962476D01*
X155840513Y-129931991D01*
X155840510Y-129931988D01*
X155840509Y-129931985D01*
X155738015Y-129829491D01*
X155738013Y-129829490D01*
X155738011Y-129829488D01*
X155612488Y-129757017D01*
X155612489Y-129757017D01*
X155601006Y-129753940D01*
X155472475Y-129719500D01*
X155327525Y-129719500D01*
X155198993Y-129753940D01*
X155187511Y-129757017D01*
X155061988Y-129829488D01*
X155061982Y-129829493D01*
X154959493Y-129931982D01*
X154959488Y-129931988D01*
X154887017Y-130057511D01*
X154887016Y-130057515D01*
X154849500Y-130197525D01*
X110559976Y-130197525D01*
X110572732Y-130166730D01*
X110582999Y-130141945D01*
X110586541Y-130133390D01*
X110598580Y-130104328D01*
X110616693Y-130013269D01*
X110625500Y-129968995D01*
X110625500Y-129831004D01*
X110598581Y-129695677D01*
X110598580Y-129695676D01*
X110598580Y-129695672D01*
X110576551Y-129642488D01*
X110545778Y-129568195D01*
X110545771Y-129568182D01*
X110469114Y-129453458D01*
X110469111Y-129453454D01*
X110371545Y-129355888D01*
X110371537Y-129355882D01*
X110341708Y-129335951D01*
X110341658Y-129335918D01*
X110256816Y-129279228D01*
X110256804Y-129279221D01*
X110164392Y-129240943D01*
X116409500Y-129240943D01*
X116409500Y-129399057D01*
X116434097Y-129490852D01*
X116450423Y-129551783D01*
X116450426Y-129551790D01*
X116529475Y-129688709D01*
X116529479Y-129688714D01*
X116529480Y-129688716D01*
X116641284Y-129800520D01*
X116641286Y-129800521D01*
X116641290Y-129800524D01*
X116762513Y-129870511D01*
X116778216Y-129879577D01*
X116930943Y-129920500D01*
X116930945Y-129920500D01*
X117089055Y-129920500D01*
X117089057Y-129920500D01*
X117241784Y-129879577D01*
X117378716Y-129800520D01*
X117490520Y-129688716D01*
X117569577Y-129551784D01*
X117610500Y-129399057D01*
X117610500Y-129357525D01*
X131070499Y-129357525D01*
X131070499Y-129502475D01*
X131102395Y-129621511D01*
X131108016Y-129642488D01*
X131180487Y-129768011D01*
X131180489Y-129768013D01*
X131180490Y-129768015D01*
X131282984Y-129870509D01*
X131282985Y-129870510D01*
X131282987Y-129870511D01*
X131408510Y-129942982D01*
X131408511Y-129942982D01*
X131408514Y-129942984D01*
X131548524Y-129980500D01*
X131548527Y-129980500D01*
X131693471Y-129980500D01*
X131693474Y-129980500D01*
X131833484Y-129942984D01*
X131959014Y-129870509D01*
X132061508Y-129768015D01*
X132133983Y-129642485D01*
X132171499Y-129502475D01*
X132171499Y-129357525D01*
X132539500Y-129357525D01*
X132539500Y-129502475D01*
X132571396Y-129621511D01*
X132577017Y-129642488D01*
X132649488Y-129768011D01*
X132649490Y-129768013D01*
X132649491Y-129768015D01*
X132751985Y-129870509D01*
X132751986Y-129870510D01*
X132751988Y-129870511D01*
X132877511Y-129942982D01*
X132877512Y-129942982D01*
X132877515Y-129942984D01*
X133017525Y-129980500D01*
X133017528Y-129980500D01*
X133162472Y-129980500D01*
X133162475Y-129980500D01*
X133302485Y-129942984D01*
X133428015Y-129870509D01*
X133530509Y-129768015D01*
X133602984Y-129642485D01*
X133640500Y-129502475D01*
X133640500Y-129357525D01*
X133602984Y-129217515D01*
X133530509Y-129091985D01*
X133428015Y-128989491D01*
X133428013Y-128989490D01*
X133428011Y-128989488D01*
X133302488Y-128917017D01*
X133302489Y-128917017D01*
X133294292Y-128914820D01*
X133162475Y-128879500D01*
X133017525Y-128879500D01*
X132888993Y-128913940D01*
X132877511Y-128917017D01*
X132751988Y-128989488D01*
X132751982Y-128989493D01*
X132649493Y-129091982D01*
X132649488Y-129091988D01*
X132577017Y-129217511D01*
X132577016Y-129217515D01*
X132539500Y-129357525D01*
X132171499Y-129357525D01*
X132133983Y-129217515D01*
X132061508Y-129091985D01*
X131959014Y-128989491D01*
X131959012Y-128989490D01*
X131959010Y-128989488D01*
X131833487Y-128917017D01*
X131833488Y-128917017D01*
X131822005Y-128913940D01*
X131693474Y-128879500D01*
X131548524Y-128879500D01*
X131419992Y-128913940D01*
X131408510Y-128917017D01*
X131282987Y-128989488D01*
X131282981Y-128989493D01*
X131180492Y-129091982D01*
X131180487Y-129091988D01*
X131108016Y-129217511D01*
X131108015Y-129217515D01*
X131070499Y-129357525D01*
X117610500Y-129357525D01*
X117610500Y-129240943D01*
X117569577Y-129088216D01*
X117512577Y-128989488D01*
X117490524Y-128951290D01*
X117490518Y-128951282D01*
X117378717Y-128839481D01*
X117378709Y-128839475D01*
X117277327Y-128780943D01*
X154779500Y-128780943D01*
X154779500Y-128939057D01*
X154793015Y-128989493D01*
X154820423Y-129091783D01*
X154820426Y-129091790D01*
X154899475Y-129228709D01*
X154899479Y-129228714D01*
X154899480Y-129228716D01*
X155011284Y-129340520D01*
X155011286Y-129340521D01*
X155011290Y-129340524D01*
X155112672Y-129399056D01*
X155148216Y-129419577D01*
X155300943Y-129460500D01*
X155300945Y-129460500D01*
X155459055Y-129460500D01*
X155459057Y-129460500D01*
X155611784Y-129419577D01*
X155748716Y-129340520D01*
X155860520Y-129228716D01*
X155939577Y-129091784D01*
X155980500Y-128939057D01*
X155980500Y-128780943D01*
X155939577Y-128628216D01*
X155883972Y-128531904D01*
X155860522Y-128491287D01*
X155860518Y-128491282D01*
X155844015Y-128474779D01*
X166451899Y-128474779D01*
X166451899Y-128646019D01*
X166478687Y-128815150D01*
X166531603Y-128978008D01*
X166589577Y-129091790D01*
X166609344Y-129130584D01*
X166609345Y-129130587D01*
X166651191Y-129188181D01*
X166709995Y-129269118D01*
X166831080Y-129390203D01*
X166871510Y-129419577D01*
X166969610Y-129490852D01*
X166969611Y-129490852D01*
X166969615Y-129490855D01*
X167122190Y-129568595D01*
X167285048Y-129621511D01*
X167454179Y-129648299D01*
X167454180Y-129648299D01*
X167625418Y-129648299D01*
X167625419Y-129648299D01*
X167794550Y-129621511D01*
X167957408Y-129568595D01*
X168109983Y-129490855D01*
X168248518Y-129390203D01*
X168369603Y-129269118D01*
X168470255Y-129130583D01*
X168547995Y-128978008D01*
X168600911Y-128815150D01*
X168627699Y-128646019D01*
X168627699Y-128474779D01*
X168600911Y-128305648D01*
X168547995Y-128142790D01*
X168470255Y-127990215D01*
X168470252Y-127990211D01*
X168470252Y-127990210D01*
X168441033Y-127949995D01*
X168369603Y-127851680D01*
X168248518Y-127730595D01*
X168156612Y-127663821D01*
X168109987Y-127629945D01*
X168109984Y-127629944D01*
X168109985Y-127629944D01*
X168109983Y-127629943D01*
X167957408Y-127552203D01*
X167794550Y-127499287D01*
X167794548Y-127499286D01*
X167794546Y-127499286D01*
X167676457Y-127480582D01*
X167625419Y-127472499D01*
X167454179Y-127472499D01*
X167414972Y-127478708D01*
X167285051Y-127499286D01*
X167122187Y-127552204D01*
X166969613Y-127629944D01*
X166969610Y-127629945D01*
X166891391Y-127686776D01*
X166831080Y-127730595D01*
X166831078Y-127730597D01*
X166831077Y-127730597D01*
X166709997Y-127851677D01*
X166709997Y-127851678D01*
X166709995Y-127851680D01*
X166707812Y-127854685D01*
X166609345Y-127990210D01*
X166609344Y-127990213D01*
X166531604Y-128142787D01*
X166478686Y-128305651D01*
X166471268Y-128352488D01*
X166451899Y-128474779D01*
X155844015Y-128474779D01*
X155748717Y-128379481D01*
X155748709Y-128379475D01*
X155611790Y-128300426D01*
X155611786Y-128300424D01*
X155611784Y-128300423D01*
X155459057Y-128259500D01*
X155300943Y-128259500D01*
X155148216Y-128300423D01*
X155148209Y-128300426D01*
X155011290Y-128379475D01*
X155011282Y-128379481D01*
X154899481Y-128491282D01*
X154899475Y-128491290D01*
X154820426Y-128628209D01*
X154820423Y-128628216D01*
X154779500Y-128780943D01*
X117277327Y-128780943D01*
X117241790Y-128760426D01*
X117241786Y-128760424D01*
X117241784Y-128760423D01*
X117089057Y-128719500D01*
X116930943Y-128719500D01*
X116778216Y-128760423D01*
X116778209Y-128760426D01*
X116641290Y-128839475D01*
X116641282Y-128839481D01*
X116529481Y-128951282D01*
X116529475Y-128951290D01*
X116450426Y-129088209D01*
X116450423Y-129088216D01*
X116409500Y-129240943D01*
X110164392Y-129240943D01*
X110129332Y-129226421D01*
X110129322Y-129226418D01*
X109993995Y-129199500D01*
X109993993Y-129199500D01*
X109856007Y-129199500D01*
X109856005Y-129199500D01*
X109720677Y-129226418D01*
X109720667Y-129226421D01*
X109593195Y-129279221D01*
X109593182Y-129279228D01*
X109478458Y-129355885D01*
X109478454Y-129355888D01*
X109380888Y-129453454D01*
X109380885Y-129453458D01*
X109304228Y-129568182D01*
X109304221Y-129568195D01*
X109251421Y-129695667D01*
X109251418Y-129695677D01*
X109224500Y-129831004D01*
X109224500Y-129831007D01*
X109224500Y-129968993D01*
X109224500Y-129968995D01*
X109224499Y-129968995D01*
X103900500Y-129968995D01*
X103900500Y-128067525D01*
X128859500Y-128067525D01*
X128859500Y-128212475D01*
X128883066Y-128300423D01*
X128897017Y-128352488D01*
X128969488Y-128478011D01*
X128969490Y-128478013D01*
X128969491Y-128478015D01*
X129071985Y-128580509D01*
X129071986Y-128580510D01*
X129071988Y-128580511D01*
X129197511Y-128652982D01*
X129197512Y-128652982D01*
X129197515Y-128652984D01*
X129337525Y-128690500D01*
X129337528Y-128690500D01*
X129482472Y-128690500D01*
X129482475Y-128690500D01*
X129622485Y-128652984D01*
X129748015Y-128580509D01*
X129850509Y-128478015D01*
X129922984Y-128352485D01*
X129960500Y-128212475D01*
X129960500Y-128067525D01*
X129922984Y-127927515D01*
X129861314Y-127820700D01*
X129844842Y-127752803D01*
X129867694Y-127686776D01*
X129922615Y-127643585D01*
X129992168Y-127636943D01*
X130030698Y-127651313D01*
X130137515Y-127712984D01*
X130277525Y-127750500D01*
X130277528Y-127750500D01*
X130422472Y-127750500D01*
X130422475Y-127750500D01*
X130562485Y-127712984D01*
X130688015Y-127640509D01*
X130790509Y-127538015D01*
X130862984Y-127412485D01*
X130900500Y-127272475D01*
X130900500Y-127216055D01*
X143803701Y-127216055D01*
X143803701Y-127374169D01*
X143830049Y-127472499D01*
X143844624Y-127526895D01*
X143844627Y-127526902D01*
X143923676Y-127663821D01*
X143923680Y-127663826D01*
X143923681Y-127663828D01*
X144035485Y-127775632D01*
X144035487Y-127775633D01*
X144035491Y-127775636D01*
X144081130Y-127801985D01*
X144172417Y-127854689D01*
X144325144Y-127895612D01*
X144325146Y-127895612D01*
X144483256Y-127895612D01*
X144483258Y-127895612D01*
X144635985Y-127854689D01*
X144772917Y-127775632D01*
X144884721Y-127663828D01*
X144963778Y-127526896D01*
X145004701Y-127374169D01*
X145004701Y-127216055D01*
X144963778Y-127063328D01*
X144920008Y-126987515D01*
X144884725Y-126926402D01*
X144884719Y-126926394D01*
X144772918Y-126814593D01*
X144772910Y-126814587D01*
X144662674Y-126750943D01*
X147779500Y-126750943D01*
X147779500Y-126909057D01*
X147795299Y-126968017D01*
X147820423Y-127061783D01*
X147820426Y-127061790D01*
X147899475Y-127198709D01*
X147899479Y-127198714D01*
X147899480Y-127198716D01*
X148011284Y-127310520D01*
X148011286Y-127310521D01*
X148011290Y-127310524D01*
X148121528Y-127374169D01*
X148148216Y-127389577D01*
X148300943Y-127430500D01*
X148300945Y-127430500D01*
X148459055Y-127430500D01*
X148459057Y-127430500D01*
X148611784Y-127389577D01*
X148748716Y-127310520D01*
X148860520Y-127198716D01*
X148939577Y-127061784D01*
X148980500Y-126909057D01*
X148980500Y-126750943D01*
X148939577Y-126598216D01*
X148922475Y-126568594D01*
X148860524Y-126461290D01*
X148860518Y-126461282D01*
X148748717Y-126349481D01*
X148748709Y-126349475D01*
X148611790Y-126270426D01*
X148611786Y-126270424D01*
X148611784Y-126270423D01*
X148459057Y-126229500D01*
X148300943Y-126229500D01*
X148148216Y-126270423D01*
X148148209Y-126270426D01*
X148011290Y-126349475D01*
X148011282Y-126349481D01*
X147899481Y-126461282D01*
X147899475Y-126461290D01*
X147820426Y-126598209D01*
X147820423Y-126598216D01*
X147779500Y-126750943D01*
X144662674Y-126750943D01*
X144635991Y-126735538D01*
X144635987Y-126735536D01*
X144635985Y-126735535D01*
X144483258Y-126694612D01*
X144325144Y-126694612D01*
X144172417Y-126735535D01*
X144172410Y-126735538D01*
X144035491Y-126814587D01*
X144035483Y-126814593D01*
X143923682Y-126926394D01*
X143923676Y-126926402D01*
X143844627Y-127063321D01*
X143844624Y-127063328D01*
X143803701Y-127216055D01*
X130900500Y-127216055D01*
X130900500Y-127127525D01*
X130862984Y-126987515D01*
X130851723Y-126968011D01*
X130790511Y-126861988D01*
X130790506Y-126861982D01*
X130688017Y-126759493D01*
X130688011Y-126759488D01*
X130562488Y-126687017D01*
X130562489Y-126687017D01*
X130551006Y-126683940D01*
X130422475Y-126649500D01*
X130277525Y-126649500D01*
X130148993Y-126683940D01*
X130137511Y-126687017D01*
X130011988Y-126759488D01*
X130011982Y-126759493D01*
X129909493Y-126861982D01*
X129909488Y-126861988D01*
X129837017Y-126987511D01*
X129837016Y-126987515D01*
X129799500Y-127127525D01*
X129799500Y-127272475D01*
X129830878Y-127389577D01*
X129837017Y-127412488D01*
X129898684Y-127519297D01*
X129915157Y-127587197D01*
X129892305Y-127653224D01*
X129837384Y-127696414D01*
X129767830Y-127703056D01*
X129729297Y-127688684D01*
X129622488Y-127627017D01*
X129622489Y-127627017D01*
X129611006Y-127623940D01*
X129482475Y-127589500D01*
X129337525Y-127589500D01*
X129208993Y-127623940D01*
X129197511Y-127627017D01*
X129071988Y-127699488D01*
X129071982Y-127699493D01*
X128969493Y-127801982D01*
X128969488Y-127801988D01*
X128897017Y-127927511D01*
X128897016Y-127927515D01*
X128859500Y-128067525D01*
X103900500Y-128067525D01*
X103900500Y-125568995D01*
X109224499Y-125568995D01*
X109251418Y-125704322D01*
X109251421Y-125704332D01*
X109304221Y-125831804D01*
X109304228Y-125831817D01*
X109380885Y-125946541D01*
X109380888Y-125946545D01*
X109478454Y-126044111D01*
X109478458Y-126044114D01*
X109593182Y-126120771D01*
X109593195Y-126120778D01*
X109720667Y-126173578D01*
X109720672Y-126173580D01*
X109720676Y-126173580D01*
X109720677Y-126173581D01*
X109856004Y-126200500D01*
X109856007Y-126200500D01*
X109993995Y-126200500D01*
X110085041Y-126182389D01*
X110129328Y-126173580D01*
X110233120Y-126130588D01*
X110256804Y-126120778D01*
X110256804Y-126120777D01*
X110256811Y-126120775D01*
X110371542Y-126044114D01*
X110469114Y-125946542D01*
X110545775Y-125831811D01*
X110598580Y-125704328D01*
X110610178Y-125646020D01*
X110625500Y-125568995D01*
X110625500Y-125431004D01*
X110598581Y-125295677D01*
X110598580Y-125295676D01*
X110598580Y-125295672D01*
X110582779Y-125257525D01*
X128919500Y-125257525D01*
X128919500Y-125402475D01*
X128957016Y-125542485D01*
X128957017Y-125542488D01*
X129029488Y-125668011D01*
X129029490Y-125668013D01*
X129029491Y-125668015D01*
X129131985Y-125770509D01*
X129131986Y-125770510D01*
X129131988Y-125770511D01*
X129257511Y-125842982D01*
X129257512Y-125842982D01*
X129257515Y-125842984D01*
X129397525Y-125880500D01*
X129397528Y-125880500D01*
X129542472Y-125880500D01*
X129542475Y-125880500D01*
X129682485Y-125842984D01*
X129808015Y-125770509D01*
X129910509Y-125668015D01*
X129982984Y-125542485D01*
X130020500Y-125402475D01*
X130020500Y-125277525D01*
X156489500Y-125277525D01*
X156489500Y-125422475D01*
X156521657Y-125542485D01*
X156527017Y-125562488D01*
X156599488Y-125688011D01*
X156599490Y-125688013D01*
X156599491Y-125688015D01*
X156701985Y-125790509D01*
X156701986Y-125790510D01*
X156701988Y-125790511D01*
X156827511Y-125862982D01*
X156827512Y-125862982D01*
X156827515Y-125862984D01*
X156948160Y-125895311D01*
X157007818Y-125931674D01*
X157038347Y-125994521D01*
X157030052Y-126063896D01*
X156985567Y-126117774D01*
X156978065Y-126122470D01*
X156861991Y-126189487D01*
X156861982Y-126189493D01*
X156759493Y-126291982D01*
X156759488Y-126291988D01*
X156687017Y-126417511D01*
X156687016Y-126417515D01*
X156649500Y-126557525D01*
X156649500Y-126702475D01*
X156687016Y-126842485D01*
X156687017Y-126842488D01*
X156759488Y-126968011D01*
X156759490Y-126968013D01*
X156759491Y-126968015D01*
X156861985Y-127070509D01*
X156861986Y-127070510D01*
X156861988Y-127070511D01*
X156987511Y-127142982D01*
X156987512Y-127142982D01*
X156987515Y-127142984D01*
X157127525Y-127180500D01*
X157127528Y-127180500D01*
X157272472Y-127180500D01*
X157272475Y-127180500D01*
X157412485Y-127142984D01*
X157538015Y-127070509D01*
X157640509Y-126968015D01*
X157712984Y-126842485D01*
X157750500Y-126702475D01*
X157750500Y-126557525D01*
X157712984Y-126417515D01*
X157697214Y-126390201D01*
X157640511Y-126291988D01*
X157640506Y-126291982D01*
X157538017Y-126189493D01*
X157538011Y-126189488D01*
X157412488Y-126117017D01*
X157412489Y-126117017D01*
X157402945Y-126114459D01*
X157291838Y-126084688D01*
X157232181Y-126048325D01*
X157201652Y-125985478D01*
X157209947Y-125916102D01*
X157254432Y-125862224D01*
X157261935Y-125857528D01*
X157378015Y-125790509D01*
X157480509Y-125688015D01*
X157552984Y-125562485D01*
X157576485Y-125474780D01*
X166451899Y-125474780D01*
X166451899Y-125646019D01*
X166474783Y-125790506D01*
X166478687Y-125815151D01*
X166531603Y-125978009D01*
X166604345Y-126120775D01*
X166609344Y-126130585D01*
X166609345Y-126130588D01*
X166640582Y-126173581D01*
X166709995Y-126269119D01*
X166831080Y-126390204D01*
X166909287Y-126447025D01*
X166969610Y-126490853D01*
X166969611Y-126490853D01*
X166969615Y-126490856D01*
X167122190Y-126568596D01*
X167285048Y-126621512D01*
X167454179Y-126648300D01*
X167454180Y-126648300D01*
X167625418Y-126648300D01*
X167625419Y-126648300D01*
X167794550Y-126621512D01*
X167957408Y-126568596D01*
X168109983Y-126490856D01*
X168248518Y-126390204D01*
X168369603Y-126269119D01*
X168470255Y-126130584D01*
X168547995Y-125978009D01*
X168600911Y-125815151D01*
X168627699Y-125646020D01*
X168627699Y-125474780D01*
X168600911Y-125305649D01*
X168547995Y-125142791D01*
X168470255Y-124990216D01*
X168470252Y-124990212D01*
X168470252Y-124990211D01*
X168417799Y-124918017D01*
X168369603Y-124851681D01*
X168248518Y-124730596D01*
X168183447Y-124683319D01*
X168109987Y-124629946D01*
X168109984Y-124629945D01*
X168109985Y-124629945D01*
X168109983Y-124629944D01*
X167957965Y-124552488D01*
X167957410Y-124552205D01*
X167957409Y-124552204D01*
X167957408Y-124552204D01*
X167794550Y-124499288D01*
X167794548Y-124499287D01*
X167794546Y-124499287D01*
X167676457Y-124480583D01*
X167625419Y-124472500D01*
X167454179Y-124472500D01*
X167414972Y-124478709D01*
X167285051Y-124499287D01*
X167122187Y-124552205D01*
X166969613Y-124629945D01*
X166969610Y-124629946D01*
X166865838Y-124705342D01*
X166831080Y-124730596D01*
X166831078Y-124730598D01*
X166831077Y-124730598D01*
X166709997Y-124851678D01*
X166709997Y-124851679D01*
X166709995Y-124851681D01*
X166689986Y-124879221D01*
X166609345Y-124990211D01*
X166609344Y-124990214D01*
X166531604Y-125142788D01*
X166478686Y-125305652D01*
X166451899Y-125474780D01*
X157576485Y-125474780D01*
X157590500Y-125422475D01*
X157590500Y-125277525D01*
X157552984Y-125137515D01*
X157485430Y-125020509D01*
X157480511Y-125011988D01*
X157480506Y-125011982D01*
X157378017Y-124909493D01*
X157378011Y-124909488D01*
X157252488Y-124837017D01*
X157252489Y-124837017D01*
X157212944Y-124826421D01*
X157112475Y-124799500D01*
X156967525Y-124799500D01*
X156867056Y-124826421D01*
X156827511Y-124837017D01*
X156701988Y-124909488D01*
X156701982Y-124909493D01*
X156599493Y-125011982D01*
X156599488Y-125011988D01*
X156527017Y-125137511D01*
X156527016Y-125137515D01*
X156489500Y-125277525D01*
X130020500Y-125277525D01*
X130020500Y-125257525D01*
X129982984Y-125117515D01*
X129945998Y-125053454D01*
X129910511Y-124991988D01*
X129910506Y-124991982D01*
X129808017Y-124889493D01*
X129808011Y-124889488D01*
X129682488Y-124817017D01*
X129682489Y-124817017D01*
X129671006Y-124813940D01*
X129542475Y-124779500D01*
X129397525Y-124779500D01*
X129268993Y-124813940D01*
X129257511Y-124817017D01*
X129131988Y-124889488D01*
X129131982Y-124889493D01*
X129029493Y-124991982D01*
X129029488Y-124991988D01*
X128957017Y-125117511D01*
X128957016Y-125117515D01*
X128919500Y-125257525D01*
X110582779Y-125257525D01*
X110567142Y-125219774D01*
X110545778Y-125168195D01*
X110545771Y-125168182D01*
X110469114Y-125053458D01*
X110469111Y-125053454D01*
X110371545Y-124955888D01*
X110371541Y-124955885D01*
X110256817Y-124879228D01*
X110256804Y-124879221D01*
X110129332Y-124826421D01*
X110129322Y-124826418D01*
X109993995Y-124799500D01*
X109993993Y-124799500D01*
X109856007Y-124799500D01*
X109856005Y-124799500D01*
X109720677Y-124826418D01*
X109720667Y-124826421D01*
X109593195Y-124879221D01*
X109593182Y-124879228D01*
X109478458Y-124955885D01*
X109478454Y-124955888D01*
X109380888Y-125053454D01*
X109380885Y-125053458D01*
X109304228Y-125168182D01*
X109304221Y-125168195D01*
X109251421Y-125295667D01*
X109251418Y-125295677D01*
X109224500Y-125431004D01*
X109224500Y-125431007D01*
X109224500Y-125568993D01*
X109224500Y-125568995D01*
X109224499Y-125568995D01*
X103900500Y-125568995D01*
X103900500Y-124507525D01*
X146339500Y-124507525D01*
X146339500Y-124652475D01*
X146362660Y-124738908D01*
X146377017Y-124792488D01*
X146449488Y-124918011D01*
X146449490Y-124918013D01*
X146449491Y-124918015D01*
X146551985Y-125020509D01*
X146551986Y-125020510D01*
X146551988Y-125020511D01*
X146677511Y-125092982D01*
X146677512Y-125092982D01*
X146677515Y-125092984D01*
X146817525Y-125130500D01*
X146817528Y-125130500D01*
X146962472Y-125130500D01*
X146962475Y-125130500D01*
X147102485Y-125092984D01*
X147228015Y-125020509D01*
X147330509Y-124918015D01*
X147402984Y-124792485D01*
X147417340Y-124738904D01*
X147453703Y-124679247D01*
X147516549Y-124648717D01*
X147585925Y-124657011D01*
X147624795Y-124683319D01*
X147721985Y-124780509D01*
X147721986Y-124780510D01*
X147721988Y-124780511D01*
X147847511Y-124852982D01*
X147847512Y-124852982D01*
X147847515Y-124852984D01*
X147987525Y-124890500D01*
X147987528Y-124890500D01*
X148132472Y-124890500D01*
X148132475Y-124890500D01*
X148272485Y-124852984D01*
X148398015Y-124780509D01*
X148500509Y-124678015D01*
X148572984Y-124552485D01*
X148610500Y-124412475D01*
X148610500Y-124267525D01*
X148572984Y-124127515D01*
X148538055Y-124067017D01*
X148500511Y-124001988D01*
X148500506Y-124001982D01*
X148398017Y-123899493D01*
X148398011Y-123899488D01*
X148392879Y-123896525D01*
X154013500Y-123896525D01*
X154013500Y-124041475D01*
X154047406Y-124168011D01*
X154051017Y-124181488D01*
X154123488Y-124307011D01*
X154123490Y-124307013D01*
X154123491Y-124307015D01*
X154225985Y-124409509D01*
X154225986Y-124409510D01*
X154225988Y-124409511D01*
X154351511Y-124481982D01*
X154351512Y-124481982D01*
X154351515Y-124481984D01*
X154491525Y-124519500D01*
X154491528Y-124519500D01*
X154636472Y-124519500D01*
X154636475Y-124519500D01*
X154776485Y-124481984D01*
X154902015Y-124409509D01*
X155004509Y-124307015D01*
X155076984Y-124181485D01*
X155100680Y-124093047D01*
X155137044Y-124033390D01*
X155199891Y-124002861D01*
X155269266Y-124011155D01*
X155323144Y-124055641D01*
X155340227Y-124093047D01*
X155349464Y-124127515D01*
X155369017Y-124200488D01*
X155441488Y-124326011D01*
X155441490Y-124326013D01*
X155441491Y-124326015D01*
X155543985Y-124428509D01*
X155543986Y-124428510D01*
X155543988Y-124428511D01*
X155669511Y-124500982D01*
X155669512Y-124500982D01*
X155669515Y-124500984D01*
X155809525Y-124538500D01*
X155809528Y-124538500D01*
X155954472Y-124538500D01*
X155954475Y-124538500D01*
X156094485Y-124500984D01*
X156220015Y-124428509D01*
X156322509Y-124326015D01*
X156394984Y-124200485D01*
X156432500Y-124060475D01*
X156432500Y-123915525D01*
X156394984Y-123775515D01*
X156384597Y-123757525D01*
X156322511Y-123649988D01*
X156322506Y-123649982D01*
X156220017Y-123547493D01*
X156220011Y-123547488D01*
X156094488Y-123475017D01*
X156094489Y-123475017D01*
X156083006Y-123471940D01*
X155954475Y-123437500D01*
X155809525Y-123437500D01*
X155680993Y-123471940D01*
X155669511Y-123475017D01*
X155543988Y-123547488D01*
X155543982Y-123547493D01*
X155441493Y-123649982D01*
X155441488Y-123649988D01*
X155369017Y-123775511D01*
X155345320Y-123863949D01*
X155308954Y-123923610D01*
X155246107Y-123954138D01*
X155176732Y-123945843D01*
X155122854Y-123901357D01*
X155105772Y-123863952D01*
X155076984Y-123756515D01*
X155015480Y-123649988D01*
X155004511Y-123630988D01*
X155004506Y-123630982D01*
X154902017Y-123528493D01*
X154902011Y-123528488D01*
X154776488Y-123456017D01*
X154776489Y-123456017D01*
X154765006Y-123452940D01*
X154636475Y-123418500D01*
X154491525Y-123418500D01*
X154362993Y-123452940D01*
X154351511Y-123456017D01*
X154225988Y-123528488D01*
X154225982Y-123528493D01*
X154123493Y-123630982D01*
X154123488Y-123630988D01*
X154051017Y-123756511D01*
X154051016Y-123756515D01*
X154013500Y-123896525D01*
X148392879Y-123896525D01*
X148272488Y-123827017D01*
X148272489Y-123827017D01*
X148261006Y-123823940D01*
X148132475Y-123789500D01*
X147987525Y-123789500D01*
X147858993Y-123823940D01*
X147847511Y-123827017D01*
X147721988Y-123899488D01*
X147721982Y-123899493D01*
X147619493Y-124001982D01*
X147619488Y-124001988D01*
X147547017Y-124127511D01*
X147547016Y-124127515D01*
X147536164Y-124168017D01*
X147532660Y-124181093D01*
X147496294Y-124240753D01*
X147433447Y-124271282D01*
X147364072Y-124262987D01*
X147325204Y-124236680D01*
X147228017Y-124139493D01*
X147228011Y-124139488D01*
X147102488Y-124067017D01*
X147102489Y-124067017D01*
X147078074Y-124060475D01*
X146962475Y-124029500D01*
X146817525Y-124029500D01*
X146701926Y-124060475D01*
X146677511Y-124067017D01*
X146551988Y-124139488D01*
X146551982Y-124139493D01*
X146449493Y-124241982D01*
X146449488Y-124241988D01*
X146377017Y-124367511D01*
X146377016Y-124367515D01*
X146339500Y-124507525D01*
X103900500Y-124507525D01*
X103900500Y-123757525D01*
X118547800Y-123757525D01*
X118547800Y-123902475D01*
X118585266Y-124042299D01*
X118585317Y-124042488D01*
X118657788Y-124168011D01*
X118657790Y-124168013D01*
X118657791Y-124168015D01*
X118760285Y-124270509D01*
X118760286Y-124270510D01*
X118760288Y-124270511D01*
X118885811Y-124342982D01*
X118885812Y-124342982D01*
X118885815Y-124342984D01*
X119025825Y-124380500D01*
X119025828Y-124380500D01*
X119170772Y-124380500D01*
X119170775Y-124380500D01*
X119310785Y-124342984D01*
X119436315Y-124270509D01*
X119538809Y-124168015D01*
X119590913Y-124077769D01*
X119641480Y-124029553D01*
X119710087Y-124016331D01*
X119774952Y-124042299D01*
X119805687Y-124077769D01*
X119857791Y-124168015D01*
X119960285Y-124270509D01*
X119960286Y-124270510D01*
X119960288Y-124270511D01*
X120085811Y-124342982D01*
X120085812Y-124342982D01*
X120085815Y-124342984D01*
X120225825Y-124380500D01*
X120225828Y-124380500D01*
X120370772Y-124380500D01*
X120370775Y-124380500D01*
X120510785Y-124342984D01*
X120636315Y-124270509D01*
X120701469Y-124205355D01*
X120762792Y-124171870D01*
X120832484Y-124176854D01*
X120876831Y-124205355D01*
X120967010Y-124295534D01*
X120967011Y-124295535D01*
X120967013Y-124295536D01*
X121092536Y-124368007D01*
X121092537Y-124368007D01*
X121092540Y-124368009D01*
X121232550Y-124405525D01*
X121232553Y-124405525D01*
X121377497Y-124405525D01*
X121377500Y-124405525D01*
X121517510Y-124368009D01*
X121643040Y-124295534D01*
X121745534Y-124193040D01*
X121818009Y-124067510D01*
X121855525Y-123927500D01*
X121855525Y-123782550D01*
X121818009Y-123642540D01*
X121811339Y-123630988D01*
X121745536Y-123517013D01*
X121745531Y-123517007D01*
X121643042Y-123414518D01*
X121643036Y-123414513D01*
X121517513Y-123342042D01*
X121517514Y-123342042D01*
X121506031Y-123338965D01*
X121377500Y-123304525D01*
X121232550Y-123304525D01*
X121104018Y-123338965D01*
X121092536Y-123342042D01*
X120967013Y-123414513D01*
X120967006Y-123414519D01*
X120901854Y-123479670D01*
X120840530Y-123513155D01*
X120770839Y-123508169D01*
X120726493Y-123479669D01*
X120636317Y-123389493D01*
X120636311Y-123389488D01*
X120510788Y-123317017D01*
X120510789Y-123317017D01*
X120464168Y-123304525D01*
X120370775Y-123279500D01*
X120225825Y-123279500D01*
X120132432Y-123304525D01*
X120085811Y-123317017D01*
X119960288Y-123389488D01*
X119960282Y-123389493D01*
X119857793Y-123491982D01*
X119857791Y-123491985D01*
X119805687Y-123582231D01*
X119755119Y-123630446D01*
X119686512Y-123643668D01*
X119621647Y-123617700D01*
X119590913Y-123582231D01*
X119577161Y-123558413D01*
X119538809Y-123491985D01*
X119436315Y-123389491D01*
X119436313Y-123389490D01*
X119436311Y-123389488D01*
X119310788Y-123317017D01*
X119310789Y-123317017D01*
X119264168Y-123304525D01*
X119170775Y-123279500D01*
X119025825Y-123279500D01*
X118932432Y-123304525D01*
X118885811Y-123317017D01*
X118760288Y-123389488D01*
X118760282Y-123389493D01*
X118657793Y-123491982D01*
X118657788Y-123491988D01*
X118585317Y-123617511D01*
X118585316Y-123617515D01*
X118547800Y-123757525D01*
X103900500Y-123757525D01*
X103900500Y-122427525D01*
X114899500Y-122427525D01*
X114899500Y-122572475D01*
X114923657Y-122662629D01*
X114937017Y-122712488D01*
X115009488Y-122838011D01*
X115009490Y-122838013D01*
X115009491Y-122838015D01*
X115111985Y-122940509D01*
X115111986Y-122940510D01*
X115111988Y-122940511D01*
X115237511Y-123012982D01*
X115237512Y-123012982D01*
X115237515Y-123012984D01*
X115377525Y-123050500D01*
X115377528Y-123050500D01*
X115522472Y-123050500D01*
X115522475Y-123050500D01*
X115662485Y-123012984D01*
X115788015Y-122940509D01*
X115890509Y-122838015D01*
X115962984Y-122712485D01*
X116000500Y-122572475D01*
X116000500Y-122427525D01*
X115962984Y-122287515D01*
X115962982Y-122287511D01*
X115959454Y-122281400D01*
X115959453Y-122281399D01*
X115945745Y-122257657D01*
X115928348Y-122227525D01*
X157759500Y-122227525D01*
X157759500Y-122372475D01*
X157782464Y-122458177D01*
X157797017Y-122512488D01*
X157869488Y-122638011D01*
X157869490Y-122638013D01*
X157869491Y-122638015D01*
X157971985Y-122740509D01*
X157971986Y-122740510D01*
X157971988Y-122740511D01*
X158097511Y-122812982D01*
X158097512Y-122812982D01*
X158097515Y-122812984D01*
X158237525Y-122850500D01*
X158237528Y-122850500D01*
X158382472Y-122850500D01*
X158382475Y-122850500D01*
X158522485Y-122812984D01*
X158648015Y-122740509D01*
X158750509Y-122638015D01*
X158822984Y-122512485D01*
X158837537Y-122458172D01*
X166501899Y-122458172D01*
X166501899Y-122662629D01*
X166541783Y-122863137D01*
X166541786Y-122863149D01*
X166620022Y-123052029D01*
X166620024Y-123052033D01*
X166733605Y-123222019D01*
X166733611Y-123222027D01*
X166878172Y-123366588D01*
X166878180Y-123366594D01*
X167048166Y-123480175D01*
X167048170Y-123480177D01*
X167210682Y-123547491D01*
X167237055Y-123558415D01*
X167437570Y-123598300D01*
X167437573Y-123598301D01*
X167437575Y-123598301D01*
X167642025Y-123598301D01*
X167642026Y-123598300D01*
X167842543Y-123558415D01*
X168002912Y-123491988D01*
X168031427Y-123480177D01*
X168031431Y-123480175D01*
X168129701Y-123414513D01*
X168201422Y-123366591D01*
X168345989Y-123222024D01*
X168459574Y-123052031D01*
X168537813Y-122863145D01*
X168577699Y-122662625D01*
X168577699Y-122458177D01*
X168577699Y-122458174D01*
X168577698Y-122458172D01*
X168571602Y-122427525D01*
X168537813Y-122257657D01*
X168498186Y-122161988D01*
X168459575Y-122068772D01*
X168459573Y-122068768D01*
X168345992Y-121898782D01*
X168345986Y-121898774D01*
X168201425Y-121754213D01*
X168201417Y-121754207D01*
X168031431Y-121640626D01*
X168031427Y-121640624D01*
X167842547Y-121562388D01*
X167842535Y-121562385D01*
X167642026Y-121522501D01*
X167642023Y-121522501D01*
X167437575Y-121522501D01*
X167437572Y-121522501D01*
X167237062Y-121562385D01*
X167237050Y-121562388D01*
X167048170Y-121640624D01*
X167048166Y-121640626D01*
X166878180Y-121754207D01*
X166878172Y-121754213D01*
X166733611Y-121898774D01*
X166733605Y-121898782D01*
X166620024Y-122068768D01*
X166620022Y-122068772D01*
X166541786Y-122257652D01*
X166541783Y-122257664D01*
X166501899Y-122458172D01*
X158837537Y-122458172D01*
X158860500Y-122372475D01*
X158860500Y-122227525D01*
X158822984Y-122087515D01*
X158812160Y-122068768D01*
X158750511Y-121961988D01*
X158750506Y-121961982D01*
X158648017Y-121859493D01*
X158648011Y-121859488D01*
X158522488Y-121787017D01*
X158522489Y-121787017D01*
X158511006Y-121783940D01*
X158382475Y-121749500D01*
X158237525Y-121749500D01*
X158108993Y-121783940D01*
X158097511Y-121787017D01*
X157971988Y-121859488D01*
X157971982Y-121859493D01*
X157869493Y-121961982D01*
X157869488Y-121961988D01*
X157797017Y-122087511D01*
X157797016Y-122087515D01*
X157759500Y-122227525D01*
X115928348Y-122227525D01*
X115890509Y-122161985D01*
X115788015Y-122059491D01*
X115788013Y-122059490D01*
X115788011Y-122059488D01*
X115662488Y-121987017D01*
X115662489Y-121987017D01*
X115651006Y-121983940D01*
X115522475Y-121949500D01*
X115377525Y-121949500D01*
X115248993Y-121983940D01*
X115237511Y-121987017D01*
X115111988Y-122059488D01*
X115111982Y-122059493D01*
X115009493Y-122161982D01*
X115009488Y-122161988D01*
X114937017Y-122287511D01*
X114937016Y-122287515D01*
X114899500Y-122427525D01*
X103900500Y-122427525D01*
X103900500Y-119097525D01*
X115589500Y-119097525D01*
X115589500Y-119242475D01*
X115603496Y-119294707D01*
X115627017Y-119382488D01*
X115699488Y-119508011D01*
X115699490Y-119508013D01*
X115699491Y-119508015D01*
X115801985Y-119610509D01*
X115886805Y-119659480D01*
X115918212Y-119677613D01*
X115966427Y-119728181D01*
X115979649Y-119796788D01*
X115953681Y-119861652D01*
X115918212Y-119892387D01*
X115801985Y-119959491D01*
X115801982Y-119959493D01*
X115699493Y-120061982D01*
X115699488Y-120061988D01*
X115627017Y-120187511D01*
X115627016Y-120187515D01*
X115589500Y-120327525D01*
X115589500Y-120472475D01*
X115627016Y-120612485D01*
X115627017Y-120612488D01*
X115699488Y-120738011D01*
X115699490Y-120738013D01*
X115699491Y-120738015D01*
X115801985Y-120840509D01*
X115801986Y-120840510D01*
X115801988Y-120840511D01*
X115927511Y-120912982D01*
X115927512Y-120912982D01*
X115927515Y-120912984D01*
X116067525Y-120950500D01*
X116067528Y-120950500D01*
X116212472Y-120950500D01*
X116212475Y-120950500D01*
X116352485Y-120912984D01*
X116478015Y-120840509D01*
X116580509Y-120738015D01*
X116652984Y-120612485D01*
X116690500Y-120472475D01*
X116690500Y-120327525D01*
X116652984Y-120187515D01*
X116580509Y-120061985D01*
X116579467Y-120060943D01*
X118014500Y-120060943D01*
X118014500Y-120219057D01*
X118043565Y-120327527D01*
X118055423Y-120371783D01*
X118055426Y-120371790D01*
X118134475Y-120508709D01*
X118134479Y-120508714D01*
X118134480Y-120508716D01*
X118246284Y-120620520D01*
X118246286Y-120620521D01*
X118246290Y-120620524D01*
X118383209Y-120699573D01*
X118383216Y-120699577D01*
X118535943Y-120740500D01*
X118535945Y-120740500D01*
X118694055Y-120740500D01*
X118694057Y-120740500D01*
X118846784Y-120699577D01*
X118983716Y-120620520D01*
X119095520Y-120508716D01*
X119174577Y-120371784D01*
X119215500Y-120219057D01*
X119215500Y-120060943D01*
X119174577Y-119908216D01*
X119136244Y-119841820D01*
X119095524Y-119771290D01*
X119095518Y-119771282D01*
X118983717Y-119659481D01*
X118983709Y-119659475D01*
X118967505Y-119650120D01*
X168588899Y-119650120D01*
X168623904Y-119826096D01*
X168623907Y-119826106D01*
X168692567Y-119991868D01*
X168692574Y-119991881D01*
X168792257Y-120141066D01*
X168792260Y-120141070D01*
X168919131Y-120267941D01*
X168919135Y-120267944D01*
X169068320Y-120367627D01*
X169068333Y-120367634D01*
X169234095Y-120436294D01*
X169234100Y-120436296D01*
X169234104Y-120436296D01*
X169234105Y-120436297D01*
X169410081Y-120471302D01*
X169410084Y-120471302D01*
X169589518Y-120471302D01*
X169707910Y-120447751D01*
X169765500Y-120436296D01*
X169931273Y-120367631D01*
X170080465Y-120267944D01*
X170207342Y-120141067D01*
X170307029Y-119991875D01*
X170375694Y-119826102D01*
X170399117Y-119708348D01*
X170410700Y-119650120D01*
X170410700Y-119470683D01*
X170375695Y-119294707D01*
X170375694Y-119294706D01*
X170375694Y-119294702D01*
X170354060Y-119242472D01*
X170307032Y-119128935D01*
X170307025Y-119128922D01*
X170207342Y-118979737D01*
X170207339Y-118979733D01*
X170080468Y-118852862D01*
X170080464Y-118852859D01*
X169931279Y-118753176D01*
X169931266Y-118753169D01*
X169765504Y-118684509D01*
X169765494Y-118684506D01*
X169589518Y-118649502D01*
X169589516Y-118649502D01*
X169410084Y-118649502D01*
X169410082Y-118649502D01*
X169234105Y-118684506D01*
X169234095Y-118684509D01*
X169068333Y-118753169D01*
X169068320Y-118753176D01*
X168919135Y-118852859D01*
X168919131Y-118852862D01*
X168792260Y-118979733D01*
X168792257Y-118979737D01*
X168692574Y-119128922D01*
X168692567Y-119128935D01*
X168623907Y-119294697D01*
X168623904Y-119294707D01*
X168588900Y-119470683D01*
X168588900Y-119470686D01*
X168588900Y-119650118D01*
X168588900Y-119650120D01*
X168588899Y-119650120D01*
X118967505Y-119650120D01*
X118846790Y-119580426D01*
X118846786Y-119580424D01*
X118846784Y-119580423D01*
X118694057Y-119539500D01*
X118535943Y-119539500D01*
X118383216Y-119580423D01*
X118383209Y-119580426D01*
X118246290Y-119659475D01*
X118246282Y-119659481D01*
X118134481Y-119771282D01*
X118134475Y-119771290D01*
X118055426Y-119908209D01*
X118055423Y-119908216D01*
X118014500Y-120060943D01*
X116579467Y-120060943D01*
X116478015Y-119959491D01*
X116361788Y-119892387D01*
X116313572Y-119841820D01*
X116300350Y-119773213D01*
X116326318Y-119708348D01*
X116361788Y-119677613D01*
X116393195Y-119659480D01*
X116478015Y-119610509D01*
X116580509Y-119508015D01*
X116652984Y-119382485D01*
X116690500Y-119242475D01*
X116690500Y-119097525D01*
X116652984Y-118957515D01*
X116601310Y-118868014D01*
X116580511Y-118831988D01*
X116580506Y-118831982D01*
X116478017Y-118729493D01*
X116478011Y-118729488D01*
X116352488Y-118657017D01*
X116352489Y-118657017D01*
X116341006Y-118653940D01*
X116212475Y-118619500D01*
X116067525Y-118619500D01*
X115938993Y-118653940D01*
X115927511Y-118657017D01*
X115801988Y-118729488D01*
X115801982Y-118729493D01*
X115699493Y-118831982D01*
X115699488Y-118831988D01*
X115627017Y-118957511D01*
X115627016Y-118957515D01*
X115589500Y-119097525D01*
X103900500Y-119097525D01*
X103900500Y-116930943D01*
X118024500Y-116930943D01*
X118024500Y-117089057D01*
X118064693Y-117239057D01*
X118065423Y-117241783D01*
X118065426Y-117241790D01*
X118144475Y-117378709D01*
X118144479Y-117378714D01*
X118144480Y-117378716D01*
X118256284Y-117490520D01*
X118256286Y-117490521D01*
X118256290Y-117490524D01*
X118351007Y-117545208D01*
X118393216Y-117569577D01*
X118545943Y-117610500D01*
X118545945Y-117610500D01*
X118704055Y-117610500D01*
X118704057Y-117610500D01*
X118856784Y-117569577D01*
X118993716Y-117490520D01*
X119105520Y-117378716D01*
X119184577Y-117241784D01*
X119225500Y-117089057D01*
X119225500Y-117080943D01*
X121694500Y-117080943D01*
X121694500Y-117239057D01*
X121733333Y-117383982D01*
X121735423Y-117391783D01*
X121735426Y-117391790D01*
X121814475Y-117528709D01*
X121814479Y-117528714D01*
X121814480Y-117528716D01*
X121926284Y-117640520D01*
X121926286Y-117640521D01*
X121926290Y-117640524D01*
X122063209Y-117719573D01*
X122063216Y-117719577D01*
X122215943Y-117760500D01*
X122215945Y-117760500D01*
X122374055Y-117760500D01*
X122374057Y-117760500D01*
X122526784Y-117719577D01*
X122663716Y-117640520D01*
X122775520Y-117528716D01*
X122785782Y-117510942D01*
X140153150Y-117510942D01*
X140153150Y-117669056D01*
X140177653Y-117760500D01*
X140194073Y-117821782D01*
X140194076Y-117821789D01*
X140273125Y-117958708D01*
X140273129Y-117958713D01*
X140273130Y-117958715D01*
X140384934Y-118070519D01*
X140384936Y-118070520D01*
X140384940Y-118070523D01*
X140521859Y-118149572D01*
X140521866Y-118149576D01*
X140674593Y-118190499D01*
X140674595Y-118190499D01*
X140832705Y-118190499D01*
X140832707Y-118190499D01*
X140985434Y-118149576D01*
X141042681Y-118116525D01*
X154039500Y-118116525D01*
X154039500Y-118261475D01*
X154077016Y-118401485D01*
X154077017Y-118401488D01*
X154149488Y-118527011D01*
X154149490Y-118527013D01*
X154149491Y-118527015D01*
X154251985Y-118629509D01*
X154251986Y-118629510D01*
X154251988Y-118629511D01*
X154377511Y-118701982D01*
X154377512Y-118701982D01*
X154377515Y-118701984D01*
X154517525Y-118739500D01*
X154517528Y-118739500D01*
X154662472Y-118739500D01*
X154662475Y-118739500D01*
X154780857Y-118707779D01*
X154850702Y-118709442D01*
X154908565Y-118748604D01*
X154920334Y-118765553D01*
X154979491Y-118868015D01*
X155081985Y-118970509D01*
X155081986Y-118970510D01*
X155081988Y-118970511D01*
X155207511Y-119042982D01*
X155207512Y-119042982D01*
X155207515Y-119042984D01*
X155347525Y-119080500D01*
X155347528Y-119080500D01*
X155492472Y-119080500D01*
X155492475Y-119080500D01*
X155632485Y-119042984D01*
X155758015Y-118970509D01*
X155860509Y-118868015D01*
X155932984Y-118742485D01*
X155970500Y-118602475D01*
X155970500Y-118457525D01*
X155932984Y-118317515D01*
X155906978Y-118272472D01*
X155860511Y-118191988D01*
X155860506Y-118191982D01*
X155758017Y-118089493D01*
X155758011Y-118089488D01*
X155632488Y-118017017D01*
X155632489Y-118017017D01*
X155604648Y-118009557D01*
X155492475Y-117979500D01*
X155347525Y-117979500D01*
X155229145Y-118011220D01*
X155159295Y-118009557D01*
X155101433Y-117970394D01*
X155089665Y-117953446D01*
X155072340Y-117923438D01*
X155030509Y-117850985D01*
X154928015Y-117748491D01*
X154928013Y-117748490D01*
X154928011Y-117748488D01*
X154802488Y-117676017D01*
X154802489Y-117676017D01*
X154776506Y-117669055D01*
X154662475Y-117638500D01*
X154517525Y-117638500D01*
X154403494Y-117669055D01*
X154377511Y-117676017D01*
X154251988Y-117748488D01*
X154251982Y-117748493D01*
X154149493Y-117850982D01*
X154149488Y-117850988D01*
X154077017Y-117976511D01*
X154077016Y-117976515D01*
X154039500Y-118116525D01*
X141042681Y-118116525D01*
X141122366Y-118070519D01*
X141234170Y-117958715D01*
X141313227Y-117821783D01*
X141354150Y-117669056D01*
X141354150Y-117512946D01*
X157347351Y-117512946D01*
X157347351Y-117657896D01*
X157374844Y-117760499D01*
X157384868Y-117797909D01*
X157457339Y-117923432D01*
X157457341Y-117923434D01*
X157457342Y-117923436D01*
X157559836Y-118025930D01*
X157685366Y-118098405D01*
X157767595Y-118120438D01*
X157827254Y-118156802D01*
X157857783Y-118219649D01*
X157859500Y-118240212D01*
X157859500Y-118272475D01*
X157897016Y-118412485D01*
X157897017Y-118412488D01*
X157969488Y-118538011D01*
X157969490Y-118538013D01*
X157969491Y-118538015D01*
X158071985Y-118640509D01*
X158071986Y-118640510D01*
X158071988Y-118640511D01*
X158197511Y-118712982D01*
X158197512Y-118712982D01*
X158197515Y-118712984D01*
X158337525Y-118750500D01*
X158337528Y-118750500D01*
X158482472Y-118750500D01*
X158482475Y-118750500D01*
X158622485Y-118712984D01*
X158748015Y-118640509D01*
X158850509Y-118538015D01*
X158922984Y-118412485D01*
X158960500Y-118272475D01*
X158960500Y-118127525D01*
X158922984Y-117987515D01*
X158906356Y-117958715D01*
X158850511Y-117861988D01*
X158850506Y-117861982D01*
X158748017Y-117759493D01*
X158748011Y-117759488D01*
X158622488Y-117687017D01*
X158622489Y-117687017D01*
X158599115Y-117680754D01*
X158540256Y-117664982D01*
X158480596Y-117628617D01*
X158450068Y-117565770D01*
X158448351Y-117545208D01*
X158448351Y-117512948D01*
X158448351Y-117512946D01*
X158410835Y-117372936D01*
X158375368Y-117311506D01*
X158338362Y-117247409D01*
X158338357Y-117247403D01*
X158235868Y-117144914D01*
X158235862Y-117144909D01*
X158110339Y-117072438D01*
X158110340Y-117072438D01*
X158098857Y-117069361D01*
X157970326Y-117034921D01*
X157825376Y-117034921D01*
X157696844Y-117069361D01*
X157685362Y-117072438D01*
X157559839Y-117144909D01*
X157559833Y-117144914D01*
X157457344Y-117247403D01*
X157457339Y-117247409D01*
X157384868Y-117372932D01*
X157384867Y-117372936D01*
X157347351Y-117512946D01*
X141354150Y-117512946D01*
X141354150Y-117510942D01*
X141313227Y-117358215D01*
X141249252Y-117247406D01*
X141234174Y-117221289D01*
X141234168Y-117221281D01*
X141122367Y-117109480D01*
X141122359Y-117109474D01*
X140985440Y-117030425D01*
X140985436Y-117030423D01*
X140985434Y-117030422D01*
X140832707Y-116989499D01*
X140674593Y-116989499D01*
X140521866Y-117030422D01*
X140521859Y-117030425D01*
X140384940Y-117109474D01*
X140384932Y-117109480D01*
X140273131Y-117221281D01*
X140273125Y-117221289D01*
X140194076Y-117358208D01*
X140194073Y-117358215D01*
X140153150Y-117510942D01*
X122785782Y-117510942D01*
X122854577Y-117391784D01*
X122895500Y-117239057D01*
X122895500Y-117080943D01*
X122854577Y-116928216D01*
X122821255Y-116870500D01*
X122775524Y-116791290D01*
X122775518Y-116791282D01*
X122663717Y-116679481D01*
X122663709Y-116679475D01*
X122526790Y-116600426D01*
X122526786Y-116600424D01*
X122526784Y-116600423D01*
X122374057Y-116559500D01*
X122215943Y-116559500D01*
X122063216Y-116600423D01*
X122063209Y-116600426D01*
X121926290Y-116679475D01*
X121926282Y-116679481D01*
X121814481Y-116791282D01*
X121814475Y-116791290D01*
X121735426Y-116928209D01*
X121735423Y-116928216D01*
X121694500Y-117080943D01*
X119225500Y-117080943D01*
X119225500Y-116930943D01*
X119184577Y-116778216D01*
X119138073Y-116697668D01*
X119105524Y-116641290D01*
X119105518Y-116641282D01*
X118993717Y-116529481D01*
X118993709Y-116529475D01*
X118856790Y-116450426D01*
X118856786Y-116450424D01*
X118856784Y-116450423D01*
X118704057Y-116409500D01*
X118545943Y-116409500D01*
X118393216Y-116450423D01*
X118393209Y-116450426D01*
X118256290Y-116529475D01*
X118256282Y-116529481D01*
X118144481Y-116641282D01*
X118144475Y-116641290D01*
X118065426Y-116778209D01*
X118065423Y-116778216D01*
X118024500Y-116930943D01*
X103900500Y-116930943D01*
X103900500Y-116190943D01*
X125669500Y-116190943D01*
X125669500Y-116349057D01*
X125693525Y-116438717D01*
X125710423Y-116501783D01*
X125710426Y-116501790D01*
X125789475Y-116638709D01*
X125789479Y-116638714D01*
X125789480Y-116638716D01*
X125901284Y-116750520D01*
X125901286Y-116750521D01*
X125901290Y-116750524D01*
X125984435Y-116798527D01*
X126038216Y-116829577D01*
X126190943Y-116870500D01*
X126190945Y-116870500D01*
X126349055Y-116870500D01*
X126349057Y-116870500D01*
X126501784Y-116829577D01*
X126555568Y-116798525D01*
X155320500Y-116798525D01*
X155320500Y-116943475D01*
X155358016Y-117083485D01*
X155358017Y-117083488D01*
X155430488Y-117209011D01*
X155430490Y-117209013D01*
X155430491Y-117209015D01*
X155532985Y-117311509D01*
X155532986Y-117311510D01*
X155532988Y-117311511D01*
X155658511Y-117383982D01*
X155658512Y-117383982D01*
X155658515Y-117383984D01*
X155798525Y-117421500D01*
X155798528Y-117421500D01*
X155943472Y-117421500D01*
X155943475Y-117421500D01*
X156083485Y-117383984D01*
X156209015Y-117311509D01*
X156311509Y-117209015D01*
X156383984Y-117083485D01*
X156421500Y-116943475D01*
X156421500Y-116798525D01*
X156383984Y-116658515D01*
X156374034Y-116641282D01*
X156311511Y-116532988D01*
X156311506Y-116532982D01*
X156209017Y-116430493D01*
X156209011Y-116430488D01*
X156083488Y-116358017D01*
X156083489Y-116358017D01*
X156072006Y-116354940D01*
X155943475Y-116320500D01*
X155798525Y-116320500D01*
X155669993Y-116354940D01*
X155658511Y-116358017D01*
X155532988Y-116430488D01*
X155532982Y-116430493D01*
X155430493Y-116532982D01*
X155430488Y-116532988D01*
X155358017Y-116658511D01*
X155358016Y-116658515D01*
X155320500Y-116798525D01*
X126555568Y-116798525D01*
X126638716Y-116750520D01*
X126750520Y-116638716D01*
X126829577Y-116501784D01*
X126870500Y-116349057D01*
X126870500Y-116190943D01*
X126829577Y-116038216D01*
X126823265Y-116027284D01*
X126802284Y-115990943D01*
X130879500Y-115990943D01*
X130879500Y-116149057D01*
X130890724Y-116190943D01*
X130920423Y-116301783D01*
X130920426Y-116301790D01*
X130999475Y-116438709D01*
X130999479Y-116438714D01*
X130999480Y-116438716D01*
X131111284Y-116550520D01*
X131111286Y-116550521D01*
X131111290Y-116550524D01*
X131248209Y-116629573D01*
X131248216Y-116629577D01*
X131400943Y-116670500D01*
X131400945Y-116670500D01*
X131559055Y-116670500D01*
X131559057Y-116670500D01*
X131711784Y-116629577D01*
X131848716Y-116550520D01*
X131960520Y-116438716D01*
X132039577Y-116301784D01*
X132065050Y-116206718D01*
X168565099Y-116206718D01*
X168600104Y-116382694D01*
X168600107Y-116382704D01*
X168668767Y-116548466D01*
X168668774Y-116548479D01*
X168768457Y-116697664D01*
X168768460Y-116697668D01*
X168895331Y-116824539D01*
X168895335Y-116824542D01*
X169044520Y-116924225D01*
X169044533Y-116924232D01*
X169210295Y-116992892D01*
X169210300Y-116992894D01*
X169210304Y-116992894D01*
X169210305Y-116992895D01*
X169386281Y-117027900D01*
X169386284Y-117027900D01*
X169565718Y-117027900D01*
X169684110Y-117004349D01*
X169741700Y-116992894D01*
X169891264Y-116930943D01*
X169907466Y-116924232D01*
X169907466Y-116924231D01*
X169907473Y-116924229D01*
X170056665Y-116824542D01*
X170183542Y-116697665D01*
X170283229Y-116548473D01*
X170351894Y-116382700D01*
X170367988Y-116301790D01*
X170386900Y-116206718D01*
X170386900Y-116027281D01*
X170351895Y-115851305D01*
X170351894Y-115851304D01*
X170351894Y-115851300D01*
X170351892Y-115851295D01*
X170283232Y-115685533D01*
X170283225Y-115685520D01*
X170183542Y-115536335D01*
X170183539Y-115536331D01*
X170056668Y-115409460D01*
X170056664Y-115409457D01*
X169907479Y-115309774D01*
X169907466Y-115309767D01*
X169741704Y-115241107D01*
X169741694Y-115241104D01*
X169565718Y-115206100D01*
X169565716Y-115206100D01*
X169386284Y-115206100D01*
X169386282Y-115206100D01*
X169210305Y-115241104D01*
X169210295Y-115241107D01*
X169044533Y-115309767D01*
X169044520Y-115309774D01*
X168895335Y-115409457D01*
X168895331Y-115409460D01*
X168768460Y-115536331D01*
X168768457Y-115536335D01*
X168668774Y-115685520D01*
X168668767Y-115685533D01*
X168600107Y-115851295D01*
X168600104Y-115851305D01*
X168565100Y-116027281D01*
X168565100Y-116027284D01*
X168565100Y-116206716D01*
X168565100Y-116206718D01*
X168565099Y-116206718D01*
X132065050Y-116206718D01*
X132080500Y-116149057D01*
X132080500Y-115990943D01*
X132039577Y-115838216D01*
X132011437Y-115789475D01*
X131960524Y-115701290D01*
X131960518Y-115701282D01*
X131848717Y-115589481D01*
X131848709Y-115589475D01*
X131711790Y-115510426D01*
X131711786Y-115510424D01*
X131711784Y-115510423D01*
X131559057Y-115469500D01*
X131400943Y-115469500D01*
X131248216Y-115510423D01*
X131248209Y-115510426D01*
X131111290Y-115589475D01*
X131111282Y-115589481D01*
X130999481Y-115701282D01*
X130999475Y-115701290D01*
X130920426Y-115838209D01*
X130920423Y-115838216D01*
X130879500Y-115990943D01*
X126802284Y-115990943D01*
X126750522Y-115901287D01*
X126750518Y-115901282D01*
X126638717Y-115789481D01*
X126638709Y-115789475D01*
X126501790Y-115710426D01*
X126501786Y-115710424D01*
X126501784Y-115710423D01*
X126349057Y-115669500D01*
X126190943Y-115669500D01*
X126038216Y-115710423D01*
X126038209Y-115710426D01*
X125901290Y-115789475D01*
X125901282Y-115789481D01*
X125789481Y-115901282D01*
X125789475Y-115901290D01*
X125710426Y-116038209D01*
X125710426Y-116038210D01*
X125710423Y-116038216D01*
X125669500Y-116190943D01*
X103900500Y-116190943D01*
X103900500Y-113940943D01*
X112184500Y-113940943D01*
X112184500Y-114099057D01*
X112224283Y-114247527D01*
X112225423Y-114251783D01*
X112225426Y-114251790D01*
X112304475Y-114388709D01*
X112304479Y-114388714D01*
X112304480Y-114388716D01*
X112416284Y-114500520D01*
X112416286Y-114500521D01*
X112416290Y-114500524D01*
X112471656Y-114532489D01*
X112553216Y-114579577D01*
X112705943Y-114620500D01*
X112705945Y-114620500D01*
X112864055Y-114620500D01*
X112864057Y-114620500D01*
X113016784Y-114579577D01*
X113118385Y-114520918D01*
X123929475Y-114520918D01*
X123929475Y-114679032D01*
X123964704Y-114810506D01*
X123970398Y-114831758D01*
X123970401Y-114831765D01*
X124049450Y-114968684D01*
X124049454Y-114968689D01*
X124049455Y-114968691D01*
X124161259Y-115080495D01*
X124161261Y-115080496D01*
X124161265Y-115080499D01*
X124298184Y-115159548D01*
X124298191Y-115159552D01*
X124450918Y-115200475D01*
X124450920Y-115200475D01*
X124609030Y-115200475D01*
X124609032Y-115200475D01*
X124761759Y-115159552D01*
X124898691Y-115080495D01*
X125010495Y-114968691D01*
X125089552Y-114831759D01*
X125130475Y-114679032D01*
X125130475Y-114520918D01*
X125089552Y-114368191D01*
X125059463Y-114316075D01*
X125048753Y-114297525D01*
X131479500Y-114297525D01*
X131479500Y-114442475D01*
X131516236Y-114579573D01*
X131517017Y-114582488D01*
X131589488Y-114708011D01*
X131589490Y-114708013D01*
X131589491Y-114708015D01*
X131691985Y-114810509D01*
X131691986Y-114810510D01*
X131691988Y-114810511D01*
X131817511Y-114882982D01*
X131817512Y-114882982D01*
X131817515Y-114882984D01*
X131957525Y-114920500D01*
X131957528Y-114920500D01*
X132102472Y-114920500D01*
X132102475Y-114920500D01*
X132242485Y-114882984D01*
X132368015Y-114810509D01*
X132470509Y-114708015D01*
X132542984Y-114582485D01*
X132576925Y-114455814D01*
X132613288Y-114396158D01*
X132676134Y-114365629D01*
X132745510Y-114373923D01*
X132799388Y-114418409D01*
X132816472Y-114455815D01*
X132828450Y-114500518D01*
X132837017Y-114532489D01*
X132909488Y-114658011D01*
X132909490Y-114658013D01*
X132909491Y-114658015D01*
X133011985Y-114760509D01*
X133011986Y-114760510D01*
X133011988Y-114760511D01*
X133137511Y-114832982D01*
X133137512Y-114832982D01*
X133137515Y-114832984D01*
X133277525Y-114870500D01*
X133277528Y-114870500D01*
X133422472Y-114870500D01*
X133422475Y-114870500D01*
X133562485Y-114832984D01*
X133688015Y-114760509D01*
X133790509Y-114658015D01*
X133862984Y-114532485D01*
X133900500Y-114392475D01*
X133900500Y-114247525D01*
X133862987Y-114107525D01*
X157859500Y-114107525D01*
X157859500Y-114252475D01*
X157897016Y-114392485D01*
X157897017Y-114392488D01*
X157969488Y-114518011D01*
X157969490Y-114518013D01*
X157969491Y-114518015D01*
X158071985Y-114620509D01*
X158071986Y-114620510D01*
X158071988Y-114620511D01*
X158197511Y-114692982D01*
X158197512Y-114692982D01*
X158197515Y-114692984D01*
X158337525Y-114730500D01*
X158337528Y-114730500D01*
X158482472Y-114730500D01*
X158482475Y-114730500D01*
X158622485Y-114692984D01*
X158748015Y-114620509D01*
X158850509Y-114518015D01*
X158922984Y-114392485D01*
X158960500Y-114252475D01*
X158960500Y-114107525D01*
X158922984Y-113967515D01*
X158897393Y-113923191D01*
X158850511Y-113841988D01*
X158850506Y-113841982D01*
X158748017Y-113739493D01*
X158748011Y-113739488D01*
X158622488Y-113667017D01*
X158622489Y-113667017D01*
X158611006Y-113663940D01*
X158482475Y-113629500D01*
X158337525Y-113629500D01*
X158208993Y-113663940D01*
X158197511Y-113667017D01*
X158071988Y-113739488D01*
X158071982Y-113739493D01*
X157969493Y-113841982D01*
X157969488Y-113841988D01*
X157897017Y-113967511D01*
X157897016Y-113967515D01*
X157859500Y-114107525D01*
X133862987Y-114107525D01*
X133862984Y-114107515D01*
X133822140Y-114036772D01*
X133790511Y-113981988D01*
X133790506Y-113981982D01*
X133688017Y-113879493D01*
X133688011Y-113879488D01*
X133562488Y-113807017D01*
X133562489Y-113807017D01*
X133551006Y-113803940D01*
X133422475Y-113769500D01*
X133277525Y-113769500D01*
X133148993Y-113803940D01*
X133137511Y-113807017D01*
X133011988Y-113879488D01*
X133011982Y-113879493D01*
X132909493Y-113981982D01*
X132909488Y-113981988D01*
X132837017Y-114107511D01*
X132837016Y-114107515D01*
X132823619Y-114157515D01*
X132803076Y-114234181D01*
X132766711Y-114293841D01*
X132703863Y-114324370D01*
X132634488Y-114316075D01*
X132580610Y-114271590D01*
X132563528Y-114234185D01*
X132542984Y-114157515D01*
X132541472Y-114154897D01*
X132470511Y-114031988D01*
X132470506Y-114031982D01*
X132368017Y-113929493D01*
X132368011Y-113929488D01*
X132242488Y-113857017D01*
X132242489Y-113857017D01*
X132231006Y-113853940D01*
X132102475Y-113819500D01*
X131957525Y-113819500D01*
X131828993Y-113853940D01*
X131817511Y-113857017D01*
X131691988Y-113929488D01*
X131691982Y-113929493D01*
X131589493Y-114031982D01*
X131589488Y-114031988D01*
X131517017Y-114157511D01*
X131517016Y-114157515D01*
X131479500Y-114297525D01*
X125048753Y-114297525D01*
X125010497Y-114231262D01*
X125010493Y-114231257D01*
X124898692Y-114119456D01*
X124898684Y-114119450D01*
X124761765Y-114040401D01*
X124761761Y-114040399D01*
X124761759Y-114040398D01*
X124609032Y-113999475D01*
X124450918Y-113999475D01*
X124298191Y-114040398D01*
X124298184Y-114040401D01*
X124161265Y-114119450D01*
X124161257Y-114119456D01*
X124049456Y-114231257D01*
X124049450Y-114231265D01*
X123970401Y-114368184D01*
X123970398Y-114368191D01*
X123929475Y-114520918D01*
X113118385Y-114520918D01*
X113153716Y-114500520D01*
X113265520Y-114388716D01*
X113344577Y-114251784D01*
X113385500Y-114099057D01*
X113385500Y-113940943D01*
X113344577Y-113788216D01*
X113339037Y-113778621D01*
X113265524Y-113651290D01*
X113265518Y-113651282D01*
X113153717Y-113539481D01*
X113153709Y-113539475D01*
X113016790Y-113460426D01*
X113016786Y-113460424D01*
X113016784Y-113460423D01*
X112864057Y-113419500D01*
X112705943Y-113419500D01*
X112553216Y-113460423D01*
X112553209Y-113460426D01*
X112416290Y-113539475D01*
X112416282Y-113539481D01*
X112304481Y-113651282D01*
X112304475Y-113651290D01*
X112225426Y-113788209D01*
X112225423Y-113788216D01*
X112184500Y-113940943D01*
X103900500Y-113940943D01*
X103900500Y-112787525D01*
X119079500Y-112787525D01*
X119079500Y-112932475D01*
X119117016Y-113072485D01*
X119117017Y-113072488D01*
X119189488Y-113198011D01*
X119189490Y-113198013D01*
X119189491Y-113198015D01*
X119291985Y-113300509D01*
X119291986Y-113300510D01*
X119291988Y-113300511D01*
X119417511Y-113372982D01*
X119417512Y-113372982D01*
X119417515Y-113372984D01*
X119557525Y-113410500D01*
X119557528Y-113410500D01*
X119702472Y-113410500D01*
X119702475Y-113410500D01*
X119842485Y-113372984D01*
X119968015Y-113300509D01*
X120070509Y-113198015D01*
X120142984Y-113072485D01*
X120180500Y-112932475D01*
X120180500Y-112787525D01*
X120142984Y-112647515D01*
X120137615Y-112638216D01*
X120116096Y-112600943D01*
X136109500Y-112600943D01*
X136109500Y-112759057D01*
X136146603Y-112897525D01*
X136150423Y-112911783D01*
X136150426Y-112911790D01*
X136229475Y-113048709D01*
X136229479Y-113048714D01*
X136229480Y-113048716D01*
X136341284Y-113160520D01*
X136341286Y-113160521D01*
X136341290Y-113160524D01*
X136476725Y-113238716D01*
X136478216Y-113239577D01*
X136630943Y-113280500D01*
X136630945Y-113280500D01*
X136789056Y-113280500D01*
X136789057Y-113280500D01*
X136789057Y-113280499D01*
X136792230Y-113280082D01*
X136794911Y-113280500D01*
X136797185Y-113280500D01*
X136797185Y-113280854D01*
X136861266Y-113290844D01*
X136896103Y-113315339D01*
X136931284Y-113350520D01*
X136931286Y-113350521D01*
X136931290Y-113350524D01*
X137035189Y-113410509D01*
X137068216Y-113429577D01*
X137220943Y-113470500D01*
X137220945Y-113470500D01*
X137379055Y-113470500D01*
X137379057Y-113470500D01*
X137531784Y-113429577D01*
X137668716Y-113350520D01*
X137780520Y-113238716D01*
X137859577Y-113101784D01*
X137900500Y-112949057D01*
X137900500Y-112897525D01*
X156969500Y-112897525D01*
X156969500Y-113042475D01*
X157007016Y-113182485D01*
X157007017Y-113182488D01*
X157079488Y-113308011D01*
X157079490Y-113308013D01*
X157079491Y-113308015D01*
X157181985Y-113410509D01*
X157181986Y-113410510D01*
X157181988Y-113410511D01*
X157307511Y-113482982D01*
X157307512Y-113482982D01*
X157307515Y-113482984D01*
X157447525Y-113520500D01*
X157447528Y-113520500D01*
X157592472Y-113520500D01*
X157592475Y-113520500D01*
X157732485Y-113482984D01*
X157858015Y-113410509D01*
X157960509Y-113308015D01*
X158032984Y-113182485D01*
X158070500Y-113042475D01*
X158070500Y-113014769D01*
X166478099Y-113014769D01*
X166478099Y-113219226D01*
X166517983Y-113419734D01*
X166517986Y-113419746D01*
X166596222Y-113608626D01*
X166596224Y-113608630D01*
X166709805Y-113778616D01*
X166709811Y-113778624D01*
X166854372Y-113923185D01*
X166854380Y-113923191D01*
X167024366Y-114036772D01*
X167024370Y-114036774D01*
X167213250Y-114115010D01*
X167213255Y-114115012D01*
X167413770Y-114154897D01*
X167413773Y-114154898D01*
X167413775Y-114154898D01*
X167618225Y-114154898D01*
X167618226Y-114154897D01*
X167818743Y-114115012D01*
X167944667Y-114062852D01*
X168007627Y-114036774D01*
X168007631Y-114036772D01*
X168092056Y-113980360D01*
X168177622Y-113923188D01*
X168322189Y-113778621D01*
X168396761Y-113667016D01*
X168435773Y-113608630D01*
X168435775Y-113608626D01*
X168509939Y-113429577D01*
X168514013Y-113419742D01*
X168553899Y-113219222D01*
X168553899Y-113014774D01*
X168553899Y-113014771D01*
X168553898Y-113014769D01*
X168530577Y-112897527D01*
X168514013Y-112814254D01*
X168491150Y-112759057D01*
X168435775Y-112625369D01*
X168435773Y-112625365D01*
X168322192Y-112455379D01*
X168322186Y-112455371D01*
X168177625Y-112310810D01*
X168177617Y-112310804D01*
X168007631Y-112197223D01*
X168007627Y-112197221D01*
X167818747Y-112118985D01*
X167818735Y-112118982D01*
X167618226Y-112079098D01*
X167618223Y-112079098D01*
X167413775Y-112079098D01*
X167413772Y-112079098D01*
X167213262Y-112118982D01*
X167213250Y-112118985D01*
X167024370Y-112197221D01*
X167024366Y-112197223D01*
X166854380Y-112310804D01*
X166854372Y-112310810D01*
X166709811Y-112455371D01*
X166709805Y-112455379D01*
X166596224Y-112625365D01*
X166596222Y-112625369D01*
X166517986Y-112814249D01*
X166517983Y-112814261D01*
X166478099Y-113014769D01*
X158070500Y-113014769D01*
X158070500Y-112897525D01*
X158032984Y-112757515D01*
X157969475Y-112647515D01*
X157960511Y-112631988D01*
X157960506Y-112631982D01*
X157858017Y-112529493D01*
X157858011Y-112529488D01*
X157732488Y-112457017D01*
X157732489Y-112457017D01*
X157699617Y-112448209D01*
X157592475Y-112419500D01*
X157447525Y-112419500D01*
X157340383Y-112448209D01*
X157307511Y-112457017D01*
X157181988Y-112529488D01*
X157181982Y-112529493D01*
X157079493Y-112631982D01*
X157079488Y-112631988D01*
X157007017Y-112757511D01*
X157007016Y-112757515D01*
X156969500Y-112897525D01*
X137900500Y-112897525D01*
X137900500Y-112790943D01*
X137859577Y-112638216D01*
X137805007Y-112543697D01*
X137788535Y-112475797D01*
X137805009Y-112419696D01*
X137809576Y-112411785D01*
X137809577Y-112411784D01*
X137850500Y-112259057D01*
X137850500Y-112100943D01*
X137809577Y-111948216D01*
X137763875Y-111869057D01*
X137730524Y-111811290D01*
X137730518Y-111811282D01*
X137618717Y-111699481D01*
X137618709Y-111699475D01*
X137481790Y-111620426D01*
X137481786Y-111620424D01*
X137481784Y-111620423D01*
X137329057Y-111579500D01*
X137170943Y-111579500D01*
X137018216Y-111620423D01*
X137018209Y-111620426D01*
X136881290Y-111699475D01*
X136881282Y-111699481D01*
X136769481Y-111811282D01*
X136769475Y-111811290D01*
X136690426Y-111948209D01*
X136690423Y-111948214D01*
X136675655Y-112003333D01*
X136639290Y-112062993D01*
X136587975Y-112091012D01*
X136534312Y-112105392D01*
X136478214Y-112120423D01*
X136478209Y-112120426D01*
X136341290Y-112199475D01*
X136341282Y-112199481D01*
X136229481Y-112311282D01*
X136229475Y-112311290D01*
X136150426Y-112448209D01*
X136150423Y-112448216D01*
X136109500Y-112600943D01*
X120116096Y-112600943D01*
X120070511Y-112521988D01*
X120070506Y-112521982D01*
X119968017Y-112419493D01*
X119968011Y-112419488D01*
X119842488Y-112347017D01*
X119842489Y-112347017D01*
X119831006Y-112343940D01*
X119702475Y-112309500D01*
X119557525Y-112309500D01*
X119428993Y-112343940D01*
X119417511Y-112347017D01*
X119291988Y-112419488D01*
X119291982Y-112419493D01*
X119189493Y-112521982D01*
X119189488Y-112521988D01*
X119117017Y-112647511D01*
X119117016Y-112647515D01*
X119079500Y-112787525D01*
X103900500Y-112787525D01*
X103900500Y-110477525D01*
X120929500Y-110477525D01*
X120929500Y-110622475D01*
X120963805Y-110750500D01*
X120967017Y-110762488D01*
X121039488Y-110888011D01*
X121039490Y-110888013D01*
X121039491Y-110888015D01*
X121141985Y-110990509D01*
X121141986Y-110990510D01*
X121141988Y-110990511D01*
X121267511Y-111062982D01*
X121267512Y-111062982D01*
X121267515Y-111062984D01*
X121407525Y-111100500D01*
X121407528Y-111100500D01*
X121552472Y-111100500D01*
X121552475Y-111100500D01*
X121692485Y-111062984D01*
X121818015Y-110990509D01*
X121920509Y-110888015D01*
X121992984Y-110762485D01*
X122030500Y-110622475D01*
X122030500Y-110480943D01*
X124689500Y-110480943D01*
X124689500Y-110639057D01*
X124726897Y-110778622D01*
X124730423Y-110791783D01*
X124730426Y-110791790D01*
X124809475Y-110928709D01*
X124809479Y-110928714D01*
X124809480Y-110928716D01*
X124921284Y-111040520D01*
X124921286Y-111040521D01*
X124921290Y-111040524D01*
X125058209Y-111119573D01*
X125058216Y-111119577D01*
X125210943Y-111160500D01*
X125210945Y-111160500D01*
X125218793Y-111162603D01*
X125218280Y-111164515D01*
X125272359Y-111188431D01*
X125310837Y-111246751D01*
X125311676Y-111316615D01*
X125279970Y-111370793D01*
X125229481Y-111421282D01*
X125229475Y-111421290D01*
X125150426Y-111558209D01*
X125150423Y-111558216D01*
X125109500Y-111710943D01*
X125109500Y-111869057D01*
X125147899Y-112012362D01*
X125150423Y-112021783D01*
X125150426Y-112021790D01*
X125229475Y-112158709D01*
X125229479Y-112158714D01*
X125229480Y-112158716D01*
X125341284Y-112270520D01*
X125341286Y-112270521D01*
X125341290Y-112270524D01*
X125411900Y-112311290D01*
X125478216Y-112349577D01*
X125630943Y-112390500D01*
X125630945Y-112390500D01*
X125789055Y-112390500D01*
X125789057Y-112390500D01*
X125941784Y-112349577D01*
X126078716Y-112270520D01*
X126190520Y-112158716D01*
X126198517Y-112144862D01*
X126215595Y-112115285D01*
X126266161Y-112067070D01*
X126322982Y-112053285D01*
X126434840Y-112053285D01*
X126434842Y-112053285D01*
X126587569Y-112012362D01*
X126724501Y-111933305D01*
X126836305Y-111821501D01*
X126915362Y-111684569D01*
X126956285Y-111531842D01*
X126956285Y-111373728D01*
X126915362Y-111221001D01*
X126880432Y-111160500D01*
X126836309Y-111084075D01*
X126836303Y-111084067D01*
X126724502Y-110972266D01*
X126724494Y-110972260D01*
X126587575Y-110893211D01*
X126587571Y-110893209D01*
X126587569Y-110893208D01*
X126434842Y-110852285D01*
X126276728Y-110852285D01*
X126124001Y-110893208D01*
X126124000Y-110893208D01*
X126024457Y-110950679D01*
X125956557Y-110967151D01*
X125890530Y-110944298D01*
X125847340Y-110889376D01*
X125840699Y-110819823D01*
X125847899Y-110795834D01*
X125849573Y-110791790D01*
X125849577Y-110791784D01*
X125890500Y-110639057D01*
X125890500Y-110480943D01*
X125852071Y-110337525D01*
X130009500Y-110337525D01*
X130009500Y-110482475D01*
X130047016Y-110622485D01*
X130047017Y-110622488D01*
X130119488Y-110748011D01*
X130119490Y-110748013D01*
X130119491Y-110748015D01*
X130221985Y-110850509D01*
X130221986Y-110850510D01*
X130221988Y-110850511D01*
X130347511Y-110922982D01*
X130347512Y-110922982D01*
X130347515Y-110922984D01*
X130487525Y-110960500D01*
X130487528Y-110960500D01*
X130632472Y-110960500D01*
X130632475Y-110960500D01*
X130772485Y-110922984D01*
X130898015Y-110850509D01*
X131000509Y-110748015D01*
X131072984Y-110622485D01*
X131110500Y-110482475D01*
X131110500Y-110337525D01*
X131072984Y-110197515D01*
X131032575Y-110127525D01*
X157859500Y-110127525D01*
X157859500Y-110272475D01*
X157876931Y-110337527D01*
X157897017Y-110412488D01*
X157969488Y-110538011D01*
X157969490Y-110538013D01*
X157969491Y-110538015D01*
X158071985Y-110640509D01*
X158071986Y-110640510D01*
X158071988Y-110640511D01*
X158197511Y-110712982D01*
X158197512Y-110712982D01*
X158197515Y-110712984D01*
X158337525Y-110750500D01*
X158337528Y-110750500D01*
X158482472Y-110750500D01*
X158482475Y-110750500D01*
X158622485Y-110712984D01*
X158748015Y-110640509D01*
X158850509Y-110538015D01*
X158922984Y-110412485D01*
X158960500Y-110272475D01*
X158960500Y-110127525D01*
X158930287Y-110014770D01*
X166478099Y-110014770D01*
X166478099Y-110219227D01*
X166517983Y-110419735D01*
X166517986Y-110419747D01*
X166596222Y-110608627D01*
X166596224Y-110608631D01*
X166709805Y-110778617D01*
X166709811Y-110778625D01*
X166854372Y-110923186D01*
X166854380Y-110923192D01*
X167024366Y-111036773D01*
X167024370Y-111036775D01*
X167178217Y-111100500D01*
X167213255Y-111115013D01*
X167413770Y-111154898D01*
X167413773Y-111154899D01*
X167413775Y-111154899D01*
X167618225Y-111154899D01*
X167618226Y-111154898D01*
X167818743Y-111115013D01*
X167998576Y-111040524D01*
X168007627Y-111036775D01*
X168007631Y-111036773D01*
X168146030Y-110944298D01*
X168177622Y-110923189D01*
X168322189Y-110778622D01*
X168415443Y-110639057D01*
X168435773Y-110608631D01*
X168435775Y-110608627D01*
X168465025Y-110538011D01*
X168514013Y-110419743D01*
X168553899Y-110219223D01*
X168553899Y-110014775D01*
X168553899Y-110014772D01*
X168553898Y-110014770D01*
X168530475Y-109897016D01*
X168514013Y-109814255D01*
X168491328Y-109759488D01*
X168435775Y-109625370D01*
X168435773Y-109625366D01*
X168322192Y-109455380D01*
X168322186Y-109455372D01*
X168177625Y-109310811D01*
X168177617Y-109310805D01*
X168007631Y-109197224D01*
X168007627Y-109197222D01*
X167818747Y-109118986D01*
X167818735Y-109118983D01*
X167618226Y-109079099D01*
X167618223Y-109079099D01*
X167413775Y-109079099D01*
X167413772Y-109079099D01*
X167213262Y-109118983D01*
X167213250Y-109118986D01*
X167024370Y-109197222D01*
X167024366Y-109197224D01*
X166854380Y-109310805D01*
X166854372Y-109310811D01*
X166709811Y-109455372D01*
X166709805Y-109455380D01*
X166596224Y-109625366D01*
X166596222Y-109625370D01*
X166517986Y-109814250D01*
X166517983Y-109814262D01*
X166478099Y-110014770D01*
X158930287Y-110014770D01*
X158922984Y-109987515D01*
X158906809Y-109959500D01*
X158850511Y-109861988D01*
X158850506Y-109861982D01*
X158748017Y-109759493D01*
X158748011Y-109759488D01*
X158622488Y-109687017D01*
X158622489Y-109687017D01*
X158611006Y-109683940D01*
X158482475Y-109649500D01*
X158337525Y-109649500D01*
X158208993Y-109683940D01*
X158197511Y-109687017D01*
X158071988Y-109759488D01*
X158071982Y-109759493D01*
X157969493Y-109861982D01*
X157969488Y-109861988D01*
X157897017Y-109987511D01*
X157897016Y-109987515D01*
X157859500Y-110127525D01*
X131032575Y-110127525D01*
X131000509Y-110071985D01*
X130898015Y-109969491D01*
X130898013Y-109969490D01*
X130898011Y-109969488D01*
X130772488Y-109897017D01*
X130772489Y-109897017D01*
X130761006Y-109893940D01*
X130632475Y-109859500D01*
X130487525Y-109859500D01*
X130358993Y-109893940D01*
X130347511Y-109897017D01*
X130221988Y-109969488D01*
X130221982Y-109969493D01*
X130119493Y-110071982D01*
X130119488Y-110071988D01*
X130047017Y-110197511D01*
X130047016Y-110197515D01*
X130009500Y-110337525D01*
X125852071Y-110337525D01*
X125849577Y-110328216D01*
X125817395Y-110272475D01*
X125770524Y-110191290D01*
X125770518Y-110191282D01*
X125658717Y-110079481D01*
X125658709Y-110079475D01*
X125521790Y-110000426D01*
X125521786Y-110000424D01*
X125521784Y-110000423D01*
X125369057Y-109959500D01*
X125210943Y-109959500D01*
X125058216Y-110000423D01*
X125058209Y-110000426D01*
X124921290Y-110079475D01*
X124921282Y-110079481D01*
X124809481Y-110191282D01*
X124809475Y-110191290D01*
X124730426Y-110328209D01*
X124730424Y-110328214D01*
X124730423Y-110328216D01*
X124689500Y-110480943D01*
X122030500Y-110480943D01*
X122030500Y-110477525D01*
X121992984Y-110337515D01*
X121987615Y-110328216D01*
X121920511Y-110211988D01*
X121920506Y-110211982D01*
X121818017Y-110109493D01*
X121818011Y-110109488D01*
X121692488Y-110037017D01*
X121692489Y-110037017D01*
X121681006Y-110033940D01*
X121552475Y-109999500D01*
X121407525Y-109999500D01*
X121278993Y-110033940D01*
X121267511Y-110037017D01*
X121141988Y-110109488D01*
X121141982Y-110109493D01*
X121039493Y-110211982D01*
X121039488Y-110211988D01*
X120967017Y-110337511D01*
X120967016Y-110337515D01*
X120929500Y-110477525D01*
X103900500Y-110477525D01*
X103900500Y-108364525D01*
X127464500Y-108364525D01*
X127464500Y-108509475D01*
X127485544Y-108588011D01*
X127502017Y-108649488D01*
X127574488Y-108775011D01*
X127574490Y-108775013D01*
X127574491Y-108775015D01*
X127676985Y-108877509D01*
X127676986Y-108877510D01*
X127676988Y-108877511D01*
X127802511Y-108949982D01*
X127802512Y-108949982D01*
X127802515Y-108949984D01*
X127942525Y-108987500D01*
X127942528Y-108987500D01*
X128087472Y-108987500D01*
X128087475Y-108987500D01*
X128227485Y-108949984D01*
X128353015Y-108877509D01*
X128455509Y-108775015D01*
X128527984Y-108649485D01*
X128545122Y-108585525D01*
X143521500Y-108585525D01*
X143521500Y-108730475D01*
X143559016Y-108870485D01*
X143559017Y-108870488D01*
X143631488Y-108996011D01*
X143631490Y-108996013D01*
X143631491Y-108996015D01*
X143733985Y-109098509D01*
X143733986Y-109098510D01*
X143733988Y-109098511D01*
X143859511Y-109170982D01*
X143859512Y-109170982D01*
X143859515Y-109170984D01*
X143999525Y-109208500D01*
X143999528Y-109208500D01*
X144144472Y-109208500D01*
X144144475Y-109208500D01*
X144284485Y-109170984D01*
X144410015Y-109098509D01*
X144512509Y-108996015D01*
X144584984Y-108870485D01*
X144622500Y-108730475D01*
X144622500Y-108585525D01*
X144584984Y-108445515D01*
X144538225Y-108364527D01*
X144512511Y-108319988D01*
X144512506Y-108319982D01*
X144410017Y-108217493D01*
X144410011Y-108217488D01*
X144340793Y-108177525D01*
X146529500Y-108177525D01*
X146529500Y-108322475D01*
X146562468Y-108445511D01*
X146567017Y-108462488D01*
X146639488Y-108588011D01*
X146639490Y-108588013D01*
X146639491Y-108588015D01*
X146741985Y-108690509D01*
X146741986Y-108690510D01*
X146741988Y-108690511D01*
X146867511Y-108762982D01*
X146867512Y-108762982D01*
X146867515Y-108762984D01*
X147007525Y-108800500D01*
X147007528Y-108800500D01*
X147152472Y-108800500D01*
X147152475Y-108800500D01*
X147292485Y-108762984D01*
X147418015Y-108690509D01*
X147520509Y-108588015D01*
X147592984Y-108462485D01*
X147630500Y-108322475D01*
X147630500Y-108177525D01*
X147592984Y-108037515D01*
X147592557Y-108036776D01*
X147520511Y-107911988D01*
X147520506Y-107911982D01*
X147418017Y-107809493D01*
X147418011Y-107809488D01*
X147292488Y-107737017D01*
X147292489Y-107737017D01*
X147281006Y-107733940D01*
X147152475Y-107699500D01*
X147007525Y-107699500D01*
X146878993Y-107733940D01*
X146867511Y-107737017D01*
X146741988Y-107809488D01*
X146741982Y-107809493D01*
X146639493Y-107911982D01*
X146639488Y-107911988D01*
X146567017Y-108037511D01*
X146567016Y-108037515D01*
X146529500Y-108177525D01*
X144340793Y-108177525D01*
X144284488Y-108145017D01*
X144284489Y-108145017D01*
X144273006Y-108141940D01*
X144144475Y-108107500D01*
X143999525Y-108107500D01*
X143870993Y-108141940D01*
X143859511Y-108145017D01*
X143733988Y-108217488D01*
X143733982Y-108217493D01*
X143631493Y-108319982D01*
X143631488Y-108319988D01*
X143559017Y-108445511D01*
X143559016Y-108445515D01*
X143521500Y-108585525D01*
X128545122Y-108585525D01*
X128565500Y-108509475D01*
X128565500Y-108364525D01*
X128527984Y-108224515D01*
X128500855Y-108177527D01*
X128455511Y-108098988D01*
X128455506Y-108098982D01*
X128353017Y-107996493D01*
X128353011Y-107996488D01*
X128227488Y-107924017D01*
X128227489Y-107924017D01*
X128182596Y-107911988D01*
X128087475Y-107886500D01*
X127942525Y-107886500D01*
X127847404Y-107911988D01*
X127802511Y-107924017D01*
X127676988Y-107996488D01*
X127676982Y-107996493D01*
X127574493Y-108098982D01*
X127574488Y-108098988D01*
X127502017Y-108224511D01*
X127502016Y-108224515D01*
X127464500Y-108364525D01*
X103900500Y-108364525D01*
X103900500Y-107039025D01*
X139078000Y-107039025D01*
X139078000Y-107183975D01*
X139111633Y-107309493D01*
X139115517Y-107323988D01*
X139187988Y-107449511D01*
X139187990Y-107449513D01*
X139187991Y-107449515D01*
X139290485Y-107552009D01*
X139290486Y-107552010D01*
X139290488Y-107552011D01*
X139416011Y-107624482D01*
X139416012Y-107624482D01*
X139416015Y-107624484D01*
X139556025Y-107662000D01*
X139556028Y-107662000D01*
X139700972Y-107662000D01*
X139700975Y-107662000D01*
X139840985Y-107624484D01*
X139966515Y-107552009D01*
X139966519Y-107552004D01*
X139972961Y-107547062D01*
X139974382Y-107548914D01*
X140025178Y-107521167D01*
X140094871Y-107526140D01*
X140150811Y-107568003D01*
X140175239Y-107633463D01*
X140171333Y-107674414D01*
X140170500Y-107677520D01*
X140170500Y-107677525D01*
X140170500Y-107822475D01*
X140208016Y-107962485D01*
X140208017Y-107962488D01*
X140280488Y-108088011D01*
X140280490Y-108088013D01*
X140280491Y-108088015D01*
X140382985Y-108190509D01*
X140382986Y-108190510D01*
X140382988Y-108190511D01*
X140508511Y-108262982D01*
X140508512Y-108262982D01*
X140508515Y-108262984D01*
X140648525Y-108300500D01*
X140648528Y-108300500D01*
X140793472Y-108300500D01*
X140793475Y-108300500D01*
X140933485Y-108262984D01*
X141059015Y-108190509D01*
X141161509Y-108088015D01*
X141233984Y-107962485D01*
X141271500Y-107822475D01*
X141271500Y-107677525D01*
X141233984Y-107537515D01*
X141224545Y-107521167D01*
X141161511Y-107411988D01*
X141161506Y-107411982D01*
X141059017Y-107309493D01*
X141059011Y-107309488D01*
X140933488Y-107237017D01*
X140933489Y-107237017D01*
X140899822Y-107227996D01*
X140793475Y-107199500D01*
X140648525Y-107199500D01*
X140542178Y-107227996D01*
X140508511Y-107237017D01*
X140382988Y-107309488D01*
X140376539Y-107314438D01*
X140375121Y-107312590D01*
X140324282Y-107340340D01*
X140254591Y-107335345D01*
X140198664Y-107293464D01*
X140174258Y-107227996D01*
X140173945Y-107218404D01*
X140174043Y-107202473D01*
X140179000Y-107183975D01*
X140179000Y-107039025D01*
X140172501Y-107014771D01*
X166478099Y-107014771D01*
X166478099Y-107219228D01*
X166517983Y-107419736D01*
X166517986Y-107419748D01*
X166596222Y-107608628D01*
X166596224Y-107608632D01*
X166709805Y-107778618D01*
X166709811Y-107778626D01*
X166854372Y-107923187D01*
X166854380Y-107923193D01*
X167024366Y-108036774D01*
X167024370Y-108036776D01*
X167213250Y-108115012D01*
X167213255Y-108115014D01*
X167364085Y-108145016D01*
X167413770Y-108154899D01*
X167413773Y-108154900D01*
X167413775Y-108154900D01*
X167618225Y-108154900D01*
X167618226Y-108154899D01*
X167818743Y-108115014D01*
X167944667Y-108062854D01*
X168007627Y-108036776D01*
X168007631Y-108036774D01*
X168118808Y-107962488D01*
X168177622Y-107923190D01*
X168322189Y-107778623D01*
X168389740Y-107677525D01*
X168435773Y-107608632D01*
X168435775Y-107608628D01*
X168472002Y-107521167D01*
X168514013Y-107419744D01*
X168553899Y-107219224D01*
X168553899Y-107014776D01*
X168553899Y-107014773D01*
X168553898Y-107014771D01*
X168514013Y-106814256D01*
X168514011Y-106814251D01*
X168435775Y-106625371D01*
X168435773Y-106625367D01*
X168322192Y-106455381D01*
X168322186Y-106455373D01*
X168177625Y-106310812D01*
X168177617Y-106310806D01*
X168007631Y-106197225D01*
X168007627Y-106197223D01*
X167818747Y-106118987D01*
X167818735Y-106118984D01*
X167618226Y-106079100D01*
X167618223Y-106079100D01*
X167413775Y-106079100D01*
X167413772Y-106079100D01*
X167213262Y-106118984D01*
X167213250Y-106118987D01*
X167024370Y-106197223D01*
X167024366Y-106197225D01*
X166854380Y-106310806D01*
X166854372Y-106310812D01*
X166709811Y-106455373D01*
X166709805Y-106455381D01*
X166596224Y-106625367D01*
X166596222Y-106625371D01*
X166517986Y-106814251D01*
X166517983Y-106814263D01*
X166478099Y-107014771D01*
X140172501Y-107014771D01*
X140141484Y-106899015D01*
X140092552Y-106814263D01*
X140069011Y-106773488D01*
X140069006Y-106773482D01*
X139966517Y-106670993D01*
X139966511Y-106670988D01*
X139840988Y-106598517D01*
X139840989Y-106598517D01*
X139829506Y-106595440D01*
X139700975Y-106561000D01*
X139556025Y-106561000D01*
X139427493Y-106595440D01*
X139416011Y-106598517D01*
X139290488Y-106670988D01*
X139290482Y-106670993D01*
X139187993Y-106773482D01*
X139187988Y-106773488D01*
X139115517Y-106899011D01*
X139115516Y-106899015D01*
X139078000Y-107039025D01*
X103900500Y-107039025D01*
X103900500Y-105977525D01*
X147869500Y-105977525D01*
X147869500Y-106122475D01*
X147904333Y-106252472D01*
X147907017Y-106262488D01*
X147979488Y-106388011D01*
X147979490Y-106388013D01*
X147979491Y-106388015D01*
X148081985Y-106490509D01*
X148081986Y-106490510D01*
X148081988Y-106490511D01*
X148207511Y-106562982D01*
X148207512Y-106562982D01*
X148207515Y-106562984D01*
X148347525Y-106600500D01*
X148347528Y-106600500D01*
X148492472Y-106600500D01*
X148492475Y-106600500D01*
X148632485Y-106562984D01*
X148758015Y-106490509D01*
X148860509Y-106388015D01*
X148932984Y-106262485D01*
X148970500Y-106122475D01*
X148970500Y-106107525D01*
X157179500Y-106107525D01*
X157179500Y-106252475D01*
X157195132Y-106310812D01*
X157217017Y-106392488D01*
X157289488Y-106518011D01*
X157289490Y-106518013D01*
X157289491Y-106518015D01*
X157391985Y-106620509D01*
X157391986Y-106620510D01*
X157391988Y-106620511D01*
X157517511Y-106692982D01*
X157517512Y-106692982D01*
X157517515Y-106692984D01*
X157657525Y-106730500D01*
X157657528Y-106730500D01*
X157802472Y-106730500D01*
X157802475Y-106730500D01*
X157942485Y-106692984D01*
X158068015Y-106620509D01*
X158170509Y-106518015D01*
X158242984Y-106392485D01*
X158280500Y-106252475D01*
X158280500Y-106107525D01*
X158242984Y-105967515D01*
X158170509Y-105841985D01*
X158068015Y-105739491D01*
X158068013Y-105739490D01*
X158068011Y-105739488D01*
X157942488Y-105667017D01*
X157942489Y-105667017D01*
X157931006Y-105663940D01*
X157802475Y-105629500D01*
X157657525Y-105629500D01*
X157528993Y-105663940D01*
X157517511Y-105667017D01*
X157391988Y-105739488D01*
X157391982Y-105739493D01*
X157289493Y-105841982D01*
X157289488Y-105841988D01*
X157217017Y-105967511D01*
X157217016Y-105967515D01*
X157179500Y-106107525D01*
X148970500Y-106107525D01*
X148970500Y-105977525D01*
X148932984Y-105837515D01*
X148860509Y-105711985D01*
X148758015Y-105609491D01*
X148758013Y-105609490D01*
X148758011Y-105609488D01*
X148632488Y-105537017D01*
X148632489Y-105537017D01*
X148621006Y-105533940D01*
X148492475Y-105499500D01*
X148347525Y-105499500D01*
X148218993Y-105533940D01*
X148207511Y-105537017D01*
X148081988Y-105609488D01*
X148081982Y-105609493D01*
X147979493Y-105711982D01*
X147979488Y-105711988D01*
X147907017Y-105837511D01*
X147907016Y-105837515D01*
X147869500Y-105977525D01*
X103900500Y-105977525D01*
X103900500Y-104677525D01*
X135979500Y-104677525D01*
X135979500Y-104822475D01*
X136006487Y-104923191D01*
X136017017Y-104962488D01*
X136089488Y-105088011D01*
X136089490Y-105088013D01*
X136089491Y-105088015D01*
X136191985Y-105190509D01*
X136191986Y-105190510D01*
X136191988Y-105190511D01*
X136317511Y-105262982D01*
X136317512Y-105262982D01*
X136317515Y-105262984D01*
X136457525Y-105300500D01*
X136457528Y-105300500D01*
X136602472Y-105300500D01*
X136602475Y-105300500D01*
X136742485Y-105262984D01*
X136868015Y-105190509D01*
X136970509Y-105088015D01*
X137042984Y-104962485D01*
X137080500Y-104822475D01*
X137080500Y-104707525D01*
X149229500Y-104707525D01*
X149229500Y-104852475D01*
X149267016Y-104992485D01*
X149267017Y-104992488D01*
X149339488Y-105118011D01*
X149339490Y-105118013D01*
X149339491Y-105118015D01*
X149441985Y-105220509D01*
X149441986Y-105220510D01*
X149441988Y-105220511D01*
X149567511Y-105292982D01*
X149567512Y-105292982D01*
X149567515Y-105292984D01*
X149707525Y-105330500D01*
X149707528Y-105330500D01*
X149852472Y-105330500D01*
X149852475Y-105330500D01*
X149992485Y-105292984D01*
X150118015Y-105220509D01*
X150220509Y-105118015D01*
X150292984Y-104992485D01*
X150330500Y-104852475D01*
X150330500Y-104707525D01*
X150292984Y-104567515D01*
X150275663Y-104537515D01*
X150220511Y-104441988D01*
X150220506Y-104441982D01*
X150118017Y-104339493D01*
X150118011Y-104339488D01*
X149992488Y-104267017D01*
X149992489Y-104267017D01*
X149981006Y-104263940D01*
X149852475Y-104229500D01*
X149707525Y-104229500D01*
X149578993Y-104263940D01*
X149567511Y-104267017D01*
X149441988Y-104339488D01*
X149441982Y-104339493D01*
X149339493Y-104441982D01*
X149339488Y-104441988D01*
X149267017Y-104567511D01*
X149267016Y-104567515D01*
X149229500Y-104707525D01*
X137080500Y-104707525D01*
X137080500Y-104677525D01*
X137042984Y-104537515D01*
X136987831Y-104441988D01*
X136970511Y-104411988D01*
X136970506Y-104411982D01*
X136868017Y-104309493D01*
X136868011Y-104309488D01*
X136742488Y-104237017D01*
X136742489Y-104237017D01*
X136731006Y-104233940D01*
X136602475Y-104199500D01*
X136457525Y-104199500D01*
X136328993Y-104233940D01*
X136317511Y-104237017D01*
X136191988Y-104309488D01*
X136191982Y-104309493D01*
X136089493Y-104411982D01*
X136089488Y-104411988D01*
X136017017Y-104537511D01*
X136017016Y-104537515D01*
X135979500Y-104677525D01*
X103900500Y-104677525D01*
X103900500Y-103590943D01*
X142509500Y-103590943D01*
X142509500Y-103749057D01*
X142526971Y-103814257D01*
X142550423Y-103901783D01*
X142550426Y-103901790D01*
X142629475Y-104038709D01*
X142629479Y-104038714D01*
X142629480Y-104038716D01*
X142741284Y-104150520D01*
X142741286Y-104150521D01*
X142741290Y-104150524D01*
X142878083Y-104229500D01*
X142878216Y-104229577D01*
X143030943Y-104270500D01*
X143030945Y-104270500D01*
X143189055Y-104270500D01*
X143189057Y-104270500D01*
X143341784Y-104229577D01*
X143478716Y-104150520D01*
X143585797Y-104043439D01*
X143647120Y-104009954D01*
X143716812Y-104014938D01*
X143720932Y-104016559D01*
X143728208Y-104019572D01*
X143728216Y-104019577D01*
X143880943Y-104060500D01*
X143880945Y-104060500D01*
X144039055Y-104060500D01*
X144039057Y-104060500D01*
X144191784Y-104019577D01*
X144200107Y-104014772D01*
X166478099Y-104014772D01*
X166478099Y-104219229D01*
X166517983Y-104419737D01*
X166517986Y-104419749D01*
X166596222Y-104608629D01*
X166596224Y-104608633D01*
X166709805Y-104778619D01*
X166709811Y-104778627D01*
X166854372Y-104923188D01*
X166854380Y-104923194D01*
X167024366Y-105036775D01*
X167024370Y-105036777D01*
X167213250Y-105115013D01*
X167213255Y-105115015D01*
X167413770Y-105154900D01*
X167413773Y-105154901D01*
X167413775Y-105154901D01*
X167618225Y-105154901D01*
X167618226Y-105154900D01*
X167818743Y-105115015D01*
X168007629Y-105036776D01*
X168007631Y-105036775D01*
X168092056Y-104980363D01*
X168177622Y-104923191D01*
X168322189Y-104778624D01*
X168379361Y-104693058D01*
X168435773Y-104608633D01*
X168435775Y-104608629D01*
X168465233Y-104537511D01*
X168514013Y-104419745D01*
X168553899Y-104219225D01*
X168553899Y-104014777D01*
X168553899Y-104014774D01*
X168553898Y-104014772D01*
X168516889Y-103828716D01*
X168514013Y-103814257D01*
X168514011Y-103814252D01*
X168435775Y-103625372D01*
X168435773Y-103625368D01*
X168322192Y-103455382D01*
X168322186Y-103455374D01*
X168177625Y-103310813D01*
X168177617Y-103310807D01*
X168007631Y-103197226D01*
X168007627Y-103197224D01*
X167818747Y-103118988D01*
X167818735Y-103118985D01*
X167618226Y-103079101D01*
X167618223Y-103079101D01*
X167413775Y-103079101D01*
X167413772Y-103079101D01*
X167213262Y-103118985D01*
X167213250Y-103118988D01*
X167024370Y-103197224D01*
X167024366Y-103197226D01*
X166854380Y-103310807D01*
X166854372Y-103310813D01*
X166709811Y-103455374D01*
X166709805Y-103455382D01*
X166596224Y-103625368D01*
X166596222Y-103625372D01*
X166517986Y-103814252D01*
X166517983Y-103814264D01*
X166478099Y-104014772D01*
X144200107Y-104014772D01*
X144328716Y-103940520D01*
X144440520Y-103828716D01*
X144519577Y-103691784D01*
X144560500Y-103539057D01*
X144560500Y-103380943D01*
X144519577Y-103228216D01*
X144456515Y-103118988D01*
X144440524Y-103091290D01*
X144440518Y-103091282D01*
X144328717Y-102979481D01*
X144328709Y-102979475D01*
X144191790Y-102900426D01*
X144191786Y-102900424D01*
X144191784Y-102900423D01*
X144039057Y-102859500D01*
X143880943Y-102859500D01*
X143728216Y-102900423D01*
X143728209Y-102900426D01*
X143591290Y-102979475D01*
X143591286Y-102979478D01*
X143484203Y-103086561D01*
X143422880Y-103120045D01*
X143353188Y-103115061D01*
X143349075Y-103113442D01*
X143341790Y-103110425D01*
X143341785Y-103110423D01*
X143341784Y-103110423D01*
X143189057Y-103069500D01*
X143030943Y-103069500D01*
X142878216Y-103110423D01*
X142878209Y-103110426D01*
X142741290Y-103189475D01*
X142741282Y-103189481D01*
X142629481Y-103301282D01*
X142629475Y-103301290D01*
X142550426Y-103438209D01*
X142550423Y-103438216D01*
X142509500Y-103590943D01*
X103900500Y-103590943D01*
X103900500Y-102030943D01*
X125489500Y-102030943D01*
X125489500Y-102189057D01*
X125517383Y-102293116D01*
X125530423Y-102341783D01*
X125530426Y-102341790D01*
X125609475Y-102478709D01*
X125609479Y-102478714D01*
X125609480Y-102478716D01*
X125721284Y-102590520D01*
X125721286Y-102590521D01*
X125721290Y-102590524D01*
X125792482Y-102631626D01*
X125858216Y-102669577D01*
X125962974Y-102697646D01*
X126022634Y-102734011D01*
X126050655Y-102785328D01*
X126060423Y-102821783D01*
X126060426Y-102821790D01*
X126139475Y-102958709D01*
X126139479Y-102958714D01*
X126139480Y-102958716D01*
X126251284Y-103070520D01*
X126251286Y-103070521D01*
X126251290Y-103070524D01*
X126388209Y-103149573D01*
X126388216Y-103149577D01*
X126540943Y-103190500D01*
X126540945Y-103190500D01*
X126699055Y-103190500D01*
X126699057Y-103190500D01*
X126851784Y-103149577D01*
X126988716Y-103070520D01*
X127100520Y-102958716D01*
X127179577Y-102821784D01*
X127190520Y-102780943D01*
X138569500Y-102780943D01*
X138569500Y-102939057D01*
X138610289Y-103091282D01*
X138610423Y-103091783D01*
X138610426Y-103091790D01*
X138689475Y-103228709D01*
X138689479Y-103228714D01*
X138689480Y-103228716D01*
X138801284Y-103340520D01*
X138801286Y-103340521D01*
X138801290Y-103340524D01*
X138938209Y-103419573D01*
X138938216Y-103419577D01*
X139090943Y-103460500D01*
X139090945Y-103460500D01*
X139249055Y-103460500D01*
X139249057Y-103460500D01*
X139401784Y-103419577D01*
X139538716Y-103340520D01*
X139650520Y-103228716D01*
X139729577Y-103091784D01*
X139770500Y-102939057D01*
X139770500Y-102780943D01*
X139750707Y-102707075D01*
X139752370Y-102637229D01*
X139782797Y-102587308D01*
X139861195Y-102508911D01*
X139940252Y-102371979D01*
X139981175Y-102219252D01*
X139981175Y-102087525D01*
X157829500Y-102087525D01*
X157829500Y-102232475D01*
X157866882Y-102371985D01*
X157867017Y-102372488D01*
X157939488Y-102498011D01*
X157939490Y-102498013D01*
X157939491Y-102498015D01*
X158041985Y-102600509D01*
X158041986Y-102600510D01*
X158041988Y-102600511D01*
X158167511Y-102672982D01*
X158167512Y-102672982D01*
X158167515Y-102672984D01*
X158307525Y-102710500D01*
X158307528Y-102710500D01*
X158452472Y-102710500D01*
X158452475Y-102710500D01*
X158592485Y-102672984D01*
X158718015Y-102600509D01*
X158820509Y-102498015D01*
X158892984Y-102372485D01*
X158930500Y-102232475D01*
X158930500Y-102087525D01*
X158892984Y-101947515D01*
X158884594Y-101932984D01*
X158820511Y-101821988D01*
X158820506Y-101821982D01*
X158718017Y-101719493D01*
X158718011Y-101719488D01*
X158592488Y-101647017D01*
X158592489Y-101647017D01*
X158581006Y-101643940D01*
X158452475Y-101609500D01*
X158307525Y-101609500D01*
X158178993Y-101643940D01*
X158167511Y-101647017D01*
X158041988Y-101719488D01*
X158041982Y-101719493D01*
X157939493Y-101821982D01*
X157939488Y-101821988D01*
X157867017Y-101947511D01*
X157867016Y-101947515D01*
X157829500Y-102087525D01*
X139981175Y-102087525D01*
X139981175Y-102061138D01*
X139940252Y-101908411D01*
X139912596Y-101860509D01*
X139861199Y-101771485D01*
X139861193Y-101771477D01*
X139749392Y-101659676D01*
X139749384Y-101659670D01*
X139612465Y-101580621D01*
X139612461Y-101580619D01*
X139612459Y-101580618D01*
X139459732Y-101539695D01*
X139301618Y-101539695D01*
X139148891Y-101580618D01*
X139148884Y-101580621D01*
X139011965Y-101659670D01*
X139011957Y-101659676D01*
X138900156Y-101771477D01*
X138900150Y-101771485D01*
X138821101Y-101908404D01*
X138821098Y-101908411D01*
X138780175Y-102061138D01*
X138780175Y-102219252D01*
X138783718Y-102232475D01*
X138799967Y-102293116D01*
X138798304Y-102362966D01*
X138767874Y-102412890D01*
X138689478Y-102491286D01*
X138689475Y-102491290D01*
X138610426Y-102628209D01*
X138610423Y-102628216D01*
X138569500Y-102780943D01*
X127190520Y-102780943D01*
X127220500Y-102669057D01*
X127220500Y-102510943D01*
X127179577Y-102358216D01*
X127170090Y-102341784D01*
X127100524Y-102221290D01*
X127100518Y-102221282D01*
X126988717Y-102109481D01*
X126988709Y-102109475D01*
X126851790Y-102030426D01*
X126851785Y-102030423D01*
X126747025Y-102002353D01*
X126687365Y-101965987D01*
X126659345Y-101914672D01*
X126649577Y-101878216D01*
X126618588Y-101824541D01*
X126570524Y-101741290D01*
X126570518Y-101741282D01*
X126458717Y-101629481D01*
X126458709Y-101629475D01*
X126321790Y-101550426D01*
X126321786Y-101550424D01*
X126321784Y-101550423D01*
X126169057Y-101509500D01*
X126010943Y-101509500D01*
X125858216Y-101550423D01*
X125858209Y-101550426D01*
X125721290Y-101629475D01*
X125721282Y-101629481D01*
X125609481Y-101741282D01*
X125609475Y-101741290D01*
X125530426Y-101878209D01*
X125530423Y-101878216D01*
X125489500Y-102030943D01*
X103900500Y-102030943D01*
X103900500Y-100360943D01*
X126929500Y-100360943D01*
X126929500Y-100519057D01*
X126934130Y-100536334D01*
X126970423Y-100671783D01*
X126970426Y-100671790D01*
X127049475Y-100808709D01*
X127049481Y-100808717D01*
X127167031Y-100926267D01*
X127166057Y-100927240D01*
X127202185Y-100976705D01*
X127209500Y-101018666D01*
X127209500Y-101109057D01*
X127237688Y-101214254D01*
X127250423Y-101261783D01*
X127250426Y-101261790D01*
X127329475Y-101398709D01*
X127329479Y-101398714D01*
X127329480Y-101398716D01*
X127441284Y-101510520D01*
X127441286Y-101510521D01*
X127441290Y-101510524D01*
X127578209Y-101589573D01*
X127578216Y-101589577D01*
X127730943Y-101630500D01*
X127730945Y-101630500D01*
X127889055Y-101630500D01*
X127889057Y-101630500D01*
X128041784Y-101589577D01*
X128178716Y-101510520D01*
X128290520Y-101398716D01*
X128320075Y-101347525D01*
X153049500Y-101347525D01*
X153049500Y-101492475D01*
X153087016Y-101632485D01*
X153087017Y-101632488D01*
X153159488Y-101758011D01*
X153159490Y-101758013D01*
X153159491Y-101758015D01*
X153261985Y-101860509D01*
X153261986Y-101860510D01*
X153261988Y-101860511D01*
X153387511Y-101932982D01*
X153387512Y-101932982D01*
X153387515Y-101932984D01*
X153527525Y-101970500D01*
X153527528Y-101970500D01*
X153672472Y-101970500D01*
X153672475Y-101970500D01*
X153812485Y-101932984D01*
X153938015Y-101860509D01*
X154040509Y-101758015D01*
X154075353Y-101697663D01*
X154117048Y-101625447D01*
X154118498Y-101626284D01*
X154156271Y-101579403D01*
X154222563Y-101557332D01*
X154290264Y-101574606D01*
X154337879Y-101625739D01*
X154340749Y-101632024D01*
X154413488Y-101758011D01*
X154413490Y-101758013D01*
X154413491Y-101758015D01*
X154515985Y-101860509D01*
X154515986Y-101860510D01*
X154515988Y-101860511D01*
X154641511Y-101932982D01*
X154641512Y-101932982D01*
X154641515Y-101932984D01*
X154781525Y-101970500D01*
X154781528Y-101970500D01*
X154926472Y-101970500D01*
X154926475Y-101970500D01*
X155066485Y-101932984D01*
X155192015Y-101860509D01*
X155294509Y-101758015D01*
X155366984Y-101632485D01*
X155404500Y-101492475D01*
X155404500Y-101347525D01*
X155366984Y-101207515D01*
X155366523Y-101206717D01*
X168565099Y-101206717D01*
X168600104Y-101382693D01*
X168600107Y-101382703D01*
X168668767Y-101548465D01*
X168668774Y-101548478D01*
X168768457Y-101697663D01*
X168768460Y-101697667D01*
X168895331Y-101824538D01*
X168895335Y-101824541D01*
X169044520Y-101924224D01*
X169044533Y-101924231D01*
X169210295Y-101992891D01*
X169210300Y-101992893D01*
X169210304Y-101992893D01*
X169210305Y-101992894D01*
X169386281Y-102027899D01*
X169386284Y-102027899D01*
X169565718Y-102027899D01*
X169694142Y-102002353D01*
X169741700Y-101992893D01*
X169907473Y-101924228D01*
X170056665Y-101824541D01*
X170183542Y-101697664D01*
X170283229Y-101548472D01*
X170351894Y-101382699D01*
X170375946Y-101261783D01*
X170386900Y-101206717D01*
X170386900Y-101178189D01*
X170386900Y-101178019D01*
X170386900Y-101027283D01*
X170351894Y-100851299D01*
X170334253Y-100808709D01*
X170283232Y-100685532D01*
X170283225Y-100685519D01*
X170183542Y-100536334D01*
X170183539Y-100536330D01*
X170056668Y-100409459D01*
X170056664Y-100409456D01*
X169907479Y-100309773D01*
X169907466Y-100309766D01*
X169741704Y-100241106D01*
X169741694Y-100241103D01*
X169565718Y-100206099D01*
X169565716Y-100206099D01*
X169386284Y-100206099D01*
X169386282Y-100206099D01*
X169210305Y-100241103D01*
X169210295Y-100241106D01*
X169044533Y-100309766D01*
X169044520Y-100309773D01*
X168895335Y-100409456D01*
X168895331Y-100409459D01*
X168768460Y-100536330D01*
X168768457Y-100536334D01*
X168668774Y-100685519D01*
X168668767Y-100685532D01*
X168600107Y-100851294D01*
X168600104Y-100851304D01*
X168565100Y-101027280D01*
X168565100Y-101027283D01*
X168565100Y-101206715D01*
X168565100Y-101206717D01*
X168565099Y-101206717D01*
X155366523Y-101206717D01*
X155294511Y-101081988D01*
X155294506Y-101081982D01*
X155192017Y-100979493D01*
X155192011Y-100979488D01*
X155066488Y-100907017D01*
X155066489Y-100907017D01*
X155055006Y-100903940D01*
X154926475Y-100869500D01*
X154781525Y-100869500D01*
X154652993Y-100903940D01*
X154641511Y-100907017D01*
X154515988Y-100979488D01*
X154515982Y-100979493D01*
X154413493Y-101081982D01*
X154413488Y-101081988D01*
X154336952Y-101214553D01*
X154335502Y-101213716D01*
X154297723Y-101260600D01*
X154231430Y-101282667D01*
X154163730Y-101265390D01*
X154116118Y-101214254D01*
X154113249Y-101207973D01*
X154040511Y-101081988D01*
X154040506Y-101081982D01*
X153938017Y-100979493D01*
X153938011Y-100979488D01*
X153812488Y-100907017D01*
X153812489Y-100907017D01*
X153801006Y-100903940D01*
X153672475Y-100869500D01*
X153527525Y-100869500D01*
X153398993Y-100903940D01*
X153387511Y-100907017D01*
X153261988Y-100979488D01*
X153261982Y-100979493D01*
X153159493Y-101081982D01*
X153159488Y-101081988D01*
X153087017Y-101207511D01*
X153087016Y-101207515D01*
X153049500Y-101347525D01*
X128320075Y-101347525D01*
X128369577Y-101261784D01*
X128410500Y-101109057D01*
X128410500Y-100950943D01*
X128369577Y-100798216D01*
X128369573Y-100798209D01*
X128290524Y-100661290D01*
X128290518Y-100661282D01*
X128172969Y-100543733D01*
X128173939Y-100542762D01*
X128137807Y-100493269D01*
X128130500Y-100451332D01*
X128130500Y-100360945D01*
X128130500Y-100360943D01*
X128089577Y-100208216D01*
X128044708Y-100130500D01*
X128010524Y-100071290D01*
X128010518Y-100071282D01*
X127898717Y-99959481D01*
X127898709Y-99959475D01*
X127761790Y-99880426D01*
X127761786Y-99880424D01*
X127761784Y-99880423D01*
X127609057Y-99839500D01*
X127450943Y-99839500D01*
X127298216Y-99880423D01*
X127298209Y-99880426D01*
X127161290Y-99959475D01*
X127161282Y-99959481D01*
X127049481Y-100071282D01*
X127049475Y-100071290D01*
X126970426Y-100208209D01*
X126970423Y-100208216D01*
X126929500Y-100360943D01*
X103900500Y-100360943D01*
X103900500Y-99507525D01*
X124919500Y-99507525D01*
X124919500Y-99652475D01*
X124957016Y-99792485D01*
X124957017Y-99792488D01*
X125029488Y-99918011D01*
X125029490Y-99918013D01*
X125029491Y-99918015D01*
X125131985Y-100020509D01*
X125131986Y-100020510D01*
X125131988Y-100020511D01*
X125257511Y-100092982D01*
X125257512Y-100092982D01*
X125257515Y-100092984D01*
X125397525Y-100130500D01*
X125397528Y-100130500D01*
X125542472Y-100130500D01*
X125542475Y-100130500D01*
X125682485Y-100092984D01*
X125808015Y-100020509D01*
X125910509Y-99918015D01*
X125982984Y-99792485D01*
X126020500Y-99652475D01*
X126020500Y-99507525D01*
X125982984Y-99367515D01*
X125910509Y-99241985D01*
X125808015Y-99139491D01*
X125808013Y-99139490D01*
X125808011Y-99139488D01*
X125682488Y-99067017D01*
X125682489Y-99067017D01*
X125671006Y-99063940D01*
X125542475Y-99029500D01*
X125397525Y-99029500D01*
X125268993Y-99063940D01*
X125257511Y-99067017D01*
X125131988Y-99139488D01*
X125131982Y-99139493D01*
X125029493Y-99241982D01*
X125029488Y-99241988D01*
X124957017Y-99367511D01*
X124957016Y-99367515D01*
X124919500Y-99507525D01*
X103900500Y-99507525D01*
X103900500Y-97627525D01*
X121619500Y-97627525D01*
X121619500Y-97772475D01*
X121645297Y-97868748D01*
X121657017Y-97912488D01*
X121729488Y-98038011D01*
X121729490Y-98038013D01*
X121729491Y-98038015D01*
X121831985Y-98140509D01*
X121831986Y-98140510D01*
X121831988Y-98140511D01*
X121957511Y-98212982D01*
X121957512Y-98212982D01*
X121957515Y-98212984D01*
X122097525Y-98250500D01*
X122097528Y-98250500D01*
X122242472Y-98250500D01*
X122242475Y-98250500D01*
X122382485Y-98212984D01*
X122508015Y-98140509D01*
X122610509Y-98038015D01*
X122682984Y-97912485D01*
X122720500Y-97772475D01*
X122720500Y-97697525D01*
X153099500Y-97697525D01*
X153099500Y-97842475D01*
X153135141Y-97975488D01*
X153137017Y-97982488D01*
X153209488Y-98108011D01*
X153209490Y-98108013D01*
X153209491Y-98108015D01*
X153311985Y-98210509D01*
X153311986Y-98210510D01*
X153311988Y-98210511D01*
X153437511Y-98282982D01*
X153437512Y-98282982D01*
X153437515Y-98282984D01*
X153577525Y-98320500D01*
X153577528Y-98320500D01*
X153722472Y-98320500D01*
X153722475Y-98320500D01*
X153862485Y-98282984D01*
X153988015Y-98210509D01*
X154090509Y-98108015D01*
X154162984Y-97982485D01*
X154200500Y-97842475D01*
X154200500Y-97697525D01*
X154198624Y-97690525D01*
X155780500Y-97690525D01*
X155780500Y-97835475D01*
X155815395Y-97965704D01*
X155818017Y-97975488D01*
X155890488Y-98101011D01*
X155890490Y-98101013D01*
X155890491Y-98101015D01*
X155992985Y-98203509D01*
X155992986Y-98203510D01*
X155992988Y-98203511D01*
X156118511Y-98275982D01*
X156118512Y-98275982D01*
X156118515Y-98275984D01*
X156258525Y-98313500D01*
X156258528Y-98313500D01*
X156403472Y-98313500D01*
X156403475Y-98313500D01*
X156543485Y-98275984D01*
X156669015Y-98203509D01*
X156771509Y-98101015D01*
X156790845Y-98067525D01*
X157719500Y-98067525D01*
X157719500Y-98212475D01*
X157746570Y-98313500D01*
X157757017Y-98352488D01*
X157829488Y-98478011D01*
X157829490Y-98478013D01*
X157829491Y-98478015D01*
X157931985Y-98580509D01*
X157931986Y-98580510D01*
X157931988Y-98580511D01*
X158057511Y-98652982D01*
X158057512Y-98652982D01*
X158057515Y-98652984D01*
X158197525Y-98690500D01*
X158197528Y-98690500D01*
X158342472Y-98690500D01*
X158342475Y-98690500D01*
X158482485Y-98652984D01*
X158608015Y-98580509D01*
X158710509Y-98478015D01*
X158782984Y-98352485D01*
X158820500Y-98212475D01*
X158820500Y-98067525D01*
X158782984Y-97927515D01*
X158774306Y-97912485D01*
X158710511Y-97801988D01*
X158710506Y-97801982D01*
X158608017Y-97699493D01*
X158608011Y-97699488D01*
X158482488Y-97627017D01*
X158482489Y-97627017D01*
X158471006Y-97623940D01*
X158342475Y-97589500D01*
X158197525Y-97589500D01*
X158068993Y-97623940D01*
X158057511Y-97627017D01*
X157931988Y-97699488D01*
X157931982Y-97699493D01*
X157829493Y-97801982D01*
X157829488Y-97801988D01*
X157757017Y-97927511D01*
X157757016Y-97927515D01*
X157719500Y-98067525D01*
X156790845Y-98067525D01*
X156843984Y-97975485D01*
X156881500Y-97835475D01*
X156881500Y-97690525D01*
X156843984Y-97550515D01*
X156841153Y-97545612D01*
X156771511Y-97424988D01*
X156771506Y-97424982D01*
X156669017Y-97322493D01*
X156669011Y-97322488D01*
X156543488Y-97250017D01*
X156543489Y-97250017D01*
X156532006Y-97246940D01*
X156403475Y-97212500D01*
X156258525Y-97212500D01*
X156129993Y-97246940D01*
X156118511Y-97250017D01*
X155992988Y-97322488D01*
X155992982Y-97322493D01*
X155890493Y-97424982D01*
X155890488Y-97424988D01*
X155818017Y-97550511D01*
X155818016Y-97550515D01*
X155780500Y-97690525D01*
X154198624Y-97690525D01*
X154162984Y-97557515D01*
X154158940Y-97550511D01*
X154090511Y-97431988D01*
X154090506Y-97431982D01*
X153988017Y-97329493D01*
X153988011Y-97329488D01*
X153862488Y-97257017D01*
X153862489Y-97257017D01*
X153851006Y-97253940D01*
X153722475Y-97219500D01*
X153577525Y-97219500D01*
X153448993Y-97253940D01*
X153437511Y-97257017D01*
X153311988Y-97329488D01*
X153311982Y-97329493D01*
X153209493Y-97431982D01*
X153209488Y-97431988D01*
X153137017Y-97557511D01*
X153137016Y-97557515D01*
X153099500Y-97697525D01*
X122720500Y-97697525D01*
X122720500Y-97627525D01*
X122682984Y-97487515D01*
X122652264Y-97434307D01*
X122610511Y-97361988D01*
X122610506Y-97361982D01*
X122508017Y-97259493D01*
X122508011Y-97259488D01*
X122382488Y-97187017D01*
X122382489Y-97187017D01*
X122371006Y-97183940D01*
X122242475Y-97149500D01*
X122097525Y-97149500D01*
X121968993Y-97183940D01*
X121957511Y-97187017D01*
X121831988Y-97259488D01*
X121831982Y-97259493D01*
X121729493Y-97361982D01*
X121729488Y-97361988D01*
X121657017Y-97487511D01*
X121657016Y-97487515D01*
X121619500Y-97627525D01*
X103900500Y-97627525D01*
X103900500Y-96042525D01*
X124684499Y-96042525D01*
X124684499Y-96187475D01*
X124717524Y-96310723D01*
X124722016Y-96327488D01*
X124794487Y-96453011D01*
X124794489Y-96453013D01*
X124794490Y-96453015D01*
X124896984Y-96555509D01*
X124896985Y-96555510D01*
X124896987Y-96555511D01*
X125022510Y-96627982D01*
X125022511Y-96627982D01*
X125022514Y-96627984D01*
X125162524Y-96665500D01*
X125162527Y-96665500D01*
X125307471Y-96665500D01*
X125307474Y-96665500D01*
X125447484Y-96627984D01*
X125573014Y-96555509D01*
X125675508Y-96453015D01*
X125734439Y-96350943D01*
X131919500Y-96350943D01*
X131919500Y-96509057D01*
X131952044Y-96630511D01*
X131960423Y-96661783D01*
X131960426Y-96661790D01*
X132039475Y-96798709D01*
X132039479Y-96798714D01*
X132039480Y-96798716D01*
X132151284Y-96910520D01*
X132151286Y-96910521D01*
X132151290Y-96910524D01*
X132288209Y-96989573D01*
X132288216Y-96989577D01*
X132440943Y-97030500D01*
X132440945Y-97030500D01*
X132599055Y-97030500D01*
X132599057Y-97030500D01*
X132751784Y-96989577D01*
X132888716Y-96910520D01*
X133000520Y-96798716D01*
X133028102Y-96750943D01*
X146809500Y-96750943D01*
X146809500Y-96909057D01*
X146842041Y-97030500D01*
X146850423Y-97061783D01*
X146850426Y-97061790D01*
X146929475Y-97198709D01*
X146929479Y-97198714D01*
X146929480Y-97198716D01*
X147041284Y-97310520D01*
X147041286Y-97310521D01*
X147041290Y-97310524D01*
X147130430Y-97361988D01*
X147178216Y-97389577D01*
X147330943Y-97430500D01*
X147330945Y-97430500D01*
X147489055Y-97430500D01*
X147489057Y-97430500D01*
X147641784Y-97389577D01*
X147778716Y-97310520D01*
X147890520Y-97198716D01*
X147969577Y-97061784D01*
X148010500Y-96909057D01*
X148010500Y-96750943D01*
X147969577Y-96598216D01*
X147969573Y-96598209D01*
X147890524Y-96461290D01*
X147890518Y-96461282D01*
X147778717Y-96349481D01*
X147778709Y-96349475D01*
X147641790Y-96270426D01*
X147641786Y-96270424D01*
X147641784Y-96270423D01*
X147489057Y-96229500D01*
X147330943Y-96229500D01*
X147178216Y-96270423D01*
X147178209Y-96270426D01*
X147041290Y-96349475D01*
X147041282Y-96349481D01*
X146929481Y-96461282D01*
X146929475Y-96461290D01*
X146850426Y-96598209D01*
X146850423Y-96598216D01*
X146809500Y-96750943D01*
X133028102Y-96750943D01*
X133079577Y-96661784D01*
X133120500Y-96509057D01*
X133120500Y-96350943D01*
X133079577Y-96198216D01*
X133032992Y-96117527D01*
X133032991Y-96117525D01*
X148879500Y-96117525D01*
X148879500Y-96262475D01*
X148903206Y-96350945D01*
X148917017Y-96402488D01*
X148989488Y-96528011D01*
X148989490Y-96528013D01*
X148989491Y-96528015D01*
X149091985Y-96630509D01*
X149091986Y-96630510D01*
X149091988Y-96630511D01*
X149217511Y-96702982D01*
X149217512Y-96702982D01*
X149217515Y-96702984D01*
X149357525Y-96740500D01*
X149357528Y-96740500D01*
X149502472Y-96740500D01*
X149502475Y-96740500D01*
X149642485Y-96702984D01*
X149768015Y-96630509D01*
X149870509Y-96528015D01*
X149942984Y-96402485D01*
X149980500Y-96262475D01*
X149980500Y-96117525D01*
X149942984Y-95977515D01*
X149915839Y-95930499D01*
X149870511Y-95851988D01*
X149870506Y-95851982D01*
X149768017Y-95749493D01*
X149768011Y-95749488D01*
X149642488Y-95677017D01*
X149642489Y-95677017D01*
X149631006Y-95673940D01*
X149502475Y-95639500D01*
X149357525Y-95639500D01*
X149228993Y-95673940D01*
X149217511Y-95677017D01*
X149091988Y-95749488D01*
X149091982Y-95749493D01*
X148989493Y-95851982D01*
X148989488Y-95851988D01*
X148917017Y-95977511D01*
X148917016Y-95977515D01*
X148879500Y-96117525D01*
X133032991Y-96117525D01*
X133000524Y-96061290D01*
X133000518Y-96061282D01*
X132888717Y-95949481D01*
X132888709Y-95949475D01*
X132751790Y-95870426D01*
X132751786Y-95870424D01*
X132751784Y-95870423D01*
X132599057Y-95829500D01*
X132440943Y-95829500D01*
X132288216Y-95870423D01*
X132288209Y-95870426D01*
X132151290Y-95949475D01*
X132151282Y-95949481D01*
X132039481Y-96061282D01*
X132039475Y-96061290D01*
X131960426Y-96198209D01*
X131960423Y-96198216D01*
X131919500Y-96350943D01*
X125734439Y-96350943D01*
X125747983Y-96327485D01*
X125785499Y-96187475D01*
X125785499Y-96042525D01*
X125747983Y-95902515D01*
X125740513Y-95889577D01*
X125675510Y-95776988D01*
X125675505Y-95776982D01*
X125573016Y-95674493D01*
X125573010Y-95674488D01*
X125447487Y-95602017D01*
X125447488Y-95602017D01*
X125436005Y-95598940D01*
X125307474Y-95564500D01*
X125162524Y-95564500D01*
X125033992Y-95598940D01*
X125022510Y-95602017D01*
X124896987Y-95674488D01*
X124896981Y-95674493D01*
X124794492Y-95776982D01*
X124794487Y-95776988D01*
X124722016Y-95902511D01*
X124722015Y-95902515D01*
X124684499Y-96042525D01*
X103900500Y-96042525D01*
X103900500Y-95250943D01*
X145039500Y-95250943D01*
X145039500Y-95409057D01*
X145065526Y-95506185D01*
X145080423Y-95561783D01*
X145080426Y-95561790D01*
X145159475Y-95698709D01*
X145159479Y-95698714D01*
X145159480Y-95698716D01*
X145271284Y-95810520D01*
X145271286Y-95810521D01*
X145271290Y-95810524D01*
X145343104Y-95851985D01*
X145408216Y-95889577D01*
X145560943Y-95930500D01*
X145560945Y-95930500D01*
X145719055Y-95930500D01*
X145719057Y-95930500D01*
X145871784Y-95889577D01*
X146008716Y-95810520D01*
X146120520Y-95698716D01*
X146199577Y-95561784D01*
X146240500Y-95409057D01*
X146240500Y-95250943D01*
X146199577Y-95098216D01*
X146144451Y-95002734D01*
X146120524Y-94961290D01*
X146120518Y-94961282D01*
X146008717Y-94849481D01*
X146008709Y-94849475D01*
X145871790Y-94770426D01*
X145871786Y-94770424D01*
X145871784Y-94770423D01*
X145719057Y-94729500D01*
X145560943Y-94729500D01*
X145408216Y-94770423D01*
X145408209Y-94770426D01*
X145271290Y-94849475D01*
X145271282Y-94849481D01*
X145159481Y-94961282D01*
X145159475Y-94961290D01*
X145080426Y-95098209D01*
X145080423Y-95098216D01*
X145039500Y-95250943D01*
X103900500Y-95250943D01*
X103900500Y-94057525D01*
X152999500Y-94057525D01*
X152999500Y-94202475D01*
X153030460Y-94318017D01*
X153037017Y-94342488D01*
X153109488Y-94468011D01*
X153109490Y-94468013D01*
X153109491Y-94468015D01*
X153211985Y-94570509D01*
X153211986Y-94570510D01*
X153211988Y-94570511D01*
X153337511Y-94642982D01*
X153337512Y-94642982D01*
X153337515Y-94642984D01*
X153477525Y-94680500D01*
X153477528Y-94680500D01*
X153622472Y-94680500D01*
X153622475Y-94680500D01*
X153762485Y-94642984D01*
X153888015Y-94570509D01*
X153990509Y-94468015D01*
X154062984Y-94342485D01*
X154091108Y-94237525D01*
X155614500Y-94237525D01*
X155614500Y-94382475D01*
X155644111Y-94492982D01*
X155652017Y-94522488D01*
X155724488Y-94648011D01*
X155724490Y-94648013D01*
X155724491Y-94648015D01*
X155826985Y-94750509D01*
X155826986Y-94750510D01*
X155826988Y-94750511D01*
X155952511Y-94822982D01*
X155952512Y-94822982D01*
X155952515Y-94822984D01*
X156092525Y-94860500D01*
X156092528Y-94860500D01*
X156237472Y-94860500D01*
X156237475Y-94860500D01*
X156377485Y-94822984D01*
X156503015Y-94750509D01*
X156605509Y-94648015D01*
X156634519Y-94597769D01*
X166502099Y-94597769D01*
X166502099Y-94802226D01*
X166541983Y-95002734D01*
X166541986Y-95002746D01*
X166620222Y-95191626D01*
X166620224Y-95191630D01*
X166733805Y-95361616D01*
X166733811Y-95361624D01*
X166878372Y-95506185D01*
X166878380Y-95506191D01*
X167048366Y-95619772D01*
X167048370Y-95619774D01*
X167186566Y-95677016D01*
X167237255Y-95698012D01*
X167437770Y-95737897D01*
X167437773Y-95737898D01*
X167437775Y-95737898D01*
X167642225Y-95737898D01*
X167642226Y-95737897D01*
X167842743Y-95698012D01*
X168031629Y-95619773D01*
X168031631Y-95619772D01*
X168118418Y-95561783D01*
X168201622Y-95506188D01*
X168346189Y-95361621D01*
X168459774Y-95191628D01*
X168538013Y-95002742D01*
X168577899Y-94802222D01*
X168577899Y-94597774D01*
X168577899Y-94597771D01*
X168577898Y-94597769D01*
X168564517Y-94530500D01*
X168538013Y-94397254D01*
X168505190Y-94318011D01*
X168459775Y-94208369D01*
X168459773Y-94208365D01*
X168346192Y-94038379D01*
X168346186Y-94038371D01*
X168201625Y-93893810D01*
X168201617Y-93893804D01*
X168031631Y-93780223D01*
X168031627Y-93780221D01*
X167842747Y-93701985D01*
X167842735Y-93701982D01*
X167642226Y-93662098D01*
X167642223Y-93662098D01*
X167437775Y-93662098D01*
X167437772Y-93662098D01*
X167237262Y-93701982D01*
X167237250Y-93701985D01*
X167048370Y-93780221D01*
X167048366Y-93780223D01*
X166878380Y-93893804D01*
X166878372Y-93893810D01*
X166733811Y-94038371D01*
X166733805Y-94038379D01*
X166620224Y-94208365D01*
X166620222Y-94208369D01*
X166541986Y-94397249D01*
X166541983Y-94397261D01*
X166502099Y-94597769D01*
X156634519Y-94597769D01*
X156677984Y-94522485D01*
X156715500Y-94382475D01*
X156715500Y-94237525D01*
X156677984Y-94097515D01*
X156651978Y-94052472D01*
X156605511Y-93971988D01*
X156605506Y-93971982D01*
X156541049Y-93907525D01*
X157729500Y-93907525D01*
X157729500Y-94052475D01*
X157741569Y-94097515D01*
X157767017Y-94192488D01*
X157839488Y-94318011D01*
X157839490Y-94318013D01*
X157839491Y-94318015D01*
X157941985Y-94420509D01*
X157941986Y-94420510D01*
X157941988Y-94420511D01*
X158067511Y-94492982D01*
X158067512Y-94492982D01*
X158067515Y-94492984D01*
X158207525Y-94530500D01*
X158207528Y-94530500D01*
X158352472Y-94530500D01*
X158352475Y-94530500D01*
X158492485Y-94492984D01*
X158618015Y-94420509D01*
X158720509Y-94318015D01*
X158792984Y-94192485D01*
X158830500Y-94052475D01*
X158830500Y-93907525D01*
X158792984Y-93767515D01*
X158755148Y-93701982D01*
X158720511Y-93641988D01*
X158720506Y-93641982D01*
X158618017Y-93539493D01*
X158618011Y-93539488D01*
X158492488Y-93467017D01*
X158492489Y-93467017D01*
X158481006Y-93463940D01*
X158352475Y-93429500D01*
X158207525Y-93429500D01*
X158078993Y-93463940D01*
X158067511Y-93467017D01*
X157941988Y-93539488D01*
X157941982Y-93539493D01*
X157839493Y-93641982D01*
X157839488Y-93641988D01*
X157767017Y-93767511D01*
X157767016Y-93767515D01*
X157729500Y-93907525D01*
X156541049Y-93907525D01*
X156503017Y-93869493D01*
X156503011Y-93869488D01*
X156377488Y-93797017D01*
X156377489Y-93797017D01*
X156358698Y-93791982D01*
X156237475Y-93759500D01*
X156092525Y-93759500D01*
X155971302Y-93791982D01*
X155952511Y-93797017D01*
X155826988Y-93869488D01*
X155826982Y-93869493D01*
X155724493Y-93971982D01*
X155724488Y-93971988D01*
X155652017Y-94097511D01*
X155652016Y-94097515D01*
X155614500Y-94237525D01*
X154091108Y-94237525D01*
X154100500Y-94202475D01*
X154100500Y-94057525D01*
X154062984Y-93917515D01*
X154057217Y-93907527D01*
X153990511Y-93791988D01*
X153990506Y-93791982D01*
X153888017Y-93689493D01*
X153888011Y-93689488D01*
X153762488Y-93617017D01*
X153762489Y-93617017D01*
X153751006Y-93613940D01*
X153622475Y-93579500D01*
X153477525Y-93579500D01*
X153348993Y-93613940D01*
X153337511Y-93617017D01*
X153211988Y-93689488D01*
X153211982Y-93689493D01*
X153109493Y-93791982D01*
X153109488Y-93791988D01*
X153037017Y-93917511D01*
X153037016Y-93917515D01*
X152999500Y-94057525D01*
X103900500Y-94057525D01*
X103900500Y-91579570D01*
X106758500Y-91579570D01*
X106758500Y-91799927D01*
X106758501Y-91799943D01*
X106787263Y-92018417D01*
X106844300Y-92231282D01*
X106928629Y-92434869D01*
X106928633Y-92434878D01*
X107038817Y-92625722D01*
X107087121Y-92688672D01*
X107629583Y-92146210D01*
X107719474Y-92280741D01*
X107848608Y-92409875D01*
X107983137Y-92499764D01*
X107440675Y-93042226D01*
X107503626Y-93090530D01*
X107503633Y-93090535D01*
X107694470Y-93200715D01*
X107694479Y-93200719D01*
X107898066Y-93285048D01*
X108110931Y-93342085D01*
X108329405Y-93370847D01*
X108329422Y-93370849D01*
X108549778Y-93370849D01*
X108549794Y-93370847D01*
X108768268Y-93342085D01*
X108981133Y-93285048D01*
X109184720Y-93200719D01*
X109184729Y-93200715D01*
X109375569Y-93090533D01*
X109438523Y-93042226D01*
X109438523Y-93042225D01*
X108896062Y-92499765D01*
X109030592Y-92409875D01*
X109159726Y-92280741D01*
X109249616Y-92146211D01*
X109792076Y-92688672D01*
X109792077Y-92688672D01*
X109840384Y-92625718D01*
X109950566Y-92434878D01*
X109950570Y-92434869D01*
X110034899Y-92231282D01*
X110091936Y-92018417D01*
X110120698Y-91799943D01*
X110120700Y-91799927D01*
X110120700Y-91597581D01*
X115268400Y-91597581D01*
X115268400Y-91822918D01*
X115303651Y-92045485D01*
X115373282Y-92259791D01*
X115373283Y-92259794D01*
X115462494Y-92434878D01*
X115475586Y-92460572D01*
X115608037Y-92642875D01*
X115767375Y-92802213D01*
X115949678Y-92934664D01*
X116048153Y-92984839D01*
X116150455Y-93036966D01*
X116150458Y-93036967D01*
X116257611Y-93071782D01*
X116364766Y-93106599D01*
X116587331Y-93141850D01*
X116587332Y-93141850D01*
X116812668Y-93141850D01*
X116812669Y-93141850D01*
X117035234Y-93106599D01*
X117249544Y-93036966D01*
X117450322Y-92934664D01*
X117632625Y-92802213D01*
X117791963Y-92642875D01*
X117924414Y-92460572D01*
X118026716Y-92259794D01*
X118096349Y-92045484D01*
X118131600Y-91822919D01*
X118131600Y-91597581D01*
X118109417Y-91457525D01*
X157109500Y-91457525D01*
X157109500Y-91602475D01*
X157147016Y-91742485D01*
X157147017Y-91742488D01*
X157219488Y-91868011D01*
X157219490Y-91868013D01*
X157219491Y-91868015D01*
X157321985Y-91970509D01*
X157321986Y-91970510D01*
X157321988Y-91970511D01*
X157447511Y-92042982D01*
X157447512Y-92042982D01*
X157447515Y-92042984D01*
X157587525Y-92080500D01*
X157587528Y-92080500D01*
X157732472Y-92080500D01*
X157732475Y-92080500D01*
X157872485Y-92042984D01*
X157998015Y-91970509D01*
X158100509Y-91868015D01*
X158172984Y-91742485D01*
X158210500Y-91602475D01*
X158210500Y-91597770D01*
X166502099Y-91597770D01*
X166502099Y-91802227D01*
X166541983Y-92002735D01*
X166541986Y-92002747D01*
X166620222Y-92191627D01*
X166620224Y-92191631D01*
X166733805Y-92361617D01*
X166733811Y-92361625D01*
X166878372Y-92506186D01*
X166878380Y-92506192D01*
X167048366Y-92619773D01*
X167048370Y-92619775D01*
X167237250Y-92698011D01*
X167237255Y-92698013D01*
X167437770Y-92737898D01*
X167437773Y-92737899D01*
X167437775Y-92737899D01*
X167642225Y-92737899D01*
X167642226Y-92737898D01*
X167842743Y-92698013D01*
X167975858Y-92642875D01*
X168031627Y-92619775D01*
X168031631Y-92619773D01*
X168193920Y-92511335D01*
X168201622Y-92506189D01*
X168346189Y-92361622D01*
X168459774Y-92191629D01*
X168538013Y-92002743D01*
X168577899Y-91802223D01*
X168577899Y-91597775D01*
X168577899Y-91597772D01*
X168577898Y-91597770D01*
X168550001Y-91457525D01*
X168538013Y-91397255D01*
X168528801Y-91375015D01*
X168459775Y-91208370D01*
X168459773Y-91208366D01*
X168346192Y-91038380D01*
X168346186Y-91038372D01*
X168201625Y-90893811D01*
X168201617Y-90893805D01*
X168031631Y-90780224D01*
X168031627Y-90780222D01*
X167842747Y-90701986D01*
X167842735Y-90701983D01*
X167642226Y-90662099D01*
X167642223Y-90662099D01*
X167437775Y-90662099D01*
X167437772Y-90662099D01*
X167237262Y-90701983D01*
X167237250Y-90701986D01*
X167048370Y-90780222D01*
X167048366Y-90780224D01*
X166878380Y-90893805D01*
X166878372Y-90893811D01*
X166733811Y-91038372D01*
X166733805Y-91038380D01*
X166620224Y-91208366D01*
X166620222Y-91208370D01*
X166541986Y-91397250D01*
X166541983Y-91397262D01*
X166502099Y-91597770D01*
X158210500Y-91597770D01*
X158210500Y-91457525D01*
X158172984Y-91317515D01*
X158109968Y-91208369D01*
X158100511Y-91191988D01*
X158100506Y-91191982D01*
X157998017Y-91089493D01*
X157998011Y-91089488D01*
X157872488Y-91017017D01*
X157872489Y-91017017D01*
X157861006Y-91013940D01*
X157732475Y-90979500D01*
X157587525Y-90979500D01*
X157458993Y-91013940D01*
X157447511Y-91017017D01*
X157321988Y-91089488D01*
X157321982Y-91089493D01*
X157219493Y-91191982D01*
X157219488Y-91191988D01*
X157147017Y-91317511D01*
X157147016Y-91317515D01*
X157109500Y-91457525D01*
X118109417Y-91457525D01*
X118102826Y-91415911D01*
X118096349Y-91375015D01*
X118026717Y-91160708D01*
X118026716Y-91160705D01*
X117934386Y-90979500D01*
X117924414Y-90959928D01*
X117791963Y-90777625D01*
X117632625Y-90618287D01*
X117450322Y-90485836D01*
X117249544Y-90383533D01*
X117249541Y-90383532D01*
X117035235Y-90313901D01*
X116877757Y-90288959D01*
X116812669Y-90278650D01*
X116587331Y-90278650D01*
X116522243Y-90288959D01*
X116364764Y-90313901D01*
X116150458Y-90383532D01*
X116150455Y-90383533D01*
X115949677Y-90485836D01*
X115845667Y-90561404D01*
X115767375Y-90618287D01*
X115767373Y-90618289D01*
X115767372Y-90618289D01*
X115608039Y-90777622D01*
X115608039Y-90777623D01*
X115608037Y-90777625D01*
X115551154Y-90855917D01*
X115475586Y-90959927D01*
X115373283Y-91160705D01*
X115373282Y-91160708D01*
X115303651Y-91375014D01*
X115268400Y-91597581D01*
X110120700Y-91597581D01*
X110120700Y-91579570D01*
X110120698Y-91579554D01*
X110091936Y-91361080D01*
X110034899Y-91148215D01*
X109950570Y-90944628D01*
X109950566Y-90944619D01*
X109840386Y-90753782D01*
X109840381Y-90753775D01*
X109792077Y-90690824D01*
X109249615Y-91233285D01*
X109159726Y-91098757D01*
X109030592Y-90969623D01*
X108896062Y-90879732D01*
X109438523Y-90337270D01*
X109375573Y-90288966D01*
X109233231Y-90206785D01*
X109184729Y-90178782D01*
X109184720Y-90178778D01*
X109012701Y-90107525D01*
X156529500Y-90107525D01*
X156529500Y-90252475D01*
X156564618Y-90383534D01*
X156567017Y-90392488D01*
X156639488Y-90518011D01*
X156639490Y-90518013D01*
X156639491Y-90518015D01*
X156741985Y-90620509D01*
X156741986Y-90620510D01*
X156741988Y-90620511D01*
X156867511Y-90692982D01*
X156867512Y-90692982D01*
X156867515Y-90692984D01*
X157007525Y-90730500D01*
X157007528Y-90730500D01*
X157152472Y-90730500D01*
X157152475Y-90730500D01*
X157292485Y-90692984D01*
X157418015Y-90620509D01*
X157520509Y-90518015D01*
X157592984Y-90392485D01*
X157630500Y-90252475D01*
X157630500Y-90107525D01*
X157592984Y-89967515D01*
X157520509Y-89841985D01*
X157418015Y-89739491D01*
X157418013Y-89739490D01*
X157418011Y-89739488D01*
X157292488Y-89667017D01*
X157292489Y-89667017D01*
X157268167Y-89660500D01*
X157152475Y-89629500D01*
X157007525Y-89629500D01*
X156891833Y-89660500D01*
X156867511Y-89667017D01*
X156741988Y-89739488D01*
X156741982Y-89739493D01*
X156639493Y-89841982D01*
X156639488Y-89841988D01*
X156567017Y-89967511D01*
X156567016Y-89967515D01*
X156529500Y-90107525D01*
X109012701Y-90107525D01*
X108981133Y-90094449D01*
X108768268Y-90037412D01*
X108549794Y-90008650D01*
X108549778Y-90008649D01*
X108329422Y-90008649D01*
X108329405Y-90008650D01*
X108110931Y-90037412D01*
X107898066Y-90094449D01*
X107694479Y-90178778D01*
X107694469Y-90178782D01*
X107503636Y-90288959D01*
X107503629Y-90288965D01*
X107440675Y-90337269D01*
X107440675Y-90337270D01*
X107983137Y-90879732D01*
X107848608Y-90969623D01*
X107719474Y-91098757D01*
X107629583Y-91233286D01*
X107087121Y-90690824D01*
X107087120Y-90690824D01*
X107038816Y-90753778D01*
X107038810Y-90753785D01*
X106928633Y-90944618D01*
X106928629Y-90944628D01*
X106844300Y-91148215D01*
X106787263Y-91361080D01*
X106758501Y-91579554D01*
X106758500Y-91579570D01*
X103900500Y-91579570D01*
X103900500Y-89037525D01*
X130569500Y-89037525D01*
X130569500Y-89182475D01*
X130571954Y-89191632D01*
X130607017Y-89322488D01*
X130679488Y-89448011D01*
X130679490Y-89448013D01*
X130679491Y-89448015D01*
X130781985Y-89550509D01*
X130781986Y-89550510D01*
X130781988Y-89550511D01*
X130907511Y-89622982D01*
X130907512Y-89622982D01*
X130907515Y-89622984D01*
X131047525Y-89660500D01*
X131047528Y-89660500D01*
X131192472Y-89660500D01*
X131192475Y-89660500D01*
X131332485Y-89622984D01*
X131458015Y-89550509D01*
X131560509Y-89448015D01*
X131632984Y-89322485D01*
X131670500Y-89182475D01*
X131670500Y-89037525D01*
X131632984Y-88897515D01*
X131560509Y-88771985D01*
X131458015Y-88669491D01*
X131458013Y-88669490D01*
X131458011Y-88669488D01*
X131332488Y-88597017D01*
X131332489Y-88597017D01*
X131321006Y-88593940D01*
X131192475Y-88559500D01*
X131047525Y-88559500D01*
X130918993Y-88593940D01*
X130907511Y-88597017D01*
X130781988Y-88669488D01*
X130781982Y-88669493D01*
X130679493Y-88771982D01*
X130679488Y-88771988D01*
X130607017Y-88897511D01*
X130607016Y-88897515D01*
X130569500Y-89037525D01*
X103900500Y-89037525D01*
X103900500Y-88007525D01*
X161489500Y-88007525D01*
X161489500Y-88152475D01*
X161527016Y-88292485D01*
X161527017Y-88292488D01*
X161599488Y-88418011D01*
X161599490Y-88418013D01*
X161599491Y-88418015D01*
X161701985Y-88520509D01*
X161701986Y-88520510D01*
X161701988Y-88520511D01*
X161827511Y-88592982D01*
X161827512Y-88592982D01*
X161827515Y-88592984D01*
X161967525Y-88630500D01*
X161967528Y-88630500D01*
X162112472Y-88630500D01*
X162112475Y-88630500D01*
X162234620Y-88597771D01*
X166502099Y-88597771D01*
X166502099Y-88802228D01*
X166541983Y-89002736D01*
X166541986Y-89002748D01*
X166620222Y-89191628D01*
X166620224Y-89191632D01*
X166733805Y-89361618D01*
X166733811Y-89361626D01*
X166878372Y-89506187D01*
X166878380Y-89506193D01*
X167048366Y-89619774D01*
X167048370Y-89619776D01*
X167162421Y-89667017D01*
X167237255Y-89698014D01*
X167437770Y-89737899D01*
X167437773Y-89737900D01*
X167437775Y-89737900D01*
X167642225Y-89737900D01*
X167642226Y-89737899D01*
X167842743Y-89698014D01*
X168031629Y-89619775D01*
X168031631Y-89619774D01*
X168116056Y-89563362D01*
X168201622Y-89506190D01*
X168346189Y-89361623D01*
X168459774Y-89191630D01*
X168463568Y-89182472D01*
X168538011Y-89002748D01*
X168538013Y-89002744D01*
X168577899Y-88802224D01*
X168577899Y-88597776D01*
X168577899Y-88597773D01*
X168577898Y-88597771D01*
X168562530Y-88520511D01*
X168538013Y-88397256D01*
X168494616Y-88292485D01*
X168459775Y-88208371D01*
X168459773Y-88208367D01*
X168346192Y-88038381D01*
X168346186Y-88038373D01*
X168201625Y-87893812D01*
X168201617Y-87893806D01*
X168031631Y-87780225D01*
X168031627Y-87780223D01*
X167842747Y-87701987D01*
X167842735Y-87701984D01*
X167642226Y-87662100D01*
X167642223Y-87662100D01*
X167437775Y-87662100D01*
X167437772Y-87662100D01*
X167237262Y-87701984D01*
X167237250Y-87701987D01*
X167048370Y-87780223D01*
X167048366Y-87780225D01*
X166878380Y-87893806D01*
X166878372Y-87893812D01*
X166733811Y-88038373D01*
X166733805Y-88038381D01*
X166620224Y-88208367D01*
X166620222Y-88208371D01*
X166541986Y-88397251D01*
X166541983Y-88397263D01*
X166502099Y-88597771D01*
X162234620Y-88597771D01*
X162252485Y-88592984D01*
X162378015Y-88520509D01*
X162480509Y-88418015D01*
X162552984Y-88292485D01*
X162590500Y-88152475D01*
X162590500Y-88007525D01*
X162552984Y-87867515D01*
X162517208Y-87805550D01*
X162480511Y-87741988D01*
X162480506Y-87741982D01*
X162378017Y-87639493D01*
X162378011Y-87639488D01*
X162252488Y-87567017D01*
X162252489Y-87567017D01*
X162236478Y-87562727D01*
X162112475Y-87529500D01*
X161967525Y-87529500D01*
X161843522Y-87562727D01*
X161827511Y-87567017D01*
X161701988Y-87639488D01*
X161701982Y-87639493D01*
X161599493Y-87741982D01*
X161599488Y-87741988D01*
X161527017Y-87867511D01*
X161527016Y-87867515D01*
X161489500Y-88007525D01*
X103900500Y-88007525D01*
X103900500Y-86073146D01*
X106958000Y-86073146D01*
X106958000Y-86306353D01*
X106989651Y-86506194D01*
X106994482Y-86536692D01*
X107066548Y-86758487D01*
X107172422Y-86966277D01*
X107309499Y-87154947D01*
X107474403Y-87319851D01*
X107663073Y-87456928D01*
X107870863Y-87562802D01*
X108092658Y-87634868D01*
X108322996Y-87671350D01*
X108322997Y-87671350D01*
X108556203Y-87671350D01*
X108556204Y-87671350D01*
X108786542Y-87634868D01*
X109008337Y-87562802D01*
X109216127Y-87456928D01*
X109404797Y-87319851D01*
X109569701Y-87154947D01*
X109706778Y-86966277D01*
X109812652Y-86758487D01*
X109884718Y-86536692D01*
X109921200Y-86306354D01*
X109921200Y-86100072D01*
X115018900Y-86100072D01*
X115018900Y-86320429D01*
X115018901Y-86320445D01*
X115047663Y-86538919D01*
X115104700Y-86751784D01*
X115189029Y-86955371D01*
X115189033Y-86955380D01*
X115299217Y-87146224D01*
X115347521Y-87209174D01*
X115889983Y-86666712D01*
X115979874Y-86801243D01*
X116109008Y-86930377D01*
X116243537Y-87020266D01*
X115701075Y-87562728D01*
X115764026Y-87611032D01*
X115764033Y-87611037D01*
X115954870Y-87721217D01*
X115954879Y-87721221D01*
X116158466Y-87805550D01*
X116371331Y-87862587D01*
X116589805Y-87891349D01*
X116589822Y-87891351D01*
X116810178Y-87891351D01*
X116810195Y-87891349D01*
X116923302Y-87876459D01*
X117028668Y-87862587D01*
X117241533Y-87805550D01*
X117445120Y-87721221D01*
X117445129Y-87721217D01*
X117635969Y-87611035D01*
X117698923Y-87562728D01*
X117698923Y-87562727D01*
X117156462Y-87020267D01*
X117290992Y-86930377D01*
X117420126Y-86801243D01*
X117510016Y-86666713D01*
X118052476Y-87209174D01*
X118052477Y-87209174D01*
X118100784Y-87146220D01*
X118210966Y-86955380D01*
X118210970Y-86955371D01*
X118295299Y-86751784D01*
X118352336Y-86538919D01*
X118381098Y-86320445D01*
X118381100Y-86320429D01*
X118381100Y-86100072D01*
X118381098Y-86100056D01*
X118352336Y-85881582D01*
X118295298Y-85668714D01*
X118248963Y-85556850D01*
X118232674Y-85517525D01*
X139389500Y-85517525D01*
X139389500Y-85662475D01*
X139427016Y-85802485D01*
X139427017Y-85802488D01*
X139499488Y-85928011D01*
X139499490Y-85928013D01*
X139499491Y-85928015D01*
X139601985Y-86030509D01*
X139601986Y-86030510D01*
X139601988Y-86030511D01*
X139727511Y-86102982D01*
X139727512Y-86102982D01*
X139727515Y-86102984D01*
X139867525Y-86140500D01*
X139867528Y-86140500D01*
X140012472Y-86140500D01*
X140012475Y-86140500D01*
X140152485Y-86102984D01*
X140278015Y-86030509D01*
X140380509Y-85928015D01*
X140452984Y-85802485D01*
X140490500Y-85662475D01*
X140490500Y-85597772D01*
X166502099Y-85597772D01*
X166502099Y-85802229D01*
X166541983Y-86002737D01*
X166541986Y-86002749D01*
X166620222Y-86191629D01*
X166620224Y-86191633D01*
X166733805Y-86361619D01*
X166733811Y-86361627D01*
X166878372Y-86506188D01*
X166878380Y-86506194D01*
X167048366Y-86619775D01*
X167048370Y-86619777D01*
X167237250Y-86698013D01*
X167237255Y-86698015D01*
X167437770Y-86737900D01*
X167437773Y-86737901D01*
X167437775Y-86737901D01*
X167642225Y-86737901D01*
X167642226Y-86737900D01*
X167842743Y-86698015D01*
X168031629Y-86619776D01*
X168031631Y-86619775D01*
X168155974Y-86536692D01*
X168201622Y-86506191D01*
X168346189Y-86361624D01*
X168447333Y-86210251D01*
X168459773Y-86191633D01*
X168459775Y-86191629D01*
X168496493Y-86102984D01*
X168538013Y-86002745D01*
X168577899Y-85802225D01*
X168577899Y-85597777D01*
X168577899Y-85597774D01*
X168577898Y-85597772D01*
X168561936Y-85517525D01*
X168538013Y-85397257D01*
X168529834Y-85377511D01*
X168459775Y-85208372D01*
X168459773Y-85208368D01*
X168346192Y-85038382D01*
X168346186Y-85038374D01*
X168201625Y-84893813D01*
X168201617Y-84893807D01*
X168031631Y-84780226D01*
X168031627Y-84780224D01*
X167842747Y-84701988D01*
X167842735Y-84701985D01*
X167642226Y-84662101D01*
X167642223Y-84662101D01*
X167437775Y-84662101D01*
X167437772Y-84662101D01*
X167237262Y-84701985D01*
X167237250Y-84701988D01*
X167048370Y-84780224D01*
X167048366Y-84780226D01*
X166878380Y-84893807D01*
X166878372Y-84893813D01*
X166733811Y-85038374D01*
X166733805Y-85038382D01*
X166620224Y-85208368D01*
X166620222Y-85208372D01*
X166541986Y-85397252D01*
X166541983Y-85397264D01*
X166502099Y-85597772D01*
X140490500Y-85597772D01*
X140490500Y-85517525D01*
X140452984Y-85377515D01*
X140393383Y-85274284D01*
X140380511Y-85251988D01*
X140380506Y-85251982D01*
X140278017Y-85149493D01*
X140278011Y-85149488D01*
X140152488Y-85077017D01*
X140152489Y-85077017D01*
X140141006Y-85073940D01*
X140012475Y-85039500D01*
X139867525Y-85039500D01*
X139738993Y-85073940D01*
X139727511Y-85077017D01*
X139601988Y-85149488D01*
X139601982Y-85149493D01*
X139499493Y-85251982D01*
X139499488Y-85251988D01*
X139427017Y-85377511D01*
X139427016Y-85377515D01*
X139389500Y-85517525D01*
X118232674Y-85517525D01*
X118210971Y-85465130D01*
X118210966Y-85465121D01*
X118100786Y-85274284D01*
X118100781Y-85274277D01*
X118052477Y-85211326D01*
X117510015Y-85753787D01*
X117420126Y-85619259D01*
X117290992Y-85490125D01*
X117156462Y-85400234D01*
X117698923Y-84857772D01*
X117635973Y-84809468D01*
X117445129Y-84699284D01*
X117445120Y-84699280D01*
X117241533Y-84614951D01*
X117028668Y-84557914D01*
X116810194Y-84529152D01*
X116810178Y-84529151D01*
X116589822Y-84529151D01*
X116589805Y-84529152D01*
X116371331Y-84557914D01*
X116158466Y-84614951D01*
X115954879Y-84699280D01*
X115954869Y-84699284D01*
X115764036Y-84809461D01*
X115764029Y-84809467D01*
X115701075Y-84857771D01*
X115701075Y-84857772D01*
X116243537Y-85400234D01*
X116109008Y-85490125D01*
X115979874Y-85619259D01*
X115889983Y-85753788D01*
X115347521Y-85211326D01*
X115347520Y-85211326D01*
X115299216Y-85274280D01*
X115299210Y-85274287D01*
X115189033Y-85465120D01*
X115189029Y-85465130D01*
X115104700Y-85668717D01*
X115047663Y-85881582D01*
X115018901Y-86100056D01*
X115018900Y-86100072D01*
X109921200Y-86100072D01*
X109921200Y-86073146D01*
X109884718Y-85842808D01*
X109812652Y-85621013D01*
X109706778Y-85413223D01*
X109569701Y-85224553D01*
X109404797Y-85059649D01*
X109216127Y-84922572D01*
X109159672Y-84893807D01*
X109008339Y-84816699D01*
X109008338Y-84816698D01*
X109008337Y-84816698D01*
X108786542Y-84744632D01*
X108786540Y-84744631D01*
X108786539Y-84744631D01*
X108609598Y-84716606D01*
X108556204Y-84708150D01*
X108322996Y-84708150D01*
X108269601Y-84716606D01*
X108092661Y-84744631D01*
X107870860Y-84816699D01*
X107663072Y-84922572D01*
X107555429Y-85000779D01*
X107474403Y-85059649D01*
X107474401Y-85059651D01*
X107474400Y-85059651D01*
X107309501Y-85224550D01*
X107309501Y-85224551D01*
X107309499Y-85224553D01*
X107273370Y-85274280D01*
X107172422Y-85413222D01*
X107066549Y-85621010D01*
X106994481Y-85842811D01*
X106958000Y-86073146D01*
X103900500Y-86073146D01*
X103900500Y-82193713D01*
X153849500Y-82193713D01*
X153849500Y-82406286D01*
X153879828Y-82597773D01*
X153882754Y-82616243D01*
X153943184Y-82802228D01*
X153948444Y-82818414D01*
X154044951Y-83007820D01*
X154169890Y-83179786D01*
X154320213Y-83330109D01*
X154492179Y-83455048D01*
X154492181Y-83455049D01*
X154492184Y-83455051D01*
X154681588Y-83551557D01*
X154883757Y-83617246D01*
X155093713Y-83650500D01*
X155093714Y-83650500D01*
X155306286Y-83650500D01*
X155306287Y-83650500D01*
X155516243Y-83617246D01*
X155718412Y-83551557D01*
X155907816Y-83455051D01*
X156036414Y-83361620D01*
X156079786Y-83330109D01*
X156079788Y-83330106D01*
X156079792Y-83330104D01*
X156230104Y-83179792D01*
X156230106Y-83179788D01*
X156230109Y-83179786D01*
X156355048Y-83007820D01*
X156355047Y-83007820D01*
X156355051Y-83007816D01*
X156451557Y-82818412D01*
X156517246Y-82616243D01*
X156520171Y-82597773D01*
X166502099Y-82597773D01*
X166502099Y-82802230D01*
X166541983Y-83002738D01*
X166541986Y-83002750D01*
X166620222Y-83191630D01*
X166620224Y-83191634D01*
X166733805Y-83361620D01*
X166733811Y-83361628D01*
X166878372Y-83506189D01*
X166878380Y-83506195D01*
X167048366Y-83619776D01*
X167048370Y-83619778D01*
X167237250Y-83698014D01*
X167237255Y-83698016D01*
X167437770Y-83737901D01*
X167437773Y-83737902D01*
X167437775Y-83737902D01*
X167642225Y-83737902D01*
X167642226Y-83737901D01*
X167842743Y-83698016D01*
X168031629Y-83619777D01*
X168031631Y-83619776D01*
X168133731Y-83551555D01*
X168201622Y-83506192D01*
X168346189Y-83361625D01*
X168459774Y-83191632D01*
X168538013Y-83002746D01*
X168577899Y-82802226D01*
X168577899Y-82597778D01*
X168577899Y-82597775D01*
X168577898Y-82597773D01*
X168539809Y-82406287D01*
X168538013Y-82397258D01*
X168538011Y-82397253D01*
X168459775Y-82208373D01*
X168459773Y-82208369D01*
X168346192Y-82038383D01*
X168346186Y-82038375D01*
X168201625Y-81893814D01*
X168201617Y-81893808D01*
X168031631Y-81780227D01*
X168031627Y-81780225D01*
X167842747Y-81701989D01*
X167842735Y-81701986D01*
X167642226Y-81662102D01*
X167642223Y-81662102D01*
X167437775Y-81662102D01*
X167437772Y-81662102D01*
X167237262Y-81701986D01*
X167237250Y-81701989D01*
X167048370Y-81780225D01*
X167048366Y-81780227D01*
X166878380Y-81893808D01*
X166878372Y-81893814D01*
X166733811Y-82038375D01*
X166733805Y-82038383D01*
X166620224Y-82208369D01*
X166620222Y-82208373D01*
X166541986Y-82397253D01*
X166541983Y-82397265D01*
X166502099Y-82597773D01*
X156520171Y-82597773D01*
X156550500Y-82406287D01*
X156550500Y-82193713D01*
X156517246Y-81983757D01*
X156451557Y-81781588D01*
X156355051Y-81592184D01*
X156355049Y-81592181D01*
X156355048Y-81592179D01*
X156230109Y-81420213D01*
X156079786Y-81269890D01*
X155907820Y-81144951D01*
X155718414Y-81048444D01*
X155718413Y-81048443D01*
X155718412Y-81048443D01*
X155516243Y-80982754D01*
X155516241Y-80982753D01*
X155516240Y-80982753D01*
X155354957Y-80957208D01*
X155306287Y-80949500D01*
X155093713Y-80949500D01*
X155045042Y-80957208D01*
X154883760Y-80982753D01*
X154681585Y-81048444D01*
X154492179Y-81144951D01*
X154320213Y-81269890D01*
X154169890Y-81420213D01*
X154044951Y-81592179D01*
X153948444Y-81781585D01*
X153882753Y-81983760D01*
X153849500Y-82193713D01*
X103900500Y-82193713D01*
X103900500Y-78773434D01*
X106665100Y-78773434D01*
X106665100Y-79006063D01*
X106680013Y-79119331D01*
X106695463Y-79236679D01*
X106725565Y-79349023D01*
X106755668Y-79461369D01*
X106844683Y-79676270D01*
X106844688Y-79676281D01*
X106960987Y-79877715D01*
X106960998Y-79877731D01*
X107102596Y-80062266D01*
X107102602Y-80062273D01*
X107267075Y-80226746D01*
X107267081Y-80226751D01*
X107451626Y-80368357D01*
X107451633Y-80368361D01*
X107653067Y-80484660D01*
X107653072Y-80484662D01*
X107653075Y-80484664D01*
X107760528Y-80529172D01*
X107867979Y-80573680D01*
X107867980Y-80573680D01*
X107867982Y-80573681D01*
X108092670Y-80633886D01*
X108323293Y-80664249D01*
X108323300Y-80664249D01*
X108555900Y-80664249D01*
X108555907Y-80664249D01*
X108786530Y-80633886D01*
X109011218Y-80573681D01*
X109226125Y-80484664D01*
X109427574Y-80368357D01*
X109612119Y-80226751D01*
X109776602Y-80062268D01*
X109918208Y-79877723D01*
X110034515Y-79676274D01*
X110123532Y-79461367D01*
X110183737Y-79236679D01*
X110214100Y-79006056D01*
X110214100Y-78793935D01*
X114925500Y-78793935D01*
X114925500Y-79026564D01*
X114949115Y-79205930D01*
X114955863Y-79257180D01*
X114984483Y-79363991D01*
X115016068Y-79481870D01*
X115105083Y-79696771D01*
X115105088Y-79696782D01*
X115221387Y-79898216D01*
X115221398Y-79898232D01*
X115362996Y-80082767D01*
X115363002Y-80082774D01*
X115527475Y-80247247D01*
X115527482Y-80247253D01*
X115658887Y-80348083D01*
X115712026Y-80388858D01*
X115712033Y-80388862D01*
X115913467Y-80505161D01*
X115913472Y-80505163D01*
X115913475Y-80505165D01*
X116020928Y-80549673D01*
X116128379Y-80594181D01*
X116128380Y-80594181D01*
X116128382Y-80594182D01*
X116353070Y-80654387D01*
X116583693Y-80684750D01*
X116583700Y-80684750D01*
X116816300Y-80684750D01*
X116816307Y-80684750D01*
X117046930Y-80654387D01*
X117271618Y-80594182D01*
X117486525Y-80505165D01*
X117687974Y-80388858D01*
X117872519Y-80247252D01*
X118037002Y-80082769D01*
X118178608Y-79898224D01*
X118294915Y-79696775D01*
X118383932Y-79481868D01*
X118444137Y-79257180D01*
X118474500Y-79026557D01*
X118474500Y-78793943D01*
X118444137Y-78563320D01*
X118383932Y-78338632D01*
X118294915Y-78123725D01*
X118294913Y-78123722D01*
X118294911Y-78123717D01*
X118178612Y-77922283D01*
X118178608Y-77922276D01*
X118037002Y-77737731D01*
X118036997Y-77737725D01*
X117872524Y-77573252D01*
X117872517Y-77573246D01*
X117687982Y-77431648D01*
X117687980Y-77431646D01*
X117687974Y-77431642D01*
X117687969Y-77431639D01*
X117687966Y-77431637D01*
X117486532Y-77315338D01*
X117486521Y-77315333D01*
X117271620Y-77226318D01*
X117159274Y-77196215D01*
X117046930Y-77166113D01*
X116995680Y-77159365D01*
X116816314Y-77135750D01*
X116816307Y-77135750D01*
X116583693Y-77135750D01*
X116583685Y-77135750D01*
X116378694Y-77162739D01*
X116353070Y-77166113D01*
X116296898Y-77181164D01*
X116128379Y-77226318D01*
X115913478Y-77315333D01*
X115913467Y-77315338D01*
X115712033Y-77431637D01*
X115712017Y-77431648D01*
X115527482Y-77573246D01*
X115527475Y-77573252D01*
X115363002Y-77737725D01*
X115362996Y-77737732D01*
X115221398Y-77922267D01*
X115221387Y-77922283D01*
X115105088Y-78123717D01*
X115105083Y-78123728D01*
X115016068Y-78338629D01*
X114955863Y-78563321D01*
X114925500Y-78793935D01*
X110214100Y-78793935D01*
X110214100Y-78773442D01*
X110183737Y-78542819D01*
X110123532Y-78318131D01*
X110034515Y-78103224D01*
X110034513Y-78103221D01*
X110034511Y-78103216D01*
X109918212Y-77901782D01*
X109918208Y-77901775D01*
X109792333Y-77737731D01*
X109776603Y-77717231D01*
X109776597Y-77717224D01*
X109612124Y-77552751D01*
X109612117Y-77552745D01*
X109427582Y-77411147D01*
X109427580Y-77411145D01*
X109427574Y-77411141D01*
X109427569Y-77411138D01*
X109427566Y-77411136D01*
X109226132Y-77294837D01*
X109226121Y-77294832D01*
X109011220Y-77205817D01*
X108898874Y-77175714D01*
X108786530Y-77145612D01*
X108735280Y-77138864D01*
X108555914Y-77115249D01*
X108555907Y-77115249D01*
X108323293Y-77115249D01*
X108323285Y-77115249D01*
X108118294Y-77142238D01*
X108092670Y-77145612D01*
X108036498Y-77160663D01*
X107867979Y-77205817D01*
X107653078Y-77294832D01*
X107653067Y-77294837D01*
X107451633Y-77411136D01*
X107451617Y-77411147D01*
X107267082Y-77552745D01*
X107267075Y-77552751D01*
X107102602Y-77717224D01*
X107102596Y-77717231D01*
X106960998Y-77901766D01*
X106960987Y-77901782D01*
X106844688Y-78103216D01*
X106844683Y-78103227D01*
X106755668Y-78318128D01*
X106695463Y-78542820D01*
X106665100Y-78773434D01*
X103900500Y-78773434D01*
X103900500Y-75424500D01*
X103920185Y-75357461D01*
X103972989Y-75311706D01*
X104024500Y-75300500D01*
X170475669Y-75300500D01*
X170542708Y-75320185D01*
G37*
%TD.AperFunction*%
%TD*%
M02*
