%TF.GenerationSoftware,KiCad,Pcbnew,9.0.6*%
%TF.CreationDate,2026-02-16T15:04:55+01:00*%
%TF.ProjectId,WaterSensor,57617465-7253-4656-9e73-6f722e6b6963,rev?*%
%TF.SameCoordinates,Original*%
%TF.FileFunction,Copper,L1,Top*%
%TF.FilePolarity,Positive*%
%FSLAX46Y46*%
G04 Gerber Fmt 4.6, Leading zero omitted, Abs format (unit mm)*
G04 Created by KiCad (PCBNEW 9.0.6) date 2026-02-16 15:04:55*
%MOMM*%
%LPD*%
G01*
G04 APERTURE LIST*
G04 Aperture macros list*
%AMRoundRect*
0 Rectangle with rounded corners*
0 $1 Rounding radius*
0 $2 $3 $4 $5 $6 $7 $8 $9 X,Y pos of 4 corners*
0 Add a 4 corners polygon primitive as box body*
4,1,4,$2,$3,$4,$5,$6,$7,$8,$9,$2,$3,0*
0 Add four circle primitives for the rounded corners*
1,1,$1+$1,$2,$3*
1,1,$1+$1,$4,$5*
1,1,$1+$1,$6,$7*
1,1,$1+$1,$8,$9*
0 Add four rect primitives between the rounded corners*
20,1,$1+$1,$2,$3,$4,$5,0*
20,1,$1+$1,$4,$5,$6,$7,0*
20,1,$1+$1,$6,$7,$8,$9,0*
20,1,$1+$1,$8,$9,$2,$3,0*%
G04 Aperture macros list end*
%TA.AperFunction,EtchedComponent*%
%ADD10C,0.000000*%
%TD*%
%TA.AperFunction,SMDPad,CuDef*%
%ADD11R,2.050000X0.760000*%
%TD*%
%TA.AperFunction,SMDPad,CuDef*%
%ADD12R,0.950000X2.150000*%
%TD*%
%TA.AperFunction,SMDPad,CuDef*%
%ADD13R,3.250000X2.150000*%
%TD*%
%TA.AperFunction,SMDPad,CuDef*%
%ADD14R,0.508000X1.117600*%
%TD*%
%TA.AperFunction,SMDPad,CuDef*%
%ADD15RoundRect,0.250000X0.250000X0.475000X-0.250000X0.475000X-0.250000X-0.475000X0.250000X-0.475000X0*%
%TD*%
%TA.AperFunction,SMDPad,CuDef*%
%ADD16RoundRect,0.200000X0.275000X-0.200000X0.275000X0.200000X-0.275000X0.200000X-0.275000X-0.200000X0*%
%TD*%
%TA.AperFunction,SMDPad,CuDef*%
%ADD17RoundRect,0.250000X-0.475000X0.250000X-0.475000X-0.250000X0.475000X-0.250000X0.475000X0.250000X0*%
%TD*%
%TA.AperFunction,SMDPad,CuDef*%
%ADD18R,0.952500X0.558800*%
%TD*%
%TA.AperFunction,SMDPad,CuDef*%
%ADD19RoundRect,0.225000X0.225000X0.250000X-0.225000X0.250000X-0.225000X-0.250000X0.225000X-0.250000X0*%
%TD*%
%TA.AperFunction,SMDPad,CuDef*%
%ADD20R,1.725000X2.235000*%
%TD*%
%TA.AperFunction,SMDPad,CuDef*%
%ADD21R,0.250000X0.077000*%
%TD*%
%TA.AperFunction,SMDPad,CuDef*%
%ADD22R,0.250000X0.075000*%
%TD*%
%TA.AperFunction,SMDPad,CuDef*%
%ADD23R,0.510000X0.405000*%
%TD*%
%TA.AperFunction,SMDPad,CuDef*%
%ADD24R,0.990000X0.405000*%
%TD*%
%TA.AperFunction,SMDPad,CuDef*%
%ADD25RoundRect,0.200000X0.200000X0.275000X-0.200000X0.275000X-0.200000X-0.275000X0.200000X-0.275000X0*%
%TD*%
%TA.AperFunction,SMDPad,CuDef*%
%ADD26R,2.500000X0.500000*%
%TD*%
%TA.AperFunction,SMDPad,CuDef*%
%ADD27R,2.500000X2.000000*%
%TD*%
%TA.AperFunction,SMDPad,CuDef*%
%ADD28RoundRect,0.200000X-0.200000X-0.275000X0.200000X-0.275000X0.200000X0.275000X-0.200000X0.275000X0*%
%TD*%
%TA.AperFunction,SMDPad,CuDef*%
%ADD29R,0.965200X0.736600*%
%TD*%
%TA.AperFunction,SMDPad,CuDef*%
%ADD30R,0.355600X0.736600*%
%TD*%
%TA.AperFunction,SMDPad,CuDef*%
%ADD31RoundRect,0.218750X0.256250X-0.218750X0.256250X0.218750X-0.256250X0.218750X-0.256250X-0.218750X0*%
%TD*%
%TA.AperFunction,SMDPad,CuDef*%
%ADD32RoundRect,0.225000X-0.225000X-0.250000X0.225000X-0.250000X0.225000X0.250000X-0.225000X0.250000X0*%
%TD*%
%TA.AperFunction,SMDPad,CuDef*%
%ADD33RoundRect,0.087500X0.087500X-0.725000X0.087500X0.725000X-0.087500X0.725000X-0.087500X-0.725000X0*%
%TD*%
%TA.AperFunction,SMDPad,CuDef*%
%ADD34RoundRect,0.225000X-0.250000X0.225000X-0.250000X-0.225000X0.250000X-0.225000X0.250000X0.225000X0*%
%TD*%
%TA.AperFunction,SMDPad,CuDef*%
%ADD35C,1.500000*%
%TD*%
%TA.AperFunction,SMDPad,CuDef*%
%ADD36RoundRect,0.225000X0.250000X-0.225000X0.250000X0.225000X-0.250000X0.225000X-0.250000X-0.225000X0*%
%TD*%
%TA.AperFunction,SMDPad,CuDef*%
%ADD37C,1.000000*%
%TD*%
%TA.AperFunction,SMDPad,CuDef*%
%ADD38RoundRect,0.218750X0.218750X0.256250X-0.218750X0.256250X-0.218750X-0.256250X0.218750X-0.256250X0*%
%TD*%
%TA.AperFunction,SMDPad,CuDef*%
%ADD39RoundRect,0.112500X0.112500X-0.187500X0.112500X0.187500X-0.112500X0.187500X-0.112500X-0.187500X0*%
%TD*%
%TA.AperFunction,SMDPad,CuDef*%
%ADD40RoundRect,0.250000X0.475000X-0.250000X0.475000X0.250000X-0.475000X0.250000X-0.475000X-0.250000X0*%
%TD*%
%TA.AperFunction,ComponentPad*%
%ADD41C,2.362200*%
%TD*%
%TA.AperFunction,SMDPad,CuDef*%
%ADD42R,1.663700X0.558800*%
%TD*%
%TA.AperFunction,ComponentPad*%
%ADD43C,1.574800*%
%TD*%
%TA.AperFunction,SMDPad,CuDef*%
%ADD44RoundRect,0.200000X-0.275000X0.200000X-0.275000X-0.200000X0.275000X-0.200000X0.275000X0.200000X0*%
%TD*%
%TA.AperFunction,SMDPad,CuDef*%
%ADD45R,0.950000X0.850000*%
%TD*%
%TA.AperFunction,SMDPad,CuDef*%
%ADD46R,0.558800X1.663700*%
%TD*%
%TA.AperFunction,SMDPad,CuDef*%
%ADD47R,0.914400X2.108200*%
%TD*%
%TA.AperFunction,SMDPad,CuDef*%
%ADD48RoundRect,0.075000X-0.700000X-0.075000X0.700000X-0.075000X0.700000X0.075000X-0.700000X0.075000X0*%
%TD*%
%TA.AperFunction,SMDPad,CuDef*%
%ADD49RoundRect,0.075000X-0.075000X-0.700000X0.075000X-0.700000X0.075000X0.700000X-0.075000X0.700000X0*%
%TD*%
%TA.AperFunction,SMDPad,CuDef*%
%ADD50RoundRect,0.112500X-0.112500X0.187500X-0.112500X-0.187500X0.112500X-0.187500X0.112500X0.187500X0*%
%TD*%
%TA.AperFunction,SMDPad,CuDef*%
%ADD51R,0.762000X0.254000*%
%TD*%
%TA.AperFunction,SMDPad,CuDef*%
%ADD52R,0.355600X1.676400*%
%TD*%
%TA.AperFunction,SMDPad,CuDef*%
%ADD53O,1.350000X0.299999*%
%TD*%
%TA.AperFunction,SMDPad,CuDef*%
%ADD54R,2.100000X1.400000*%
%TD*%
%TA.AperFunction,SMDPad,CuDef*%
%ADD55R,1.805236X0.612132*%
%TD*%
%TA.AperFunction,SMDPad,CuDef*%
%ADD56RoundRect,0.250000X-0.250000X-0.475000X0.250000X-0.475000X0.250000X0.475000X-0.250000X0.475000X0*%
%TD*%
%TA.AperFunction,SMDPad,CuDef*%
%ADD57O,1.450000X0.599999*%
%TD*%
%TA.AperFunction,SMDPad,CuDef*%
%ADD58RoundRect,0.218750X-0.256250X0.218750X-0.256250X-0.218750X0.256250X-0.218750X0.256250X0.218750X0*%
%TD*%
%TA.AperFunction,ViaPad*%
%ADD59C,0.600000*%
%TD*%
%TA.AperFunction,Conductor*%
%ADD60C,0.500000*%
%TD*%
%TA.AperFunction,Conductor*%
%ADD61C,0.200000*%
%TD*%
%TA.AperFunction,Conductor*%
%ADD62C,0.300000*%
%TD*%
%TA.AperFunction,Conductor*%
%ADD63C,0.800000*%
%TD*%
%TA.AperFunction,Conductor*%
%ADD64C,0.400000*%
%TD*%
%TA.AperFunction,Conductor*%
%ADD65C,1.000000*%
%TD*%
%TA.AperFunction,Conductor*%
%ADD66C,0.100000*%
%TD*%
G04 APERTURE END LIST*
D10*
%TA.AperFunction,EtchedComponent*%
%TO.C,U4*%
G36*
X148310200Y-89174500D02*
G01*
X145109800Y-89174500D01*
X145109800Y-87066300D01*
X148310200Y-87066300D01*
X148310200Y-89174500D01*
G37*
%TD.AperFunction*%
%TD*%
D11*
%TO.P,J1,1,Pin_1*%
%TO.N,unconnected-(J1-Pin_1-Pad1)*%
X111145000Y-112780000D03*
%TO.P,J1,2,Pin_2*%
%TO.N,unconnected-(J1-Pin_2-Pad2)*%
X107595000Y-112780000D03*
%TO.P,J1,3,Pin_3*%
%TO.N,+3.3V*%
X111145000Y-114050000D03*
%TO.P,J1,4,Pin_4*%
%TO.N,Net-(J1-Pin_4)*%
X107595000Y-114050000D03*
%TO.P,J1,5,Pin_5*%
%TO.N,GND*%
X111145000Y-115320000D03*
%TO.P,J1,6,Pin_6*%
%TO.N,Net-(J1-Pin_6)*%
X107595000Y-115320000D03*
%TO.P,J1,7,Pin_7*%
%TO.N,GND*%
X111145000Y-116590000D03*
%TO.P,J1,8,Pin_8*%
%TO.N,unconnected-(J1-Pin_8-Pad8)*%
X107595000Y-116590000D03*
%TO.P,J1,9,Pin_9*%
%TO.N,unconnected-(J1-Pin_9-Pad9)*%
X111145000Y-117860000D03*
%TO.P,J1,10,Pin_10*%
%TO.N,unconnected-(J1-Pin_10-Pad10)*%
X107595000Y-117860000D03*
%TO.P,J1,11,Pin_11*%
%TO.N,Net-(J1-Pin_11)*%
X111145000Y-119130000D03*
%TO.P,J1,12,Pin_12*%
%TO.N,Net-(J1-Pin_12)*%
X107595000Y-119130000D03*
%TO.P,J1,13,Pin_13*%
%TO.N,USART1_RX*%
X111145000Y-120400000D03*
%TO.P,J1,14,Pin_14*%
%TO.N,USART1_TX*%
X107595000Y-120400000D03*
%TD*%
D12*
%TO.P,U5,1,INPUT*%
%TO.N,PS_RAW*%
X131130000Y-91000000D03*
%TO.P,U5,2,GND*%
%TO.N,GND*%
X133430000Y-91000000D03*
%TO.P,U5,3,OUTPUT*%
%TO.N,+5V*%
X135730000Y-91000000D03*
D13*
%TO.P,U5,4,GND*%
%TO.N,GND*%
X133430000Y-85200000D03*
%TD*%
D14*
%TO.P,Q4,1,C*%
%TO.N,Net-(Q4-C)*%
X152917500Y-105085600D03*
%TO.P,Q4,2,B*%
%TO.N,Net-(Q4-B)*%
X151012500Y-105085600D03*
%TO.P,Q4,3,E*%
%TO.N,GND*%
X151965000Y-106914400D03*
%TD*%
D15*
%TO.P,C7,1*%
%TO.N,+3.3V*%
X146300000Y-96830000D03*
%TO.P,C7,2*%
%TO.N,GND*%
X144400000Y-96830000D03*
%TD*%
D16*
%TO.P,RSense1,1*%
%TO.N,/VIConverter/IoutFW*%
X150700000Y-138965000D03*
%TO.P,RSense1,2*%
%TO.N,Out1*%
X150700000Y-137315000D03*
%TD*%
D17*
%TO.P,C34,1*%
%TO.N,PS_RAW*%
X125550000Y-90980000D03*
%TO.P,C34,2*%
%TO.N,GND*%
X125550000Y-92880000D03*
%TD*%
D18*
%TO.P,U11,1,OUT*%
%TO.N,VREF+*%
X133106350Y-118670001D03*
%TO.P,U11,2,GND*%
%TO.N,GND*%
X133106350Y-117720000D03*
%TO.P,U11,3,GND*%
X133106350Y-116769999D03*
%TO.P,U11,4,\u002ASHDN*%
%TO.N,+3.3V*%
X130553650Y-116769999D03*
%TO.P,U11,5,GND*%
%TO.N,GND*%
X130553650Y-117720000D03*
%TO.P,U11,6,VDD*%
%TO.N,+3.3V*%
X130553650Y-118670001D03*
%TD*%
D19*
%TO.P,C21,1*%
%TO.N,/LIN_BUS*%
X116285000Y-96980000D03*
%TO.P,C21,2*%
%TO.N,GND*%
X114735000Y-96980000D03*
%TD*%
D20*
%TO.P,QM4,1,D*%
%TO.N,/BLK-C-Water/+12V_BLK8C-5*%
X160238000Y-107898000D03*
D21*
X160975000Y-106744000D03*
D22*
X160975000Y-109053000D03*
D23*
X161355000Y-106908000D03*
X161355000Y-107568000D03*
X161355000Y-108228000D03*
X161355000Y-108888000D03*
D24*
%TO.P,QM4,2,G*%
%TO.N,Net-(Q4-C)*%
X158245000Y-108888000D03*
%TO.P,QM4,3,S*%
%TO.N,+12V*%
X158245000Y-106908000D03*
X158245000Y-107568000D03*
X158245000Y-108228000D03*
%TD*%
D16*
%TO.P,R5,1*%
%TO.N,GW_DAC_IN_B*%
X137510000Y-129845000D03*
%TO.P,R5,2*%
%TO.N,O2In1+*%
X137510000Y-128195000D03*
%TD*%
D25*
%TO.P,R20,1*%
%TO.N,GND*%
X116305000Y-117710000D03*
%TO.P,R20,2*%
%TO.N,Net-(J1-Pin_11)*%
X114655000Y-117710000D03*
%TD*%
D19*
%TO.P,C18,1*%
%TO.N,/DAC_PROT&SWITCH/DAC_B_RAW_F*%
X123785000Y-130890000D03*
%TO.P,C18,2*%
%TO.N,GND*%
X122235000Y-130890000D03*
%TD*%
D14*
%TO.P,Q1,1,C*%
%TO.N,Net-(Q1-C)*%
X152982500Y-101585600D03*
%TO.P,Q1,2,B*%
%TO.N,Net-(Q1-B)*%
X151077500Y-101585600D03*
%TO.P,Q1,3,E*%
%TO.N,GND*%
X152030000Y-103414400D03*
%TD*%
D20*
%TO.P,QM6,1,D*%
%TO.N,/BLK-C-Water/+12V_BLK9C-3*%
X160273000Y-115898000D03*
D21*
X161010000Y-114744000D03*
D22*
X161010000Y-117053000D03*
D23*
X161390000Y-114908000D03*
X161390000Y-115568000D03*
X161390000Y-116228000D03*
X161390000Y-116888000D03*
D24*
%TO.P,QM6,2,G*%
%TO.N,Net-(Q6-C)*%
X158280000Y-116888000D03*
%TO.P,QM6,3,S*%
%TO.N,+12V*%
X158280000Y-114908000D03*
X158280000Y-115568000D03*
X158280000Y-116228000D03*
%TD*%
D26*
%TO.P,J6,1,VBUS*%
%TO.N,Net-(D2-A)*%
X112525000Y-126100000D03*
%TO.P,J6,2,D-*%
%TO.N,/USB_D-*%
X112525000Y-126900000D03*
%TO.P,J6,3,D+*%
%TO.N,/USB_D+*%
X112525000Y-127700000D03*
%TO.P,J6,4,ID*%
%TO.N,unconnected-(J6-ID-Pad4)*%
X112525000Y-128500000D03*
%TO.P,J6,5,GND*%
%TO.N,GND*%
X112525000Y-129300000D03*
D27*
%TO.P,J6,6,Shield*%
%TO.N,unconnected-(J6-Shield-Pad6)_2*%
X112525000Y-123300000D03*
%TO.N,unconnected-(J6-Shield-Pad6)_1*%
X107025000Y-123300000D03*
%TO.N,unconnected-(J6-Shield-Pad6)*%
X112525000Y-132100000D03*
%TO.N,unconnected-(J6-Shield-Pad6)_3*%
X107025000Y-132100000D03*
%TD*%
D16*
%TO.P,R25,1*%
%TO.N,BOOT*%
X130050000Y-99455000D03*
%TO.P,R25,2*%
%TO.N,GND*%
X130050000Y-97805000D03*
%TD*%
D28*
%TO.P,R3,1*%
%TO.N,/VIConverter/FW_DAC_IN_B_IN1-*%
X140905000Y-133350000D03*
%TO.P,R3,2*%
%TO.N,Out1*%
X142555000Y-133350000D03*
%TD*%
D29*
%TO.P,R16,1,1*%
%TO.N,Net-(Q3-C)*%
X153785500Y-92400000D03*
D30*
%TO.P,R16,2,2*%
%TO.N,Net-(Q2-C)*%
X154615000Y-92400000D03*
%TO.P,R16,3,3*%
%TO.N,Net-(Q1-C)*%
X155115000Y-92400000D03*
D29*
%TO.P,R16,4,4*%
%TO.N,Net-(Q4-C)*%
X155944500Y-92400000D03*
%TO.P,R16,5,5*%
%TO.N,+12V*%
X155944500Y-91130000D03*
D30*
%TO.P,R16,6,6*%
X155115000Y-91130000D03*
%TO.P,R16,7,7*%
X154615000Y-91130000D03*
D29*
%TO.P,R16,8,8*%
X153785500Y-91130000D03*
%TD*%
D31*
%TO.P,FB3,1*%
%TO.N,Net-(D1-K)*%
X123650000Y-92537500D03*
%TO.P,FB3,2*%
%TO.N,PS_RAW*%
X123650000Y-90962500D03*
%TD*%
D28*
%TO.P,R22,1*%
%TO.N,+3.3V*%
X119615000Y-120130000D03*
%TO.P,R22,2*%
%TO.N,Net-(D5-A)*%
X121265000Y-120130000D03*
%TD*%
D32*
%TO.P,C30,1*%
%TO.N,/DAC_PROT&SWITCH/BLKA_PWR*%
X159695000Y-139210000D03*
%TO.P,C30,2*%
%TO.N,GND*%
X161245000Y-139210000D03*
%TD*%
D33*
%TO.P,U10,1,UD+*%
%TO.N,/USB_D+*%
X122770000Y-120212500D03*
%TO.P,U10,2,UD-*%
%TO.N,/USB_D-*%
X123270000Y-120212500D03*
%TO.P,U10,3,GND*%
%TO.N,GND*%
X123770000Y-120212500D03*
%TO.P,U10,4,~{RTS}*%
%TO.N,unconnected-(U10-~{RTS}-Pad4)*%
X124270000Y-120212500D03*
%TO.P,U10,5,~{CTS}*%
%TO.N,unconnected-(U10-~{CTS}-Pad5)*%
X124770000Y-120212500D03*
%TO.P,U10,6,TNOW*%
%TO.N,unconnected-(U10-TNOW-Pad6)*%
X124770000Y-115987500D03*
%TO.P,U10,7,VCC*%
%TO.N,+3.3V*%
X124270000Y-115987500D03*
%TO.P,U10,8,TXD*%
%TO.N,USART3_RX*%
X123770000Y-115987500D03*
%TO.P,U10,9,RXD*%
%TO.N,USART3_TX*%
X123270000Y-115987500D03*
%TO.P,U10,10,V3*%
%TO.N,+3.3V*%
X122770000Y-115987500D03*
%TD*%
D34*
%TO.P,C4,1*%
%TO.N,PS_RAW*%
X129040000Y-90985000D03*
%TO.P,C4,2*%
%TO.N,GND*%
X129040000Y-92535000D03*
%TD*%
D28*
%TO.P,R10,1*%
%TO.N,DAC_IN_A*%
X122175000Y-135500000D03*
%TO.P,R10,2*%
%TO.N,/DAC_PROT&SWITCH/DAC_A_RAW_F*%
X123825000Y-135500000D03*
%TD*%
D19*
%TO.P,C25,1*%
%TO.N,/DAC_PROT&SWITCH/BLKB_PWR_BUFF*%
X131975000Y-121995000D03*
%TO.P,C25,2*%
%TO.N,GND*%
X130425000Y-121995000D03*
%TD*%
D34*
%TO.P,C9,1*%
%TO.N,+3.3V*%
X126270000Y-117325000D03*
%TO.P,C9,2*%
%TO.N,GND*%
X126270000Y-118875000D03*
%TD*%
D28*
%TO.P,R7,1*%
%TO.N,/VIConverter/GW_DAC_IN_B_IN1-*%
X138675000Y-123640000D03*
%TO.P,R7,2*%
%TO.N,O2Out1*%
X140325000Y-123640000D03*
%TD*%
D35*
%TO.P,TP2,1,1*%
%TO.N,/DAC_PROT&SWITCH/BLKB_PWR_BUFF*%
X134890000Y-123760000D03*
%TD*%
D16*
%TO.P,R27,1*%
%TO.N,+3.3V*%
X115925000Y-129325000D03*
%TO.P,R27,2*%
%TO.N,/USB_D+*%
X115925000Y-127675000D03*
%TD*%
D36*
%TO.P,C13,1*%
%TO.N,+3.3V*%
X138300000Y-101975000D03*
%TO.P,C13,2*%
%TO.N,GND*%
X138300000Y-100425000D03*
%TD*%
D37*
%TO.P,FID3,*%
%TO.N,*%
X161261000Y-79709000D03*
%TD*%
D16*
%TO.P,R24,1*%
%TO.N,uC_Alive*%
X141440000Y-100737500D03*
%TO.P,R24,2*%
%TO.N,Net-(D8-A)*%
X141440000Y-99087500D03*
%TD*%
D38*
%TO.P,D6,1,K*%
%TO.N,USART3_RX*%
X121250000Y-115440000D03*
%TO.P,D6,2,A*%
%TO.N,Net-(D6-A)*%
X119675000Y-115440000D03*
%TD*%
D14*
%TO.P,Q7,1,C*%
%TO.N,Net-(Q7-C)*%
X152917500Y-117485600D03*
%TO.P,Q7,2,B*%
%TO.N,Net-(Q7-B)*%
X151012500Y-117485600D03*
%TO.P,Q7,3,E*%
%TO.N,GND*%
X151965000Y-119314400D03*
%TD*%
D39*
%TO.P,D4,1,K*%
%TO.N,Net-(D4-K)*%
X112710000Y-98460000D03*
%TO.P,D4,2,A*%
%TO.N,PS_RAW*%
X112710000Y-96360000D03*
%TD*%
D40*
%TO.P,C6,1*%
%TO.N,+5V*%
X141680000Y-89840000D03*
%TO.P,C6,2*%
%TO.N,GND*%
X141680000Y-87940000D03*
%TD*%
D34*
%TO.P,C19,1*%
%TO.N,Net-(D3-K)*%
X108980000Y-98475000D03*
%TO.P,C19,2*%
%TO.N,GND*%
X108980000Y-100025000D03*
%TD*%
D28*
%TO.P,R19,1*%
%TO.N,Net-(J1-Pin_12)*%
X114665000Y-116170000D03*
%TO.P,R19,2*%
%TO.N,NRST*%
X116315000Y-116170000D03*
%TD*%
D41*
%TO.P,J2,1,Pin_1*%
%TO.N,GND*%
X116700000Y-86210251D03*
%TO.P,J2,2,Pin_2*%
%TO.N,PS_IN*%
X116700000Y-91710250D03*
%TD*%
D42*
%TO.P,U8,1,Out1*%
%TO.N,Out1*%
X142674250Y-135235000D03*
%TO.P,U8,2,In1-*%
%TO.N,/VIConverter/FW_DAC_IN_B_IN1-*%
X142674250Y-136505000D03*
%TO.P,U8,3,In1+*%
%TO.N,In1+*%
X142674250Y-137775000D03*
%TO.P,U8,4,VCC-*%
%TO.N,GND*%
X142674250Y-139045000D03*
%TO.P,U8,5,In2+*%
%TO.N,/VIConverter/IoutFW*%
X148325750Y-139045000D03*
%TO.P,U8,6,In2-*%
%TO.N,/VIConverter/FW_OUT2*%
X148325750Y-137775000D03*
%TO.P,U8,7,Out2*%
X148325750Y-136505000D03*
%TO.P,U8,8,VCC+*%
%TO.N,PS_RAW*%
X148325750Y-135235000D03*
%TD*%
D19*
%TO.P,C10,1*%
%TO.N,+3.3V*%
X125035000Y-102110000D03*
%TO.P,C10,2*%
%TO.N,GND*%
X123485000Y-102110000D03*
%TD*%
D20*
%TO.P,QM5,1,D*%
%TO.N,/BLK-C-Water/+12V_BLK9C-2*%
X160273000Y-111898000D03*
D21*
X161010000Y-110744000D03*
D22*
X161010000Y-113053000D03*
D23*
X161390000Y-110908000D03*
X161390000Y-111568000D03*
X161390000Y-112228000D03*
X161390000Y-112888000D03*
D24*
%TO.P,QM5,2,G*%
%TO.N,Net-(Q5-C)*%
X158280000Y-112888000D03*
%TO.P,QM5,3,S*%
%TO.N,+12V*%
X158280000Y-110908000D03*
X158280000Y-111568000D03*
X158280000Y-112228000D03*
%TD*%
D43*
%TO.P,J7,1,Pin_1*%
%TO.N,/DAC_PROT&SWITCH/BLKA_PWR*%
X167500000Y-138100000D03*
%TO.P,J7,2,Pin_2*%
%TO.N,/DAC_PROT&SWITCH/GW_DAC_IN_A*%
X167500000Y-141099999D03*
%TO.P,J7,3,Pin_3*%
%TO.N,/DAC_PROT&SWITCH/FW_DAC_IN_A*%
X167500000Y-144099998D03*
%TD*%
D19*
%TO.P,C1,1*%
%TO.N,NRST*%
X122235000Y-109070000D03*
%TO.P,C1,2*%
%TO.N,GND*%
X120685000Y-109070000D03*
%TD*%
D28*
%TO.P,R9,1*%
%TO.N,DAC_IN_B*%
X122185000Y-132430000D03*
%TO.P,R9,2*%
%TO.N,/DAC_PROT&SWITCH/DAC_B_RAW_F*%
X123835000Y-132430000D03*
%TD*%
%TO.P,R11,1*%
%TO.N,Net-(D4-K)*%
X114675000Y-98530000D03*
%TO.P,R11,2*%
%TO.N,/LIN_BUS*%
X116325000Y-98530000D03*
%TD*%
D34*
%TO.P,C26,1*%
%TO.N,PS_RAW*%
X155400000Y-131525000D03*
%TO.P,C26,2*%
%TO.N,GND*%
X155400000Y-133075000D03*
%TD*%
D42*
%TO.P,U9,1,Out1*%
%TO.N,O2Out1*%
X140174250Y-125635000D03*
%TO.P,U9,2,In1-*%
%TO.N,/VIConverter/GW_DAC_IN_B_IN1-*%
X140174250Y-126905000D03*
%TO.P,U9,3,In1+*%
%TO.N,O2In1+*%
X140174250Y-128175000D03*
%TO.P,U9,4,VCC-*%
%TO.N,GND*%
X140174250Y-129445000D03*
%TO.P,U9,5,In2+*%
%TO.N,/VIConverter/IoutGW*%
X145825750Y-129445000D03*
%TO.P,U9,6,In2-*%
%TO.N,/VIConverter/GW_OUT2*%
X145825750Y-128175000D03*
%TO.P,U9,7,Out2*%
X145825750Y-126905000D03*
%TO.P,U9,8,VCC+*%
%TO.N,PS_RAW*%
X145825750Y-125635000D03*
%TD*%
D34*
%TO.P,C17,1*%
%TO.N,VDDA*%
X138170000Y-116024999D03*
%TO.P,C17,2*%
%TO.N,GND*%
X138170000Y-117574999D03*
%TD*%
D43*
%TO.P,J5,1,Pin_1*%
%TO.N,/BLK-C-Water/+12V_BLK9C-2*%
X167515999Y-104117001D03*
%TO.P,J5,2,Pin_2*%
%TO.N,/BLK-C-Water/+12V_BLK9C-3*%
X167515999Y-107117000D03*
%TO.P,J5,3,Pin_3*%
%TO.N,/BLK-C-Water/+12V_BLK9C-4*%
X167515999Y-110116999D03*
%TO.P,J5,4,Pin_4*%
%TO.N,/BLK-C-Water/+12V_BLK9C-5*%
X167515999Y-113116998D03*
%TD*%
D34*
%TO.P,C3,1*%
%TO.N,OSC_OUT*%
X124810000Y-107015000D03*
%TO.P,C3,2*%
%TO.N,GND*%
X124810000Y-108565000D03*
%TD*%
D14*
%TO.P,Q5,1,C*%
%TO.N,Net-(Q5-C)*%
X152917500Y-120985600D03*
%TO.P,Q5,2,B*%
%TO.N,Net-(Q5-B)*%
X151012500Y-120985600D03*
%TO.P,Q5,3,E*%
%TO.N,GND*%
X151965000Y-122814400D03*
%TD*%
D31*
%TO.P,D8,1,K*%
%TO.N,GND*%
X143040000Y-100700000D03*
%TO.P,D8,2,A*%
%TO.N,Net-(D8-A)*%
X143040000Y-99125000D03*
%TD*%
D19*
%TO.P,C24,1*%
%TO.N,+5V*%
X123775000Y-133970000D03*
%TO.P,C24,2*%
%TO.N,GND*%
X122225000Y-133970000D03*
%TD*%
D36*
%TO.P,C14,1*%
%TO.N,+3.3V*%
X127530000Y-99375000D03*
%TO.P,C14,2*%
%TO.N,GND*%
X127530000Y-97825000D03*
%TD*%
D34*
%TO.P,C23,1*%
%TO.N,Net-(C23-Pad1)*%
X135073650Y-118834999D03*
%TO.P,C23,2*%
%TO.N,GND*%
X135073650Y-120384999D03*
%TD*%
D39*
%TO.P,D1,1,K*%
%TO.N,Net-(D1-K)*%
X121839600Y-92539749D03*
%TO.P,D1,2,A*%
%TO.N,PS_IN*%
X121839600Y-90439749D03*
%TD*%
D37*
%TO.P,FID1,*%
%TO.N,*%
X108876000Y-143038000D03*
%TD*%
D16*
%TO.P,RSense2,1*%
%TO.N,/VIConverter/IoutGW*%
X148400000Y-129490000D03*
%TO.P,RSense2,2*%
%TO.N,O2Out1*%
X148400000Y-127840000D03*
%TD*%
D32*
%TO.P,C28,1*%
%TO.N,PS_RAW*%
X148065000Y-125620000D03*
%TO.P,C28,2*%
%TO.N,GND*%
X149615000Y-125620000D03*
%TD*%
D39*
%TO.P,D3,1,K*%
%TO.N,Net-(D3-K)*%
X110740000Y-98447500D03*
%TO.P,D3,2,A*%
%TO.N,PS_RAW*%
X110740000Y-96347500D03*
%TD*%
D29*
%TO.P,R13,1,1*%
%TO.N,Net-(U13-Y5)*%
X147279500Y-113165000D03*
D30*
%TO.P,R13,2,2*%
%TO.N,Net-(U13-Y7)*%
X146450000Y-113165000D03*
%TO.P,R13,3,3*%
%TO.N,Net-(U13-Y6)*%
X145950000Y-113165000D03*
D29*
%TO.P,R13,4,4*%
%TO.N,Net-(U13-Y4)*%
X145120500Y-113165000D03*
%TO.P,R13,5,5*%
%TO.N,Net-(Q5-B)*%
X145120500Y-114435000D03*
D30*
%TO.P,R13,6,6*%
%TO.N,Net-(Q7-B)*%
X145950000Y-114435000D03*
%TO.P,R13,7,7*%
%TO.N,Net-(Q8-B)*%
X146450000Y-114435000D03*
D29*
%TO.P,R13,8,8*%
%TO.N,Net-(Q6-B)*%
X147279500Y-114435000D03*
%TD*%
D44*
%TO.P,R6,1*%
%TO.N,GND*%
X137500000Y-125115000D03*
%TO.P,R6,2*%
%TO.N,/VIConverter/GW_DAC_IN_B_IN1-*%
X137500000Y-126765000D03*
%TD*%
D14*
%TO.P,Q8,1,C*%
%TO.N,Net-(Q8-C)*%
X152917500Y-113985600D03*
%TO.P,Q8,2,B*%
%TO.N,Net-(Q8-B)*%
X151012500Y-113985600D03*
%TO.P,Q8,3,E*%
%TO.N,GND*%
X151965000Y-115814400D03*
%TD*%
D43*
%TO.P,J4,1,Pin_1*%
%TO.N,/BLK-C-Water/BLKC_PWR*%
X167539999Y-82700002D03*
%TO.P,J4,2,Pin_2*%
%TO.N,/BLK-C-Water/+12V_BLK8C-2*%
X167539999Y-85700001D03*
%TO.P,J4,3,Pin_3*%
%TO.N,/BLK-C-Water/+12V_BLK8C-3*%
X167539999Y-88700000D03*
%TO.P,J4,4,Pin_4*%
%TO.N,/BLK-C-Water/+12V_BLK8C-4*%
X167539999Y-91699999D03*
%TO.P,J4,5,Pin_5*%
%TO.N,/BLK-C-Water/+12V_BLK8C-5*%
X167539999Y-94699998D03*
%TD*%
D38*
%TO.P,D5,1,K*%
%TO.N,USART3_TX*%
X121207500Y-118560000D03*
%TO.P,D5,2,A*%
%TO.N,Net-(D5-A)*%
X119632500Y-118560000D03*
%TD*%
D42*
%TO.P,U3,1,Out1*%
%TO.N,FW_DAC_IN_B*%
X126474250Y-123890000D03*
%TO.P,U3,2,In1-*%
X126474250Y-125160000D03*
%TO.P,U3,3,In1+*%
%TO.N,/DAC_PROT&SWITCH/DAC_B_IN1+*%
X126474250Y-126430000D03*
%TO.P,U3,4,VCC-*%
%TO.N,GND*%
X126474250Y-127700000D03*
%TO.P,U3,5,In2+*%
%TO.N,/DAC_PROT&SWITCH/DAC_B_IN2+*%
X132125750Y-127700000D03*
%TO.P,U3,6,In2-*%
%TO.N,GW_DAC_IN_B*%
X132125750Y-126430000D03*
%TO.P,U3,7,Out2*%
X132125750Y-125160000D03*
%TO.P,U3,8,VCC+*%
%TO.N,/DAC_PROT&SWITCH/BLKB_PWR_BUFF*%
X132125750Y-123890000D03*
%TD*%
D28*
%TO.P,R18,1*%
%TO.N,Net-(J1-Pin_6)*%
X132145000Y-99400000D03*
%TO.P,R18,2*%
%TO.N,SWCLK*%
X133795000Y-99400000D03*
%TD*%
D19*
%TO.P,C27,1*%
%TO.N,PS_RAW*%
X148385000Y-133410000D03*
%TO.P,C27,2*%
%TO.N,GND*%
X146835000Y-133410000D03*
%TD*%
D32*
%TO.P,C11,1*%
%TO.N,+3.3V*%
X137305000Y-113960000D03*
%TO.P,C11,2*%
%TO.N,GND*%
X138855000Y-113960000D03*
%TD*%
D25*
%TO.P,R4,1*%
%TO.N,/VIConverter/FW_OUT2*%
X146525000Y-140940000D03*
%TO.P,R4,2*%
%TO.N,In1+*%
X144875000Y-140940000D03*
%TD*%
D44*
%TO.P,R12,1*%
%TO.N,VREF+*%
X135083650Y-115764999D03*
%TO.P,R12,2*%
%TO.N,Net-(C23-Pad1)*%
X135083650Y-117414999D03*
%TD*%
D36*
%TO.P,C33,1*%
%TO.N,/DAC_PROT&SWITCH/BLKA_PWR_BUFF*%
X135470000Y-141835000D03*
%TO.P,C33,2*%
%TO.N,GND*%
X135470000Y-140285000D03*
%TD*%
D20*
%TO.P,QM7,1,D*%
%TO.N,/BLK-C-Water/+12V_BLK9C-4*%
X160273000Y-119898000D03*
D21*
X161010000Y-118744000D03*
D22*
X161010000Y-121053000D03*
D23*
X161390000Y-118908000D03*
X161390000Y-119568000D03*
X161390000Y-120228000D03*
X161390000Y-120888000D03*
D24*
%TO.P,QM7,2,G*%
%TO.N,Net-(Q7-C)*%
X158280000Y-120888000D03*
%TO.P,QM7,3,S*%
%TO.N,+12V*%
X158280000Y-118908000D03*
X158280000Y-119568000D03*
X158280000Y-120228000D03*
%TD*%
D44*
%TO.P,R1,1*%
%TO.N,GND*%
X140100000Y-135515000D03*
%TO.P,R1,2*%
%TO.N,/VIConverter/FW_DAC_IN_B_IN1-*%
X140100000Y-137165000D03*
%TD*%
D35*
%TO.P,TP1,1,1*%
%TO.N,/DAC_PROT&SWITCH/BLKA_PWR_BUFF*%
X133340000Y-139400000D03*
%TD*%
D34*
%TO.P,C20,1*%
%TO.N,Net-(D3-K)*%
X107450000Y-98475000D03*
%TO.P,C20,2*%
%TO.N,GND*%
X107450000Y-100025000D03*
%TD*%
D14*
%TO.P,Q2,1,C*%
%TO.N,Net-(Q2-C)*%
X152917500Y-97900000D03*
%TO.P,Q2,2,B*%
%TO.N,Net-(Q2-B)*%
X151012500Y-97900000D03*
%TO.P,Q2,3,E*%
%TO.N,GND*%
X151965000Y-99728800D03*
%TD*%
D20*
%TO.P,QM2,1,D*%
%TO.N,/BLK-C-Water/+12V_BLK8C-3*%
X160138000Y-99898000D03*
D21*
X160875000Y-98744000D03*
D22*
X160875000Y-101053000D03*
D23*
X161255000Y-98908000D03*
X161255000Y-99568000D03*
X161255000Y-100228000D03*
X161255000Y-100888000D03*
D24*
%TO.P,QM2,2,G*%
%TO.N,Net-(Q2-C)*%
X158145000Y-100888000D03*
%TO.P,QM2,3,S*%
%TO.N,+12V*%
X158145000Y-98908000D03*
X158145000Y-99568000D03*
X158145000Y-100228000D03*
%TD*%
D28*
%TO.P,R21,1*%
%TO.N,+3.3V*%
X133535000Y-96420000D03*
%TO.P,R21,2*%
%TO.N,Net-(D7-A)*%
X135185000Y-96420000D03*
%TD*%
D19*
%TO.P,C31,1*%
%TO.N,/DAC_PROT&SWITCH/BLKB_PWR*%
X161175000Y-129300000D03*
%TO.P,C31,2*%
%TO.N,GND*%
X159625000Y-129300000D03*
%TD*%
D25*
%TO.P,R8,1*%
%TO.N,/VIConverter/GW_OUT2*%
X143925000Y-131320000D03*
%TO.P,R8,2*%
%TO.N,O2In1+*%
X142275000Y-131320000D03*
%TD*%
D19*
%TO.P,C12,1*%
%TO.N,+3.3V*%
X124655000Y-112020000D03*
%TO.P,C12,2*%
%TO.N,GND*%
X123105000Y-112020000D03*
%TD*%
D20*
%TO.P,QM1,1,D*%
%TO.N,/BLK-C-Water/+12V_BLK8C-2*%
X160238000Y-103898000D03*
D21*
X160975000Y-102744000D03*
D22*
X160975000Y-105053000D03*
D23*
X161355000Y-102908000D03*
X161355000Y-103568000D03*
X161355000Y-104228000D03*
X161355000Y-104888000D03*
D24*
%TO.P,QM1,2,G*%
%TO.N,Net-(Q1-C)*%
X158245000Y-104888000D03*
%TO.P,QM1,3,S*%
%TO.N,+12V*%
X158245000Y-102908000D03*
X158245000Y-103568000D03*
X158245000Y-104228000D03*
%TD*%
D20*
%TO.P,QM3,1,D*%
%TO.N,/BLK-C-Water/+12V_BLK8C-4*%
X160138000Y-95898000D03*
D21*
X160875000Y-94744000D03*
D22*
X160875000Y-97053000D03*
D23*
X161255000Y-94908000D03*
X161255000Y-95568000D03*
X161255000Y-96228000D03*
X161255000Y-96888000D03*
D24*
%TO.P,QM3,2,G*%
%TO.N,Net-(Q3-C)*%
X158145000Y-96888000D03*
%TO.P,QM3,3,S*%
%TO.N,+12V*%
X158145000Y-94908000D03*
X158145000Y-95568000D03*
X158145000Y-96228000D03*
%TD*%
D42*
%TO.P,U2,1,Out1*%
%TO.N,/DAC_PROT&SWITCH/FW_DAC_IN_A*%
X127724250Y-141815000D03*
%TO.P,U2,2,In1-*%
X127724250Y-143085000D03*
%TO.P,U2,3,In1+*%
%TO.N,/DAC_PROT&SWITCH/DAC_A_IN1+*%
X127724250Y-144355000D03*
%TO.P,U2,4,VCC-*%
%TO.N,GND*%
X127724250Y-145625000D03*
%TO.P,U2,5,In2+*%
%TO.N,/DAC_PROT&SWITCH/DAC_A_IN2+*%
X133375750Y-145625000D03*
%TO.P,U2,6,In2-*%
%TO.N,/DAC_PROT&SWITCH/GW_DAC_IN_A*%
X133375750Y-144355000D03*
%TO.P,U2,7,Out2*%
X133375750Y-143085000D03*
%TO.P,U2,8,VCC+*%
%TO.N,/DAC_PROT&SWITCH/BLKA_PWR_BUFF*%
X133375750Y-141815000D03*
%TD*%
D45*
%TO.P,XTAL1,1,1*%
%TO.N,OSC_IN*%
X122360000Y-105970000D03*
%TO.P,XTAL1,2,2*%
%TO.N,GND*%
X120910000Y-105970000D03*
%TO.P,XTAL1,3,3*%
%TO.N,OSC_OUT*%
X120910000Y-107120000D03*
%TO.P,XTAL1,4,4*%
%TO.N,GND*%
X122360000Y-107120000D03*
%TD*%
D19*
%TO.P,C32,1*%
%TO.N,/BLK-C-Water/BLKC_PWR*%
X160775000Y-92600000D03*
%TO.P,C32,2*%
%TO.N,GND*%
X159225000Y-92600000D03*
%TD*%
D46*
%TO.P,U14,1,Out1*%
%TO.N,/DAC_PROT&SWITCH/BLKA_PWR_BUFF*%
X157295000Y-137125750D03*
%TO.P,U14,2,In1-*%
X158565000Y-137125750D03*
%TO.P,U14,3,In1+*%
%TO.N,/DAC_PROT&SWITCH/BLKA_PWR*%
X159835000Y-137125750D03*
%TO.P,U14,4,VCC-*%
%TO.N,GND*%
X161105000Y-137125750D03*
%TO.P,U14,5,In2+*%
%TO.N,/DAC_PROT&SWITCH/BLKB_PWR*%
X161105000Y-131474250D03*
%TO.P,U14,6,In2-*%
%TO.N,/DAC_PROT&SWITCH/BLKB_PWR_BUFF*%
X159835000Y-131474250D03*
%TO.P,U14,7,Out2*%
X158565000Y-131474250D03*
%TO.P,U14,8,VCC+*%
%TO.N,PS_RAW*%
X157295000Y-131474250D03*
%TD*%
D38*
%TO.P,D7,1,K*%
%TO.N,GND*%
X138237500Y-96390000D03*
%TO.P,D7,2,A*%
%TO.N,Net-(D7-A)*%
X136662500Y-96390000D03*
%TD*%
D14*
%TO.P,Q3,1,C*%
%TO.N,Net-(Q3-C)*%
X152917500Y-94385600D03*
%TO.P,Q3,2,B*%
%TO.N,Net-(Q3-B)*%
X151012500Y-94385600D03*
%TO.P,Q3,3,E*%
%TO.N,GND*%
X151965000Y-96214400D03*
%TD*%
D29*
%TO.P,R15,1,1*%
%TO.N,Net-(U13-Y2)*%
X145220500Y-102335000D03*
D30*
%TO.P,R15,2,2*%
%TO.N,Net-(U13-Y1)*%
X146050000Y-102335000D03*
%TO.P,R15,3,3*%
%TO.N,Net-(U13-Y0)*%
X146550000Y-102335000D03*
D29*
%TO.P,R15,4,4*%
%TO.N,Net-(U13-Y3)*%
X147379500Y-102335000D03*
%TO.P,R15,5,5*%
%TO.N,Net-(Q4-B)*%
X147379500Y-101065000D03*
D30*
%TO.P,R15,6,6*%
%TO.N,Net-(Q1-B)*%
X146550000Y-101065000D03*
%TO.P,R15,7,7*%
%TO.N,Net-(Q2-B)*%
X146050000Y-101065000D03*
D29*
%TO.P,R15,8,8*%
%TO.N,Net-(Q3-B)*%
X145220500Y-101065000D03*
%TD*%
D34*
%TO.P,C35,1*%
%TO.N,PS_RAW*%
X127530000Y-90985000D03*
%TO.P,C35,2*%
%TO.N,GND*%
X127530000Y-92535000D03*
%TD*%
D47*
%TO.P,U4,1,GND*%
%TO.N,GND*%
X144410000Y-94419600D03*
%TO.P,U4,2,VO*%
%TO.N,+3.3V*%
X146710000Y-94419600D03*
%TO.P,U4,3,VI*%
%TO.N,+5V*%
X149010000Y-94419600D03*
%TD*%
D48*
%TO.P,U1,1,VBAT*%
%TO.N,+3.3V*%
X126625000Y-103250000D03*
%TO.P,U1,2,PC13*%
%TO.N,unconnected-(U1-PC13-Pad2)*%
X126625000Y-103750000D03*
%TO.P,U1,3,PC14*%
%TO.N,unconnected-(U1-PC14-Pad3)*%
X126625000Y-104250000D03*
%TO.P,U1,4,PC15*%
%TO.N,unconnected-(U1-PC15-Pad4)*%
X126625000Y-104750000D03*
%TO.P,U1,5,PF0*%
%TO.N,OSC_IN*%
X126625000Y-105250000D03*
%TO.P,U1,6,PF1*%
%TO.N,OSC_OUT*%
X126625000Y-105750000D03*
%TO.P,U1,7,PG10*%
%TO.N,NRST*%
X126625000Y-106250000D03*
%TO.P,U1,8,PC0*%
%TO.N,unconnected-(U1-PC0-Pad8)*%
X126625000Y-106750000D03*
%TO.P,U1,9,PC1*%
%TO.N,unconnected-(U1-PC1-Pad9)*%
X126625000Y-107250000D03*
%TO.P,U1,10,PC2*%
%TO.N,unconnected-(U1-PC2-Pad10)*%
X126625000Y-107750000D03*
%TO.P,U1,11,PC3*%
%TO.N,unconnected-(U1-PC3-Pad11)*%
X126625000Y-108250000D03*
%TO.P,U1,12,PA0*%
%TO.N,unconnected-(U1-PA0-Pad12)*%
X126625000Y-108750000D03*
%TO.P,U1,13,PA1*%
%TO.N,unconnected-(U1-PA1-Pad13)*%
X126625000Y-109250000D03*
%TO.P,U1,14,PA2*%
%TO.N,USART2_TX*%
X126625000Y-109750000D03*
%TO.P,U1,15,VSS*%
%TO.N,GND*%
X126625000Y-110250000D03*
%TO.P,U1,16,VDD*%
%TO.N,+3.3V*%
X126625000Y-110750000D03*
D49*
%TO.P,U1,17,PA3*%
%TO.N,USART2_RX*%
X128550000Y-112675000D03*
%TO.P,U1,18,PA4*%
%TO.N,DAC_IN_A*%
X129050000Y-112675000D03*
%TO.P,U1,19,PA5*%
%TO.N,DAC_IN_B*%
X129550000Y-112675000D03*
%TO.P,U1,20,PA6*%
%TO.N,IN_B*%
X130050000Y-112675000D03*
%TO.P,U1,21,PA7*%
%TO.N,IN_A*%
X130550000Y-112675000D03*
%TO.P,U1,22,PC4*%
%TO.N,USART1_TX*%
X131050000Y-112675000D03*
%TO.P,U1,23,PC5*%
%TO.N,USART1_RX*%
X131550000Y-112675000D03*
%TO.P,U1,24,PB0*%
%TO.N,unconnected-(U1-PB0-Pad24)*%
X132050000Y-112675000D03*
%TO.P,U1,25,PB1*%
%TO.N,unconnected-(U1-PB1-Pad25)*%
X132550000Y-112675000D03*
%TO.P,U1,26,PB2*%
%TO.N,unconnected-(U1-PB2-Pad26)*%
X133050000Y-112675000D03*
%TO.P,U1,27,VSSA*%
%TO.N,GND*%
X133550000Y-112675000D03*
%TO.P,U1,28,VREF+*%
%TO.N,VREF+*%
X134050000Y-112675000D03*
%TO.P,U1,29,VDDA*%
%TO.N,VDDA*%
X134550000Y-112675000D03*
%TO.P,U1,30,PB10*%
%TO.N,USART3_TX*%
X135050000Y-112675000D03*
%TO.P,U1,31,VSS*%
%TO.N,GND*%
X135550000Y-112675000D03*
%TO.P,U1,32,VDD*%
%TO.N,+3.3V*%
X136050000Y-112675000D03*
D48*
%TO.P,U1,33,PB11*%
%TO.N,USART3_RX*%
X137975000Y-110750000D03*
%TO.P,U1,34,PB12*%
%TO.N,unconnected-(U1-PB12-Pad34)*%
X137975000Y-110250000D03*
%TO.P,U1,35,PB13*%
%TO.N,unconnected-(U1-PB13-Pad35)*%
X137975000Y-109750000D03*
%TO.P,U1,36,PB14*%
%TO.N,unconnected-(U1-PB14-Pad36)*%
X137975000Y-109250000D03*
%TO.P,U1,37,PB15*%
%TO.N,unconnected-(U1-PB15-Pad37)*%
X137975000Y-108750000D03*
%TO.P,U1,38,PC6*%
%TO.N,BLKC_SEL_A*%
X137975000Y-108250000D03*
%TO.P,U1,39,PC7*%
%TO.N,BLKC_SEL_B*%
X137975000Y-107750000D03*
%TO.P,U1,40,PC8*%
%TO.N,BLKC_SEL_C*%
X137975000Y-107250000D03*
%TO.P,U1,41,PC9*%
%TO.N,BLKC_CTRL_IN*%
X137975000Y-106750000D03*
%TO.P,U1,42,PA8*%
%TO.N,unconnected-(U1-PA8-Pad42)*%
X137975000Y-106250000D03*
%TO.P,U1,43,PA9*%
%TO.N,unconnected-(U1-PA9-Pad43)*%
X137975000Y-105750000D03*
%TO.P,U1,44,PA10*%
%TO.N,unconnected-(U1-PA10-Pad44)*%
X137975000Y-105250000D03*
%TO.P,U1,45,PA11*%
%TO.N,EN_LIN*%
X137975000Y-104750000D03*
%TO.P,U1,46,PA12*%
%TO.N,uC_Alive*%
X137975000Y-104250000D03*
%TO.P,U1,47,VSS*%
%TO.N,GND*%
X137975000Y-103750000D03*
%TO.P,U1,48,VDD*%
%TO.N,+3.3V*%
X137975000Y-103250000D03*
D49*
%TO.P,U1,49,PA13*%
%TO.N,SWDIO*%
X136050000Y-101325000D03*
%TO.P,U1,50,PA14*%
%TO.N,SWCLK*%
X135550000Y-101325000D03*
%TO.P,U1,51,PA15*%
%TO.N,unconnected-(U1-PA15-Pad51)*%
X135050000Y-101325000D03*
%TO.P,U1,52,PC10*%
%TO.N,unconnected-(U1-PC10-Pad52)*%
X134550000Y-101325000D03*
%TO.P,U1,53,PC11*%
%TO.N,unconnected-(U1-PC11-Pad53)*%
X134050000Y-101325000D03*
%TO.P,U1,54,PC12*%
%TO.N,unconnected-(U1-PC12-Pad54)*%
X133550000Y-101325000D03*
%TO.P,U1,55,PD2*%
%TO.N,unconnected-(U1-PD2-Pad55)*%
X133050000Y-101325000D03*
%TO.P,U1,56,PB3*%
%TO.N,unconnected-(U1-PB3-Pad56)*%
X132550000Y-101325000D03*
%TO.P,U1,57,PB4*%
%TO.N,unconnected-(U1-PB4-Pad57)*%
X132050000Y-101325000D03*
%TO.P,U1,58,PB5*%
%TO.N,unconnected-(U1-PB5-Pad58)*%
X131550000Y-101325000D03*
%TO.P,U1,59,PB6*%
%TO.N,unconnected-(U1-PB6-Pad59)*%
X131050000Y-101325000D03*
%TO.P,U1,60,PB7*%
%TO.N,unconnected-(U1-PB7-Pad60)*%
X130550000Y-101325000D03*
%TO.P,U1,61,PB8*%
%TO.N,BOOT*%
X130050000Y-101325000D03*
%TO.P,U1,62,PB9*%
%TO.N,unconnected-(U1-PB9-Pad62)*%
X129550000Y-101325000D03*
%TO.P,U1,63,VSS*%
%TO.N,GND*%
X129050000Y-101325000D03*
%TO.P,U1,64,VDD*%
%TO.N,+3.3V*%
X128550000Y-101325000D03*
%TD*%
D37*
%TO.P,FID2,*%
%TO.N,*%
X144895000Y-119213000D03*
%TD*%
D34*
%TO.P,C16,1*%
%TO.N,VDDA*%
X136670000Y-116075000D03*
%TO.P,C16,2*%
%TO.N,GND*%
X136670000Y-117625000D03*
%TD*%
D19*
%TO.P,C2,1*%
%TO.N,OSC_IN*%
X124055000Y-104550000D03*
%TO.P,C2,2*%
%TO.N,GND*%
X122505000Y-104550000D03*
%TD*%
D28*
%TO.P,R23,1*%
%TO.N,+3.3V*%
X119645000Y-117030000D03*
%TO.P,R23,2*%
%TO.N,Net-(D6-A)*%
X121295000Y-117030000D03*
%TD*%
D25*
%TO.P,R26,1*%
%TO.N,+3.3V*%
X124225000Y-110540000D03*
%TO.P,R26,2*%
%TO.N,NRST*%
X122575000Y-110540000D03*
%TD*%
D50*
%TO.P,D2,1,K*%
%TO.N,Vdrive*%
X116025000Y-123150000D03*
%TO.P,D2,2,A*%
%TO.N,Net-(D2-A)*%
X116025000Y-125250000D03*
%TD*%
D16*
%TO.P,R2,1*%
%TO.N,FW_DAC_IN_B*%
X140100000Y-140165000D03*
%TO.P,R2,2*%
%TO.N,In1+*%
X140100000Y-138515000D03*
%TD*%
D51*
%TO.P,U7,1,GND*%
%TO.N,GND*%
X119016300Y-122200001D03*
%TO.P,U7,2,IO1*%
%TO.N,/USB_D+*%
X119016300Y-122700000D03*
%TO.P,U7,3,IO2*%
%TO.N,/USB_D-*%
X119016300Y-123199999D03*
%TO.P,U7,4,VCC*%
%TO.N,+5V*%
X121073700Y-123199999D03*
%TO.P,U7,5*%
%TO.N,N/C*%
X121073700Y-122200001D03*
%TD*%
D14*
%TO.P,Q6,1,C*%
%TO.N,Net-(Q6-C)*%
X152917500Y-110385600D03*
%TO.P,Q6,2,B*%
%TO.N,Net-(Q6-B)*%
X151012500Y-110385600D03*
%TO.P,Q6,3,E*%
%TO.N,GND*%
X151965000Y-112214400D03*
%TD*%
D40*
%TO.P,C5,1*%
%TO.N,+5V*%
X138230000Y-89810000D03*
%TO.P,C5,2*%
%TO.N,GND*%
X138230000Y-87910000D03*
%TD*%
D43*
%TO.P,J8,1,Pin_1*%
%TO.N,/DAC_PROT&SWITCH/BLKB_PWR*%
X167539799Y-122560401D03*
%TO.P,J8,2,Pin_2*%
%TO.N,/VIConverter/IoutGW*%
X167539799Y-125560400D03*
%TO.P,J8,3,Pin_3*%
%TO.N,/VIConverter/IoutFW*%
X167539799Y-128560399D03*
%TD*%
D52*
%TO.P,U13,1,Y4*%
%TO.N,Net-(U13-Y4)*%
X144525001Y-110419400D03*
%TO.P,U13,2,Y6*%
%TO.N,Net-(U13-Y6)*%
X145174999Y-110419400D03*
%TO.P,U13,3,COM*%
%TO.N,BLKC_CTRL_IN*%
X145825001Y-110419400D03*
%TO.P,U13,4,Y7*%
%TO.N,Net-(U13-Y7)*%
X146474999Y-110419400D03*
%TO.P,U13,5,Y5*%
%TO.N,Net-(U13-Y5)*%
X147124998Y-110419400D03*
%TO.P,U13,6,INH*%
%TO.N,GND*%
X147774999Y-110419400D03*
%TO.P,U13,7,GND*%
X148424998Y-110419400D03*
%TO.P,U13,8,GND*%
X149074999Y-110419400D03*
%TO.P,U13,9,C*%
%TO.N,BLKC_SEL_C*%
X149074999Y-104780600D03*
%TO.P,U13,10,B*%
%TO.N,BLKC_SEL_B*%
X148425001Y-104780600D03*
%TO.P,U13,11,A*%
%TO.N,BLKC_SEL_A*%
X147774999Y-104780600D03*
%TO.P,U13,12,Y3*%
%TO.N,Net-(U13-Y3)*%
X147125001Y-104780600D03*
%TO.P,U13,13,Y0*%
%TO.N,Net-(U13-Y0)*%
X146475002Y-104780600D03*
%TO.P,U13,14,Y1*%
%TO.N,Net-(U13-Y1)*%
X145825001Y-104780600D03*
%TO.P,U13,15,Y2*%
%TO.N,Net-(U13-Y2)*%
X145175002Y-104780600D03*
%TO.P,U13,16,VCC*%
%TO.N,+3.3V*%
X144525001Y-104780600D03*
%TD*%
D32*
%TO.P,C8,1*%
%TO.N,GND*%
X122225000Y-137100000D03*
%TO.P,C8,2*%
%TO.N,/DAC_PROT&SWITCH/DAC_A_RAW_F*%
X123775000Y-137100000D03*
%TD*%
%TO.P,C22,1*%
%TO.N,+3.3V*%
X130565000Y-120190000D03*
%TO.P,C22,2*%
%TO.N,GND*%
X132115000Y-120190000D03*
%TD*%
D53*
%TO.P,U6,1,IN1*%
%TO.N,IN_A*%
X131344999Y-135140001D03*
%TO.P,U6,2,NO1*%
%TO.N,/DAC_PROT&SWITCH/DAC_A_IN2+*%
X131344999Y-134640002D03*
%TO.P,U6,3,GND*%
%TO.N,GND*%
X131344999Y-134140000D03*
%TO.P,U6,4,NO2*%
%TO.N,/DAC_PROT&SWITCH/DAC_B_IN2+*%
X131344999Y-133640001D03*
%TO.P,U6,5,IN2*%
%TO.N,IN_B*%
X131344999Y-133139999D03*
%TO.P,U6,6,COM2*%
%TO.N,/DAC_PROT&SWITCH/DAC_B_RAW_F*%
X126894998Y-133139999D03*
%TO.P,U6,7,NC2*%
%TO.N,/DAC_PROT&SWITCH/DAC_B_IN1+*%
X126894998Y-133640001D03*
%TO.P,U6,8,V+*%
%TO.N,+5V*%
X126894998Y-134140000D03*
%TO.P,U6,9,NC1*%
%TO.N,/DAC_PROT&SWITCH/DAC_A_IN1+*%
X126894998Y-134640002D03*
%TO.P,U6,10,COM1*%
%TO.N,/DAC_PROT&SWITCH/DAC_A_RAW_F*%
X126894998Y-135140001D03*
%TD*%
D20*
%TO.P,QM8,1,D*%
%TO.N,/BLK-C-Water/+12V_BLK9C-5*%
X160173000Y-123998000D03*
D21*
X160910000Y-122844000D03*
D22*
X160910000Y-125153000D03*
D23*
X161290000Y-123008000D03*
X161290000Y-123668000D03*
X161290000Y-124328000D03*
X161290000Y-124988000D03*
D24*
%TO.P,QM8,2,G*%
%TO.N,Net-(Q8-C)*%
X158180000Y-124988000D03*
%TO.P,QM8,3,S*%
%TO.N,+12V*%
X158180000Y-123008000D03*
X158180000Y-123668000D03*
X158180000Y-124328000D03*
%TD*%
D54*
%TO.P,SW1,1,1*%
%TO.N,NRST*%
X116200000Y-107560000D03*
%TO.P,SW1,2,2*%
%TO.N,GND*%
X116200000Y-103060000D03*
%TO.P,SW1,3*%
%TO.N,N/C*%
X107100000Y-107560000D03*
%TO.P,SW1,4*%
X107100000Y-103060000D03*
%TD*%
D34*
%TO.P,C29,1*%
%TO.N,+3.3V*%
X143100000Y-104725000D03*
%TO.P,C29,2*%
%TO.N,GND*%
X143100000Y-106275000D03*
%TD*%
D25*
%TO.P,R17,1*%
%TO.N,Net-(J1-Pin_4)*%
X136815000Y-99400000D03*
%TO.P,R17,2*%
%TO.N,SWDIO*%
X135165000Y-99400000D03*
%TD*%
D55*
%TO.P,U15,1,+*%
%TO.N,/BLK-C-Water/BLKC_PWR*%
X160800000Y-90700000D03*
%TO.P,U15,2,-*%
%TO.N,+12V*%
X160800000Y-89749999D03*
%TO.P,U15,3,V+*%
%TO.N,PS_RAW*%
X160800000Y-88799998D03*
%TO.P,U15,4,V-*%
%TO.N,GND*%
X158499034Y-88799998D03*
%TO.P,U15,5*%
%TO.N,+12V*%
X158499034Y-90700000D03*
%TD*%
D56*
%TO.P,C15,1*%
%TO.N,+3.3V*%
X138350000Y-112200000D03*
%TO.P,C15,2*%
%TO.N,GND*%
X140250000Y-112200000D03*
%TD*%
D29*
%TO.P,R14,1,1*%
%TO.N,Net-(Q6-C)*%
X156079500Y-125365000D03*
D30*
%TO.P,R14,2,2*%
%TO.N,Net-(Q8-C)*%
X155250000Y-125365000D03*
%TO.P,R14,3,3*%
%TO.N,Net-(Q7-C)*%
X154750000Y-125365000D03*
D29*
%TO.P,R14,4,4*%
%TO.N,Net-(Q5-C)*%
X153920500Y-125365000D03*
%TO.P,R14,5,5*%
%TO.N,+12V*%
X153920500Y-126635000D03*
D30*
%TO.P,R14,6,6*%
X154750000Y-126635000D03*
%TO.P,R14,7,7*%
X155250000Y-126635000D03*
D29*
%TO.P,R14,8,8*%
X156079500Y-126635000D03*
%TD*%
D57*
%TO.P,U12,1,RXD*%
%TO.N,USART2_TX*%
X123560000Y-99590000D03*
%TO.P,U12,2,EN*%
%TO.N,EN_LIN*%
X123560000Y-98320000D03*
%TO.P,U12,3,NC*%
%TO.N,unconnected-(U12-NC-Pad3)*%
X123560000Y-97050000D03*
%TO.P,U12,4,TXD*%
%TO.N,USART2_RX*%
X123560000Y-95780000D03*
%TO.P,U12,5,GND*%
%TO.N,GND*%
X118110001Y-95780000D03*
%TO.P,U12,6,LIN*%
%TO.N,/LIN_BUS*%
X118110001Y-97050000D03*
%TO.P,U12,7,VSUP*%
%TO.N,Net-(D3-K)*%
X118110001Y-98320000D03*
%TO.P,U12,8,NC*%
%TO.N,unconnected-(U12-NC-Pad8)*%
X118110001Y-99590000D03*
%TD*%
D58*
%TO.P,FB1,1*%
%TO.N,Vdrive*%
X139950000Y-86532500D03*
%TO.P,FB1,2*%
%TO.N,+5V*%
X139950000Y-88107500D03*
%TD*%
D31*
%TO.P,FB2,1*%
%TO.N,+3.3V*%
X139670000Y-117587499D03*
%TO.P,FB2,2*%
%TO.N,VDDA*%
X139670000Y-116012499D03*
%TD*%
D41*
%TO.P,J3,1,Pin_1*%
%TO.N,/LIN_BUS*%
X108439600Y-86189750D03*
%TO.P,J3,2,Pin_2*%
%TO.N,GND*%
X108439600Y-91689749D03*
%TD*%
D59*
%TO.N,GND*%
X116200000Y-104170000D03*
X138173650Y-118569999D03*
X158570000Y-129300000D03*
X151210000Y-119620000D03*
X143040000Y-101550000D03*
X123760000Y-108560000D03*
X133430400Y-92650251D03*
X143160000Y-96830000D03*
X136673650Y-118599999D03*
X136750000Y-103750000D03*
X114530000Y-129300000D03*
X108980000Y-100900000D03*
X162280000Y-139210000D03*
X137500000Y-124090000D03*
X139010000Y-135510000D03*
X149070000Y-111790000D03*
X140180000Y-130340000D03*
X122272000Y-111809000D03*
X142483000Y-107004000D03*
X141680000Y-86860000D03*
X114190000Y-97700000D03*
X126430000Y-97620000D03*
X145840000Y-133410000D03*
X117150000Y-117710000D03*
X120910000Y-104960000D03*
X132470400Y-83550251D03*
X142670000Y-139930000D03*
X151200000Y-100050000D03*
X132140000Y-116770000D03*
X123773000Y-118925000D03*
X151210000Y-123120000D03*
X129070000Y-103010000D03*
X107450000Y-100910000D03*
X119650000Y-109100000D03*
X125964000Y-119794000D03*
X131230400Y-85200251D03*
X135630400Y-85200251D03*
X125540000Y-93970000D03*
X121100000Y-133970000D03*
X151200000Y-107200000D03*
X121540000Y-104540000D03*
X151200000Y-112510000D03*
X134178299Y-111402112D03*
X123485000Y-103210000D03*
X118130000Y-121960000D03*
X158260000Y-92600000D03*
X131530000Y-117720000D03*
X134330400Y-83550251D03*
X132160000Y-117730000D03*
X139880000Y-113960000D03*
X136130000Y-111280000D03*
X150620000Y-125620000D03*
X155400000Y-134110000D03*
X139240000Y-96390000D03*
X139360000Y-100430000D03*
X157080000Y-88800000D03*
X133090028Y-134140127D03*
X126470000Y-128600000D03*
X112810000Y-115320000D03*
X148420000Y-111770000D03*
X129566000Y-122394000D03*
X121110000Y-130890000D03*
X121120000Y-137100000D03*
X130050000Y-96830000D03*
X138230000Y-86860251D03*
X151270000Y-103700000D03*
X141300000Y-112200000D03*
X147770000Y-111780000D03*
X133000000Y-120190000D03*
X151200000Y-96510000D03*
X127540000Y-93500000D03*
X135470000Y-139420000D03*
X151200000Y-116110000D03*
X136020000Y-120400000D03*
X119234999Y-95775000D03*
X128555000Y-109304000D03*
X126220000Y-145620000D03*
X129040000Y-93510000D03*
X123650000Y-107110000D03*
X143280000Y-94420000D03*
X112780000Y-116590000D03*
%TO.N,NRST*%
X121480000Y-110550000D03*
X119630000Y-112860000D03*
%TO.N,+5V*%
X124940000Y-133980000D03*
X121305025Y-123855025D03*
X149430000Y-96190000D03*
X128530000Y-134130000D03*
%TO.N,+3.3V*%
X124529975Y-114599975D03*
X126090000Y-102110000D03*
X112785000Y-114020000D03*
X131480000Y-116070000D03*
X125710000Y-111790000D03*
X127810000Y-101030000D03*
X147410000Y-96830000D03*
X145640000Y-95330000D03*
X126620000Y-102590000D03*
X125290000Y-110560000D03*
X132520000Y-96430000D03*
X139380675Y-102140195D03*
X117010000Y-129320000D03*
X122295000Y-117160000D03*
X126355785Y-111452785D03*
X143110000Y-103670000D03*
X140753650Y-117589999D03*
X137250000Y-112180000D03*
X143960000Y-103460000D03*
X137300000Y-112870000D03*
X118615000Y-120140000D03*
X127530000Y-100440000D03*
X136710000Y-112680000D03*
X126270000Y-116270000D03*
X118625000Y-117010000D03*
X139170000Y-102860000D03*
%TO.N,PS_RAW*%
X155400000Y-130270000D03*
X148060000Y-124340000D03*
X146890000Y-124580000D03*
X131120000Y-89110000D03*
X162040000Y-88080000D03*
X156640000Y-129910000D03*
X149690000Y-134340000D03*
X149800000Y-133410000D03*
%TO.N,Vdrive*%
X139940000Y-85590000D03*
X115450000Y-122500000D03*
%TO.N,USART1_TX*%
X116140000Y-119170000D03*
X132030000Y-114370000D03*
%TO.N,USART1_RX*%
X116140000Y-120400000D03*
X133350000Y-114320000D03*
%TO.N,/USB_D-*%
X119098300Y-123830000D03*
X120298300Y-123830000D03*
%TO.N,/VIConverter/IoutGW*%
X155380000Y-128860000D03*
%TO.N,Net-(Q1-C)*%
X154854000Y-101420000D03*
X153600000Y-101420000D03*
%TO.N,Net-(Q2-C)*%
X156331000Y-97763000D03*
X153650000Y-97770000D03*
%TO.N,Net-(Q3-C)*%
X153550000Y-94130000D03*
X156165000Y-94310000D03*
%TO.N,Net-(Q5-C)*%
X154590000Y-118189000D03*
X157520000Y-112970000D03*
%TO.N,Net-(Q6-C)*%
X157040000Y-125350000D03*
X157897851Y-117585421D03*
%TO.N,Net-(Q7-C)*%
X154564000Y-123969000D03*
X155882000Y-123988000D03*
%TO.N,Net-(Q8-C)*%
X155420000Y-118530000D03*
X155871000Y-116871000D03*
%TO.N,+12V*%
X158270000Y-98140000D03*
X158380000Y-102160000D03*
X158310000Y-122300000D03*
X157660000Y-91530000D03*
X157200000Y-126630000D03*
X158280000Y-93980000D03*
X158410000Y-114180000D03*
X158410000Y-118200000D03*
X157080000Y-90180000D03*
X157730000Y-106180000D03*
X158410000Y-110200000D03*
%TO.N,FW_DAC_IN_B*%
X133090000Y-129430000D03*
X131620999Y-129430000D03*
%TO.N,Out1*%
X150700000Y-136310000D03*
X146810000Y-137030000D03*
%TO.N,O2Out1*%
X144404201Y-127295112D03*
X148380000Y-126830000D03*
%TO.N,IN_B*%
X130350000Y-127200000D03*
X129410000Y-128140000D03*
%TO.N,BLKC_SEL_B*%
X148420000Y-106050000D03*
X140721000Y-107750000D03*
%TO.N,BLKC_SEL_C*%
X139628500Y-107111500D03*
X149780000Y-104780000D03*
%TO.N,USART2_TX*%
X128015000Y-108437000D03*
X125470000Y-99580000D03*
%TO.N,EN_LIN*%
X122170000Y-97700000D03*
X136530000Y-104750000D03*
%TO.N,IN_A*%
X129470000Y-125330000D03*
X129560000Y-135200000D03*
%TO.N,USART2_RX*%
X125234999Y-96115000D03*
X130560000Y-110410000D03*
%TO.N,BLKC_SEL_A*%
X147080000Y-108250000D03*
X144072000Y-108658000D03*
%TD*%
D60*
%TO.N,GND*%
X133106350Y-116769999D02*
X132140001Y-116769999D01*
X122302000Y-111809000D02*
X122513000Y-112020000D01*
X140250000Y-112200000D02*
X141300000Y-112200000D01*
X134330400Y-84299600D02*
X133430000Y-85200000D01*
X126225000Y-145625000D02*
X126220000Y-145620000D01*
X148424998Y-111765002D02*
X148420000Y-111770000D01*
D61*
X114355000Y-97000000D02*
X114355000Y-97175000D01*
D60*
X159625000Y-129300000D02*
X158570000Y-129300000D01*
X121550000Y-104550000D02*
X121540000Y-104540000D01*
X136670000Y-118596349D02*
X136673650Y-118599999D01*
D62*
X119680000Y-109070000D02*
X119650000Y-109100000D01*
D60*
X122225000Y-133970000D02*
X121100000Y-133970000D01*
X162280000Y-139210000D02*
X161245000Y-139210000D01*
X142674250Y-139045000D02*
X142674250Y-139925750D01*
X122505000Y-104550000D02*
X121550000Y-104550000D01*
D61*
X127840000Y-110250000D02*
X126625000Y-110250000D01*
D60*
X143100000Y-106275000D02*
X143100000Y-106387000D01*
X122360000Y-107120000D02*
X123640000Y-107120000D01*
X129566000Y-122394000D02*
X129965000Y-121995000D01*
X136670000Y-117625000D02*
X136670000Y-118596349D01*
D63*
X161105000Y-137125750D02*
X161105000Y-139070000D01*
D61*
X128555000Y-109535000D02*
X127840000Y-110250000D01*
D62*
X118790000Y-95770000D02*
X118785000Y-95775000D01*
D60*
X138170000Y-118566349D02*
X138173650Y-118569999D01*
D62*
X151965000Y-96214400D02*
X151495600Y-96214400D01*
D60*
X122272000Y-111809000D02*
X122302000Y-111809000D01*
D62*
X107450000Y-100025000D02*
X107450000Y-100910000D01*
D60*
X134330400Y-83550251D02*
X134330400Y-84299600D01*
X126635000Y-97825000D02*
X126430000Y-97620000D01*
D62*
X119229999Y-95780000D02*
X118110001Y-95780000D01*
X151495600Y-112214400D02*
X151200000Y-112510000D01*
D60*
X127530000Y-92535000D02*
X127530000Y-93490000D01*
D61*
X132090000Y-134140000D02*
X131344999Y-134140000D01*
X134178299Y-111402112D02*
X133890415Y-111402112D01*
D62*
X151555600Y-103414400D02*
X151270000Y-103700000D01*
D61*
X135550000Y-111860000D02*
X136130000Y-111280000D01*
D60*
X144410000Y-94419600D02*
X143280400Y-94419600D01*
D62*
X151965000Y-115814400D02*
X151495600Y-115814400D01*
D60*
X129965000Y-121995000D02*
X130425000Y-121995000D01*
D62*
X129039600Y-93509600D02*
X129040000Y-93510000D01*
D60*
X122513000Y-112020000D02*
X123105000Y-112020000D01*
X133106350Y-117720000D02*
X132170000Y-117720000D01*
D61*
X129050000Y-102990000D02*
X129070000Y-103010000D01*
D60*
X120910000Y-104960000D02*
X120910000Y-105970000D01*
X140174250Y-130334250D02*
X140180000Y-130340000D01*
D62*
X138300000Y-100425000D02*
X139355000Y-100425000D01*
D60*
X141680000Y-87940000D02*
X141680000Y-86860000D01*
D62*
X127539600Y-93499600D02*
X127540000Y-93500000D01*
D60*
X111145000Y-116590000D02*
X112780000Y-116590000D01*
X147774999Y-111775001D02*
X147770000Y-111780000D01*
D62*
X151965000Y-119314400D02*
X151515600Y-119314400D01*
D60*
X138170000Y-117574999D02*
X138170000Y-118566349D01*
X123485000Y-103210000D02*
X123485000Y-102110000D01*
D62*
X151965000Y-122814400D02*
X151515600Y-122814400D01*
X116305000Y-117710000D02*
X117150000Y-117710000D01*
D60*
X136004999Y-120384999D02*
X136020000Y-120400000D01*
D62*
X149074999Y-110419400D02*
X149074999Y-111785001D01*
D60*
X140174250Y-129445000D02*
X140174250Y-130334250D01*
D62*
X143040000Y-100700000D02*
X143040000Y-101550000D01*
X130553650Y-117720000D02*
X131530000Y-117720000D01*
D60*
X127724250Y-145625000D02*
X126225000Y-145625000D01*
D62*
X120685000Y-109070000D02*
X119680000Y-109070000D01*
D60*
X135073650Y-120384999D02*
X136004999Y-120384999D01*
X143100000Y-106387000D02*
X142483000Y-107004000D01*
X120910000Y-104960000D02*
X121120000Y-104960000D01*
D63*
X161105000Y-139070000D02*
X161245000Y-139210000D01*
D62*
X151965000Y-99728800D02*
X151521200Y-99728800D01*
X139355000Y-100425000D02*
X139360000Y-100430000D01*
D60*
X132140001Y-116769999D02*
X132140000Y-116770000D01*
D62*
X151485600Y-106914400D02*
X151200000Y-107200000D01*
X108980000Y-100025000D02*
X108980000Y-100900000D01*
D60*
X116200000Y-103060000D02*
X116200000Y-104170000D01*
D61*
X135550000Y-112675000D02*
X135550000Y-111860000D01*
D60*
X123640000Y-107120000D02*
X123650000Y-107110000D01*
D61*
X133890415Y-111402112D02*
X133550000Y-111742527D01*
D60*
X133430000Y-91000000D02*
X133430000Y-92649851D01*
D62*
X152030000Y-103414400D02*
X151555600Y-103414400D01*
D60*
X127530000Y-93490000D02*
X127540000Y-93500000D01*
X140100000Y-135515000D02*
X139015000Y-135515000D01*
X126270000Y-119488000D02*
X125964000Y-119794000D01*
X131230651Y-85200000D02*
X131230400Y-85200251D01*
X125540000Y-92890000D02*
X125550000Y-92880000D01*
D62*
X147774999Y-110419400D02*
X147774999Y-111775001D01*
D60*
X129040000Y-92535000D02*
X129040000Y-93510000D01*
D62*
X151521200Y-99728800D02*
X151200000Y-100050000D01*
D61*
X133090028Y-134140127D02*
X132090127Y-134140127D01*
D62*
X118370001Y-122200001D02*
X118130000Y-121960000D01*
D60*
X125540000Y-93970000D02*
X125540000Y-92890000D01*
X157080002Y-88799998D02*
X157080000Y-88800000D01*
D61*
X132090127Y-134140127D02*
X132090000Y-134140000D01*
X137975000Y-103750000D02*
X136750000Y-103750000D01*
D60*
X149074999Y-111785001D02*
X149070000Y-111790000D01*
X121120000Y-104960000D02*
X121540000Y-104540000D01*
D61*
X123773000Y-119345152D02*
X123770000Y-119348152D01*
D60*
X132470400Y-83550251D02*
X132470400Y-84240400D01*
X127530000Y-97825000D02*
X126635000Y-97825000D01*
X138230000Y-87910000D02*
X138230000Y-86860251D01*
X124810000Y-108565000D02*
X123765000Y-108565000D01*
X135470000Y-140285000D02*
X135470000Y-139420000D01*
D62*
X148424998Y-110419400D02*
X148424998Y-111765002D01*
D60*
X126474250Y-128595750D02*
X126470000Y-128600000D01*
X155400000Y-133075000D02*
X155400000Y-134110000D01*
X138237500Y-96390000D02*
X139240000Y-96390000D01*
X122235000Y-130890000D02*
X121110000Y-130890000D01*
D61*
X123770000Y-119348152D02*
X123770000Y-120212500D01*
X133550000Y-111742527D02*
X133550000Y-112675000D01*
D62*
X151495600Y-115814400D02*
X151200000Y-116110000D01*
X151495600Y-96214400D02*
X151200000Y-96510000D01*
X119016300Y-122200001D02*
X118370001Y-122200001D01*
D60*
X133430000Y-85200000D02*
X131230651Y-85200000D01*
X142674250Y-139925750D02*
X142670000Y-139930000D01*
D62*
X132115000Y-120190000D02*
X133000000Y-120190000D01*
D60*
X126474250Y-127700000D02*
X126474250Y-128595750D01*
X111145000Y-115320000D02*
X112810000Y-115320000D01*
X144400000Y-96830000D02*
X143160000Y-96830000D01*
X132470400Y-84240400D02*
X133430000Y-85200000D01*
X133430000Y-92649851D02*
X133430400Y-92650251D01*
X138855000Y-113960000D02*
X139880000Y-113960000D01*
X132170000Y-117720000D02*
X132160000Y-117730000D01*
D62*
X151965000Y-112214400D02*
X151495600Y-112214400D01*
D60*
X139015000Y-135515000D02*
X139010000Y-135510000D01*
D62*
X151965000Y-106914400D02*
X151485600Y-106914400D01*
D60*
X158499034Y-88799998D02*
X157080002Y-88799998D01*
D61*
X123773000Y-118925000D02*
X123773000Y-119345152D01*
X129050000Y-101325000D02*
X129050000Y-102990000D01*
D62*
X151515600Y-122814400D02*
X151210000Y-123120000D01*
D61*
X128555000Y-109304000D02*
X128555000Y-109535000D01*
D60*
X112525000Y-129300000D02*
X114530000Y-129300000D01*
X133430251Y-85200251D02*
X133430000Y-85200000D01*
X126270000Y-118875000D02*
X126270000Y-119488000D01*
X130050000Y-97805000D02*
X130050000Y-96830000D01*
X159225000Y-92600000D02*
X158260000Y-92600000D01*
D61*
X114735000Y-97155000D02*
X114190000Y-97700000D01*
D60*
X122225000Y-137100000D02*
X121120000Y-137100000D01*
X123765000Y-108565000D02*
X123760000Y-108560000D01*
X149615000Y-125620000D02*
X150620000Y-125620000D01*
X137500000Y-125115000D02*
X137500000Y-124090000D01*
X135630400Y-85200251D02*
X133430251Y-85200251D01*
D62*
X151515600Y-119314400D02*
X151210000Y-119620000D01*
D60*
X143280400Y-94419600D02*
X143280000Y-94420000D01*
X145840000Y-133410000D02*
X146835000Y-133410000D01*
D62*
%TO.N,NRST*%
X122575000Y-110540000D02*
X122575000Y-109410000D01*
D61*
X116200000Y-107560000D02*
X119190000Y-110550000D01*
D62*
X122575000Y-109410000D02*
X122235000Y-109070000D01*
D61*
X122565000Y-110550000D02*
X122575000Y-110540000D01*
X121480000Y-110550000D02*
X122565000Y-110550000D01*
X122235000Y-109220000D02*
X125238690Y-109220000D01*
X119625000Y-112860000D02*
X119630000Y-112860000D01*
X116315000Y-116170000D02*
X119625000Y-112860000D01*
X125549000Y-108909690D02*
X125549000Y-106517176D01*
X125238690Y-109220000D02*
X125549000Y-108909690D01*
X125549000Y-106517176D02*
X125816176Y-106250000D01*
X119190000Y-110550000D02*
X121480000Y-110550000D01*
X125816176Y-106250000D02*
X126625000Y-106250000D01*
%TO.N,OSC_IN*%
X124755000Y-105250000D02*
X126625000Y-105250000D01*
X122360000Y-105970000D02*
X122635000Y-105970000D01*
X122635000Y-105970000D02*
X124055000Y-104550000D01*
X124055000Y-104550000D02*
X124755000Y-105250000D01*
%TO.N,OSC_OUT*%
X125625000Y-105750000D02*
X124810000Y-106565000D01*
X121536000Y-107746000D02*
X124079000Y-107746000D01*
X124810000Y-106565000D02*
X124810000Y-107015000D01*
X124079000Y-107746000D02*
X124810000Y-107015000D01*
X120910000Y-107120000D02*
X121536000Y-107746000D01*
X126625000Y-105750000D02*
X125625000Y-105750000D01*
D63*
%TO.N,+5V*%
X141680000Y-89840000D02*
X140955000Y-89840000D01*
D60*
X149010000Y-95770000D02*
X149430000Y-96190000D01*
D63*
X149010000Y-93330000D02*
X148344500Y-92664500D01*
X139950000Y-88815000D02*
X139950000Y-88107500D01*
D61*
X121073700Y-123623700D02*
X121305025Y-123855025D01*
X128530000Y-134130000D02*
X128520000Y-134140000D01*
D63*
X149010000Y-94419600D02*
X149010000Y-93330000D01*
D60*
X123775000Y-133970000D02*
X124930000Y-133970000D01*
D63*
X140955000Y-89840000D02*
X139950000Y-88835000D01*
X138955000Y-89810000D02*
X139950000Y-88815000D01*
X135730000Y-91000000D02*
X137040000Y-91000000D01*
X137040000Y-91000000D02*
X138230000Y-89810000D01*
X149010000Y-94419600D02*
X149010000Y-94240000D01*
D61*
X121073700Y-123199999D02*
X121073700Y-123623700D01*
D63*
X147434500Y-92664500D02*
X144610000Y-89840000D01*
X139950000Y-88835000D02*
X139950000Y-88107500D01*
D60*
X149010000Y-94419600D02*
X149010000Y-95770000D01*
D63*
X144610000Y-89840000D02*
X141680000Y-89840000D01*
X138230000Y-89810000D02*
X138955000Y-89810000D01*
D61*
X128520000Y-134140000D02*
X126894998Y-134140000D01*
D63*
X148344500Y-92664500D02*
X147434500Y-92664500D01*
D61*
X128530000Y-134130000D02*
X128380000Y-134130000D01*
D62*
%TO.N,+3.3V*%
X125270000Y-110540000D02*
X125290000Y-110560000D01*
D60*
X143100000Y-103680000D02*
X143110000Y-103670000D01*
D62*
X124655000Y-112020000D02*
X125480000Y-112020000D01*
D60*
X139105000Y-101975000D02*
X138300000Y-101975000D01*
X138350000Y-112200000D02*
X137270000Y-112200000D01*
X117005000Y-129325000D02*
X117010000Y-129320000D01*
D61*
X136050000Y-112675000D02*
X136705000Y-112675000D01*
D60*
X111145000Y-114050000D02*
X112755000Y-114050000D01*
D62*
X144525001Y-104025001D02*
X143960000Y-103460000D01*
D61*
X127810000Y-101030000D02*
X128105000Y-101325000D01*
D60*
X137270000Y-112200000D02*
X137250000Y-112180000D01*
X137305000Y-113960000D02*
X137305000Y-112875000D01*
X112755000Y-114050000D02*
X112785000Y-114020000D01*
D62*
X125480000Y-112020000D02*
X125710000Y-111790000D01*
D61*
X126625000Y-111181000D02*
X126625000Y-110750000D01*
D60*
X131480000Y-116070000D02*
X130780001Y-116769999D01*
D62*
X129846001Y-118670001D02*
X129626400Y-118450400D01*
D60*
X146550400Y-94419600D02*
X145640000Y-95330000D01*
D62*
X130565000Y-118681351D02*
X130553650Y-118670001D01*
D60*
X143100000Y-104725000D02*
X143100000Y-103680000D01*
D61*
X137975000Y-103250000D02*
X138780000Y-103250000D01*
D60*
X119645000Y-117030000D02*
X118645000Y-117030000D01*
X118645000Y-117030000D02*
X118625000Y-117010000D01*
X140751150Y-117587499D02*
X140753650Y-117589999D01*
D61*
X128105000Y-101325000D02*
X128550000Y-101325000D01*
D60*
X130780001Y-116769999D02*
X130553650Y-116769999D01*
D61*
X126625000Y-103250000D02*
X126625000Y-102595000D01*
X126355785Y-111452785D02*
X126355785Y-111450215D01*
D60*
X139670000Y-117587499D02*
X140751150Y-117587499D01*
X139270195Y-102140195D02*
X139105000Y-101975000D01*
D61*
X122770000Y-116685000D02*
X122770000Y-115987500D01*
D62*
X124225000Y-110540000D02*
X125270000Y-110540000D01*
D60*
X133535000Y-96420000D02*
X132530000Y-96420000D01*
X127530000Y-99375000D02*
X127530000Y-100440000D01*
D62*
X144525001Y-104780600D02*
X144525001Y-104025001D01*
D61*
X126355785Y-111450215D02*
X126625000Y-111181000D01*
D60*
X125035000Y-102110000D02*
X126090000Y-102110000D01*
D61*
X136705000Y-112675000D02*
X136710000Y-112680000D01*
D60*
X139380675Y-102140195D02*
X139270195Y-102140195D01*
X118625000Y-120130000D02*
X118615000Y-120140000D01*
D61*
X126625000Y-102595000D02*
X126620000Y-102590000D01*
D60*
X146300000Y-96830000D02*
X147410000Y-96830000D01*
D62*
X129626400Y-116989600D02*
X129846001Y-116769999D01*
D61*
X138780000Y-103250000D02*
X139170000Y-102860000D01*
X124270000Y-115987500D02*
X124270000Y-114859950D01*
D60*
X119615000Y-120130000D02*
X118625000Y-120130000D01*
X146710000Y-94419600D02*
X146550400Y-94419600D01*
X137305000Y-112875000D02*
X137300000Y-112870000D01*
X126270000Y-117325000D02*
X126270000Y-116270000D01*
X115925000Y-129325000D02*
X117005000Y-129325000D01*
D61*
X124270000Y-114859950D02*
X124529975Y-114599975D01*
X122295000Y-117160000D02*
X122770000Y-116685000D01*
D62*
X129626400Y-118450400D02*
X129626400Y-116989600D01*
X130565000Y-120190000D02*
X130565000Y-118681351D01*
X129846001Y-116769999D02*
X130553650Y-116769999D01*
X130553650Y-118670001D02*
X129846001Y-118670001D01*
%TO.N,/DAC_PROT&SWITCH/DAC_A_RAW_F*%
X126586000Y-135500000D02*
X126894998Y-135191002D01*
X123775000Y-137100000D02*
X123775000Y-135550000D01*
X123775000Y-135550000D02*
X123825000Y-135500000D01*
X123825000Y-135500000D02*
X126586000Y-135500000D01*
D61*
%TO.N,VDDA*%
X134550000Y-112675000D02*
X134550000Y-113483824D01*
X135746176Y-114680000D02*
X135946175Y-114879999D01*
X135946175Y-114879999D02*
X136243650Y-114879999D01*
D62*
X139670000Y-116012499D02*
X138182500Y-116012499D01*
D61*
X136243650Y-114889999D02*
X136670000Y-115316349D01*
X136243650Y-114879999D02*
X136243650Y-114889999D01*
X136670000Y-115316349D02*
X136670000Y-116075000D01*
D62*
X136670000Y-116075000D02*
X138119999Y-116075000D01*
X138119999Y-116075000D02*
X138170000Y-116024999D01*
X138182500Y-116012499D02*
X138170000Y-116024999D01*
D61*
X134550000Y-113483824D02*
X135746176Y-114680000D01*
D62*
%TO.N,/DAC_PROT&SWITCH/DAC_B_RAW_F*%
X123785000Y-132380000D02*
X123835000Y-132430000D01*
X126235997Y-132430000D02*
X126894998Y-133089001D01*
X123785000Y-130890000D02*
X123785000Y-132380000D01*
X123835000Y-132430000D02*
X126235997Y-132430000D01*
D61*
%TO.N,Net-(D3-K)*%
X107450000Y-98475000D02*
X108980000Y-98475000D01*
X110740000Y-98447500D02*
X109007500Y-98447500D01*
X109007500Y-98447500D02*
X108980000Y-98475000D01*
X111742500Y-99450000D02*
X110740000Y-98447500D01*
X116980001Y-99450000D02*
X111742500Y-99450000D01*
X118110001Y-98320000D02*
X116980001Y-99450000D01*
%TO.N,/LIN_BUS*%
X116285000Y-96980000D02*
X116285000Y-96285000D01*
X116285000Y-96980000D02*
X118040001Y-96980000D01*
X110021700Y-96658516D02*
X110424184Y-97061000D01*
X118040001Y-96980000D02*
X118110001Y-97050000D01*
X117620002Y-97000000D02*
X117665002Y-97045000D01*
X116285000Y-98490000D02*
X116325000Y-98530000D01*
X115930000Y-95930000D02*
X114248468Y-95930000D01*
X116285000Y-96980000D02*
X116285000Y-98490000D01*
X110021700Y-87771850D02*
X110021700Y-96658516D01*
X113117468Y-97061000D02*
X114014468Y-96164000D01*
X115945000Y-97000000D02*
X115945000Y-96930000D01*
X110424184Y-97061000D02*
X113117468Y-97061000D01*
X116285000Y-96285000D02*
X115930000Y-95930000D01*
X108439600Y-86189750D02*
X110021700Y-87771850D01*
X114248468Y-95930000D02*
X114014468Y-96164000D01*
D62*
%TO.N,Net-(C23-Pad1)*%
X135073650Y-118834999D02*
X135073650Y-117424999D01*
X135073650Y-117424999D02*
X135083650Y-117414999D01*
D63*
%TO.N,/DAC_PROT&SWITCH/BLKB_PWR*%
X167539799Y-122560401D02*
X161175000Y-128925200D01*
X161105000Y-131474250D02*
X161105000Y-129370000D01*
X161175000Y-128925200D02*
X161175000Y-129300000D01*
X161105000Y-129370000D02*
X161175000Y-129300000D01*
D60*
%TO.N,PS_RAW*%
X112710000Y-96360000D02*
X110757500Y-96360000D01*
X125992075Y-94580000D02*
X129032075Y-94580000D01*
D64*
X160800000Y-88799998D02*
X161320002Y-88799998D01*
D63*
X123650000Y-90962500D02*
X125532500Y-90962500D01*
D60*
X129032075Y-94580000D02*
X131130000Y-92482075D01*
X110757500Y-96360000D02*
X110740000Y-96377500D01*
D63*
X148795000Y-135235000D02*
X149690000Y-134340000D01*
X127525000Y-90980000D02*
X127530000Y-90985000D01*
D60*
X125851075Y-94721000D02*
X125992075Y-94580000D01*
D63*
X127530000Y-90985000D02*
X129040000Y-90985000D01*
X148065000Y-125620000D02*
X148065000Y-124345000D01*
X125532500Y-90962500D02*
X125550000Y-90980000D01*
X125550000Y-90980000D02*
X127525000Y-90980000D01*
X155400000Y-131525000D02*
X155400000Y-130270000D01*
X131130000Y-89120000D02*
X131120000Y-89110000D01*
D64*
X161320002Y-88799998D02*
X162040000Y-88080000D01*
D60*
X131130000Y-92482075D02*
X131130000Y-91000000D01*
X114490000Y-94580000D02*
X125087925Y-94580000D01*
D63*
X148065000Y-124345000D02*
X148060000Y-124340000D01*
X148385000Y-133410000D02*
X149800000Y-133410000D01*
X129055000Y-91000000D02*
X129040000Y-90985000D01*
X157295000Y-130565000D02*
X156640000Y-129910000D01*
X145835000Y-125635000D02*
X146890000Y-124580000D01*
D60*
X112710000Y-96360000D02*
X114490000Y-94580000D01*
D63*
X131130000Y-91000000D02*
X131130000Y-89120000D01*
X131130000Y-91000000D02*
X129055000Y-91000000D01*
D60*
X125228925Y-94721000D02*
X125851075Y-94721000D01*
D63*
X148325750Y-135235000D02*
X148795000Y-135235000D01*
D60*
X125087925Y-94580000D02*
X125228925Y-94721000D01*
D63*
X157295000Y-131474250D02*
X157295000Y-130565000D01*
X145825750Y-125635000D02*
X145835000Y-125635000D01*
%TO.N,/DAC_PROT&SWITCH/BLKA_PWR*%
X160496000Y-140486000D02*
X159695000Y-139685000D01*
X167500000Y-138100000D02*
X165114000Y-140486000D01*
X159835000Y-137125750D02*
X159835000Y-139070000D01*
X159695000Y-139685000D02*
X159695000Y-139210000D01*
X165114000Y-140486000D02*
X160496000Y-140486000D01*
X159835000Y-139070000D02*
X159695000Y-139210000D01*
D64*
%TO.N,/BLK-C-Water/BLKC_PWR*%
X160775000Y-92600000D02*
X166051599Y-87323401D01*
X166051599Y-87323401D02*
X166051599Y-84188402D01*
X160800000Y-92575000D02*
X160775000Y-92600000D01*
X160800000Y-90700000D02*
X160800000Y-92575000D01*
X166051599Y-84188402D02*
X167539999Y-82700002D01*
D65*
%TO.N,PS_IN*%
X120569099Y-91710250D02*
X121839600Y-90439749D01*
X116700000Y-91710250D02*
X120569099Y-91710250D01*
D60*
%TO.N,Net-(D1-K)*%
X123647751Y-92539749D02*
X123650000Y-92537500D01*
X121839600Y-92539749D02*
X123647751Y-92539749D01*
D62*
%TO.N,Net-(D2-A)*%
X115175000Y-126100000D02*
X116025000Y-125250000D01*
X112525000Y-126100000D02*
X115175000Y-126100000D01*
D60*
%TO.N,Vdrive*%
X116025000Y-123150000D02*
X116025000Y-123075000D01*
X139950000Y-86532500D02*
X139950000Y-85600000D01*
X139950000Y-85600000D02*
X139940000Y-85590000D01*
X116025000Y-123075000D02*
X115450000Y-122500000D01*
D61*
%TO.N,Net-(D4-K)*%
X112770000Y-98520000D02*
X112710000Y-98460000D01*
X114385000Y-98520000D02*
X112770000Y-98520000D01*
%TO.N,USART3_TX*%
X130510249Y-109239751D02*
X134121751Y-109239751D01*
X123270000Y-117176364D02*
X123270000Y-115987500D01*
X123270000Y-115987500D02*
X123270000Y-116851848D01*
X121207500Y-118560000D02*
X121886364Y-118560000D01*
X123519152Y-117101000D02*
X125020848Y-117101000D01*
X125246000Y-116875848D02*
X125246000Y-114504000D01*
X135050000Y-111866176D02*
X135050000Y-112675000D01*
X125246000Y-114504000D02*
X130510249Y-109239751D01*
X125020848Y-117101000D02*
X125246000Y-116875848D01*
X135251000Y-110369000D02*
X135251000Y-111665176D01*
X134121751Y-109239751D02*
X135251000Y-110369000D01*
X123270000Y-116851848D02*
X123519152Y-117101000D01*
X121886364Y-118560000D02*
X123270000Y-117176364D01*
X135251000Y-111665176D02*
X135050000Y-111866176D01*
D62*
%TO.N,Net-(D5-A)*%
X119695000Y-118560000D02*
X121265000Y-120130000D01*
X119632500Y-118560000D02*
X119695000Y-118560000D01*
D61*
%TO.N,USART3_RX*%
X126045000Y-113224000D02*
X130509000Y-108760000D01*
X121250000Y-115440000D02*
X121816000Y-114874000D01*
X135176176Y-108760000D02*
X137166176Y-110750000D01*
X121816000Y-114874000D02*
X123520848Y-114874000D01*
X123520848Y-114874000D02*
X123770000Y-115123152D01*
X123770000Y-114370000D02*
X124916000Y-113224000D01*
X130509000Y-108760000D02*
X135176176Y-108760000D01*
X123770000Y-115987500D02*
X123770000Y-114370000D01*
X137166176Y-110750000D02*
X137975000Y-110750000D01*
X123770000Y-115123152D02*
X123770000Y-115987500D01*
X124916000Y-113224000D02*
X126045000Y-113224000D01*
%TO.N,Net-(D6-A)*%
X119582500Y-115430000D02*
X119695000Y-115430000D01*
X119695000Y-115430000D02*
X121295000Y-117030000D01*
D62*
%TO.N,Net-(D7-A)*%
X136632500Y-96420000D02*
X136662500Y-96390000D01*
X135185000Y-96420000D02*
X136632500Y-96420000D01*
D61*
%TO.N,Net-(D8-A)*%
X141440000Y-99087500D02*
X143002500Y-99087500D01*
X143002500Y-99087500D02*
X143040000Y-99125000D01*
%TO.N,USART1_TX*%
X108235000Y-119760000D02*
X112350000Y-119760000D01*
X131050000Y-113483824D02*
X131936176Y-114370000D01*
X131936176Y-114370000D02*
X132030000Y-114370000D01*
X112940000Y-119170000D02*
X116140000Y-119170000D01*
X107595000Y-120400000D02*
X108235000Y-119760000D01*
X112350000Y-119760000D02*
X112940000Y-119170000D01*
X131050000Y-112675000D02*
X131050000Y-113483824D01*
%TO.N,Net-(J1-Pin_6)*%
X127014468Y-98524000D02*
X131269000Y-98524000D01*
X106300000Y-114562000D02*
X106300000Y-111800000D01*
X107058000Y-115320000D02*
X106300000Y-114562000D01*
X126460000Y-100340000D02*
X126460000Y-99078468D01*
X118010000Y-106420000D02*
X123196000Y-101234000D01*
X107595000Y-115320000D02*
X107058000Y-115320000D01*
X106300000Y-111800000D02*
X111670000Y-106430000D01*
X126460000Y-99078468D02*
X127014468Y-98524000D01*
X115130000Y-106420000D02*
X118010000Y-106420000D01*
X115120000Y-106430000D02*
X115130000Y-106420000D01*
X131269000Y-98524000D02*
X132145000Y-99400000D01*
X111670000Y-106430000D02*
X115120000Y-106430000D01*
X123196000Y-101234000D02*
X125566000Y-101234000D01*
X125566000Y-101234000D02*
X126460000Y-100340000D01*
%TO.N,Net-(J1-Pin_4)*%
X109645000Y-112195000D02*
X109933000Y-111907000D01*
X122357479Y-112896000D02*
X125902521Y-112896000D01*
X136815000Y-101983521D02*
X136815000Y-99400000D01*
X121368479Y-111907000D02*
X122357479Y-112896000D01*
X109645000Y-112872000D02*
X109645000Y-112195000D01*
X107595000Y-114050000D02*
X108467000Y-114050000D01*
X125902521Y-112896000D02*
X136815000Y-101983521D01*
X109933000Y-111907000D02*
X121368479Y-111907000D01*
X108467000Y-114050000D02*
X109645000Y-112872000D01*
%TO.N,Net-(J1-Pin_11)*%
X112950000Y-117970000D02*
X114395000Y-117970000D01*
X114395000Y-117970000D02*
X114655000Y-117710000D01*
X111145000Y-119130000D02*
X111790000Y-119130000D01*
X111790000Y-119130000D02*
X112950000Y-117970000D01*
%TO.N,Net-(J1-Pin_12)*%
X108311000Y-119130000D02*
X109370000Y-118071000D01*
X107595000Y-119130000D02*
X108311000Y-119130000D01*
X109370000Y-117517000D02*
X109660000Y-117227000D01*
X113608000Y-117227000D02*
X114665000Y-116170000D01*
X109660000Y-117227000D02*
X113608000Y-117227000D01*
X109370000Y-118071000D02*
X109370000Y-117517000D01*
%TO.N,USART1_RX*%
X131550000Y-112675000D02*
X131550000Y-113483824D01*
X131550000Y-113483824D02*
X131876176Y-113810000D01*
X111145000Y-120400000D02*
X116140000Y-120400000D01*
X131876176Y-113810000D02*
X132840000Y-113810000D01*
X132840000Y-113810000D02*
X133350000Y-114320000D01*
D62*
%TO.N,/BLK-C-Water/+12V_BLK8C-4*%
X161382000Y-94908000D02*
X164590001Y-91699999D01*
X161255000Y-96888000D02*
X161255000Y-94908000D01*
X164590001Y-91699999D02*
X167539999Y-91699999D01*
X161255000Y-94908000D02*
X161382000Y-94908000D01*
%TO.N,/BLK-C-Water/+12V_BLK8C-5*%
X161355000Y-108888000D02*
X161355000Y-106908000D01*
X167539999Y-100723001D02*
X167539999Y-94699998D01*
X161355000Y-106908000D02*
X167539999Y-100723001D01*
%TO.N,/BLK-C-Water/+12V_BLK8C-2*%
X169179399Y-87339401D02*
X167539999Y-85700001D01*
X161861000Y-102402000D02*
X161861000Y-98529000D01*
X161861000Y-98529000D02*
X166960000Y-93430000D01*
X161355000Y-104888000D02*
X161355000Y-102908000D01*
X161355000Y-102908000D02*
X161861000Y-102402000D01*
X166960000Y-93430000D02*
X168128459Y-93430000D01*
X168128459Y-93430000D02*
X169179399Y-92379060D01*
X169179399Y-92379060D02*
X169179399Y-87339401D01*
%TO.N,/BLK-C-Water/+12V_BLK8C-3*%
X168678399Y-92171540D02*
X168678399Y-89838400D01*
X166401601Y-92838399D02*
X168011540Y-92838399D01*
X168011540Y-92838399D02*
X168678399Y-92171540D01*
X161255000Y-98908000D02*
X161255000Y-97985000D01*
X161255000Y-97985000D02*
X166401601Y-92838399D01*
X161255000Y-100888000D02*
X161255000Y-98908000D01*
X168678399Y-89838400D02*
X167539999Y-88700000D01*
%TO.N,/BLK-C-Water/+12V_BLK9C-2*%
X161390000Y-110908000D02*
X161390000Y-110250000D01*
X161390000Y-112888000D02*
X161390000Y-110908000D01*
X161390000Y-110250000D02*
X167539999Y-104100001D01*
%TO.N,/BLK-C-Water/+12V_BLK9C-4*%
X161390000Y-120888000D02*
X161390000Y-118908000D01*
X161390000Y-118908000D02*
X163768000Y-116530000D01*
X163768000Y-116530000D02*
X163880000Y-116530000D01*
X163880000Y-116530000D02*
X163880000Y-113759998D01*
X163880000Y-113759998D02*
X167539999Y-110099999D01*
%TO.N,/BLK-C-Water/+12V_BLK9C-3*%
X161390000Y-114405500D02*
X167539999Y-108255501D01*
X161390000Y-114908000D02*
X161390000Y-114405500D01*
X161390000Y-116888000D02*
X161390000Y-114908000D01*
X167539999Y-108255501D02*
X167539999Y-107100000D01*
D66*
%TO.N,/USB_D-*%
X122692162Y-121568191D02*
X122649735Y-121525764D01*
X122777014Y-121653043D02*
X122692162Y-121568191D01*
X120391700Y-122771999D02*
X121658058Y-122771999D01*
X120298300Y-122865399D02*
X120391700Y-122771999D01*
X117890000Y-124301707D02*
X117890000Y-124181707D01*
X122649734Y-121950028D02*
X122833581Y-122133875D01*
X121658058Y-122771999D02*
X122480029Y-121950028D01*
X122861865Y-121737894D02*
X122777012Y-121653041D01*
X117860001Y-123199999D02*
X119016300Y-123199999D01*
X117130000Y-124541707D02*
X117650000Y-124541707D01*
X116890000Y-124901707D02*
X116890000Y-124781707D01*
X122861868Y-121313633D02*
X122904295Y-121356060D01*
X112525000Y-126900000D02*
X116840000Y-126900000D01*
X119098300Y-123281999D02*
X119016300Y-123199999D01*
X122649736Y-121356058D02*
X122692162Y-121313633D01*
X116840000Y-126900000D02*
X117890000Y-125850000D01*
X119098300Y-123830000D02*
X119098300Y-123281999D01*
X117890000Y-124181707D02*
X117890000Y-124009731D01*
X117800000Y-123580000D02*
X117800000Y-123260000D01*
X123116427Y-121313631D02*
X123130395Y-121299662D01*
X122777012Y-121653041D02*
X122777014Y-121653043D01*
X123003287Y-122133875D02*
X123045713Y-122091448D01*
X123074001Y-121356060D02*
X123116427Y-121313631D01*
X117890000Y-125850000D02*
X117890000Y-125381707D01*
X123130395Y-121299662D02*
X123270000Y-121160057D01*
X117800000Y-123260000D02*
X117860001Y-123199999D01*
X117890000Y-124009731D02*
X117890000Y-123670000D01*
X120298300Y-123830000D02*
X120298300Y-122865399D01*
X117890000Y-123670000D02*
X117800000Y-123580000D01*
X123045713Y-121921742D02*
X122861865Y-121737894D01*
X123270000Y-121160057D02*
X123270000Y-120212500D01*
X117650000Y-125141707D02*
X117130000Y-125141707D01*
X123045713Y-122091448D02*
G75*
G03*
X123045708Y-121921747I-84813J84848D01*
G01*
X117890000Y-125381707D02*
G75*
G03*
X117650000Y-125141700I-240000J7D01*
G01*
X122833581Y-122133875D02*
G75*
G03*
X123003287Y-122133875I84853J84854D01*
G01*
X122692162Y-121313633D02*
G75*
G02*
X122861868Y-121313633I84853J-84854D01*
G01*
X122480029Y-121950028D02*
G75*
G02*
X122649734Y-121950027I84853J-84853D01*
G01*
X122904295Y-121356060D02*
G75*
G03*
X123074001Y-121356060I84853J84854D01*
G01*
X117130000Y-125141707D02*
G75*
G02*
X116889993Y-124901707I0J240007D01*
G01*
X117650000Y-124541707D02*
G75*
G03*
X117890007Y-124301707I0J240007D01*
G01*
X116890000Y-124781707D02*
G75*
G02*
X117130000Y-124541700I240000J7D01*
G01*
X122649735Y-121525764D02*
G75*
G02*
X122649724Y-121356047I84865J84864D01*
G01*
%TO.N,/USB_D+*%
X112525000Y-127700000D02*
X115900000Y-127700000D01*
X119698300Y-124951700D02*
X116975000Y-127675000D01*
X117670000Y-122280000D02*
X117670000Y-121640768D01*
X117670000Y-121640768D02*
X117901768Y-121409000D01*
X115900000Y-127700000D02*
X115925000Y-127675000D01*
X116975000Y-127675000D02*
X115925000Y-127675000D01*
X119698300Y-122768300D02*
X119698300Y-124951700D01*
X118090000Y-122700000D02*
X117670000Y-122280000D01*
X119630000Y-122700000D02*
X119698300Y-122768300D01*
X118619232Y-121670000D02*
X121312500Y-121670000D01*
X121312500Y-121670000D02*
X122770000Y-120212500D01*
X122767500Y-120212500D02*
X122770000Y-120212500D01*
X119016300Y-122700000D02*
X119630000Y-122700000D01*
X119016300Y-122700000D02*
X118090000Y-122700000D01*
X118358232Y-121409000D02*
X118619232Y-121670000D01*
X117901768Y-121409000D02*
X118358232Y-121409000D01*
D60*
%TO.N,/DAC_PROT&SWITCH/FW_DAC_IN_A*%
X131992900Y-146455400D02*
X165144598Y-146455400D01*
X165144598Y-146455400D02*
X167500000Y-144099998D01*
X128622500Y-143085000D02*
X131992900Y-146455400D01*
X127724250Y-143085000D02*
X128622500Y-143085000D01*
X127724250Y-141815000D02*
X127724250Y-143085000D01*
%TO.N,/DAC_PROT&SWITCH/GW_DAC_IN_A*%
X133375750Y-143085000D02*
X165514999Y-143085000D01*
X165514999Y-143085000D02*
X167500000Y-141099999D01*
X133375750Y-144355000D02*
X133375750Y-143085000D01*
%TO.N,/VIConverter/IoutGW*%
X148355000Y-129445000D02*
X148400000Y-129490000D01*
X148400000Y-129490000D02*
X154750000Y-129490000D01*
X145825750Y-129445000D02*
X148355000Y-129445000D01*
X154750000Y-129490000D02*
X155380000Y-128860000D01*
%TO.N,/VIConverter/IoutFW*%
X148325750Y-139045000D02*
X150620000Y-139045000D01*
X150620000Y-139045000D02*
X150700000Y-138965000D01*
X154505000Y-135160000D02*
X160940198Y-135160000D01*
X160940198Y-135160000D02*
X167539799Y-128560399D01*
X150700000Y-138965000D02*
X154505000Y-135160000D01*
D62*
%TO.N,Net-(Q1-B)*%
X146550000Y-100541600D02*
X146645900Y-100445700D01*
X149937600Y-100445700D02*
X151077500Y-101585600D01*
X146550000Y-101065000D02*
X146550000Y-100541600D01*
X146645900Y-100445700D02*
X149937600Y-100445700D01*
%TO.N,Net-(Q1-C)*%
X154854000Y-101420000D02*
X156000000Y-101420000D01*
X157264979Y-104874979D02*
X158231979Y-104874979D01*
X156000000Y-101420000D02*
X156530000Y-101950000D01*
X154786000Y-99196900D02*
X153600000Y-100382900D01*
X153600000Y-100382900D02*
X153600000Y-101420000D01*
X158231979Y-104874979D02*
X158245000Y-104888000D01*
X156530000Y-101950000D02*
X156530000Y-104140000D01*
X155115000Y-92400000D02*
X155115000Y-93068300D01*
X156530000Y-104140000D02*
X157264979Y-104874979D01*
X152982500Y-101585600D02*
X153434400Y-101585600D01*
X153434400Y-101585600D02*
X153600000Y-101420000D01*
X155115000Y-93068300D02*
X154786000Y-93397300D01*
X154786000Y-93397300D02*
X154786000Y-99196900D01*
%TO.N,Net-(Q2-C)*%
X153520000Y-97900000D02*
X153650000Y-97770000D01*
X156331000Y-100071000D02*
X157148000Y-100888000D01*
X154615000Y-92917900D02*
X154210000Y-93322900D01*
X154210000Y-93322900D02*
X154210000Y-97210000D01*
X152917500Y-97900000D02*
X153520000Y-97900000D01*
X154615000Y-92400000D02*
X154615000Y-92917900D01*
X156331000Y-97763000D02*
X156331000Y-100071000D01*
X154210000Y-97210000D02*
X153650000Y-97770000D01*
X157148000Y-100888000D02*
X158145000Y-100888000D01*
%TO.N,Net-(Q2-B)*%
X146050000Y-99941000D02*
X147590000Y-98401000D01*
X146050000Y-101065000D02*
X146050000Y-99941000D01*
X147590000Y-98401000D02*
X150511500Y-98401000D01*
X150511500Y-98401000D02*
X151012500Y-97900000D01*
%TO.N,Net-(Q3-B)*%
X145220500Y-101065000D02*
X145220500Y-100159500D01*
X151012500Y-95810996D02*
X151012500Y-94385600D01*
X148866496Y-97957000D02*
X151012500Y-95810996D01*
X147423000Y-97957000D02*
X148866496Y-97957000D01*
X145220500Y-100159500D02*
X147423000Y-97957000D01*
%TO.N,Net-(Q3-C)*%
X156165000Y-94310000D02*
X156510000Y-94310000D01*
X156510000Y-94310000D02*
X157130000Y-94930000D01*
X157130000Y-94930000D02*
X157130000Y-96520000D01*
X157130000Y-96520000D02*
X157498000Y-96888000D01*
X152917500Y-94385600D02*
X153294400Y-94385600D01*
X153550000Y-92635500D02*
X153550000Y-94130000D01*
X157498000Y-96888000D02*
X158145000Y-96888000D01*
X153785500Y-92400000D02*
X153550000Y-92635500D01*
X153294400Y-94385600D02*
X153550000Y-94130000D01*
%TO.N,Net-(Q4-B)*%
X147379500Y-101065000D02*
X151012500Y-104698000D01*
X151012500Y-104698000D02*
X151012500Y-105085600D01*
%TO.N,Net-(Q4-C)*%
X158379500Y-108874979D02*
X157664979Y-108874979D01*
X155470000Y-99278000D02*
X155470000Y-93430000D01*
X156320000Y-105370000D02*
X156035600Y-105085600D01*
X156035600Y-105085600D02*
X152917500Y-105085600D01*
X154228000Y-103775100D02*
X154228000Y-100520000D01*
X154228000Y-100520000D02*
X155470000Y-99278000D01*
X155944500Y-92955500D02*
X155944500Y-92400000D01*
X155470000Y-93430000D02*
X155944500Y-92955500D01*
X152917500Y-105085600D02*
X154228000Y-103775100D01*
X157664979Y-108874979D02*
X156320000Y-107530000D01*
X156320000Y-107530000D02*
X156320000Y-105370000D01*
%TO.N,Net-(Q5-C)*%
X153920500Y-121988600D02*
X152917500Y-120985600D01*
X154590000Y-118189000D02*
X154590000Y-120400000D01*
X153920500Y-125365000D02*
X153920500Y-121988600D01*
X157615021Y-112874979D02*
X157520000Y-112970000D01*
X158280000Y-112888000D02*
X157602000Y-112888000D01*
X157602000Y-112888000D02*
X157520000Y-112970000D01*
X154590000Y-120400000D02*
X154004400Y-120985600D01*
X154004400Y-120985600D02*
X152917500Y-120985600D01*
%TO.N,Net-(Q5-B)*%
X145120500Y-114435000D02*
X145120500Y-115093600D01*
X145120500Y-115093600D02*
X151012500Y-120985600D01*
%TO.N,Net-(Q6-C)*%
X155145600Y-110385600D02*
X152917500Y-110385600D01*
X156930000Y-112170000D02*
X155145600Y-110385600D01*
X157897851Y-117585421D02*
X157974579Y-117585421D01*
X157238000Y-116888000D02*
X156930000Y-116580000D01*
X158280000Y-117280000D02*
X158280000Y-116888000D01*
X157040000Y-125350000D02*
X156094500Y-125350000D01*
X156930000Y-116580000D02*
X156930000Y-112170000D01*
X157974579Y-117585421D02*
X158280000Y-117280000D01*
X158280000Y-116888000D02*
X157238000Y-116888000D01*
X156094500Y-125350000D02*
X156079500Y-125365000D01*
%TO.N,Net-(Q6-B)*%
X151012500Y-110702000D02*
X151012500Y-110385600D01*
X147279500Y-114435000D02*
X151012500Y-110702000D01*
%TO.N,Net-(Q7-B)*%
X148405600Y-117485600D02*
X151012500Y-117485600D01*
X145950000Y-114435000D02*
X145950000Y-115030000D01*
X145950000Y-115030000D02*
X148405600Y-117485600D01*
%TO.N,Net-(Q7-C)*%
X156938000Y-120888000D02*
X156460000Y-120410000D01*
X155882000Y-123286000D02*
X158280000Y-120888000D01*
X158280000Y-120888000D02*
X156938000Y-120888000D01*
X155395600Y-117485600D02*
X152917500Y-117485600D01*
X154564000Y-123969000D02*
X154654100Y-124059100D01*
X154654100Y-124059100D02*
X154654100Y-125269100D01*
X155882000Y-123988000D02*
X155882000Y-123286000D01*
X156460000Y-120410000D02*
X156460000Y-118550000D01*
X156460000Y-118550000D02*
X155395600Y-117485600D01*
X154654100Y-125269100D02*
X154750000Y-125365000D01*
%TO.N,Net-(Q8-B)*%
X146545900Y-115054300D02*
X149943800Y-115054300D01*
X146450000Y-114958400D02*
X146545900Y-115054300D01*
X149943800Y-115054300D02*
X151012500Y-113985600D01*
X146450000Y-114435000D02*
X146450000Y-114958400D01*
%TO.N,Net-(Q8-C)*%
X155250000Y-118700000D02*
X155250000Y-125365000D01*
X155420000Y-118530000D02*
X155250000Y-118700000D01*
X158180000Y-124988000D02*
X157528000Y-124988000D01*
X152987600Y-113985600D02*
X152917500Y-113985600D01*
X157528000Y-124988000D02*
X157285700Y-124745700D01*
X155871000Y-116871000D02*
X155871000Y-116869000D01*
X155250000Y-124841600D02*
X155250000Y-125365000D01*
X155345900Y-124745700D02*
X155250000Y-124841600D01*
X155871000Y-116869000D02*
X152987600Y-113985600D01*
X157285700Y-124745700D02*
X155345900Y-124745700D01*
%TO.N,+12V*%
X158280000Y-116228000D02*
X158280000Y-115568000D01*
D60*
X155944500Y-91130000D02*
X155115000Y-91130000D01*
D62*
X158280000Y-114310000D02*
X158410000Y-114180000D01*
D60*
X159449035Y-89749999D02*
X158499034Y-90700000D01*
D64*
X157195000Y-126635000D02*
X157200000Y-126630000D01*
D62*
X158280000Y-115568000D02*
X158280000Y-114908000D01*
X158180000Y-122430000D02*
X158310000Y-122300000D01*
X158280000Y-110908000D02*
X158280000Y-110330000D01*
X158145000Y-100228000D02*
X158145000Y-99568000D01*
X158145000Y-95568000D02*
X158145000Y-94908000D01*
X158145000Y-99568000D02*
X158145000Y-98908000D01*
D60*
X154615000Y-91130000D02*
X153785500Y-91130000D01*
X156130000Y-91130000D02*
X157080000Y-90180000D01*
D62*
X158145000Y-96228000D02*
X158145000Y-94908000D01*
X158245000Y-106695000D02*
X157730000Y-106180000D01*
X158280000Y-120228000D02*
X158280000Y-119568000D01*
X158180000Y-123668000D02*
X158180000Y-123008000D01*
X158245000Y-104228000D02*
X158245000Y-103568000D01*
X158145000Y-94115000D02*
X158280000Y-93980000D01*
X158145000Y-98265000D02*
X158270000Y-98140000D01*
X158245000Y-103568000D02*
X158245000Y-102908000D01*
X158280000Y-112228000D02*
X158280000Y-111568000D01*
X158245000Y-108228000D02*
X158245000Y-106908000D01*
D64*
X156079500Y-126635000D02*
X157195000Y-126635000D01*
D60*
X158499034Y-90700000D02*
X158490000Y-90700000D01*
D64*
X153920500Y-126635000D02*
X154750000Y-126635000D01*
D60*
X158490000Y-90700000D02*
X157660000Y-91530000D01*
D62*
X158280000Y-118908000D02*
X158280000Y-118330000D01*
D64*
X155250000Y-126635000D02*
X156079500Y-126635000D01*
D62*
X158145000Y-94908000D02*
X158145000Y-94115000D01*
X158280000Y-118330000D02*
X158410000Y-118200000D01*
X158280000Y-111568000D02*
X158280000Y-110908000D01*
X158280000Y-119568000D02*
X158280000Y-118908000D01*
D60*
X155944500Y-91130000D02*
X156130000Y-91130000D01*
D62*
X158280000Y-110330000D02*
X158410000Y-110200000D01*
X158180000Y-124328000D02*
X158180000Y-123668000D01*
D60*
X160800000Y-89749999D02*
X159449035Y-89749999D01*
D62*
X158180000Y-123008000D02*
X158180000Y-122430000D01*
X158245000Y-102295000D02*
X158380000Y-102160000D01*
D64*
X158279500Y-93980500D02*
X158280000Y-93980000D01*
D62*
X158280000Y-114908000D02*
X158280000Y-114310000D01*
X158245000Y-102908000D02*
X158245000Y-102295000D01*
X158245000Y-106908000D02*
X158245000Y-106695000D01*
X158145000Y-98908000D02*
X158145000Y-98265000D01*
D64*
X155250000Y-126635000D02*
X154750000Y-126635000D01*
D60*
X154615000Y-91130000D02*
X155115000Y-91130000D01*
D62*
%TO.N,/BLK-C-Water/+12V_BLK9C-5*%
X161290000Y-123008000D02*
X167525000Y-116773000D01*
X167525000Y-113125999D02*
X167515999Y-113116998D01*
X167525000Y-116773000D02*
X167525000Y-113125999D01*
X161290000Y-124988000D02*
X161290000Y-123008000D01*
%TO.N,/VIConverter/FW_DAC_IN_B_IN1-*%
X142121800Y-136505000D02*
X142674250Y-136505000D01*
X140100000Y-137165000D02*
X140760000Y-136505000D01*
X141026000Y-133471000D02*
X141026000Y-135409200D01*
X140760000Y-136505000D02*
X142674250Y-136505000D01*
X141026000Y-135409200D02*
X142121800Y-136505000D01*
X140905000Y-133350000D02*
X141026000Y-133471000D01*
%TO.N,In1+*%
X144875000Y-139423300D02*
X144875000Y-140940000D01*
X140575000Y-138515000D02*
X141315000Y-137775000D01*
X142674250Y-137775000D02*
X143226700Y-137775000D01*
X143226700Y-137775000D02*
X144875000Y-139423300D01*
X140100000Y-138515000D02*
X140575000Y-138515000D01*
X141315000Y-137775000D02*
X142674250Y-137775000D01*
%TO.N,FW_DAC_IN_B*%
X135080000Y-129430000D02*
X135060000Y-129430000D01*
X126474250Y-123890000D02*
X126474250Y-125160000D01*
X140100000Y-140165000D02*
X137310000Y-137375000D01*
X127350999Y-125160000D02*
X131620999Y-129430000D01*
X137310000Y-137375000D02*
X137310000Y-131660000D01*
X137310000Y-131660000D02*
X135080000Y-129430000D01*
X126474250Y-125160000D02*
X127350999Y-125160000D01*
X135060000Y-129430000D02*
X133090000Y-129430000D01*
%TO.N,Out1*%
X142674250Y-135235000D02*
X145015000Y-135235000D01*
X145015000Y-135235000D02*
X146810000Y-137030000D01*
X150700000Y-137315000D02*
X150700000Y-136310000D01*
X142555000Y-133350000D02*
X142555000Y-135115750D01*
X142555000Y-135115750D02*
X142674250Y-135235000D01*
%TO.N,/VIConverter/FW_OUT2*%
X146525000Y-138443900D02*
X147193900Y-137775000D01*
X147193900Y-137775000D02*
X148325750Y-137775000D01*
X146525000Y-140940000D02*
X146525000Y-138443900D01*
X148325750Y-136505000D02*
X148325750Y-137775000D01*
%TO.N,O2In1+*%
X141306100Y-128175000D02*
X140174250Y-128175000D01*
X140154250Y-128195000D02*
X140174250Y-128175000D01*
X142275000Y-131320000D02*
X142275000Y-129143900D01*
X142275000Y-129143900D02*
X141306100Y-128175000D01*
X137510000Y-128195000D02*
X140154250Y-128195000D01*
X140139250Y-128140000D02*
X140174250Y-128175000D01*
%TO.N,GW_DAC_IN_B*%
X134590000Y-125160000D02*
X135950000Y-126520000D01*
X135950000Y-128285000D02*
X137510000Y-129845000D01*
X132125750Y-126430000D02*
X132125750Y-125160000D01*
X135950000Y-126520000D02*
X135950000Y-128285000D01*
X132125750Y-125160000D02*
X134590000Y-125160000D01*
%TO.N,/VIConverter/GW_DAC_IN_B_IN1-*%
X137500000Y-126765000D02*
X140034250Y-126765000D01*
X138675000Y-125590000D02*
X137500000Y-126765000D01*
X140034250Y-126765000D02*
X140174250Y-126905000D01*
X138675000Y-123640000D02*
X138675000Y-125590000D01*
%TO.N,O2Out1*%
X148380000Y-127820000D02*
X148400000Y-127840000D01*
X148380000Y-126830000D02*
X148380000Y-127820000D01*
X140325000Y-125484250D02*
X140174250Y-125635000D01*
X140174250Y-125635000D02*
X142744089Y-125635000D01*
X142744089Y-125635000D02*
X144404201Y-127295112D01*
X140325000Y-123640000D02*
X140325000Y-125484250D01*
%TO.N,/VIConverter/GW_OUT2*%
X144500000Y-128190000D02*
X145810750Y-128190000D01*
X143925000Y-128765000D02*
X144500000Y-128190000D01*
X143925000Y-131320000D02*
X143925000Y-128765000D01*
X145810750Y-128190000D02*
X145825750Y-128175000D01*
X145825750Y-128175000D02*
X145825750Y-126905000D01*
D61*
%TO.N,DAC_IN_B*%
X127647000Y-115838479D02*
X127521000Y-115712479D01*
X127521000Y-115337519D02*
X128557520Y-114301000D01*
X127647000Y-120192885D02*
X127647000Y-115838479D01*
X120399000Y-126891000D02*
X125079000Y-122211000D01*
X120399000Y-131490364D02*
X120399000Y-126891000D01*
X125628885Y-122211000D02*
X127647000Y-120192885D01*
X121338636Y-132430000D02*
X120399000Y-131490364D01*
X125079000Y-122211000D02*
X125628885Y-122211000D01*
X127521000Y-115712479D02*
X127521000Y-115337519D01*
X122185000Y-132430000D02*
X121338636Y-132430000D01*
X128941345Y-114301000D02*
X129550000Y-113692345D01*
X128557520Y-114301000D02*
X128941345Y-114301000D01*
X129550000Y-113692345D02*
X129550000Y-112675000D01*
%TO.N,DAC_IN_A*%
X120830000Y-135500000D02*
X122175000Y-135500000D01*
X124440000Y-121710000D02*
X119720000Y-126430000D01*
X129050000Y-112675000D02*
X129050000Y-113483824D01*
X129050000Y-113483824D02*
X128733824Y-113800000D01*
X127020000Y-115920000D02*
X127146000Y-116046000D01*
X127146000Y-116046000D02*
X127146000Y-119985364D01*
X128350000Y-113800000D02*
X127020000Y-115130000D01*
X119720000Y-126430000D02*
X119720000Y-134390000D01*
X125421364Y-121710000D02*
X124440000Y-121710000D01*
X127146000Y-119985364D02*
X125421364Y-121710000D01*
X127020000Y-115130000D02*
X127020000Y-115920000D01*
X128733824Y-113800000D02*
X128350000Y-113800000D01*
X119720000Y-134390000D02*
X120830000Y-135500000D01*
%TO.N,VREF+*%
X133782600Y-118670001D02*
X134207650Y-118244951D01*
X134207650Y-116640999D02*
X135083650Y-115764999D01*
X134050000Y-112675000D02*
X134050000Y-114731349D01*
X134207650Y-118244951D02*
X134207650Y-116640999D01*
X133106350Y-118670001D02*
X133782600Y-118670001D01*
X134050000Y-114731349D02*
X135083650Y-115764999D01*
%TO.N,Net-(U13-Y5)*%
X147124998Y-113010498D02*
X147124998Y-110419400D01*
X147279500Y-113165000D02*
X147124998Y-113010498D01*
%TO.N,Net-(U13-Y7)*%
X146450000Y-113165000D02*
X146450000Y-110444399D01*
X146450000Y-110444399D02*
X146474999Y-110419400D01*
%TO.N,Net-(U13-Y4)*%
X144525001Y-111185001D02*
X144525001Y-110419400D01*
X145120500Y-111780500D02*
X144525001Y-111185001D01*
X145120500Y-113165000D02*
X145120500Y-111780500D01*
%TO.N,Net-(U13-Y6)*%
X145950000Y-113165000D02*
X145950000Y-111962399D01*
X145950000Y-111962399D02*
X145174999Y-111187398D01*
X145174999Y-111187398D02*
X145174999Y-110419400D01*
%TO.N,Net-(U13-Y0)*%
X146475002Y-103684998D02*
X146475002Y-104780600D01*
X146550000Y-103610000D02*
X146475002Y-103684998D01*
X146550000Y-102335000D02*
X146550000Y-103610000D01*
%TO.N,Net-(U13-Y3)*%
X147125001Y-103334999D02*
X147125001Y-104780600D01*
X147379500Y-102335000D02*
X147379500Y-103080500D01*
X147379500Y-103080500D02*
X147125001Y-103334999D01*
%TO.N,Net-(U13-Y2)*%
X145220500Y-102335000D02*
X145220500Y-103369500D01*
X145220500Y-103369500D02*
X145175002Y-103414998D01*
X145175002Y-103414998D02*
X145175002Y-104780600D01*
%TO.N,Net-(U13-Y1)*%
X146050000Y-102335000D02*
X146050000Y-103310000D01*
X145825001Y-103534999D02*
X145825001Y-104780600D01*
X146050000Y-103310000D02*
X145825001Y-103534999D01*
%TO.N,SWDIO*%
X135165000Y-99400000D02*
X136050000Y-100285000D01*
X136050000Y-100285000D02*
X136050000Y-101325000D01*
%TO.N,SWCLK*%
X134644000Y-100249000D02*
X135282824Y-100249000D01*
X135550000Y-100516176D02*
X135550000Y-101325000D01*
X135282824Y-100249000D02*
X135550000Y-100516176D01*
X133795000Y-99400000D02*
X134644000Y-100249000D01*
%TO.N,uC_Alive*%
X138783824Y-104250000D02*
X141440000Y-101593824D01*
X141440000Y-101593824D02*
X141440000Y-100737500D01*
X137975000Y-104250000D02*
X138783824Y-104250000D01*
%TO.N,BOOT*%
X130050000Y-99455000D02*
X130050000Y-101325000D01*
%TO.N,IN_B*%
X128148000Y-115802865D02*
X130050000Y-113900865D01*
X130350000Y-127200000D02*
X130330000Y-127200000D01*
X130330000Y-127200000D02*
X127630000Y-124500000D01*
X130050000Y-113900865D02*
X130050000Y-112675000D01*
X131344999Y-130074999D02*
X129410000Y-128140000D01*
X131344999Y-133139999D02*
X131344999Y-130074999D01*
X127630000Y-120940000D02*
X128148000Y-120422000D01*
X128148000Y-120422000D02*
X128148000Y-115802865D01*
X127630000Y-124500000D02*
X127630000Y-120940000D01*
%TO.N,BLKC_SEL_B*%
X148420000Y-104785601D02*
X148425001Y-104780600D01*
X137975000Y-107750000D02*
X140721000Y-107750000D01*
X148420000Y-106050000D02*
X148420000Y-104785601D01*
%TO.N,BLKC_SEL_C*%
X149780000Y-104780000D02*
X149075599Y-104780000D01*
X149075599Y-104780000D02*
X149074999Y-104780600D01*
X139490000Y-107250000D02*
X139628500Y-107111500D01*
X137975000Y-107250000D02*
X139490000Y-107250000D01*
%TO.N,USART2_TX*%
X128020000Y-109163824D02*
X127433824Y-109750000D01*
X124345000Y-99585000D02*
X124360000Y-99570000D01*
X127433824Y-109750000D02*
X126625000Y-109750000D01*
X128020000Y-108442000D02*
X128020000Y-109163824D01*
X123560000Y-99590000D02*
X125460000Y-99590000D01*
X125460000Y-99590000D02*
X125470000Y-99580000D01*
X128015000Y-108437000D02*
X128020000Y-108442000D01*
%TO.N,EN_LIN*%
X137975000Y-104750000D02*
X136530000Y-104750000D01*
X122170000Y-97700000D02*
X122170000Y-98220000D01*
X122265000Y-98315000D02*
X123115001Y-98315000D01*
X122170000Y-98220000D02*
X122265000Y-98315000D01*
%TO.N,IN_A*%
X130550000Y-112675000D02*
X130550000Y-114430000D01*
X128869000Y-124729000D02*
X129470000Y-125330000D01*
X130550000Y-114430000D02*
X128869000Y-116111000D01*
X131344999Y-135140001D02*
X129619999Y-135140001D01*
X128869000Y-116111000D02*
X128869000Y-124729000D01*
X129619999Y-135140001D02*
X129560000Y-135200000D01*
%TO.N,USART2_RX*%
X124899999Y-95780000D02*
X125234999Y-96115000D01*
X123560000Y-95780000D02*
X124899999Y-95780000D01*
X129800751Y-110410000D02*
X130560000Y-110410000D01*
X128550000Y-112675000D02*
X128550000Y-111660751D01*
X128550000Y-111660751D02*
X129800751Y-110410000D01*
%TO.N,BLKC_CTRL_IN*%
X145825001Y-109627001D02*
X143949000Y-107751000D01*
X138832824Y-106701000D02*
X138024000Y-106701000D01*
X143949000Y-107751000D02*
X142111000Y-107751000D01*
X140870000Y-106510000D02*
X139023824Y-106510000D01*
X138024000Y-106701000D02*
X137975000Y-106750000D01*
X142111000Y-107751000D02*
X140870000Y-106510000D01*
X139023824Y-106510000D02*
X138832824Y-106701000D01*
X145825001Y-110419400D02*
X145825001Y-109627001D01*
%TO.N,BLKC_SEL_A*%
X147080000Y-106720000D02*
X147774999Y-106025001D01*
X147774999Y-106025001D02*
X147774999Y-104780600D01*
X147080000Y-108250000D02*
X147080000Y-106720000D01*
X139193000Y-108250000D02*
X139394000Y-108451000D01*
X137975000Y-108250000D02*
X139193000Y-108250000D01*
X139601000Y-108658000D02*
X144072000Y-108658000D01*
X139394000Y-108451000D02*
X139601000Y-108658000D01*
%TO.N,/DAC_PROT&SWITCH/DAC_A_IN2+*%
X132900000Y-134940000D02*
X132600002Y-134640002D01*
X132090000Y-136880000D02*
X132900000Y-136070000D01*
X132090000Y-144891700D02*
X132090000Y-136880000D01*
X133375750Y-145625000D02*
X132823300Y-145625000D01*
X132900000Y-136070000D02*
X132900000Y-134940000D01*
X132600002Y-134640002D02*
X131344999Y-134640002D01*
X132823300Y-145625000D02*
X132090000Y-144891700D01*
%TO.N,/DAC_PROT&SWITCH/DAC_A_IN1+*%
X127280000Y-135900000D02*
X126460000Y-136720000D01*
X128140000Y-135360000D02*
X127600000Y-135900000D01*
X127171800Y-144355000D02*
X127724250Y-144355000D01*
X126460000Y-143643200D02*
X127171800Y-144355000D01*
X126460000Y-136720000D02*
X126460000Y-143643200D01*
X128140000Y-134860000D02*
X128140000Y-135360000D01*
X127920002Y-134640002D02*
X128140000Y-134860000D01*
X127600000Y-135900000D02*
X127280000Y-135900000D01*
X126894998Y-134640002D02*
X127920002Y-134640002D01*
%TO.N,/DAC_PROT&SWITCH/DAC_B_IN2+*%
X132320999Y-133326809D02*
X132320999Y-127895249D01*
X132320999Y-127895249D02*
X132125750Y-127700000D01*
X132007807Y-133640001D02*
X132320999Y-133326809D01*
X131344999Y-133640001D02*
X132007807Y-133640001D01*
%TO.N,/DAC_PROT&SWITCH/DAC_B_IN1+*%
X127880000Y-133321480D02*
X127561479Y-133640001D01*
X127880000Y-127283300D02*
X127880000Y-133321480D01*
X126474250Y-126430000D02*
X127026700Y-126430000D01*
X127026700Y-126430000D02*
X127880000Y-127283300D01*
X127561479Y-133640001D02*
X126894998Y-133640001D01*
D60*
%TO.N,/DAC_PROT&SWITCH/BLKB_PWR_BUFF*%
X158565000Y-130631504D02*
X155387796Y-127454300D01*
D62*
X159835000Y-131474250D02*
X158565000Y-131474250D01*
D60*
X155387796Y-127454300D02*
X152484300Y-127454300D01*
X132125750Y-122145750D02*
X131975000Y-121995000D01*
X147515000Y-121995000D02*
X131975000Y-121995000D01*
X134760000Y-123890000D02*
X134890000Y-123760000D01*
X134670000Y-123890000D02*
X134700000Y-123920000D01*
X152070000Y-124850000D02*
X151650000Y-124430000D01*
X132125750Y-123890000D02*
X132125750Y-122145750D01*
X152484300Y-127454300D02*
X152070000Y-127040000D01*
X158565000Y-131474250D02*
X158565000Y-130631504D01*
X151650000Y-124430000D02*
X149950000Y-124430000D01*
X132125750Y-123890000D02*
X134760000Y-123890000D01*
X152070000Y-127040000D02*
X152070000Y-124850000D01*
X149950000Y-124430000D02*
X147515000Y-121995000D01*
%TO.N,/DAC_PROT&SWITCH/BLKA_PWR_BUFF*%
X135470000Y-141835000D02*
X133395750Y-141835000D01*
X157295000Y-137125750D02*
X152354750Y-142066000D01*
X158565000Y-137125750D02*
X157295000Y-137125750D01*
X133395750Y-141835000D02*
X133375750Y-141815000D01*
X152354750Y-142066000D02*
X135701000Y-142066000D01*
X133340000Y-141779250D02*
X133375750Y-141815000D01*
X135701000Y-142066000D02*
X135470000Y-141835000D01*
X133340000Y-139400000D02*
X133340000Y-141779250D01*
%TD*%
M02*
