%TF.GenerationSoftware,KiCad,Pcbnew,9.0.6*%
%TF.CreationDate,2026-02-16T15:04:55+01:00*%
%TF.ProjectId,WaterSensor,57617465-7253-4656-9e73-6f722e6b6963,rev?*%
%TF.SameCoordinates,Original*%
%TF.FileFunction,Legend,Bot*%
%TF.FilePolarity,Positive*%
%FSLAX46Y46*%
G04 Gerber Fmt 4.6, Leading zero omitted, Abs format (unit mm)*
G04 Created by KiCad (PCBNEW 9.0.6) date 2026-02-16 15:04:55*
%MOMM*%
%LPD*%
G01*
G04 APERTURE LIST*
%ADD10C,0.508000*%
%ADD11C,0.900000*%
%ADD12C,2.362200*%
%ADD13C,1.320800*%
%ADD14C,1.574800*%
%ADD15C,2.200000*%
G04 APERTURE END LIST*
D10*
%TO.C,J2*%
X112969400Y-86210251D02*
G75*
G02*
X112207400Y-86210251I-381000J0D01*
G01*
X112207400Y-86210251D02*
G75*
G02*
X112969400Y-86210251I381000J0D01*
G01*
%TO.C,J7*%
X167881000Y-133423599D02*
G75*
G02*
X167119000Y-133423599I-381000J0D01*
G01*
X167119000Y-133423599D02*
G75*
G02*
X167881000Y-133423599I381000J0D01*
G01*
%TO.C,J5*%
X167896999Y-99440599D02*
G75*
G02*
X167134999Y-99440599I-381000J0D01*
G01*
X167134999Y-99440599D02*
G75*
G02*
X167896999Y-99440599I381000J0D01*
G01*
%TO.C,J4*%
X167920999Y-78023601D02*
G75*
G02*
X167158999Y-78023601I-381000J0D01*
G01*
X167158999Y-78023601D02*
G75*
G02*
X167920999Y-78023601I381000J0D01*
G01*
%TO.C,J8*%
X167920799Y-117884000D02*
G75*
G02*
X167158799Y-117884000I-381000J0D01*
G01*
X167158799Y-117884000D02*
G75*
G02*
X167920799Y-117884000I381000J0D01*
G01*
%TO.C,J3*%
X104709000Y-86189750D02*
G75*
G02*
X103947000Y-86189750I-381000J0D01*
G01*
X103947000Y-86189750D02*
G75*
G02*
X104709000Y-86189750I381000J0D01*
G01*
%TD*%
%LPC*%
D11*
%TO.C,J6*%
X109925000Y-125500000D03*
X109925000Y-129900000D03*
%TD*%
D12*
%TO.C,J2*%
X116700000Y-86210251D03*
X116700000Y-91710250D03*
%TD*%
D13*
%TO.C,J7*%
X169460001Y-147099997D03*
X169460001Y-135100001D03*
D14*
X167500000Y-138100000D03*
X167500000Y-141099999D03*
X167500000Y-144099998D03*
%TD*%
D13*
%TO.C,J5*%
X169476000Y-116117000D03*
X169476000Y-101116999D03*
D14*
X167515999Y-104117001D03*
X167515999Y-107117000D03*
X167515999Y-110116999D03*
X167515999Y-113116998D03*
%TD*%
D13*
%TO.C,J4*%
X169500000Y-97700000D03*
X169500000Y-79700000D03*
D14*
X167539999Y-82700002D03*
X167539999Y-85700001D03*
X167539999Y-88700000D03*
X167539999Y-91699999D03*
X167539999Y-94699998D03*
%TD*%
D15*
%TO.C,H1*%
X155200000Y-82300000D03*
%TD*%
D13*
%TO.C,J8*%
X169499800Y-131560398D03*
X169499800Y-119560402D03*
D14*
X167539799Y-122560401D03*
X167539799Y-125560400D03*
X167539799Y-128560399D03*
%TD*%
D15*
%TO.C,H2*%
X115000000Y-140100000D03*
%TD*%
D12*
%TO.C,J3*%
X108439600Y-86189750D03*
X108439600Y-91689749D03*
%TD*%
%LPD*%
M02*
