%TF.GenerationSoftware,KiCad,Pcbnew,9.0.6*%
%TF.CreationDate,2026-02-16T15:04:55+01:00*%
%TF.ProjectId,WaterSensor,57617465-7253-4656-9e73-6f722e6b6963,rev?*%
%TF.SameCoordinates,Original*%
%TF.FileFunction,Copper,L3,Inr*%
%TF.FilePolarity,Positive*%
%FSLAX46Y46*%
G04 Gerber Fmt 4.6, Leading zero omitted, Abs format (unit mm)*
G04 Created by KiCad (PCBNEW 9.0.6) date 2026-02-16 15:04:55*
%MOMM*%
%LPD*%
G01*
G04 APERTURE LIST*
%TA.AperFunction,ComponentPad*%
%ADD10C,2.362200*%
%TD*%
%TA.AperFunction,ComponentPad*%
%ADD11C,1.574800*%
%TD*%
%TA.AperFunction,ViaPad*%
%ADD12C,0.600000*%
%TD*%
G04 APERTURE END LIST*
D10*
%TO.N,GND*%
%TO.C,J2*%
X116700000Y-86210251D03*
%TO.N,PS_IN*%
X116700000Y-91710250D03*
%TD*%
D11*
%TO.N,/DAC_PROT&SWITCH/BLKA_PWR*%
%TO.C,J7*%
X167500000Y-138100000D03*
%TO.N,/DAC_PROT&SWITCH/GW_DAC_IN_A*%
X167500000Y-141099999D03*
%TO.N,/DAC_PROT&SWITCH/FW_DAC_IN_A*%
X167500000Y-144099998D03*
%TD*%
%TO.N,/BLK-C-Water/+12V_BLK9C-2*%
%TO.C,J5*%
X167515999Y-104117001D03*
%TO.N,/BLK-C-Water/+12V_BLK9C-3*%
X167515999Y-107117000D03*
%TO.N,/BLK-C-Water/+12V_BLK9C-4*%
X167515999Y-110116999D03*
%TO.N,/BLK-C-Water/+12V_BLK9C-5*%
X167515999Y-113116998D03*
%TD*%
%TO.N,/BLK-C-Water/BLKC_PWR*%
%TO.C,J4*%
X167539999Y-82700002D03*
%TO.N,/BLK-C-Water/+12V_BLK8C-2*%
X167539999Y-85700001D03*
%TO.N,/BLK-C-Water/+12V_BLK8C-3*%
X167539999Y-88700000D03*
%TO.N,/BLK-C-Water/+12V_BLK8C-4*%
X167539999Y-91699999D03*
%TO.N,/BLK-C-Water/+12V_BLK8C-5*%
X167539999Y-94699998D03*
%TD*%
%TO.N,/DAC_PROT&SWITCH/BLKB_PWR*%
%TO.C,J8*%
X167539799Y-122560401D03*
%TO.N,/VIConverter/IoutGW*%
X167539799Y-125560400D03*
%TO.N,/VIConverter/IoutFW*%
X167539799Y-128560399D03*
%TD*%
D10*
%TO.N,/LIN_BUS*%
%TO.C,J3*%
X108439600Y-86189750D03*
%TO.N,GND*%
X108439600Y-91689749D03*
%TD*%
D12*
%TO.N,GND*%
X116200000Y-104170000D03*
X138173650Y-118569999D03*
X158570000Y-129300000D03*
X151210000Y-119620000D03*
X143040000Y-101550000D03*
X123760000Y-108560000D03*
X133430400Y-92650251D03*
X143160000Y-96830000D03*
X136673650Y-118599999D03*
X136750000Y-103750000D03*
X114530000Y-129300000D03*
X108980000Y-100900000D03*
X162280000Y-139210000D03*
X137500000Y-124090000D03*
X139010000Y-135510000D03*
X149070000Y-111790000D03*
X140180000Y-130340000D03*
X122272000Y-111809000D03*
X142483000Y-107004000D03*
X141680000Y-86860000D03*
X114190000Y-97700000D03*
X126430000Y-97620000D03*
X145840000Y-133410000D03*
X117150000Y-117710000D03*
X120910000Y-104960000D03*
X132470400Y-83550251D03*
X142670000Y-139930000D03*
X151200000Y-100050000D03*
X132140000Y-116770000D03*
X123773000Y-118925000D03*
X151210000Y-123120000D03*
X129070000Y-103010000D03*
X107450000Y-100910000D03*
X119650000Y-109100000D03*
X125964000Y-119794000D03*
X131230400Y-85200251D03*
X135630400Y-85200251D03*
X125540000Y-93970000D03*
X121100000Y-133970000D03*
X151200000Y-107200000D03*
X121540000Y-104540000D03*
X151200000Y-112510000D03*
X134178299Y-111402112D03*
X123485000Y-103210000D03*
X118130000Y-121960000D03*
X158260000Y-92600000D03*
X131530000Y-117720000D03*
X134330400Y-83550251D03*
X132160000Y-117730000D03*
X139880000Y-113960000D03*
X136130000Y-111280000D03*
X150620000Y-125620000D03*
X155400000Y-134110000D03*
X139240000Y-96390000D03*
X139360000Y-100430000D03*
X157080000Y-88800000D03*
X133090028Y-134140127D03*
X126470000Y-128600000D03*
X112810000Y-115320000D03*
X148420000Y-111770000D03*
X129566000Y-122394000D03*
X121110000Y-130890000D03*
X121120000Y-137100000D03*
X130050000Y-96830000D03*
X138230000Y-86860251D03*
X151270000Y-103700000D03*
X141300000Y-112200000D03*
X147770000Y-111780000D03*
X133000000Y-120190000D03*
X151200000Y-96510000D03*
X127540000Y-93500000D03*
X135470000Y-139420000D03*
X151200000Y-116110000D03*
X136020000Y-120400000D03*
X119234999Y-95775000D03*
X128555000Y-109304000D03*
X126220000Y-145620000D03*
X129040000Y-93510000D03*
X123650000Y-107110000D03*
X143280000Y-94420000D03*
X112780000Y-116590000D03*
%TO.N,NRST*%
X121480000Y-110550000D03*
X119630000Y-112860000D03*
%TO.N,+5V*%
X124940000Y-133980000D03*
X121305025Y-123855025D03*
X149430000Y-96190000D03*
X128530000Y-134130000D03*
%TO.N,+3.3V*%
X124529975Y-114599975D03*
X126090000Y-102110000D03*
X112785000Y-114020000D03*
X131480000Y-116070000D03*
X125710000Y-111790000D03*
X127810000Y-101030000D03*
X147410000Y-96830000D03*
X145640000Y-95330000D03*
X126620000Y-102590000D03*
X125290000Y-110560000D03*
X132520000Y-96430000D03*
X139380675Y-102140195D03*
X117010000Y-129320000D03*
X122295000Y-117160000D03*
X126355785Y-111452785D03*
X143110000Y-103670000D03*
X140753650Y-117589999D03*
X137250000Y-112180000D03*
X143960000Y-103460000D03*
X137300000Y-112870000D03*
X118615000Y-120140000D03*
X127530000Y-100440000D03*
X136710000Y-112680000D03*
X126270000Y-116270000D03*
X118625000Y-117010000D03*
X139170000Y-102860000D03*
%TO.N,PS_RAW*%
X155400000Y-130270000D03*
X148060000Y-124340000D03*
X146890000Y-124580000D03*
X131120000Y-89110000D03*
X162040000Y-88080000D03*
X156640000Y-129910000D03*
X149690000Y-134340000D03*
X149800000Y-133410000D03*
%TO.N,Vdrive*%
X139940000Y-85590000D03*
X115450000Y-122500000D03*
%TO.N,USART1_TX*%
X116140000Y-119170000D03*
X132030000Y-114370000D03*
%TO.N,USART1_RX*%
X116140000Y-120400000D03*
X133350000Y-114320000D03*
%TO.N,/USB_D-*%
X119098300Y-123830000D03*
X120298300Y-123830000D03*
%TO.N,/VIConverter/IoutGW*%
X155380000Y-128860000D03*
%TO.N,Net-(Q1-C)*%
X154854000Y-101420000D03*
X153600000Y-101420000D03*
%TO.N,Net-(Q2-C)*%
X156331000Y-97763000D03*
X153650000Y-97770000D03*
%TO.N,Net-(Q3-C)*%
X153550000Y-94130000D03*
X156165000Y-94310000D03*
%TO.N,Net-(Q5-C)*%
X154590000Y-118189000D03*
X157520000Y-112970000D03*
%TO.N,Net-(Q6-C)*%
X157040000Y-125350000D03*
X157897851Y-117585421D03*
%TO.N,Net-(Q7-C)*%
X154564000Y-123969000D03*
X155882000Y-123988000D03*
%TO.N,Net-(Q8-C)*%
X155420000Y-118530000D03*
X155871000Y-116871000D03*
%TO.N,+12V*%
X158270000Y-98140000D03*
X158380000Y-102160000D03*
X158310000Y-122300000D03*
X157660000Y-91530000D03*
X157200000Y-126630000D03*
X158280000Y-93980000D03*
X158410000Y-114180000D03*
X158410000Y-118200000D03*
X157080000Y-90180000D03*
X157730000Y-106180000D03*
X158410000Y-110200000D03*
%TO.N,FW_DAC_IN_B*%
X133090000Y-129430000D03*
X131620999Y-129430000D03*
%TO.N,Out1*%
X150700000Y-136310000D03*
X146810000Y-137030000D03*
%TO.N,O2Out1*%
X144404201Y-127295112D03*
X148380000Y-126830000D03*
%TO.N,IN_B*%
X130350000Y-127200000D03*
X129410000Y-128140000D03*
%TO.N,BLKC_SEL_B*%
X148420000Y-106050000D03*
X140721000Y-107750000D03*
%TO.N,BLKC_SEL_C*%
X139628500Y-107111500D03*
X149780000Y-104780000D03*
%TO.N,USART2_TX*%
X128015000Y-108437000D03*
X125470000Y-99580000D03*
%TO.N,EN_LIN*%
X122170000Y-97700000D03*
X136530000Y-104750000D03*
%TO.N,IN_A*%
X129470000Y-125330000D03*
X129560000Y-135200000D03*
%TO.N,USART2_RX*%
X125234999Y-96115000D03*
X130560000Y-110410000D03*
%TO.N,BLKC_SEL_A*%
X147080000Y-108250000D03*
X144072000Y-108658000D03*
%TD*%
%TA.AperFunction,Conductor*%
%TO.N,PS_RAW*%
G36*
X165903114Y-84029708D02*
G01*
X165948891Y-84082493D01*
X165960118Y-84133933D01*
X166009880Y-135985699D01*
X165990260Y-136052757D01*
X165937500Y-136098563D01*
X165885699Y-136109818D01*
X151336964Y-136088569D01*
X151269953Y-136068786D01*
X151229760Y-136026571D01*
X151180520Y-135941284D01*
X151068716Y-135829480D01*
X151068714Y-135829479D01*
X151068709Y-135829475D01*
X150931790Y-135750426D01*
X150931786Y-135750424D01*
X150931784Y-135750423D01*
X150779057Y-135709500D01*
X150620943Y-135709500D01*
X150468216Y-135750423D01*
X150468209Y-135750426D01*
X150331290Y-135829475D01*
X150331282Y-135829481D01*
X150219481Y-135941282D01*
X150219477Y-135941287D01*
X150171314Y-136024709D01*
X150120747Y-136072925D01*
X150063746Y-136086709D01*
X145594119Y-136080181D01*
X145527108Y-136060398D01*
X145481431Y-136007528D01*
X145470300Y-135955881D01*
X145470336Y-135941287D01*
X145474927Y-134043396D01*
X145476666Y-134037525D01*
X154849500Y-134037525D01*
X154849500Y-134182475D01*
X154857573Y-134212602D01*
X154887017Y-134322488D01*
X154959488Y-134448011D01*
X154959490Y-134448013D01*
X154959491Y-134448015D01*
X155061985Y-134550509D01*
X155061986Y-134550510D01*
X155061988Y-134550511D01*
X155187511Y-134622982D01*
X155187512Y-134622982D01*
X155187515Y-134622984D01*
X155327525Y-134660500D01*
X155327528Y-134660500D01*
X155472472Y-134660500D01*
X155472475Y-134660500D01*
X155612485Y-134622984D01*
X155738015Y-134550509D01*
X155840509Y-134448015D01*
X155912984Y-134322485D01*
X155950500Y-134182475D01*
X155950500Y-134037525D01*
X155912984Y-133897515D01*
X155885843Y-133850506D01*
X155840511Y-133771988D01*
X155840506Y-133771982D01*
X155738017Y-133669493D01*
X155738011Y-133669488D01*
X155612488Y-133597017D01*
X155612489Y-133597017D01*
X155584909Y-133589627D01*
X155472475Y-133559500D01*
X155327525Y-133559500D01*
X155215091Y-133589627D01*
X155187511Y-133597017D01*
X155061988Y-133669488D01*
X155061982Y-133669493D01*
X154959493Y-133771982D01*
X154959488Y-133771988D01*
X154887017Y-133897511D01*
X154887016Y-133897515D01*
X154849500Y-134037525D01*
X145476666Y-134037525D01*
X145494774Y-133976405D01*
X145547689Y-133930778D01*
X145616871Y-133921002D01*
X145630997Y-133923917D01*
X145767525Y-133960500D01*
X145767528Y-133960500D01*
X145912472Y-133960500D01*
X145912475Y-133960500D01*
X146052485Y-133922984D01*
X146054170Y-133922011D01*
X146054171Y-133922011D01*
X146096605Y-133897511D01*
X146178015Y-133850509D01*
X146280509Y-133748015D01*
X146352984Y-133622485D01*
X146390500Y-133482475D01*
X146390500Y-133337525D01*
X146352984Y-133197515D01*
X146280509Y-133071985D01*
X146178015Y-132969491D01*
X146178013Y-132969490D01*
X146178011Y-132969488D01*
X146052488Y-132897017D01*
X146052489Y-132897017D01*
X146039703Y-132893591D01*
X145912475Y-132859500D01*
X145767525Y-132859500D01*
X145634088Y-132895254D01*
X145564238Y-132893591D01*
X145506376Y-132854428D01*
X145478872Y-132790200D01*
X145477995Y-132775187D01*
X145492570Y-126750943D01*
X147779500Y-126750943D01*
X147779500Y-126909056D01*
X147820423Y-127061783D01*
X147820426Y-127061790D01*
X147899475Y-127198709D01*
X147899479Y-127198714D01*
X147899480Y-127198716D01*
X148011284Y-127310520D01*
X148011286Y-127310521D01*
X148011290Y-127310524D01*
X148121528Y-127374169D01*
X148148216Y-127389577D01*
X148300943Y-127430500D01*
X148300945Y-127430500D01*
X148459055Y-127430500D01*
X148459057Y-127430500D01*
X148611784Y-127389577D01*
X148748716Y-127310520D01*
X148860520Y-127198716D01*
X148939577Y-127061784D01*
X148980500Y-126909057D01*
X148980500Y-126750943D01*
X148939577Y-126598216D01*
X148939573Y-126598209D01*
X148860524Y-126461290D01*
X148860518Y-126461282D01*
X148748717Y-126349481D01*
X148748709Y-126349475D01*
X148611790Y-126270426D01*
X148611786Y-126270424D01*
X148611784Y-126270423D01*
X148459057Y-126229500D01*
X148300943Y-126229500D01*
X148148216Y-126270423D01*
X148148209Y-126270426D01*
X148011290Y-126349475D01*
X148011282Y-126349481D01*
X147899481Y-126461282D01*
X147899475Y-126461290D01*
X147820426Y-126598209D01*
X147820423Y-126598216D01*
X147779500Y-126750943D01*
X145492570Y-126750943D01*
X145495481Y-125547525D01*
X150069500Y-125547525D01*
X150069500Y-125692475D01*
X150107016Y-125832485D01*
X150107017Y-125832488D01*
X150179488Y-125958011D01*
X150179490Y-125958013D01*
X150179491Y-125958015D01*
X150281985Y-126060509D01*
X150281986Y-126060510D01*
X150281988Y-126060511D01*
X150407511Y-126132982D01*
X150407512Y-126132982D01*
X150407515Y-126132984D01*
X150547525Y-126170500D01*
X150547528Y-126170500D01*
X150692472Y-126170500D01*
X150692475Y-126170500D01*
X150832485Y-126132984D01*
X150958015Y-126060509D01*
X151060509Y-125958015D01*
X151132984Y-125832485D01*
X151170500Y-125692475D01*
X151170500Y-125547525D01*
X151132984Y-125407515D01*
X151060509Y-125281985D01*
X150958015Y-125179491D01*
X150958013Y-125179490D01*
X150958011Y-125179488D01*
X150832488Y-125107017D01*
X150832489Y-125107017D01*
X150821006Y-125103940D01*
X150692475Y-125069500D01*
X150547525Y-125069500D01*
X150418993Y-125103940D01*
X150407511Y-125107017D01*
X150281988Y-125179488D01*
X150281982Y-125179493D01*
X150179493Y-125281982D01*
X150179488Y-125281988D01*
X150107017Y-125407511D01*
X150107016Y-125407515D01*
X150069500Y-125547525D01*
X145495481Y-125547525D01*
X145499700Y-123803881D01*
X145519547Y-123736890D01*
X145572462Y-123691263D01*
X145623878Y-123680182D01*
X152145926Y-123689816D01*
X152212934Y-123709600D01*
X152258611Y-123762471D01*
X152269741Y-123814074D01*
X152262207Y-127430499D01*
X152260000Y-128490000D01*
X154692189Y-128506923D01*
X154759088Y-128527074D01*
X154804474Y-128580195D01*
X154813936Y-128649421D01*
X154811099Y-128663013D01*
X154787925Y-128749500D01*
X154779500Y-128780943D01*
X154779500Y-128939057D01*
X154785645Y-128961988D01*
X154820423Y-129091783D01*
X154820426Y-129091790D01*
X154899475Y-129228709D01*
X154899479Y-129228714D01*
X154899480Y-129228716D01*
X155011284Y-129340520D01*
X155011286Y-129340521D01*
X155011290Y-129340524D01*
X155066632Y-129372475D01*
X155148216Y-129419577D01*
X155300943Y-129460500D01*
X155300945Y-129460500D01*
X155459055Y-129460500D01*
X155459057Y-129460500D01*
X155611784Y-129419577D01*
X155748716Y-129340520D01*
X155860520Y-129228716D01*
X155939577Y-129091784D01*
X155980500Y-128939057D01*
X155980500Y-128780943D01*
X155951473Y-128672612D01*
X155953136Y-128602766D01*
X155992298Y-128544903D01*
X156056527Y-128517399D01*
X156072101Y-128516525D01*
X158366420Y-128532490D01*
X158433321Y-128552641D01*
X158478707Y-128605762D01*
X158488169Y-128674988D01*
X158458703Y-128738340D01*
X158399663Y-128775704D01*
X158397707Y-128776246D01*
X158362276Y-128785740D01*
X158357511Y-128787017D01*
X158231988Y-128859488D01*
X158231982Y-128859493D01*
X158129493Y-128961982D01*
X158129488Y-128961988D01*
X158057017Y-129087511D01*
X158055818Y-129091985D01*
X158019500Y-129227525D01*
X158019500Y-129372475D01*
X158043087Y-129460500D01*
X158057017Y-129512488D01*
X158129488Y-129638011D01*
X158129490Y-129638013D01*
X158129491Y-129638015D01*
X158231985Y-129740509D01*
X158231986Y-129740510D01*
X158231988Y-129740511D01*
X158357511Y-129812982D01*
X158357512Y-129812982D01*
X158357515Y-129812984D01*
X158497525Y-129850500D01*
X158497528Y-129850500D01*
X158642472Y-129850500D01*
X158642475Y-129850500D01*
X158782485Y-129812984D01*
X158908015Y-129740509D01*
X159010509Y-129638015D01*
X159082984Y-129512485D01*
X159120500Y-129372475D01*
X159120500Y-129227525D01*
X159082984Y-129087515D01*
X159010509Y-128961985D01*
X158908015Y-128859491D01*
X158908013Y-128859490D01*
X158908011Y-128859488D01*
X158782488Y-128787017D01*
X158782489Y-128787017D01*
X158779293Y-128786160D01*
X158753248Y-128779181D01*
X158693590Y-128742818D01*
X158663061Y-128679971D01*
X158671356Y-128610595D01*
X158715841Y-128556717D01*
X158782393Y-128535443D01*
X158786207Y-128535411D01*
X162320000Y-128560000D01*
X162250000Y-89110000D01*
X162249999Y-89110000D01*
X162249999Y-89109999D01*
X157722516Y-89134682D01*
X157655370Y-89115363D01*
X157609328Y-89062810D01*
X157599008Y-88993706D01*
X157602061Y-88978608D01*
X157630500Y-88872475D01*
X157630500Y-88727525D01*
X157592984Y-88587515D01*
X157520509Y-88461985D01*
X157418015Y-88359491D01*
X157418013Y-88359490D01*
X157418011Y-88359488D01*
X157292488Y-88287017D01*
X157292489Y-88287017D01*
X157281006Y-88283940D01*
X157152475Y-88249500D01*
X157007525Y-88249500D01*
X156878993Y-88283940D01*
X156867511Y-88287017D01*
X156741988Y-88359488D01*
X156741982Y-88359493D01*
X156639493Y-88461982D01*
X156639488Y-88461988D01*
X156567017Y-88587511D01*
X156567016Y-88587515D01*
X156529500Y-88727525D01*
X156529500Y-88727527D01*
X156529500Y-88872474D01*
X156559806Y-88985579D01*
X156558143Y-89055429D01*
X156518980Y-89113291D01*
X156454752Y-89140795D01*
X156440707Y-89141670D01*
X153071918Y-89160036D01*
X153098452Y-91314363D01*
X153079594Y-91381640D01*
X153027358Y-91428041D01*
X152974353Y-91439890D01*
X130215810Y-91420144D01*
X130148788Y-91400401D01*
X130103079Y-91347558D01*
X130091918Y-91296144D01*
X130091918Y-88104139D01*
X130111603Y-88037100D01*
X130164407Y-87991345D01*
X130216017Y-87980139D01*
X142120000Y-87990000D01*
X142118463Y-87235035D01*
X142135074Y-87172786D01*
X142192984Y-87072485D01*
X142230500Y-86932475D01*
X142230500Y-86787525D01*
X142192984Y-86647515D01*
X142133544Y-86544562D01*
X142116931Y-86482816D01*
X142112170Y-84144233D01*
X142131718Y-84077157D01*
X142184429Y-84031295D01*
X142236114Y-84019984D01*
X165836066Y-84010052D01*
X165903114Y-84029708D01*
G37*
%TD.AperFunction*%
%TD*%
%TA.AperFunction,Conductor*%
%TO.N,+12V*%
G36*
X161232886Y-89469768D02*
G01*
X161278719Y-89522505D01*
X161290000Y-89574182D01*
X161290000Y-127306181D01*
X161270315Y-127373220D01*
X161217511Y-127418975D01*
X161166182Y-127430181D01*
X154594214Y-127439817D01*
X154527146Y-127420231D01*
X154481313Y-127367494D01*
X154470032Y-127315787D01*
X154470569Y-125277525D01*
X156489500Y-125277525D01*
X156489500Y-125422475D01*
X156527016Y-125562485D01*
X156527017Y-125562488D01*
X156599488Y-125688011D01*
X156599490Y-125688013D01*
X156599491Y-125688015D01*
X156701985Y-125790509D01*
X156701986Y-125790510D01*
X156701988Y-125790511D01*
X156827511Y-125862982D01*
X156827512Y-125862982D01*
X156827515Y-125862984D01*
X156967525Y-125900500D01*
X156967528Y-125900500D01*
X157112472Y-125900500D01*
X157112475Y-125900500D01*
X157252485Y-125862984D01*
X157378015Y-125790509D01*
X157480509Y-125688015D01*
X157552984Y-125562485D01*
X157590500Y-125422475D01*
X157590500Y-125277525D01*
X157552984Y-125137515D01*
X157480509Y-125011985D01*
X157378015Y-124909491D01*
X157378013Y-124909490D01*
X157378011Y-124909488D01*
X157252488Y-124837017D01*
X157252489Y-124837017D01*
X157241006Y-124833940D01*
X157112475Y-124799500D01*
X156967525Y-124799500D01*
X156838993Y-124833940D01*
X156827511Y-124837017D01*
X156701988Y-124909488D01*
X156701982Y-124909493D01*
X156599493Y-125011982D01*
X156599488Y-125011988D01*
X156527017Y-125137511D01*
X156527016Y-125137515D01*
X156489500Y-125277525D01*
X154470569Y-125277525D01*
X154470736Y-124643465D01*
X154490438Y-124576433D01*
X154543254Y-124530692D01*
X154594736Y-124519500D01*
X154636472Y-124519500D01*
X154636475Y-124519500D01*
X154776485Y-124481984D01*
X154902015Y-124409509D01*
X155004509Y-124307015D01*
X155076984Y-124181485D01*
X155100680Y-124093047D01*
X155137044Y-124033390D01*
X155199891Y-124002861D01*
X155269266Y-124011155D01*
X155323144Y-124055641D01*
X155340229Y-124093050D01*
X155369017Y-124200488D01*
X155441488Y-124326011D01*
X155441490Y-124326013D01*
X155441491Y-124326015D01*
X155543985Y-124428509D01*
X155543986Y-124428510D01*
X155543988Y-124428511D01*
X155669511Y-124500982D01*
X155669512Y-124500982D01*
X155669515Y-124500984D01*
X155809525Y-124538500D01*
X155809528Y-124538500D01*
X155954472Y-124538500D01*
X155954475Y-124538500D01*
X156094485Y-124500984D01*
X156220015Y-124428509D01*
X156322509Y-124326015D01*
X156394984Y-124200485D01*
X156432500Y-124060475D01*
X156432500Y-123915525D01*
X156394984Y-123775515D01*
X156384014Y-123756515D01*
X156322511Y-123649988D01*
X156322506Y-123649982D01*
X156220017Y-123547493D01*
X156220011Y-123547488D01*
X156094488Y-123475017D01*
X156094489Y-123475017D01*
X156083006Y-123471940D01*
X155954475Y-123437500D01*
X155809525Y-123437500D01*
X155680993Y-123471940D01*
X155669511Y-123475017D01*
X155543988Y-123547488D01*
X155543982Y-123547493D01*
X155441493Y-123649982D01*
X155441488Y-123649988D01*
X155369017Y-123775511D01*
X155345320Y-123863949D01*
X155308954Y-123923610D01*
X155246107Y-123954138D01*
X155176732Y-123945843D01*
X155122854Y-123901357D01*
X155105772Y-123863952D01*
X155076984Y-123756515D01*
X155015480Y-123649988D01*
X155004511Y-123630988D01*
X155004506Y-123630982D01*
X154902017Y-123528493D01*
X154902011Y-123528488D01*
X154776488Y-123456017D01*
X154776489Y-123456017D01*
X154765006Y-123452940D01*
X154636475Y-123418500D01*
X154595091Y-123418500D01*
X154528052Y-123398815D01*
X154482297Y-123346011D01*
X154471091Y-123294469D01*
X154472258Y-118863466D01*
X154491960Y-118796433D01*
X154544776Y-118750692D01*
X154575965Y-118741172D01*
X154586044Y-118739500D01*
X154662475Y-118739500D01*
X154786699Y-118706213D01*
X154792654Y-118705226D01*
X154821573Y-118708748D01*
X154850702Y-118709442D01*
X154855845Y-118712922D01*
X154862011Y-118713674D01*
X154884439Y-118732275D01*
X154908565Y-118748604D01*
X154914591Y-118757283D01*
X154915791Y-118758278D01*
X154916218Y-118759626D01*
X154920334Y-118765553D01*
X154979491Y-118868015D01*
X155081985Y-118970509D01*
X155081986Y-118970510D01*
X155081988Y-118970511D01*
X155207511Y-119042982D01*
X155207512Y-119042982D01*
X155207515Y-119042984D01*
X155347525Y-119080500D01*
X155347528Y-119080500D01*
X155492472Y-119080500D01*
X155492475Y-119080500D01*
X155632485Y-119042984D01*
X155758015Y-118970509D01*
X155860509Y-118868015D01*
X155932984Y-118742485D01*
X155970500Y-118602475D01*
X155970500Y-118457525D01*
X155932984Y-118317515D01*
X155860509Y-118191985D01*
X155758015Y-118089491D01*
X155758013Y-118089490D01*
X155758011Y-118089488D01*
X155632488Y-118017017D01*
X155632489Y-118017017D01*
X155604648Y-118009557D01*
X155492475Y-117979500D01*
X155347525Y-117979500D01*
X155229145Y-118011220D01*
X155159295Y-118009557D01*
X155101433Y-117970394D01*
X155089665Y-117953446D01*
X155072340Y-117923438D01*
X155030509Y-117850985D01*
X154928015Y-117748491D01*
X154928013Y-117748490D01*
X154928011Y-117748488D01*
X154802488Y-117676017D01*
X154802489Y-117676017D01*
X154791006Y-117672940D01*
X154662475Y-117638500D01*
X154596613Y-117638500D01*
X154529574Y-117618815D01*
X154483819Y-117566011D01*
X154472613Y-117514467D01*
X154472614Y-117512948D01*
X154472614Y-117512946D01*
X157347351Y-117512946D01*
X157347351Y-117657896D01*
X157371627Y-117748493D01*
X157384868Y-117797909D01*
X157457339Y-117923432D01*
X157457341Y-117923434D01*
X157457342Y-117923436D01*
X157559836Y-118025930D01*
X157559837Y-118025931D01*
X157559839Y-118025932D01*
X157685362Y-118098403D01*
X157685363Y-118098403D01*
X157685366Y-118098405D01*
X157825376Y-118135921D01*
X157825379Y-118135921D01*
X157970323Y-118135921D01*
X157970326Y-118135921D01*
X158110336Y-118098405D01*
X158235866Y-118025930D01*
X158338360Y-117923436D01*
X158410835Y-117797906D01*
X158448351Y-117657896D01*
X158448351Y-117512946D01*
X158410835Y-117372936D01*
X158375368Y-117311506D01*
X158338362Y-117247409D01*
X158338357Y-117247403D01*
X158235868Y-117144914D01*
X158235862Y-117144909D01*
X158110339Y-117072438D01*
X158110340Y-117072438D01*
X158098857Y-117069361D01*
X157970326Y-117034921D01*
X157825376Y-117034921D01*
X157696844Y-117069361D01*
X157685362Y-117072438D01*
X157559839Y-117144909D01*
X157559833Y-117144914D01*
X157457344Y-117247403D01*
X157457339Y-117247409D01*
X157384868Y-117372932D01*
X157384867Y-117372936D01*
X157347351Y-117512946D01*
X154472614Y-117512946D01*
X154472802Y-116798525D01*
X155320500Y-116798525D01*
X155320500Y-116943475D01*
X155355056Y-117072437D01*
X155358017Y-117083488D01*
X155430488Y-117209011D01*
X155430490Y-117209013D01*
X155430491Y-117209015D01*
X155532985Y-117311509D01*
X155532986Y-117311510D01*
X155532988Y-117311511D01*
X155658511Y-117383982D01*
X155658512Y-117383982D01*
X155658515Y-117383984D01*
X155798525Y-117421500D01*
X155798528Y-117421500D01*
X155943472Y-117421500D01*
X155943475Y-117421500D01*
X156083485Y-117383984D01*
X156209015Y-117311509D01*
X156311509Y-117209015D01*
X156383984Y-117083485D01*
X156421500Y-116943475D01*
X156421500Y-116798525D01*
X156383984Y-116658515D01*
X156311509Y-116532985D01*
X156209015Y-116430491D01*
X156209013Y-116430490D01*
X156209011Y-116430488D01*
X156083488Y-116358017D01*
X156083489Y-116358017D01*
X156072006Y-116354940D01*
X155943475Y-116320500D01*
X155798525Y-116320500D01*
X155669993Y-116354940D01*
X155658511Y-116358017D01*
X155532988Y-116430488D01*
X155532982Y-116430493D01*
X155430493Y-116532982D01*
X155430488Y-116532988D01*
X155358017Y-116658511D01*
X155358016Y-116658515D01*
X155320500Y-116798525D01*
X154472802Y-116798525D01*
X154473829Y-112897525D01*
X156969500Y-112897525D01*
X156969500Y-113042475D01*
X157007016Y-113182485D01*
X157007017Y-113182488D01*
X157079488Y-113308011D01*
X157079490Y-113308013D01*
X157079491Y-113308015D01*
X157181985Y-113410509D01*
X157181986Y-113410510D01*
X157181988Y-113410511D01*
X157307511Y-113482982D01*
X157307512Y-113482982D01*
X157307515Y-113482984D01*
X157447525Y-113520500D01*
X157447528Y-113520500D01*
X157592472Y-113520500D01*
X157592475Y-113520500D01*
X157732485Y-113482984D01*
X157858015Y-113410509D01*
X157960509Y-113308015D01*
X158032984Y-113182485D01*
X158070500Y-113042475D01*
X158070500Y-112897525D01*
X158032984Y-112757515D01*
X157960509Y-112631985D01*
X157858015Y-112529491D01*
X157858013Y-112529490D01*
X157858011Y-112529488D01*
X157732488Y-112457017D01*
X157732489Y-112457017D01*
X157721006Y-112453940D01*
X157592475Y-112419500D01*
X157447525Y-112419500D01*
X157318993Y-112453940D01*
X157307511Y-112457017D01*
X157181988Y-112529488D01*
X157181982Y-112529493D01*
X157079493Y-112631982D01*
X157079488Y-112631988D01*
X157007017Y-112757511D01*
X157007016Y-112757515D01*
X156969500Y-112897525D01*
X154473829Y-112897525D01*
X154476685Y-102050250D01*
X154496386Y-101983220D01*
X154549202Y-101937479D01*
X154618363Y-101927554D01*
X154633445Y-101931698D01*
X154633665Y-101930880D01*
X154641513Y-101932982D01*
X154641515Y-101932984D01*
X154781525Y-101970500D01*
X154781528Y-101970500D01*
X154926472Y-101970500D01*
X154926475Y-101970500D01*
X155066485Y-101932984D01*
X155192015Y-101860509D01*
X155294509Y-101758015D01*
X155366984Y-101632485D01*
X155404500Y-101492475D01*
X155404500Y-101347525D01*
X155366984Y-101207515D01*
X155294509Y-101081985D01*
X155192015Y-100979491D01*
X155192013Y-100979490D01*
X155192011Y-100979488D01*
X155066488Y-100907017D01*
X155066489Y-100907017D01*
X155055006Y-100903940D01*
X154926475Y-100869500D01*
X154781525Y-100869500D01*
X154641515Y-100907016D01*
X154641513Y-100907017D01*
X154633665Y-100909120D01*
X154632788Y-100905847D01*
X154578833Y-100911574D01*
X154516396Y-100880213D01*
X154480826Y-100820076D01*
X154477016Y-100789548D01*
X154477832Y-97690525D01*
X155780500Y-97690525D01*
X155780500Y-97835475D01*
X155782376Y-97842475D01*
X155818017Y-97975488D01*
X155890488Y-98101011D01*
X155890490Y-98101013D01*
X155890491Y-98101015D01*
X155992985Y-98203509D01*
X155992986Y-98203510D01*
X155992988Y-98203511D01*
X156118511Y-98275982D01*
X156118512Y-98275982D01*
X156118515Y-98275984D01*
X156258525Y-98313500D01*
X156258528Y-98313500D01*
X156403472Y-98313500D01*
X156403475Y-98313500D01*
X156543485Y-98275984D01*
X156669015Y-98203509D01*
X156771509Y-98101015D01*
X156843984Y-97975485D01*
X156881500Y-97835475D01*
X156881500Y-97690525D01*
X156843984Y-97550515D01*
X156775550Y-97431985D01*
X156771511Y-97424988D01*
X156771506Y-97424982D01*
X156669017Y-97322493D01*
X156669011Y-97322488D01*
X156543488Y-97250017D01*
X156543489Y-97250017D01*
X156532006Y-97246940D01*
X156403475Y-97212500D01*
X156258525Y-97212500D01*
X156129993Y-97246940D01*
X156118511Y-97250017D01*
X155992988Y-97322488D01*
X155992982Y-97322493D01*
X155890493Y-97424982D01*
X155890488Y-97424988D01*
X155818017Y-97550511D01*
X155818016Y-97550515D01*
X155780500Y-97690525D01*
X154477832Y-97690525D01*
X154478741Y-94237525D01*
X155614500Y-94237525D01*
X155614500Y-94382475D01*
X155652016Y-94522485D01*
X155652017Y-94522488D01*
X155724488Y-94648011D01*
X155724490Y-94648013D01*
X155724491Y-94648015D01*
X155826985Y-94750509D01*
X155826986Y-94750510D01*
X155826988Y-94750511D01*
X155952511Y-94822982D01*
X155952512Y-94822982D01*
X155952515Y-94822984D01*
X156092525Y-94860500D01*
X156092528Y-94860500D01*
X156237472Y-94860500D01*
X156237475Y-94860500D01*
X156377485Y-94822984D01*
X156503015Y-94750509D01*
X156605509Y-94648015D01*
X156677984Y-94522485D01*
X156715500Y-94382475D01*
X156715500Y-94237525D01*
X156677984Y-94097515D01*
X156605509Y-93971985D01*
X156503015Y-93869491D01*
X156503013Y-93869490D01*
X156503011Y-93869488D01*
X156377488Y-93797017D01*
X156377489Y-93797017D01*
X156366006Y-93793940D01*
X156237475Y-93759500D01*
X156092525Y-93759500D01*
X155963993Y-93793940D01*
X155952511Y-93797017D01*
X155826988Y-93869488D01*
X155826982Y-93869493D01*
X155724493Y-93971982D01*
X155724488Y-93971988D01*
X155652017Y-94097511D01*
X155652016Y-94097515D01*
X155614500Y-94237525D01*
X154478741Y-94237525D01*
X154479191Y-92527525D01*
X157709500Y-92527525D01*
X157709500Y-92672475D01*
X157747016Y-92812485D01*
X157747017Y-92812488D01*
X157819488Y-92938011D01*
X157819490Y-92938013D01*
X157819491Y-92938015D01*
X157921985Y-93040509D01*
X157921986Y-93040510D01*
X157921988Y-93040511D01*
X158047511Y-93112982D01*
X158047512Y-93112982D01*
X158047515Y-93112984D01*
X158187525Y-93150500D01*
X158187528Y-93150500D01*
X158332472Y-93150500D01*
X158332475Y-93150500D01*
X158472485Y-93112984D01*
X158598015Y-93040509D01*
X158700509Y-92938015D01*
X158772984Y-92812485D01*
X158810500Y-92672475D01*
X158810500Y-92527525D01*
X158772984Y-92387515D01*
X158700509Y-92261985D01*
X158598015Y-92159491D01*
X158598013Y-92159490D01*
X158598011Y-92159488D01*
X158472488Y-92087017D01*
X158472489Y-92087017D01*
X158461006Y-92083940D01*
X158332475Y-92049500D01*
X158187525Y-92049500D01*
X158058993Y-92083940D01*
X158047511Y-92087017D01*
X157921988Y-92159488D01*
X157921982Y-92159493D01*
X157819493Y-92261982D01*
X157819488Y-92261988D01*
X157747017Y-92387511D01*
X157747016Y-92387515D01*
X157709500Y-92527525D01*
X154479191Y-92527525D01*
X154479967Y-89583783D01*
X154499669Y-89516751D01*
X154552485Y-89471010D01*
X154603783Y-89459818D01*
X161165819Y-89450182D01*
X161232886Y-89469768D01*
G37*
%TD.AperFunction*%
%TD*%
%TA.AperFunction,Conductor*%
%TO.N,+5V*%
G36*
X152516224Y-91694992D02*
G01*
X152583244Y-91714735D01*
X152628953Y-91767578D01*
X152640114Y-91818912D01*
X152659920Y-122655920D01*
X152640278Y-122722972D01*
X152587504Y-122768761D01*
X152535920Y-122780000D01*
X151699886Y-122780000D01*
X151632847Y-122760315D01*
X151612205Y-122743681D01*
X151548017Y-122679493D01*
X151548011Y-122679488D01*
X151422488Y-122607017D01*
X151422489Y-122607017D01*
X151411006Y-122603940D01*
X151282475Y-122569500D01*
X151137525Y-122569500D01*
X151008993Y-122603940D01*
X150997511Y-122607017D01*
X150871988Y-122679488D01*
X150871982Y-122679493D01*
X150807795Y-122743681D01*
X150746472Y-122777166D01*
X150720114Y-122780000D01*
X132060000Y-122780000D01*
X132060000Y-128833020D01*
X132040315Y-128900059D01*
X131987511Y-128945814D01*
X131918353Y-128955758D01*
X131874001Y-128940407D01*
X131833491Y-128917018D01*
X131833488Y-128917017D01*
X131822005Y-128913940D01*
X131693474Y-128879500D01*
X131548524Y-128879500D01*
X131419992Y-128913940D01*
X131408510Y-128917017D01*
X131282987Y-128989488D01*
X131282981Y-128989493D01*
X131180492Y-129091982D01*
X131180487Y-129091988D01*
X131108016Y-129217511D01*
X131108015Y-129217515D01*
X131070499Y-129357525D01*
X131070499Y-129502475D01*
X131108015Y-129642485D01*
X131108016Y-129642488D01*
X131180487Y-129768011D01*
X131180489Y-129768013D01*
X131180490Y-129768015D01*
X131282984Y-129870509D01*
X131282985Y-129870510D01*
X131282987Y-129870511D01*
X131408510Y-129942982D01*
X131408511Y-129942982D01*
X131408514Y-129942984D01*
X131548524Y-129980500D01*
X131548527Y-129980500D01*
X131693471Y-129980500D01*
X131693474Y-129980500D01*
X131833484Y-129942984D01*
X131833486Y-129942982D01*
X131833488Y-129942982D01*
X131833489Y-129942981D01*
X131873999Y-129919593D01*
X131941899Y-129903119D01*
X132007926Y-129925971D01*
X132051117Y-129980892D01*
X132060000Y-130026979D01*
X132060000Y-134746000D01*
X132040315Y-134813039D01*
X131987511Y-134858794D01*
X131936000Y-134870000D01*
X130059886Y-134870000D01*
X129992847Y-134850315D01*
X129972205Y-134833681D01*
X129898017Y-134759493D01*
X129898011Y-134759488D01*
X129772488Y-134687017D01*
X129772489Y-134687017D01*
X129761006Y-134683940D01*
X129632475Y-134649500D01*
X129487525Y-134649500D01*
X129358993Y-134683940D01*
X129347511Y-134687017D01*
X129221988Y-134759488D01*
X129221982Y-134759493D01*
X129147795Y-134833681D01*
X129086472Y-134867166D01*
X129060114Y-134870000D01*
X123104000Y-134870000D01*
X123036961Y-134850315D01*
X122991206Y-134797511D01*
X122980000Y-134746000D01*
X122980000Y-130690000D01*
X122979999Y-130689999D01*
X121690258Y-130672878D01*
X121623486Y-130652305D01*
X121584517Y-130610889D01*
X121550509Y-130551985D01*
X121448015Y-130449491D01*
X121448013Y-130449490D01*
X121448011Y-130449488D01*
X121322488Y-130377017D01*
X121322489Y-130377017D01*
X121311006Y-130373940D01*
X121182475Y-130339500D01*
X121037525Y-130339500D01*
X120918731Y-130371331D01*
X120897507Y-130377018D01*
X120891443Y-130379530D01*
X120821973Y-130386993D01*
X120759497Y-130355713D01*
X120723849Y-130295621D01*
X120720000Y-130264965D01*
X120720000Y-128527525D01*
X125919500Y-128527525D01*
X125919500Y-128672475D01*
X125927311Y-128701625D01*
X125957017Y-128812488D01*
X126029488Y-128938011D01*
X126029490Y-128938013D01*
X126029491Y-128938015D01*
X126131985Y-129040509D01*
X126131986Y-129040510D01*
X126131988Y-129040511D01*
X126257511Y-129112982D01*
X126257512Y-129112982D01*
X126257515Y-129112984D01*
X126397525Y-129150500D01*
X126397528Y-129150500D01*
X126542472Y-129150500D01*
X126542475Y-129150500D01*
X126682485Y-129112984D01*
X126808015Y-129040509D01*
X126910509Y-128938015D01*
X126982984Y-128812485D01*
X127020500Y-128672475D01*
X127020500Y-128527525D01*
X126982984Y-128387515D01*
X126962759Y-128352485D01*
X126910511Y-128261988D01*
X126910506Y-128261982D01*
X126808016Y-128159492D01*
X126808015Y-128159491D01*
X126786113Y-128146846D01*
X126682488Y-128087017D01*
X126682489Y-128087017D01*
X126671006Y-128083940D01*
X126609745Y-128067525D01*
X128859500Y-128067525D01*
X128859500Y-128212475D01*
X128897016Y-128352485D01*
X128897017Y-128352488D01*
X128969488Y-128478011D01*
X128969490Y-128478013D01*
X128969491Y-128478015D01*
X129071985Y-128580509D01*
X129071986Y-128580510D01*
X129071988Y-128580511D01*
X129197511Y-128652982D01*
X129197512Y-128652982D01*
X129197515Y-128652984D01*
X129337525Y-128690500D01*
X129337528Y-128690500D01*
X129482472Y-128690500D01*
X129482475Y-128690500D01*
X129622485Y-128652984D01*
X129748015Y-128580509D01*
X129850509Y-128478015D01*
X129922984Y-128352485D01*
X129960500Y-128212475D01*
X129960500Y-128067525D01*
X129922984Y-127927515D01*
X129861314Y-127820700D01*
X129844842Y-127752803D01*
X129867694Y-127686776D01*
X129922615Y-127643585D01*
X129992168Y-127636943D01*
X130030698Y-127651313D01*
X130137515Y-127712984D01*
X130277525Y-127750500D01*
X130277528Y-127750500D01*
X130422472Y-127750500D01*
X130422475Y-127750500D01*
X130562485Y-127712984D01*
X130688015Y-127640509D01*
X130790509Y-127538015D01*
X130862984Y-127412485D01*
X130900500Y-127272475D01*
X130900500Y-127127525D01*
X130862984Y-126987515D01*
X130790509Y-126861985D01*
X130688015Y-126759491D01*
X130688013Y-126759490D01*
X130688011Y-126759488D01*
X130562488Y-126687017D01*
X130562489Y-126687017D01*
X130551006Y-126683940D01*
X130422475Y-126649500D01*
X130277525Y-126649500D01*
X130148993Y-126683940D01*
X130137511Y-126687017D01*
X130011988Y-126759488D01*
X130011982Y-126759493D01*
X129909493Y-126861982D01*
X129909488Y-126861988D01*
X129837017Y-126987511D01*
X129837016Y-126987515D01*
X129799500Y-127127525D01*
X129799500Y-127272475D01*
X129837016Y-127412485D01*
X129837017Y-127412488D01*
X129898684Y-127519297D01*
X129915157Y-127587197D01*
X129892305Y-127653224D01*
X129837384Y-127696414D01*
X129767830Y-127703056D01*
X129729297Y-127688684D01*
X129622488Y-127627017D01*
X129622489Y-127627017D01*
X129611006Y-127623940D01*
X129482475Y-127589500D01*
X129337525Y-127589500D01*
X129208993Y-127623940D01*
X129197511Y-127627017D01*
X129071988Y-127699488D01*
X129071982Y-127699493D01*
X128969493Y-127801982D01*
X128969488Y-127801988D01*
X128897017Y-127927511D01*
X128897016Y-127927515D01*
X128859500Y-128067525D01*
X126609745Y-128067525D01*
X126542475Y-128049500D01*
X126397525Y-128049500D01*
X126268993Y-128083940D01*
X126257511Y-128087017D01*
X126131988Y-128159488D01*
X126131982Y-128159493D01*
X126029493Y-128261982D01*
X126029488Y-128261988D01*
X125957017Y-128387511D01*
X125957016Y-128387515D01*
X125919500Y-128527525D01*
X120720000Y-128527525D01*
X120720000Y-125257525D01*
X128919500Y-125257525D01*
X128919500Y-125402475D01*
X128957016Y-125542485D01*
X128957017Y-125542488D01*
X129029488Y-125668011D01*
X129029490Y-125668013D01*
X129029491Y-125668015D01*
X129131985Y-125770509D01*
X129131986Y-125770510D01*
X129131988Y-125770511D01*
X129257511Y-125842982D01*
X129257512Y-125842982D01*
X129257515Y-125842984D01*
X129397525Y-125880500D01*
X129397528Y-125880500D01*
X129542472Y-125880500D01*
X129542475Y-125880500D01*
X129682485Y-125842984D01*
X129808015Y-125770509D01*
X129910509Y-125668015D01*
X129982984Y-125542485D01*
X130020500Y-125402475D01*
X130020500Y-125257525D01*
X129982984Y-125117515D01*
X129910509Y-124991985D01*
X129808015Y-124889491D01*
X129808013Y-124889490D01*
X129808011Y-124889488D01*
X129682488Y-124817017D01*
X129682489Y-124817017D01*
X129671006Y-124813940D01*
X129542475Y-124779500D01*
X129397525Y-124779500D01*
X129268993Y-124813940D01*
X129257511Y-124817017D01*
X129131988Y-124889488D01*
X129131982Y-124889493D01*
X129029493Y-124991982D01*
X129029488Y-124991988D01*
X128957017Y-125117511D01*
X128957016Y-125117515D01*
X128919500Y-125257525D01*
X120720000Y-125257525D01*
X120720000Y-124233818D01*
X120736613Y-124171817D01*
X120738806Y-124168017D01*
X120738809Y-124168015D01*
X120811284Y-124042485D01*
X120848800Y-123902475D01*
X120848800Y-123757525D01*
X120811284Y-123617515D01*
X120809115Y-123613759D01*
X120736613Y-123488181D01*
X120720000Y-123426181D01*
X120720000Y-122321525D01*
X129015500Y-122321525D01*
X129015500Y-122466475D01*
X129043106Y-122569500D01*
X129053017Y-122606488D01*
X129125488Y-122732011D01*
X129125490Y-122732013D01*
X129125491Y-122732015D01*
X129227985Y-122834509D01*
X129227986Y-122834510D01*
X129227988Y-122834511D01*
X129353511Y-122906982D01*
X129353512Y-122906982D01*
X129353515Y-122906984D01*
X129493525Y-122944500D01*
X129493528Y-122944500D01*
X129638472Y-122944500D01*
X129638475Y-122944500D01*
X129778485Y-122906984D01*
X129904015Y-122834509D01*
X130006509Y-122732015D01*
X130078984Y-122606485D01*
X130116500Y-122466475D01*
X130116500Y-122321525D01*
X130078984Y-122181515D01*
X130006509Y-122055985D01*
X129904015Y-121953491D01*
X129904013Y-121953490D01*
X129904011Y-121953488D01*
X129778488Y-121881017D01*
X129778489Y-121881017D01*
X129767006Y-121877940D01*
X129638475Y-121843500D01*
X129493525Y-121843500D01*
X129364993Y-121877940D01*
X129353511Y-121881017D01*
X129227988Y-121953488D01*
X129227982Y-121953493D01*
X129125493Y-122055982D01*
X129125488Y-122055988D01*
X129053017Y-122181511D01*
X129053016Y-122181515D01*
X129015500Y-122321525D01*
X120720000Y-122321525D01*
X120720000Y-119721525D01*
X125413500Y-119721525D01*
X125413500Y-119866475D01*
X125451016Y-120006485D01*
X125451017Y-120006488D01*
X125523488Y-120132011D01*
X125523490Y-120132013D01*
X125523491Y-120132015D01*
X125625985Y-120234509D01*
X125625986Y-120234510D01*
X125625988Y-120234511D01*
X125751511Y-120306982D01*
X125751512Y-120306982D01*
X125751515Y-120306984D01*
X125891525Y-120344500D01*
X125891528Y-120344500D01*
X126036472Y-120344500D01*
X126036475Y-120344500D01*
X126176485Y-120306984D01*
X126302015Y-120234509D01*
X126404509Y-120132015D01*
X126412875Y-120117525D01*
X132449500Y-120117525D01*
X132449500Y-120262475D01*
X132466931Y-120327527D01*
X132487017Y-120402488D01*
X132559488Y-120528011D01*
X132559490Y-120528013D01*
X132559491Y-120528015D01*
X132661985Y-120630509D01*
X132661986Y-120630510D01*
X132661988Y-120630511D01*
X132787511Y-120702982D01*
X132787512Y-120702982D01*
X132787515Y-120702984D01*
X132927525Y-120740500D01*
X132927528Y-120740500D01*
X133072472Y-120740500D01*
X133072475Y-120740500D01*
X133212485Y-120702984D01*
X133338015Y-120630509D01*
X133440509Y-120528015D01*
X133512984Y-120402485D01*
X133533070Y-120327525D01*
X135469500Y-120327525D01*
X135469500Y-120472475D01*
X135484383Y-120528017D01*
X135507017Y-120612488D01*
X135579488Y-120738011D01*
X135579490Y-120738013D01*
X135579491Y-120738015D01*
X135681985Y-120840509D01*
X135681986Y-120840510D01*
X135681988Y-120840511D01*
X135807511Y-120912982D01*
X135807512Y-120912982D01*
X135807515Y-120912984D01*
X135947525Y-120950500D01*
X135947528Y-120950500D01*
X136092472Y-120950500D01*
X136092475Y-120950500D01*
X136232485Y-120912984D01*
X136358015Y-120840509D01*
X136460509Y-120738015D01*
X136532984Y-120612485D01*
X136570500Y-120472475D01*
X136570500Y-120327525D01*
X136532984Y-120187515D01*
X136523160Y-120170500D01*
X136460511Y-120061988D01*
X136460506Y-120061982D01*
X136358017Y-119959493D01*
X136358011Y-119959488D01*
X136232488Y-119887017D01*
X136232489Y-119887017D01*
X136221006Y-119883940D01*
X136092475Y-119849500D01*
X135947525Y-119849500D01*
X135818993Y-119883940D01*
X135807511Y-119887017D01*
X135681988Y-119959488D01*
X135681982Y-119959493D01*
X135579493Y-120061982D01*
X135579488Y-120061988D01*
X135507017Y-120187511D01*
X135507016Y-120187515D01*
X135469500Y-120327525D01*
X133533070Y-120327525D01*
X133550500Y-120262475D01*
X133550500Y-120117525D01*
X133512984Y-119977515D01*
X133501723Y-119958011D01*
X133440511Y-119851988D01*
X133440506Y-119851982D01*
X133338017Y-119749493D01*
X133338011Y-119749488D01*
X133212488Y-119677017D01*
X133212489Y-119677017D01*
X133206646Y-119675451D01*
X133072475Y-119639500D01*
X132927525Y-119639500D01*
X132798993Y-119673940D01*
X132787511Y-119677017D01*
X132661988Y-119749488D01*
X132661982Y-119749493D01*
X132559493Y-119851982D01*
X132559488Y-119851988D01*
X132487017Y-119977511D01*
X132487016Y-119977515D01*
X132449500Y-120117525D01*
X126412875Y-120117525D01*
X126476984Y-120006485D01*
X126514500Y-119866475D01*
X126514500Y-119721525D01*
X126476984Y-119581515D01*
X126457360Y-119547525D01*
X150659500Y-119547525D01*
X150659500Y-119692475D01*
X150697016Y-119832485D01*
X150697017Y-119832488D01*
X150769488Y-119958011D01*
X150769490Y-119958013D01*
X150769491Y-119958015D01*
X150871985Y-120060509D01*
X150871986Y-120060510D01*
X150871988Y-120060511D01*
X150997511Y-120132982D01*
X150997512Y-120132982D01*
X150997515Y-120132984D01*
X151137525Y-120170500D01*
X151137528Y-120170500D01*
X151282472Y-120170500D01*
X151282475Y-120170500D01*
X151422485Y-120132984D01*
X151548015Y-120060509D01*
X151650509Y-119958015D01*
X151722984Y-119832485D01*
X151760500Y-119692475D01*
X151760500Y-119547525D01*
X151722984Y-119407515D01*
X151691794Y-119353493D01*
X151650511Y-119281988D01*
X151650506Y-119281982D01*
X151548017Y-119179493D01*
X151548011Y-119179488D01*
X151422488Y-119107017D01*
X151422489Y-119107017D01*
X151411006Y-119103940D01*
X151282475Y-119069500D01*
X151137525Y-119069500D01*
X151008993Y-119103940D01*
X150997511Y-119107017D01*
X150871988Y-119179488D01*
X150871982Y-119179493D01*
X150769493Y-119281982D01*
X150769488Y-119281988D01*
X150697017Y-119407511D01*
X150697016Y-119407515D01*
X150659500Y-119547525D01*
X126457360Y-119547525D01*
X126430672Y-119501301D01*
X126404511Y-119455988D01*
X126404506Y-119455982D01*
X126302017Y-119353493D01*
X126302011Y-119353488D01*
X126176488Y-119281017D01*
X126176489Y-119281017D01*
X126165006Y-119277940D01*
X126036475Y-119243500D01*
X125891525Y-119243500D01*
X125762993Y-119277940D01*
X125751511Y-119281017D01*
X125625988Y-119353488D01*
X125625982Y-119353493D01*
X125523493Y-119455982D01*
X125523488Y-119455988D01*
X125451017Y-119581511D01*
X125451016Y-119581515D01*
X125413500Y-119721525D01*
X120720000Y-119721525D01*
X120720000Y-119024178D01*
X120739685Y-118957139D01*
X120792489Y-118911384D01*
X120844175Y-118900178D01*
X123102331Y-118903429D01*
X123169342Y-118923210D01*
X123215020Y-118976080D01*
X123221927Y-118995335D01*
X123222500Y-118997473D01*
X123222500Y-118997475D01*
X123245412Y-119082981D01*
X123260017Y-119137488D01*
X123332488Y-119263011D01*
X123332490Y-119263013D01*
X123332491Y-119263015D01*
X123434985Y-119365509D01*
X123434986Y-119365510D01*
X123434988Y-119365511D01*
X123560511Y-119437982D01*
X123560512Y-119437982D01*
X123560515Y-119437984D01*
X123700525Y-119475500D01*
X123700528Y-119475500D01*
X123845472Y-119475500D01*
X123845475Y-119475500D01*
X123985485Y-119437984D01*
X124111015Y-119365509D01*
X124213509Y-119263015D01*
X124285984Y-119137485D01*
X124323500Y-118997475D01*
X124323500Y-118997470D01*
X124323555Y-118997265D01*
X124359920Y-118937604D01*
X124422767Y-118907075D01*
X124443490Y-118905359D01*
X136166177Y-118922232D01*
X136233187Y-118942013D01*
X136253678Y-118958551D01*
X136335635Y-119040508D01*
X136335636Y-119040509D01*
X136335638Y-119040510D01*
X136461161Y-119112981D01*
X136461162Y-119112981D01*
X136461165Y-119112983D01*
X136601175Y-119150499D01*
X136601178Y-119150499D01*
X136746122Y-119150499D01*
X136746125Y-119150499D01*
X136886135Y-119112983D01*
X137011665Y-119040508D01*
X137092165Y-118960007D01*
X137153484Y-118926525D01*
X137180011Y-118923691D01*
X137698383Y-118924438D01*
X137765392Y-118944218D01*
X137785883Y-118960756D01*
X137835635Y-119010508D01*
X137835636Y-119010509D01*
X137835638Y-119010510D01*
X137961161Y-119082981D01*
X137961162Y-119082981D01*
X137961165Y-119082983D01*
X138101175Y-119120499D01*
X138101178Y-119120499D01*
X138246122Y-119120499D01*
X138246125Y-119120499D01*
X138386135Y-119082983D01*
X138511665Y-119010508D01*
X138560049Y-118962124D01*
X138621372Y-118928638D01*
X138647901Y-118925804D01*
X148510000Y-118940000D01*
X148503616Y-116037525D01*
X150649500Y-116037525D01*
X150649500Y-116182475D01*
X150681469Y-116301784D01*
X150687017Y-116322488D01*
X150759488Y-116448011D01*
X150759490Y-116448013D01*
X150759491Y-116448015D01*
X150861985Y-116550509D01*
X150861986Y-116550510D01*
X150861988Y-116550511D01*
X150987511Y-116622982D01*
X150987512Y-116622982D01*
X150987515Y-116622984D01*
X151127525Y-116660500D01*
X151127528Y-116660500D01*
X151272472Y-116660500D01*
X151272475Y-116660500D01*
X151412485Y-116622984D01*
X151538015Y-116550509D01*
X151640509Y-116448015D01*
X151712984Y-116322485D01*
X151750500Y-116182475D01*
X151750500Y-116037525D01*
X151712984Y-115897515D01*
X151640509Y-115771985D01*
X151538015Y-115669491D01*
X151538013Y-115669490D01*
X151538011Y-115669488D01*
X151412488Y-115597017D01*
X151412489Y-115597017D01*
X151401006Y-115593940D01*
X151272475Y-115559500D01*
X151127525Y-115559500D01*
X150998993Y-115593940D01*
X150987511Y-115597017D01*
X150861988Y-115669488D01*
X150861982Y-115669493D01*
X150759493Y-115771982D01*
X150759488Y-115771988D01*
X150687017Y-115897511D01*
X150687016Y-115897515D01*
X150649500Y-116037525D01*
X148503616Y-116037525D01*
X148495697Y-112437525D01*
X150649500Y-112437525D01*
X150649500Y-112582475D01*
X150684470Y-112712984D01*
X150687017Y-112722488D01*
X150759488Y-112848011D01*
X150759490Y-112848013D01*
X150759491Y-112848015D01*
X150861985Y-112950509D01*
X150861986Y-112950510D01*
X150861988Y-112950511D01*
X150987511Y-113022982D01*
X150987512Y-113022982D01*
X150987515Y-113022984D01*
X151127525Y-113060500D01*
X151127528Y-113060500D01*
X151272472Y-113060500D01*
X151272475Y-113060500D01*
X151412485Y-113022984D01*
X151538015Y-112950509D01*
X151640509Y-112848015D01*
X151712984Y-112722485D01*
X151750500Y-112582475D01*
X151750500Y-112437525D01*
X151712984Y-112297515D01*
X151704594Y-112282984D01*
X151640511Y-112171988D01*
X151640506Y-112171982D01*
X151538017Y-112069493D01*
X151538011Y-112069488D01*
X151412488Y-111997017D01*
X151412489Y-111997017D01*
X151377027Y-111987515D01*
X151272475Y-111959500D01*
X151127525Y-111959500D01*
X151022973Y-111987515D01*
X150987511Y-111997017D01*
X150861988Y-112069488D01*
X150861982Y-112069493D01*
X150759493Y-112171982D01*
X150759488Y-112171988D01*
X150687017Y-112297511D01*
X150687016Y-112297515D01*
X150649500Y-112437525D01*
X148495697Y-112437525D01*
X148495648Y-112415066D01*
X148501430Y-112395215D01*
X148502358Y-112374560D01*
X148511001Y-112362351D01*
X148515185Y-112347987D01*
X148530783Y-112334410D01*
X148542731Y-112317536D01*
X148560325Y-112308698D01*
X148567889Y-112302116D01*
X148573248Y-112299805D01*
X148580243Y-112296982D01*
X148632485Y-112282984D01*
X148673217Y-112259466D01*
X148681279Y-112256214D01*
X148707740Y-112253614D01*
X148733577Y-112247346D01*
X148743096Y-112250141D01*
X148750814Y-112249383D01*
X148764656Y-112256471D01*
X148789678Y-112263818D01*
X148857515Y-112302984D01*
X148997525Y-112340500D01*
X148997528Y-112340500D01*
X149142472Y-112340500D01*
X149142475Y-112340500D01*
X149282485Y-112302984D01*
X149408015Y-112230509D01*
X149510509Y-112128015D01*
X149582984Y-112002485D01*
X149620500Y-111862475D01*
X149620500Y-111717525D01*
X149582984Y-111577515D01*
X149577210Y-111567515D01*
X149510511Y-111451988D01*
X149510506Y-111451982D01*
X149408017Y-111349493D01*
X149408011Y-111349488D01*
X149282488Y-111277017D01*
X149282489Y-111277017D01*
X149271006Y-111273940D01*
X149142475Y-111239500D01*
X148997525Y-111239500D01*
X148913519Y-111262009D01*
X148857513Y-111277016D01*
X148857510Y-111277018D01*
X148824318Y-111296181D01*
X148819155Y-111297433D01*
X148815182Y-111300961D01*
X148785549Y-111305585D01*
X148756417Y-111312652D01*
X148749992Y-111311134D01*
X148746148Y-111311734D01*
X148731528Y-111306772D01*
X148712167Y-111302198D01*
X148706078Y-111299505D01*
X148632485Y-111257016D01*
X148575442Y-111241731D01*
X148566657Y-111237846D01*
X148547017Y-111221237D01*
X148525055Y-111207850D01*
X148520778Y-111199047D01*
X148513307Y-111192728D01*
X148505764Y-111168138D01*
X148494527Y-111145003D01*
X148492948Y-111126352D01*
X148492819Y-111125930D01*
X148492891Y-111125672D01*
X148492810Y-111124725D01*
X148484019Y-107127525D01*
X150649500Y-107127525D01*
X150649500Y-107272475D01*
X150686882Y-107411985D01*
X150687017Y-107412488D01*
X150759488Y-107538011D01*
X150759490Y-107538013D01*
X150759491Y-107538015D01*
X150861985Y-107640509D01*
X150861986Y-107640510D01*
X150861988Y-107640511D01*
X150987511Y-107712982D01*
X150987512Y-107712982D01*
X150987515Y-107712984D01*
X151127525Y-107750500D01*
X151127528Y-107750500D01*
X151272472Y-107750500D01*
X151272475Y-107750500D01*
X151412485Y-107712984D01*
X151538015Y-107640509D01*
X151640509Y-107538015D01*
X151712984Y-107412485D01*
X151750500Y-107272475D01*
X151750500Y-107127525D01*
X151712984Y-106987515D01*
X151673999Y-106919992D01*
X151640511Y-106861988D01*
X151640506Y-106861982D01*
X151538017Y-106759493D01*
X151538011Y-106759488D01*
X151412488Y-106687017D01*
X151412489Y-106687017D01*
X151401006Y-106683940D01*
X151272475Y-106649500D01*
X151127525Y-106649500D01*
X150998993Y-106683940D01*
X150987511Y-106687017D01*
X150861988Y-106759488D01*
X150861982Y-106759493D01*
X150759493Y-106861982D01*
X150759488Y-106861988D01*
X150687017Y-106987511D01*
X150687016Y-106987515D01*
X150649500Y-107127525D01*
X148484019Y-107127525D01*
X148483075Y-106698436D01*
X148502612Y-106631356D01*
X148555316Y-106585485D01*
X148574970Y-106578395D01*
X148632485Y-106562984D01*
X148758015Y-106490509D01*
X148860509Y-106388015D01*
X148932984Y-106262485D01*
X148970500Y-106122475D01*
X148970500Y-105977525D01*
X148932984Y-105837515D01*
X148860509Y-105711985D01*
X148758015Y-105609491D01*
X148758013Y-105609490D01*
X148758011Y-105609488D01*
X148632488Y-105537017D01*
X148632489Y-105537017D01*
X148625267Y-105535081D01*
X148572127Y-105520843D01*
X148512469Y-105484479D01*
X148481940Y-105421631D01*
X148480223Y-105401342D01*
X148478697Y-104707525D01*
X149229500Y-104707525D01*
X149229500Y-104852475D01*
X149267016Y-104992485D01*
X149267017Y-104992488D01*
X149339488Y-105118011D01*
X149339490Y-105118013D01*
X149339491Y-105118015D01*
X149441985Y-105220509D01*
X149441986Y-105220510D01*
X149441988Y-105220511D01*
X149567511Y-105292982D01*
X149567512Y-105292982D01*
X149567515Y-105292984D01*
X149707525Y-105330500D01*
X149707528Y-105330500D01*
X149852472Y-105330500D01*
X149852475Y-105330500D01*
X149992485Y-105292984D01*
X150118015Y-105220509D01*
X150220509Y-105118015D01*
X150292984Y-104992485D01*
X150330500Y-104852475D01*
X150330500Y-104707525D01*
X150292984Y-104567515D01*
X150275663Y-104537515D01*
X150220511Y-104441988D01*
X150220506Y-104441982D01*
X150118017Y-104339493D01*
X150118011Y-104339488D01*
X149992488Y-104267017D01*
X149992489Y-104267017D01*
X149981006Y-104263940D01*
X149852475Y-104229500D01*
X149707525Y-104229500D01*
X149578993Y-104263940D01*
X149567511Y-104267017D01*
X149441988Y-104339488D01*
X149441982Y-104339493D01*
X149339493Y-104441982D01*
X149339488Y-104441988D01*
X149267017Y-104567511D01*
X149267016Y-104567515D01*
X149229500Y-104707525D01*
X148478697Y-104707525D01*
X148478680Y-104699671D01*
X148476640Y-103772472D01*
X148476321Y-103627525D01*
X150719500Y-103627525D01*
X150719500Y-103772475D01*
X150732898Y-103822475D01*
X150757017Y-103912488D01*
X150829488Y-104038011D01*
X150829490Y-104038013D01*
X150829491Y-104038015D01*
X150931985Y-104140509D01*
X150931986Y-104140510D01*
X150931988Y-104140511D01*
X151057511Y-104212982D01*
X151057512Y-104212982D01*
X151057515Y-104212984D01*
X151197525Y-104250500D01*
X151197528Y-104250500D01*
X151342472Y-104250500D01*
X151342475Y-104250500D01*
X151482485Y-104212984D01*
X151608015Y-104140509D01*
X151710509Y-104038015D01*
X151782984Y-103912485D01*
X151820500Y-103772475D01*
X151820500Y-103627525D01*
X151782984Y-103487515D01*
X151721454Y-103380943D01*
X151710511Y-103361988D01*
X151710506Y-103361982D01*
X151608017Y-103259493D01*
X151608011Y-103259488D01*
X151482488Y-103187017D01*
X151482489Y-103187017D01*
X151471006Y-103183940D01*
X151342475Y-103149500D01*
X151197525Y-103149500D01*
X151068993Y-103183940D01*
X151057511Y-103187017D01*
X150931988Y-103259488D01*
X150931982Y-103259493D01*
X150829493Y-103361982D01*
X150829488Y-103361988D01*
X150757017Y-103487511D01*
X150757016Y-103487515D01*
X150719500Y-103627525D01*
X148476321Y-103627525D01*
X148468293Y-99977525D01*
X150649500Y-99977525D01*
X150649500Y-100122475D01*
X150687016Y-100262485D01*
X150687017Y-100262488D01*
X150759488Y-100388011D01*
X150759490Y-100388013D01*
X150759491Y-100388015D01*
X150861985Y-100490509D01*
X150861986Y-100490510D01*
X150861988Y-100490511D01*
X150987511Y-100562982D01*
X150987512Y-100562982D01*
X150987515Y-100562984D01*
X151127525Y-100600500D01*
X151127528Y-100600500D01*
X151272472Y-100600500D01*
X151272475Y-100600500D01*
X151412485Y-100562984D01*
X151538015Y-100490509D01*
X151640509Y-100388015D01*
X151712984Y-100262485D01*
X151750500Y-100122475D01*
X151750500Y-99977525D01*
X151712984Y-99837515D01*
X151640509Y-99711985D01*
X151538015Y-99609491D01*
X151538013Y-99609490D01*
X151538011Y-99609488D01*
X151412488Y-99537017D01*
X151412489Y-99537017D01*
X151401006Y-99533940D01*
X151272475Y-99499500D01*
X151127525Y-99499500D01*
X150998993Y-99533940D01*
X150987511Y-99537017D01*
X150861988Y-99609488D01*
X150861982Y-99609493D01*
X150759493Y-99711982D01*
X150759488Y-99711988D01*
X150687017Y-99837511D01*
X150687016Y-99837515D01*
X150649500Y-99977525D01*
X148468293Y-99977525D01*
X148460507Y-96437525D01*
X150649500Y-96437525D01*
X150649500Y-96582475D01*
X150670751Y-96661784D01*
X150687017Y-96722488D01*
X150759488Y-96848011D01*
X150759490Y-96848013D01*
X150759491Y-96848015D01*
X150861985Y-96950509D01*
X150861986Y-96950510D01*
X150861988Y-96950511D01*
X150987511Y-97022982D01*
X150987512Y-97022982D01*
X150987515Y-97022984D01*
X151127525Y-97060500D01*
X151127528Y-97060500D01*
X151272472Y-97060500D01*
X151272475Y-97060500D01*
X151412485Y-97022984D01*
X151538015Y-96950509D01*
X151640509Y-96848015D01*
X151712984Y-96722485D01*
X151750500Y-96582475D01*
X151750500Y-96437525D01*
X151712984Y-96297515D01*
X151697342Y-96270423D01*
X151640511Y-96171988D01*
X151640506Y-96171982D01*
X151538017Y-96069493D01*
X151538011Y-96069488D01*
X151412488Y-95997017D01*
X151412489Y-95997017D01*
X151401006Y-95993940D01*
X151272475Y-95959500D01*
X151127525Y-95959500D01*
X150998993Y-95993940D01*
X150987511Y-95997017D01*
X150861988Y-96069488D01*
X150861982Y-96069493D01*
X150759493Y-96171982D01*
X150759488Y-96171988D01*
X150687017Y-96297511D01*
X150687016Y-96297515D01*
X150649500Y-96437525D01*
X148460507Y-96437525D01*
X148450342Y-91815841D01*
X148469879Y-91748761D01*
X148522583Y-91702890D01*
X148574442Y-91691572D01*
X152516224Y-91694992D01*
G37*
%TD.AperFunction*%
%TD*%
%TA.AperFunction,Conductor*%
%TO.N,+3.3V*%
G36*
X148021058Y-91741092D02*
G01*
X148088079Y-91760835D01*
X148133788Y-91813678D01*
X148144949Y-91864819D01*
X148155008Y-96438197D01*
X148155095Y-96477744D01*
X148162794Y-99978197D01*
X148162881Y-100017744D01*
X148170822Y-103628197D01*
X148170909Y-103667744D01*
X148173198Y-104708197D01*
X148173285Y-104747744D01*
X148174724Y-105402022D01*
X148175534Y-105420722D01*
X148158768Y-105488550D01*
X148113651Y-105533472D01*
X148051284Y-105569479D01*
X147939481Y-105681282D01*
X147939475Y-105681290D01*
X147860426Y-105818209D01*
X147860423Y-105818216D01*
X147819500Y-105970943D01*
X147819500Y-106129056D01*
X147860423Y-106281783D01*
X147860426Y-106281790D01*
X147939475Y-106418709D01*
X147939479Y-106418714D01*
X147939480Y-106418716D01*
X148051284Y-106530520D01*
X148117583Y-106568797D01*
X148165799Y-106619364D01*
X148179023Y-106687971D01*
X148178361Y-106693555D01*
X148177577Y-106699091D01*
X148177576Y-106699105D01*
X148177576Y-106699108D01*
X148178520Y-107128197D01*
X148178607Y-107167744D01*
X148187058Y-111010500D01*
X148187273Y-111108024D01*
X148180067Y-111132766D01*
X148176736Y-111158319D01*
X148169029Y-111170664D01*
X148167736Y-111175107D01*
X148158047Y-111188259D01*
X148155526Y-111191247D01*
X148097250Y-111229792D01*
X148027387Y-111230712D01*
X148009445Y-111223168D01*
X148009294Y-111223534D01*
X148001786Y-111220424D01*
X148001784Y-111220423D01*
X147849057Y-111179500D01*
X147690943Y-111179500D01*
X147538216Y-111220423D01*
X147538209Y-111220426D01*
X147401290Y-111299475D01*
X147401282Y-111299481D01*
X147289481Y-111411282D01*
X147289475Y-111411290D01*
X147210426Y-111548209D01*
X147210423Y-111548216D01*
X147169500Y-111700943D01*
X147169500Y-111859057D01*
X147207966Y-112002612D01*
X147210423Y-112011783D01*
X147210426Y-112011790D01*
X147289475Y-112148709D01*
X147289479Y-112148714D01*
X147289480Y-112148716D01*
X147401284Y-112260520D01*
X147401286Y-112260521D01*
X147401290Y-112260524D01*
X147534819Y-112337616D01*
X147538216Y-112339577D01*
X147690943Y-112380500D01*
X147690945Y-112380500D01*
X147849055Y-112380500D01*
X147849057Y-112380500D01*
X148001784Y-112339577D01*
X148004210Y-112338176D01*
X148006515Y-112337616D01*
X148009294Y-112336466D01*
X148009473Y-112336899D01*
X148009974Y-112336777D01*
X148014451Y-112332881D01*
X148043540Y-112328632D01*
X148072107Y-112321701D01*
X148077715Y-112323641D01*
X148083588Y-112322784D01*
X148110357Y-112334937D01*
X148138135Y-112344550D01*
X148141803Y-112349214D01*
X148147208Y-112351668D01*
X148163157Y-112376365D01*
X148181328Y-112399469D01*
X148182723Y-112406662D01*
X148185112Y-112410362D01*
X148190213Y-112445286D01*
X148190285Y-112477742D01*
X148190285Y-112477744D01*
X148198117Y-116038197D01*
X148198204Y-116077744D01*
X148202839Y-118185488D01*
X148183302Y-118252571D01*
X148130598Y-118298442D01*
X148078706Y-118309761D01*
X138782483Y-118299757D01*
X138715464Y-118280000D01*
X138675229Y-118237758D01*
X138654170Y-118201283D01*
X138542367Y-118089480D01*
X138542359Y-118089474D01*
X138405440Y-118010425D01*
X138405436Y-118010423D01*
X138405434Y-118010422D01*
X138252707Y-117969499D01*
X138094593Y-117969499D01*
X137941866Y-118010422D01*
X137941859Y-118010425D01*
X137804940Y-118089474D01*
X137804932Y-118089480D01*
X137693131Y-118201281D01*
X137693127Y-118201286D01*
X137672825Y-118236450D01*
X137622257Y-118284665D01*
X137565306Y-118298448D01*
X137264219Y-118298124D01*
X137197200Y-118278367D01*
X137156964Y-118236122D01*
X137154172Y-118231286D01*
X137154168Y-118231281D01*
X137042367Y-118119480D01*
X137042359Y-118119474D01*
X136905440Y-118040425D01*
X136905436Y-118040423D01*
X136905434Y-118040422D01*
X136752707Y-117999499D01*
X136594593Y-117999499D01*
X136441866Y-118040422D01*
X136441859Y-118040425D01*
X136304940Y-118119474D01*
X136304932Y-118119480D01*
X136193132Y-118231280D01*
X136193125Y-118231289D01*
X136191064Y-118234860D01*
X136188537Y-118237268D01*
X136188182Y-118237732D01*
X136188109Y-118237676D01*
X136140494Y-118283072D01*
X136083548Y-118296853D01*
X132742556Y-118293258D01*
X132675537Y-118273501D01*
X132629839Y-118220648D01*
X132619970Y-118151479D01*
X132638717Y-118107060D01*
X132636457Y-118105755D01*
X132697802Y-117999499D01*
X132719577Y-117961784D01*
X132760500Y-117809057D01*
X132760500Y-117650943D01*
X132719577Y-117498216D01*
X132708026Y-117478209D01*
X132640524Y-117361290D01*
X132640518Y-117361282D01*
X132606917Y-117327681D01*
X132573432Y-117266358D01*
X132578416Y-117196666D01*
X132606917Y-117152318D01*
X132620520Y-117138716D01*
X132699577Y-117001784D01*
X132740500Y-116849057D01*
X132740500Y-116690943D01*
X132699577Y-116538216D01*
X132683831Y-116510943D01*
X132620524Y-116401290D01*
X132620518Y-116401282D01*
X132508717Y-116289481D01*
X132508709Y-116289475D01*
X132371790Y-116210426D01*
X132371786Y-116210424D01*
X132371784Y-116210423D01*
X132219057Y-116169500D01*
X132060943Y-116169500D01*
X131908216Y-116210423D01*
X131908209Y-116210426D01*
X131771290Y-116289475D01*
X131771282Y-116289481D01*
X131659481Y-116401282D01*
X131659475Y-116401290D01*
X131580426Y-116538209D01*
X131580423Y-116538216D01*
X131539500Y-116690943D01*
X131539500Y-116849056D01*
X131570140Y-116963407D01*
X131568477Y-117033257D01*
X131529314Y-117091119D01*
X131465086Y-117118623D01*
X131451424Y-117119436D01*
X131450943Y-117119500D01*
X131298216Y-117160423D01*
X131298209Y-117160426D01*
X131161290Y-117239475D01*
X131161282Y-117239481D01*
X131049481Y-117351282D01*
X131049475Y-117351290D01*
X130970426Y-117488209D01*
X130970423Y-117488216D01*
X130929500Y-117640943D01*
X130929500Y-117799057D01*
X130967744Y-117941783D01*
X130970423Y-117951783D01*
X130970426Y-117951790D01*
X131049477Y-118088712D01*
X131051883Y-118091848D01*
X131053090Y-118094970D01*
X131053543Y-118095755D01*
X131053420Y-118095825D01*
X131077077Y-118157017D01*
X131063039Y-118225462D01*
X131014225Y-118275451D01*
X130953374Y-118291334D01*
X120420000Y-118280000D01*
X120420000Y-118977055D01*
X120418738Y-118994701D01*
X120414500Y-119024176D01*
X120414500Y-123105500D01*
X120394815Y-123172539D01*
X120342011Y-123218294D01*
X120290500Y-123229500D01*
X120219243Y-123229500D01*
X120066516Y-123270423D01*
X120066509Y-123270426D01*
X119929590Y-123349475D01*
X119929582Y-123349481D01*
X119817781Y-123461282D01*
X119817777Y-123461287D01*
X119805687Y-123482229D01*
X119755120Y-123530445D01*
X119686513Y-123543668D01*
X119621648Y-123517700D01*
X119590913Y-123482229D01*
X119578822Y-123461287D01*
X119578818Y-123461282D01*
X119467017Y-123349481D01*
X119467009Y-123349475D01*
X119330090Y-123270426D01*
X119330086Y-123270424D01*
X119330084Y-123270423D01*
X119177357Y-123229500D01*
X119019243Y-123229500D01*
X118866516Y-123270423D01*
X118866509Y-123270426D01*
X118729590Y-123349475D01*
X118729582Y-123349481D01*
X118617781Y-123461282D01*
X118617775Y-123461290D01*
X118538726Y-123598209D01*
X118538723Y-123598216D01*
X118497800Y-123750943D01*
X118497800Y-123909056D01*
X118538723Y-124061783D01*
X118538726Y-124061790D01*
X118617775Y-124198709D01*
X118617779Y-124198714D01*
X118617780Y-124198716D01*
X118729584Y-124310520D01*
X118729586Y-124310521D01*
X118729590Y-124310524D01*
X118866509Y-124389573D01*
X118866516Y-124389577D01*
X119019243Y-124430500D01*
X119019245Y-124430500D01*
X119177355Y-124430500D01*
X119177357Y-124430500D01*
X119330084Y-124389577D01*
X119467016Y-124310520D01*
X119578820Y-124198716D01*
X119590912Y-124177772D01*
X119641478Y-124129555D01*
X119710085Y-124116331D01*
X119774950Y-124142298D01*
X119805688Y-124177772D01*
X119817777Y-124198712D01*
X119817779Y-124198715D01*
X119817780Y-124198716D01*
X119929584Y-124310520D01*
X119929586Y-124310521D01*
X119929590Y-124310524D01*
X120066509Y-124389573D01*
X120066516Y-124389577D01*
X120219243Y-124430500D01*
X120219245Y-124430500D01*
X120290500Y-124430500D01*
X120357539Y-124450185D01*
X120403294Y-124502989D01*
X120414500Y-124554500D01*
X120414500Y-130216238D01*
X120394815Y-130283277D01*
X120342011Y-130329032D01*
X120290729Y-130340238D01*
X115134229Y-130349770D01*
X115067153Y-130330209D01*
X115021301Y-130277490D01*
X115010000Y-130225770D01*
X115010000Y-129702842D01*
X115026613Y-129640842D01*
X115032463Y-129630707D01*
X115089577Y-129531784D01*
X115130500Y-129379057D01*
X115130500Y-129220943D01*
X115089577Y-129068216D01*
X115026612Y-128959156D01*
X115022461Y-128943667D01*
X115015023Y-128932092D01*
X115010000Y-128897157D01*
X115010000Y-128683408D01*
X115029685Y-128616369D01*
X115082489Y-128570614D01*
X115133404Y-128559409D01*
X117100000Y-128550000D01*
X117096559Y-124389573D01*
X117094485Y-121880943D01*
X117529500Y-121880943D01*
X117529500Y-122039056D01*
X117570423Y-122191783D01*
X117570426Y-122191790D01*
X117649475Y-122328709D01*
X117649479Y-122328714D01*
X117649480Y-122328716D01*
X117761284Y-122440520D01*
X117761286Y-122440521D01*
X117761290Y-122440524D01*
X117898209Y-122519573D01*
X117898216Y-122519577D01*
X118050943Y-122560500D01*
X118050945Y-122560500D01*
X118209055Y-122560500D01*
X118209057Y-122560500D01*
X118361784Y-122519577D01*
X118498716Y-122440520D01*
X118610520Y-122328716D01*
X118689577Y-122191784D01*
X118730500Y-122039057D01*
X118730500Y-121880943D01*
X118689577Y-121728216D01*
X118689573Y-121728209D01*
X118610524Y-121591290D01*
X118610518Y-121591282D01*
X118498717Y-121479481D01*
X118498709Y-121479475D01*
X118361790Y-121400426D01*
X118361786Y-121400424D01*
X118361784Y-121400423D01*
X118209057Y-121359500D01*
X118050943Y-121359500D01*
X117898216Y-121400423D01*
X117898209Y-121400426D01*
X117761290Y-121479475D01*
X117761282Y-121479481D01*
X117649481Y-121591282D01*
X117649475Y-121591290D01*
X117570426Y-121728209D01*
X117570423Y-121728216D01*
X117529500Y-121880943D01*
X117094485Y-121880943D01*
X117094478Y-121872919D01*
X117091634Y-118434603D01*
X117111263Y-118367547D01*
X117164029Y-118321748D01*
X117215634Y-118310500D01*
X117229055Y-118310500D01*
X117229057Y-118310500D01*
X117381784Y-118269577D01*
X117518716Y-118190520D01*
X117630520Y-118078716D01*
X117709577Y-117941784D01*
X117750500Y-117789057D01*
X117750500Y-117630943D01*
X117709577Y-117478216D01*
X117709573Y-117478209D01*
X117630524Y-117341290D01*
X117630518Y-117341282D01*
X117518717Y-117229481D01*
X117518709Y-117229475D01*
X117381790Y-117150426D01*
X117381786Y-117150424D01*
X117381784Y-117150423D01*
X117229057Y-117109500D01*
X117214435Y-117109500D01*
X117147396Y-117089815D01*
X117101641Y-117037011D01*
X117090435Y-116985603D01*
X117090000Y-116460000D01*
X113461998Y-116460000D01*
X113394959Y-116440315D01*
X113349204Y-116387511D01*
X113342223Y-116368092D01*
X113339577Y-116358217D01*
X113339573Y-116358209D01*
X113260524Y-116221290D01*
X113260518Y-116221282D01*
X113148717Y-116109481D01*
X113148712Y-116109477D01*
X113082148Y-116071047D01*
X113033933Y-116020481D01*
X113020709Y-115951874D01*
X113046677Y-115887009D01*
X113082147Y-115856273D01*
X113178716Y-115800520D01*
X113290520Y-115688716D01*
X113369577Y-115551784D01*
X113410500Y-115399057D01*
X113410500Y-115240943D01*
X113369577Y-115088216D01*
X113369573Y-115088209D01*
X113290524Y-114951290D01*
X113290518Y-114951282D01*
X113178717Y-114839481D01*
X113178709Y-114839475D01*
X113041790Y-114760426D01*
X113041786Y-114760424D01*
X113041784Y-114760423D01*
X112889057Y-114719500D01*
X112730943Y-114719500D01*
X112578216Y-114760423D01*
X112578209Y-114760426D01*
X112441290Y-114839475D01*
X112441282Y-114839481D01*
X112329481Y-114951282D01*
X112329475Y-114951290D01*
X112250426Y-115088209D01*
X112250423Y-115088216D01*
X112209500Y-115240943D01*
X112209500Y-115399056D01*
X112250423Y-115551783D01*
X112250426Y-115551790D01*
X112329475Y-115688709D01*
X112329479Y-115688714D01*
X112329480Y-115688716D01*
X112441284Y-115800520D01*
X112507851Y-115838952D01*
X112556066Y-115889518D01*
X112569290Y-115958125D01*
X112543322Y-116022990D01*
X112507851Y-116053726D01*
X112411287Y-116109477D01*
X112411282Y-116109481D01*
X112299481Y-116221282D01*
X112299475Y-116221290D01*
X112220426Y-116358209D01*
X112220422Y-116358217D01*
X112217777Y-116368092D01*
X112181413Y-116427753D01*
X112118566Y-116458283D01*
X112098002Y-116460000D01*
X110104000Y-116460000D01*
X110036961Y-116440315D01*
X109991206Y-116387511D01*
X109980000Y-116336000D01*
X109980000Y-114290943D01*
X131429500Y-114290943D01*
X131429500Y-114449057D01*
X131468734Y-114595478D01*
X131470423Y-114601783D01*
X131470426Y-114601790D01*
X131549475Y-114738709D01*
X131549479Y-114738714D01*
X131549480Y-114738716D01*
X131661284Y-114850520D01*
X131661286Y-114850521D01*
X131661290Y-114850524D01*
X131782492Y-114920499D01*
X131798216Y-114929577D01*
X131950943Y-114970500D01*
X131950945Y-114970500D01*
X132109055Y-114970500D01*
X132109057Y-114970500D01*
X132261784Y-114929577D01*
X132398716Y-114850520D01*
X132510520Y-114738716D01*
X132539387Y-114688716D01*
X132593641Y-114594746D01*
X132594909Y-114595478D01*
X132633145Y-114548025D01*
X132699437Y-114525954D01*
X132767138Y-114543228D01*
X132811259Y-114587874D01*
X132869480Y-114688716D01*
X132981284Y-114800520D01*
X132981286Y-114800521D01*
X132981290Y-114800524D01*
X133067887Y-114850520D01*
X133118216Y-114879577D01*
X133270943Y-114920500D01*
X133270945Y-114920500D01*
X133429055Y-114920500D01*
X133429057Y-114920500D01*
X133581784Y-114879577D01*
X133718716Y-114800520D01*
X133830520Y-114688716D01*
X133909577Y-114551784D01*
X133950500Y-114399057D01*
X133950500Y-114240943D01*
X133909577Y-114088216D01*
X133909573Y-114088209D01*
X133830522Y-113951286D01*
X133760179Y-113880943D01*
X139279500Y-113880943D01*
X139279500Y-114039057D01*
X139312991Y-114164045D01*
X139320423Y-114191783D01*
X139320426Y-114191790D01*
X139399475Y-114328709D01*
X139399479Y-114328714D01*
X139399480Y-114328716D01*
X139511284Y-114440520D01*
X139511286Y-114440521D01*
X139511290Y-114440524D01*
X139648209Y-114519573D01*
X139648216Y-114519577D01*
X139800943Y-114560500D01*
X139800945Y-114560500D01*
X139959055Y-114560500D01*
X139959057Y-114560500D01*
X140111784Y-114519577D01*
X140248716Y-114440520D01*
X140360520Y-114328716D01*
X140439577Y-114191784D01*
X140480500Y-114039057D01*
X140480500Y-113880943D01*
X140439577Y-113728216D01*
X140434545Y-113719500D01*
X140360524Y-113591290D01*
X140360518Y-113591282D01*
X140248717Y-113479481D01*
X140248709Y-113479475D01*
X140111790Y-113400426D01*
X140111786Y-113400424D01*
X140111784Y-113400423D01*
X139959057Y-113359500D01*
X139800943Y-113359500D01*
X139648216Y-113400423D01*
X139648209Y-113400426D01*
X139511290Y-113479475D01*
X139511282Y-113479481D01*
X139399481Y-113591282D01*
X139399475Y-113591290D01*
X139320426Y-113728209D01*
X139320423Y-113728216D01*
X139279500Y-113880943D01*
X133760179Y-113880943D01*
X133718717Y-113839481D01*
X133718709Y-113839475D01*
X133581790Y-113760426D01*
X133581786Y-113760424D01*
X133581784Y-113760423D01*
X133429057Y-113719500D01*
X133270943Y-113719500D01*
X133118216Y-113760423D01*
X133118209Y-113760426D01*
X132981290Y-113839475D01*
X132981282Y-113839481D01*
X132869481Y-113951282D01*
X132869475Y-113951290D01*
X132786359Y-114095254D01*
X132785093Y-114094523D01*
X132746836Y-114141987D01*
X132680540Y-114164045D01*
X132612842Y-114146760D01*
X132568740Y-114102125D01*
X132510520Y-114001284D01*
X132398716Y-113889480D01*
X132398714Y-113889479D01*
X132398709Y-113889475D01*
X132261790Y-113810426D01*
X132261786Y-113810424D01*
X132261784Y-113810423D01*
X132109057Y-113769500D01*
X131950943Y-113769500D01*
X131798216Y-113810423D01*
X131798209Y-113810426D01*
X131661290Y-113889475D01*
X131661282Y-113889481D01*
X131549481Y-114001282D01*
X131549475Y-114001290D01*
X131470426Y-114138209D01*
X131470423Y-114138216D01*
X131429500Y-114290943D01*
X109980000Y-114290943D01*
X109980000Y-112594000D01*
X109999685Y-112526961D01*
X110052489Y-112481206D01*
X110104000Y-112470000D01*
X118951217Y-112470000D01*
X119018256Y-112489685D01*
X119064011Y-112542489D01*
X119073955Y-112611647D01*
X119070992Y-112626093D01*
X119029500Y-112780943D01*
X119029500Y-112939056D01*
X119070423Y-113091783D01*
X119070426Y-113091790D01*
X119149475Y-113228709D01*
X119149479Y-113228714D01*
X119149480Y-113228716D01*
X119261284Y-113340520D01*
X119261286Y-113340521D01*
X119261290Y-113340524D01*
X119365040Y-113400423D01*
X119398216Y-113419577D01*
X119550943Y-113460500D01*
X119550945Y-113460500D01*
X119709055Y-113460500D01*
X119709057Y-113460500D01*
X119861784Y-113419577D01*
X119998716Y-113340520D01*
X120110520Y-113228716D01*
X120189577Y-113091784D01*
X120230500Y-112939057D01*
X120230500Y-112780943D01*
X120189577Y-112628216D01*
X120189576Y-112628215D01*
X120189008Y-112626093D01*
X120190671Y-112556243D01*
X120229834Y-112498381D01*
X120294062Y-112470877D01*
X120308783Y-112470000D01*
X123569999Y-112470000D01*
X123570000Y-112470000D01*
X123570752Y-112148717D01*
X123570817Y-112120943D01*
X140699500Y-112120943D01*
X140699500Y-112279057D01*
X140736043Y-112415435D01*
X140740423Y-112431783D01*
X140740426Y-112431790D01*
X140819475Y-112568709D01*
X140819479Y-112568714D01*
X140819480Y-112568716D01*
X140931284Y-112680520D01*
X140931286Y-112680521D01*
X140931290Y-112680524D01*
X141060288Y-112755000D01*
X141068216Y-112759577D01*
X141220943Y-112800500D01*
X141220945Y-112800500D01*
X141379055Y-112800500D01*
X141379057Y-112800500D01*
X141531784Y-112759577D01*
X141668716Y-112680520D01*
X141780520Y-112568716D01*
X141859577Y-112431784D01*
X141900500Y-112279057D01*
X141900500Y-112120943D01*
X141859577Y-111968216D01*
X141810166Y-111882632D01*
X141780524Y-111831290D01*
X141780518Y-111831282D01*
X141668717Y-111719481D01*
X141668709Y-111719475D01*
X141531790Y-111640426D01*
X141531786Y-111640424D01*
X141531784Y-111640423D01*
X141379057Y-111599500D01*
X141220943Y-111599500D01*
X141068216Y-111640423D01*
X141068209Y-111640426D01*
X140931290Y-111719475D01*
X140931282Y-111719481D01*
X140819481Y-111831282D01*
X140819475Y-111831290D01*
X140740426Y-111968209D01*
X140740423Y-111968216D01*
X140699500Y-112120943D01*
X123570817Y-112120943D01*
X123572686Y-111323055D01*
X133577799Y-111323055D01*
X133577799Y-111481169D01*
X133595763Y-111548209D01*
X133618722Y-111633895D01*
X133618725Y-111633902D01*
X133697774Y-111770821D01*
X133697778Y-111770826D01*
X133697779Y-111770828D01*
X133809583Y-111882632D01*
X133809585Y-111882633D01*
X133809589Y-111882636D01*
X133818979Y-111888057D01*
X133946515Y-111961689D01*
X134099242Y-112002612D01*
X134099244Y-112002612D01*
X134257353Y-112002612D01*
X134257356Y-112002612D01*
X134410083Y-111961689D01*
X134547015Y-111882632D01*
X134658819Y-111770828D01*
X134737876Y-111633896D01*
X134778799Y-111481169D01*
X134778799Y-111323055D01*
X134752132Y-111223534D01*
X134746079Y-111200943D01*
X135529500Y-111200943D01*
X135529500Y-111359057D01*
X135562220Y-111481168D01*
X135570423Y-111511783D01*
X135570426Y-111511790D01*
X135649475Y-111648709D01*
X135649479Y-111648714D01*
X135649480Y-111648716D01*
X135761284Y-111760520D01*
X135761286Y-111760521D01*
X135761290Y-111760524D01*
X135883852Y-111831284D01*
X135898216Y-111839577D01*
X136050943Y-111880500D01*
X136050945Y-111880500D01*
X136209055Y-111880500D01*
X136209057Y-111880500D01*
X136361784Y-111839577D01*
X136498716Y-111760520D01*
X136610520Y-111648716D01*
X136689577Y-111511784D01*
X136730500Y-111359057D01*
X136730500Y-111200943D01*
X136689577Y-111048216D01*
X136616472Y-110921593D01*
X136610524Y-110911290D01*
X136610518Y-110911282D01*
X136498717Y-110799481D01*
X136498709Y-110799475D01*
X136361790Y-110720426D01*
X136361786Y-110720424D01*
X136361784Y-110720423D01*
X136209057Y-110679500D01*
X136050943Y-110679500D01*
X135898216Y-110720423D01*
X135898209Y-110720426D01*
X135761290Y-110799475D01*
X135761282Y-110799481D01*
X135649481Y-110911282D01*
X135649475Y-110911290D01*
X135570426Y-111048209D01*
X135570423Y-111048216D01*
X135529500Y-111200943D01*
X134746079Y-111200943D01*
X134743481Y-111191247D01*
X134737876Y-111170328D01*
X134716190Y-111132766D01*
X134658823Y-111033402D01*
X134658817Y-111033394D01*
X134547016Y-110921593D01*
X134547008Y-110921587D01*
X134410089Y-110842538D01*
X134410085Y-110842536D01*
X134410083Y-110842535D01*
X134257356Y-110801612D01*
X134099242Y-110801612D01*
X133946515Y-110842535D01*
X133946508Y-110842538D01*
X133809589Y-110921587D01*
X133809581Y-110921593D01*
X133697780Y-111033394D01*
X133697774Y-111033402D01*
X133618725Y-111170321D01*
X133618723Y-111170326D01*
X133618722Y-111170328D01*
X133577799Y-111323055D01*
X123572686Y-111323055D01*
X123572706Y-111314638D01*
X123574193Y-110679500D01*
X123575009Y-110330943D01*
X129959500Y-110330943D01*
X129959500Y-110489056D01*
X130000423Y-110641783D01*
X130000426Y-110641790D01*
X130079475Y-110778709D01*
X130079479Y-110778714D01*
X130079480Y-110778716D01*
X130191284Y-110890520D01*
X130191286Y-110890521D01*
X130191290Y-110890524D01*
X130328209Y-110969573D01*
X130328216Y-110969577D01*
X130480943Y-111010500D01*
X130480945Y-111010500D01*
X130639055Y-111010500D01*
X130639057Y-111010500D01*
X130791784Y-110969577D01*
X130928716Y-110890520D01*
X131040520Y-110778716D01*
X131119577Y-110641784D01*
X131160500Y-110489057D01*
X131160500Y-110330943D01*
X131119577Y-110178216D01*
X131119573Y-110178209D01*
X131040524Y-110041290D01*
X131040518Y-110041282D01*
X130928717Y-109929481D01*
X130928709Y-109929475D01*
X130791790Y-109850426D01*
X130791786Y-109850424D01*
X130791784Y-109850423D01*
X130639057Y-109809500D01*
X130480943Y-109809500D01*
X130328216Y-109850423D01*
X130328209Y-109850426D01*
X130191290Y-109929475D01*
X130191282Y-109929481D01*
X130079481Y-110041282D01*
X130079475Y-110041290D01*
X130000426Y-110178209D01*
X130000423Y-110178216D01*
X129959500Y-110330943D01*
X123575009Y-110330943D01*
X123577461Y-109284210D01*
X123597303Y-109217216D01*
X123650214Y-109171585D01*
X123701461Y-109160500D01*
X123839055Y-109160500D01*
X123839057Y-109160500D01*
X123991784Y-109119577D01*
X124128716Y-109040520D01*
X124240520Y-108928716D01*
X124319577Y-108791784D01*
X124360500Y-108639057D01*
X124360500Y-108480943D01*
X124327542Y-108357943D01*
X127414500Y-108357943D01*
X127414500Y-108516057D01*
X127455247Y-108668125D01*
X127455423Y-108668783D01*
X127455426Y-108668790D01*
X127534475Y-108805709D01*
X127534479Y-108805714D01*
X127534480Y-108805716D01*
X127646284Y-108917520D01*
X127646286Y-108917521D01*
X127646290Y-108917524D01*
X127783209Y-108996573D01*
X127783216Y-108996577D01*
X127880344Y-109022602D01*
X127940003Y-109058966D01*
X127970532Y-109121813D01*
X127968024Y-109174468D01*
X127954500Y-109224941D01*
X127954500Y-109383056D01*
X127995423Y-109535783D01*
X127995426Y-109535790D01*
X128074475Y-109672709D01*
X128074479Y-109672714D01*
X128074480Y-109672716D01*
X128186284Y-109784520D01*
X128186286Y-109784521D01*
X128186290Y-109784524D01*
X128323209Y-109863573D01*
X128323216Y-109863577D01*
X128475943Y-109904500D01*
X128475945Y-109904500D01*
X128634055Y-109904500D01*
X128634057Y-109904500D01*
X128786784Y-109863577D01*
X128923716Y-109784520D01*
X129035520Y-109672716D01*
X129114577Y-109535784D01*
X129155500Y-109383057D01*
X129155500Y-109224943D01*
X129114577Y-109072216D01*
X129096280Y-109040524D01*
X129035524Y-108935290D01*
X129035518Y-108935282D01*
X128923717Y-108823481D01*
X128923709Y-108823475D01*
X128786790Y-108744426D01*
X128786785Y-108744423D01*
X128734890Y-108730518D01*
X128689655Y-108718397D01*
X128681925Y-108713685D01*
X128672937Y-108712611D01*
X128652562Y-108695787D01*
X128629996Y-108682033D01*
X128626039Y-108673889D01*
X128619059Y-108668125D01*
X128611013Y-108642954D01*
X128599467Y-108619186D01*
X128599978Y-108608436D01*
X128597785Y-108601573D01*
X128600491Y-108578943D01*
X143471500Y-108578943D01*
X143471500Y-108737057D01*
X143490932Y-108809576D01*
X143512423Y-108889783D01*
X143512426Y-108889790D01*
X143591475Y-109026709D01*
X143591479Y-109026714D01*
X143591480Y-109026716D01*
X143703284Y-109138520D01*
X143703286Y-109138521D01*
X143703290Y-109138524D01*
X143765548Y-109174468D01*
X143840216Y-109217577D01*
X143992943Y-109258500D01*
X143992945Y-109258500D01*
X144151055Y-109258500D01*
X144151057Y-109258500D01*
X144303784Y-109217577D01*
X144440716Y-109138520D01*
X144552520Y-109026716D01*
X144631577Y-108889784D01*
X144672500Y-108737057D01*
X144672500Y-108578943D01*
X144631577Y-108426216D01*
X144575483Y-108329057D01*
X144552524Y-108289290D01*
X144552518Y-108289282D01*
X144440717Y-108177481D01*
X144440709Y-108177475D01*
X144429395Y-108170943D01*
X146479500Y-108170943D01*
X146479500Y-108329057D01*
X146485246Y-108350499D01*
X146520423Y-108481783D01*
X146520426Y-108481790D01*
X146599475Y-108618709D01*
X146599479Y-108618714D01*
X146599480Y-108618716D01*
X146711284Y-108730520D01*
X146711286Y-108730521D01*
X146711290Y-108730524D01*
X146841516Y-108805709D01*
X146848216Y-108809577D01*
X147000943Y-108850500D01*
X147000945Y-108850500D01*
X147159055Y-108850500D01*
X147159057Y-108850500D01*
X147311784Y-108809577D01*
X147448716Y-108730520D01*
X147560520Y-108618716D01*
X147639577Y-108481784D01*
X147680500Y-108329057D01*
X147680500Y-108170943D01*
X147639577Y-108018216D01*
X147603931Y-107956475D01*
X147560524Y-107881290D01*
X147560518Y-107881282D01*
X147448717Y-107769481D01*
X147448709Y-107769475D01*
X147311790Y-107690426D01*
X147311786Y-107690424D01*
X147311784Y-107690423D01*
X147159057Y-107649500D01*
X147000943Y-107649500D01*
X146848216Y-107690423D01*
X146848209Y-107690426D01*
X146711290Y-107769475D01*
X146711282Y-107769481D01*
X146599481Y-107881282D01*
X146599475Y-107881290D01*
X146520426Y-108018209D01*
X146520423Y-108018216D01*
X146479500Y-108170943D01*
X144429395Y-108170943D01*
X144303790Y-108098426D01*
X144303786Y-108098424D01*
X144303784Y-108098423D01*
X144151057Y-108057500D01*
X143992943Y-108057500D01*
X143840216Y-108098423D01*
X143840209Y-108098426D01*
X143703290Y-108177475D01*
X143703282Y-108177481D01*
X143591481Y-108289282D01*
X143591475Y-108289290D01*
X143512426Y-108426209D01*
X143512423Y-108426216D01*
X143471500Y-108578943D01*
X128600491Y-108578943D01*
X128601974Y-108566536D01*
X128615500Y-108516057D01*
X128615500Y-108357943D01*
X128574577Y-108205216D01*
X128566537Y-108191290D01*
X128495524Y-108068290D01*
X128495518Y-108068282D01*
X128383717Y-107956481D01*
X128383709Y-107956475D01*
X128246790Y-107877426D01*
X128246786Y-107877424D01*
X128246784Y-107877423D01*
X128094057Y-107836500D01*
X127935943Y-107836500D01*
X127783216Y-107877423D01*
X127783209Y-107877426D01*
X127646290Y-107956475D01*
X127646282Y-107956481D01*
X127534481Y-108068282D01*
X127534475Y-108068290D01*
X127455426Y-108205209D01*
X127455423Y-108205216D01*
X127414500Y-108357943D01*
X124327542Y-108357943D01*
X124319577Y-108328216D01*
X124248560Y-108205209D01*
X124240524Y-108191290D01*
X124240518Y-108191282D01*
X124128717Y-108079481D01*
X124128709Y-108079475D01*
X123991790Y-108000426D01*
X123991786Y-108000424D01*
X123991784Y-108000423D01*
X123839057Y-107959500D01*
X123704854Y-107959500D01*
X123696047Y-107956914D01*
X123686962Y-107958202D01*
X123663055Y-107947226D01*
X123637815Y-107939815D01*
X123631805Y-107932879D01*
X123623464Y-107929050D01*
X123609284Y-107906888D01*
X123592060Y-107887011D01*
X123589755Y-107876368D01*
X123585807Y-107870197D01*
X123580854Y-107835252D01*
X123580856Y-107834250D01*
X123600675Y-107767252D01*
X123653570Y-107721603D01*
X123704856Y-107710500D01*
X123729055Y-107710500D01*
X123729057Y-107710500D01*
X123881784Y-107669577D01*
X124018716Y-107590520D01*
X124130520Y-107478716D01*
X124209577Y-107341784D01*
X124250500Y-107189057D01*
X124250500Y-107032443D01*
X139028000Y-107032443D01*
X139028000Y-107190557D01*
X139055870Y-107294567D01*
X139068923Y-107343283D01*
X139068926Y-107343290D01*
X139147975Y-107480209D01*
X139147979Y-107480214D01*
X139147980Y-107480216D01*
X139259784Y-107592020D01*
X139259786Y-107592021D01*
X139259790Y-107592024D01*
X139359343Y-107649500D01*
X139396716Y-107671077D01*
X139549443Y-107712000D01*
X139549445Y-107712000D01*
X139707555Y-107712000D01*
X139707557Y-107712000D01*
X139860284Y-107671077D01*
X139934502Y-107628227D01*
X140002400Y-107611755D01*
X140068427Y-107634607D01*
X140111617Y-107689528D01*
X140120500Y-107735615D01*
X140120500Y-107829057D01*
X140155105Y-107958202D01*
X140161423Y-107981783D01*
X140161426Y-107981790D01*
X140240475Y-108118709D01*
X140240479Y-108118714D01*
X140240480Y-108118716D01*
X140352284Y-108230520D01*
X140352286Y-108230521D01*
X140352290Y-108230524D01*
X140489209Y-108309573D01*
X140489216Y-108309577D01*
X140641943Y-108350500D01*
X140641945Y-108350500D01*
X140800055Y-108350500D01*
X140800057Y-108350500D01*
X140952784Y-108309577D01*
X141089716Y-108230520D01*
X141201520Y-108118716D01*
X141280577Y-107981784D01*
X141321500Y-107829057D01*
X141321500Y-107670943D01*
X141280577Y-107518216D01*
X141261122Y-107484518D01*
X141201524Y-107381290D01*
X141201518Y-107381282D01*
X141089717Y-107269481D01*
X141089709Y-107269475D01*
X140952790Y-107190426D01*
X140952786Y-107190424D01*
X140952784Y-107190423D01*
X140800057Y-107149500D01*
X140641943Y-107149500D01*
X140489216Y-107190423D01*
X140489209Y-107190426D01*
X140414999Y-107233271D01*
X140382867Y-107241066D01*
X140350990Y-107249868D01*
X140349061Y-107249267D01*
X140347099Y-107249744D01*
X140315846Y-107238927D01*
X140284278Y-107229099D01*
X140282980Y-107227551D01*
X140281072Y-107226891D01*
X140260629Y-107200895D01*
X140239385Y-107175560D01*
X140238906Y-107173273D01*
X140237882Y-107171970D01*
X140229992Y-107141539D01*
X140229000Y-107133744D01*
X140229000Y-107032443D01*
X140200196Y-106924943D01*
X141882500Y-106924943D01*
X141882500Y-107083057D01*
X141922478Y-107232255D01*
X141923423Y-107235783D01*
X141923426Y-107235790D01*
X142002475Y-107372709D01*
X142002479Y-107372714D01*
X142002480Y-107372716D01*
X142114284Y-107484520D01*
X142114286Y-107484521D01*
X142114290Y-107484524D01*
X142251209Y-107563573D01*
X142251216Y-107563577D01*
X142403943Y-107604500D01*
X142403945Y-107604500D01*
X142562055Y-107604500D01*
X142562057Y-107604500D01*
X142714784Y-107563577D01*
X142851716Y-107484520D01*
X142963520Y-107372716D01*
X143042577Y-107235784D01*
X143083500Y-107083057D01*
X143083500Y-106924943D01*
X143042577Y-106772216D01*
X143025585Y-106742784D01*
X142963524Y-106635290D01*
X142963518Y-106635282D01*
X142851717Y-106523481D01*
X142851709Y-106523475D01*
X142714790Y-106444426D01*
X142714786Y-106444424D01*
X142714784Y-106444423D01*
X142562057Y-106403500D01*
X142403943Y-106403500D01*
X142251216Y-106444423D01*
X142251209Y-106444426D01*
X142114290Y-106523475D01*
X142114282Y-106523481D01*
X142002481Y-106635282D01*
X142002475Y-106635290D01*
X141923426Y-106772209D01*
X141923423Y-106772216D01*
X141882500Y-106924943D01*
X140200196Y-106924943D01*
X140188077Y-106879716D01*
X140167939Y-106844835D01*
X140109024Y-106742790D01*
X140109018Y-106742782D01*
X139997217Y-106630981D01*
X139997209Y-106630975D01*
X139860290Y-106551926D01*
X139860286Y-106551924D01*
X139860284Y-106551923D01*
X139707557Y-106511000D01*
X139549443Y-106511000D01*
X139396716Y-106551923D01*
X139396709Y-106551926D01*
X139259790Y-106630975D01*
X139259782Y-106630981D01*
X139147981Y-106742782D01*
X139147975Y-106742790D01*
X139068926Y-106879709D01*
X139068924Y-106879714D01*
X139068923Y-106879716D01*
X139028000Y-107032443D01*
X124250500Y-107032443D01*
X124250500Y-107030943D01*
X124209577Y-106878216D01*
X124190305Y-106844835D01*
X124130524Y-106741290D01*
X124130518Y-106741282D01*
X124018717Y-106629481D01*
X124018709Y-106629475D01*
X123881790Y-106550426D01*
X123881786Y-106550424D01*
X123881784Y-106550423D01*
X123729057Y-106509500D01*
X123708250Y-106509500D01*
X123641211Y-106489815D01*
X123595456Y-106437011D01*
X123584250Y-106385210D01*
X123585578Y-105818209D01*
X123588265Y-104670943D01*
X135929500Y-104670943D01*
X135929500Y-104829057D01*
X135941695Y-104874567D01*
X135970423Y-104981783D01*
X135970426Y-104981790D01*
X136049475Y-105118709D01*
X136049479Y-105118714D01*
X136049480Y-105118716D01*
X136161284Y-105230520D01*
X136161286Y-105230521D01*
X136161290Y-105230524D01*
X136298209Y-105309573D01*
X136298216Y-105309577D01*
X136450943Y-105350500D01*
X136450945Y-105350500D01*
X136609055Y-105350500D01*
X136609057Y-105350500D01*
X136761784Y-105309577D01*
X136898716Y-105230520D01*
X137010520Y-105118716D01*
X137089577Y-104981784D01*
X137130500Y-104829057D01*
X137130500Y-104670943D01*
X137089577Y-104518216D01*
X137089575Y-104518212D01*
X137089574Y-104518209D01*
X137034286Y-104422447D01*
X137017813Y-104354547D01*
X137040666Y-104288520D01*
X137079675Y-104253060D01*
X137118716Y-104230520D01*
X137230520Y-104118716D01*
X137309577Y-103981784D01*
X137350500Y-103829057D01*
X137350500Y-103670943D01*
X137309577Y-103518216D01*
X137265453Y-103441790D01*
X137230524Y-103381290D01*
X137230518Y-103381282D01*
X137118717Y-103269481D01*
X137118709Y-103269475D01*
X136981790Y-103190426D01*
X136981786Y-103190424D01*
X136981784Y-103190423D01*
X136829057Y-103149500D01*
X136670943Y-103149500D01*
X136518216Y-103190423D01*
X136518209Y-103190426D01*
X136381290Y-103269475D01*
X136381282Y-103269481D01*
X136269481Y-103381282D01*
X136269475Y-103381290D01*
X136190426Y-103518209D01*
X136190423Y-103518216D01*
X136149500Y-103670943D01*
X136149500Y-103829056D01*
X136190423Y-103981783D01*
X136190423Y-103981784D01*
X136245714Y-104077552D01*
X136262186Y-104145452D01*
X136239333Y-104211479D01*
X136200327Y-104246937D01*
X136161290Y-104269475D01*
X136161282Y-104269481D01*
X136049481Y-104381282D01*
X136049475Y-104381290D01*
X135970426Y-104518209D01*
X135970423Y-104518216D01*
X135929500Y-104670943D01*
X123588265Y-104670943D01*
X123590074Y-103898383D01*
X123609915Y-103831394D01*
X123662826Y-103785762D01*
X123681972Y-103778904D01*
X123716784Y-103769577D01*
X123853716Y-103690520D01*
X123965520Y-103578716D01*
X124044577Y-103441784D01*
X124085500Y-103289057D01*
X124085500Y-103130943D01*
X124044577Y-102978216D01*
X124017285Y-102930945D01*
X124017284Y-102930943D01*
X128469500Y-102930943D01*
X128469500Y-103089057D01*
X128480724Y-103130943D01*
X128510423Y-103241783D01*
X128510426Y-103241790D01*
X128589475Y-103378709D01*
X128589479Y-103378714D01*
X128589480Y-103378716D01*
X128701284Y-103490520D01*
X128701286Y-103490521D01*
X128701290Y-103490524D01*
X128803557Y-103549567D01*
X128838216Y-103569577D01*
X128990943Y-103610500D01*
X128990945Y-103610500D01*
X129149055Y-103610500D01*
X129149057Y-103610500D01*
X129301784Y-103569577D01*
X129438716Y-103490520D01*
X129550520Y-103378716D01*
X129629577Y-103241784D01*
X129670500Y-103089057D01*
X129670500Y-102930943D01*
X129629577Y-102778216D01*
X129601437Y-102729475D01*
X129550524Y-102641290D01*
X129550518Y-102641282D01*
X129438717Y-102529481D01*
X129438709Y-102529475D01*
X129301790Y-102450426D01*
X129301786Y-102450424D01*
X129301784Y-102450423D01*
X129149057Y-102409500D01*
X128990943Y-102409500D01*
X128838216Y-102450423D01*
X128838209Y-102450426D01*
X128701290Y-102529475D01*
X128701282Y-102529481D01*
X128589481Y-102641282D01*
X128589475Y-102641290D01*
X128510426Y-102778209D01*
X128510423Y-102778216D01*
X128469500Y-102930943D01*
X124017284Y-102930943D01*
X123965522Y-102841287D01*
X123965518Y-102841282D01*
X123853717Y-102729481D01*
X123853709Y-102729475D01*
X123716790Y-102650426D01*
X123716786Y-102650424D01*
X123716784Y-102650423D01*
X123716782Y-102650422D01*
X123716779Y-102650421D01*
X123685202Y-102641960D01*
X123625542Y-102605595D01*
X123595014Y-102542747D01*
X123593297Y-102521903D01*
X123595758Y-101470943D01*
X142439500Y-101470943D01*
X142439500Y-101629056D01*
X142480423Y-101781783D01*
X142480426Y-101781790D01*
X142559475Y-101918709D01*
X142559479Y-101918714D01*
X142559480Y-101918716D01*
X142671284Y-102030520D01*
X142671286Y-102030521D01*
X142671290Y-102030524D01*
X142808209Y-102109573D01*
X142808216Y-102109577D01*
X142960943Y-102150500D01*
X142960945Y-102150500D01*
X143119055Y-102150500D01*
X143119057Y-102150500D01*
X143271784Y-102109577D01*
X143408716Y-102030520D01*
X143520520Y-101918716D01*
X143599577Y-101781784D01*
X143640500Y-101629057D01*
X143640500Y-101470943D01*
X143599577Y-101318216D01*
X143599573Y-101318209D01*
X143520524Y-101181290D01*
X143520518Y-101181282D01*
X143408717Y-101069481D01*
X143408709Y-101069475D01*
X143271790Y-100990426D01*
X143271786Y-100990424D01*
X143271784Y-100990423D01*
X143119057Y-100949500D01*
X142960943Y-100949500D01*
X142808216Y-100990423D01*
X142808209Y-100990426D01*
X142671290Y-101069475D01*
X142671282Y-101069481D01*
X142559481Y-101181282D01*
X142559475Y-101181290D01*
X142480426Y-101318209D01*
X142480423Y-101318216D01*
X142439500Y-101470943D01*
X123595758Y-101470943D01*
X123598381Y-100350943D01*
X138759500Y-100350943D01*
X138759500Y-100509056D01*
X138800423Y-100661783D01*
X138800426Y-100661790D01*
X138879475Y-100798709D01*
X138879479Y-100798714D01*
X138879480Y-100798716D01*
X138991284Y-100910520D01*
X138991286Y-100910521D01*
X138991290Y-100910524D01*
X139128209Y-100989573D01*
X139128216Y-100989577D01*
X139280943Y-101030500D01*
X139280945Y-101030500D01*
X139439055Y-101030500D01*
X139439057Y-101030500D01*
X139591784Y-100989577D01*
X139728716Y-100910520D01*
X139840520Y-100798716D01*
X139919577Y-100661784D01*
X139960500Y-100509057D01*
X139960500Y-100350943D01*
X139919577Y-100198216D01*
X139888603Y-100144567D01*
X139840524Y-100061290D01*
X139840518Y-100061282D01*
X139728717Y-99949481D01*
X139728709Y-99949475D01*
X139591790Y-99870426D01*
X139591786Y-99870424D01*
X139591784Y-99870423D01*
X139439057Y-99829500D01*
X139280943Y-99829500D01*
X139128216Y-99870423D01*
X139128209Y-99870426D01*
X138991290Y-99949475D01*
X138991282Y-99949481D01*
X138879481Y-100061282D01*
X138879475Y-100061290D01*
X138800426Y-100198209D01*
X138800423Y-100198216D01*
X138759500Y-100350943D01*
X123598381Y-100350943D01*
X123600372Y-99500943D01*
X124869500Y-99500943D01*
X124869500Y-99659057D01*
X124908606Y-99805000D01*
X124910423Y-99811783D01*
X124910426Y-99811790D01*
X124989475Y-99948709D01*
X124989479Y-99948714D01*
X124989480Y-99948716D01*
X125101284Y-100060520D01*
X125101286Y-100060521D01*
X125101290Y-100060524D01*
X125138930Y-100082255D01*
X125238216Y-100139577D01*
X125390943Y-100180500D01*
X125390945Y-100180500D01*
X125549055Y-100180500D01*
X125549057Y-100180500D01*
X125701784Y-100139577D01*
X125838716Y-100060520D01*
X125950520Y-99948716D01*
X126029577Y-99811784D01*
X126070500Y-99659057D01*
X126070500Y-99500943D01*
X126029577Y-99348216D01*
X126029573Y-99348209D01*
X125950524Y-99211290D01*
X125950518Y-99211282D01*
X125838717Y-99099481D01*
X125838709Y-99099475D01*
X125701790Y-99020426D01*
X125701786Y-99020424D01*
X125701784Y-99020423D01*
X125549057Y-98979500D01*
X125390943Y-98979500D01*
X125238216Y-99020423D01*
X125238209Y-99020426D01*
X125101290Y-99099475D01*
X125101282Y-99099481D01*
X124989481Y-99211282D01*
X124989475Y-99211290D01*
X124910426Y-99348209D01*
X124910423Y-99348216D01*
X124869500Y-99500943D01*
X123600372Y-99500943D01*
X123604962Y-97540943D01*
X125829500Y-97540943D01*
X125829500Y-97699056D01*
X125870423Y-97851783D01*
X125870426Y-97851790D01*
X125949475Y-97988709D01*
X125949479Y-97988714D01*
X125949480Y-97988716D01*
X126061284Y-98100520D01*
X126061286Y-98100521D01*
X126061290Y-98100524D01*
X126142270Y-98147277D01*
X126198216Y-98179577D01*
X126350943Y-98220500D01*
X126350945Y-98220500D01*
X126509055Y-98220500D01*
X126509057Y-98220500D01*
X126661784Y-98179577D01*
X126798716Y-98100520D01*
X126910520Y-97988716D01*
X126989577Y-97851784D01*
X127030500Y-97699057D01*
X127030500Y-97540943D01*
X126989577Y-97388216D01*
X126944720Y-97310520D01*
X126910524Y-97251290D01*
X126910518Y-97251282D01*
X126798717Y-97139481D01*
X126798709Y-97139475D01*
X126661790Y-97060426D01*
X126661786Y-97060424D01*
X126661784Y-97060423D01*
X126509057Y-97019500D01*
X126350943Y-97019500D01*
X126198216Y-97060423D01*
X126198209Y-97060426D01*
X126061290Y-97139475D01*
X126061282Y-97139481D01*
X125949481Y-97251282D01*
X125949475Y-97251290D01*
X125870426Y-97388209D01*
X125870423Y-97388216D01*
X125829500Y-97540943D01*
X123604962Y-97540943D01*
X123606812Y-96750943D01*
X129449500Y-96750943D01*
X129449500Y-96909057D01*
X129490059Y-97060423D01*
X129490423Y-97061783D01*
X129490426Y-97061790D01*
X129569475Y-97198709D01*
X129569479Y-97198714D01*
X129569480Y-97198716D01*
X129681284Y-97310520D01*
X129681286Y-97310521D01*
X129681290Y-97310524D01*
X129815859Y-97388216D01*
X129818216Y-97389577D01*
X129970943Y-97430500D01*
X129970945Y-97430500D01*
X130129055Y-97430500D01*
X130129057Y-97430500D01*
X130281784Y-97389577D01*
X130418716Y-97310520D01*
X130530520Y-97198716D01*
X130609577Y-97061784D01*
X130650500Y-96909057D01*
X130650500Y-96750943D01*
X130609577Y-96598216D01*
X130608023Y-96595524D01*
X130530524Y-96461290D01*
X130530518Y-96461282D01*
X130418717Y-96349481D01*
X130418709Y-96349475D01*
X130351969Y-96310943D01*
X138639500Y-96310943D01*
X138639500Y-96469057D01*
X138659114Y-96542255D01*
X138680423Y-96621783D01*
X138680426Y-96621790D01*
X138759475Y-96758709D01*
X138759479Y-96758714D01*
X138759480Y-96758716D01*
X138871284Y-96870520D01*
X138871286Y-96870521D01*
X138871290Y-96870524D01*
X139008209Y-96949573D01*
X139008216Y-96949577D01*
X139160943Y-96990500D01*
X139160945Y-96990500D01*
X139319055Y-96990500D01*
X139319057Y-96990500D01*
X139471784Y-96949577D01*
X139608716Y-96870520D01*
X139720520Y-96758716D01*
X139725008Y-96750943D01*
X142559500Y-96750943D01*
X142559500Y-96909057D01*
X142600059Y-97060423D01*
X142600423Y-97061783D01*
X142600426Y-97061790D01*
X142679475Y-97198709D01*
X142679479Y-97198714D01*
X142679480Y-97198716D01*
X142791284Y-97310520D01*
X142791286Y-97310521D01*
X142791290Y-97310524D01*
X142925859Y-97388216D01*
X142928216Y-97389577D01*
X143080943Y-97430500D01*
X143080945Y-97430500D01*
X143239055Y-97430500D01*
X143239057Y-97430500D01*
X143391784Y-97389577D01*
X143528716Y-97310520D01*
X143640520Y-97198716D01*
X143719577Y-97061784D01*
X143760500Y-96909057D01*
X143760500Y-96750943D01*
X143719577Y-96598216D01*
X143718023Y-96595524D01*
X143640524Y-96461290D01*
X143640518Y-96461282D01*
X143528717Y-96349481D01*
X143528709Y-96349475D01*
X143391790Y-96270426D01*
X143391786Y-96270424D01*
X143391784Y-96270423D01*
X143239057Y-96229500D01*
X143080943Y-96229500D01*
X142928216Y-96270423D01*
X142928209Y-96270426D01*
X142791290Y-96349475D01*
X142791282Y-96349481D01*
X142679481Y-96461282D01*
X142679475Y-96461290D01*
X142600426Y-96598209D01*
X142600423Y-96598216D01*
X142559500Y-96750943D01*
X139725008Y-96750943D01*
X139799577Y-96621784D01*
X139840500Y-96469057D01*
X139840500Y-96310943D01*
X139799577Y-96158216D01*
X139799573Y-96158209D01*
X139720524Y-96021290D01*
X139720518Y-96021282D01*
X139608717Y-95909481D01*
X139608709Y-95909475D01*
X139471790Y-95830426D01*
X139471786Y-95830424D01*
X139471784Y-95830423D01*
X139319057Y-95789500D01*
X139160943Y-95789500D01*
X139008216Y-95830423D01*
X139008209Y-95830426D01*
X138871290Y-95909475D01*
X138871282Y-95909481D01*
X138759481Y-96021282D01*
X138759475Y-96021290D01*
X138680426Y-96158209D01*
X138680423Y-96158216D01*
X138639500Y-96310943D01*
X130351969Y-96310943D01*
X130281790Y-96270426D01*
X130281786Y-96270424D01*
X130281784Y-96270423D01*
X130129057Y-96229500D01*
X129970943Y-96229500D01*
X129818216Y-96270423D01*
X129818209Y-96270426D01*
X129681290Y-96349475D01*
X129681282Y-96349481D01*
X129569481Y-96461282D01*
X129569475Y-96461290D01*
X129490426Y-96598209D01*
X129490423Y-96598216D01*
X129449500Y-96750943D01*
X123606812Y-96750943D01*
X123609710Y-95513403D01*
X123629552Y-95446413D01*
X123682463Y-95400782D01*
X123733403Y-95389697D01*
X124831843Y-95387005D01*
X124898931Y-95406526D01*
X124944815Y-95459217D01*
X124954928Y-95528351D01*
X124926059Y-95591978D01*
X124894148Y-95618392D01*
X124866283Y-95634479D01*
X124754480Y-95746282D01*
X124754474Y-95746290D01*
X124675425Y-95883209D01*
X124675422Y-95883216D01*
X124634499Y-96035943D01*
X124634499Y-96194057D01*
X124665819Y-96310943D01*
X124675422Y-96346783D01*
X124675425Y-96346790D01*
X124754474Y-96483709D01*
X124754478Y-96483714D01*
X124754479Y-96483716D01*
X124866283Y-96595520D01*
X124866285Y-96595521D01*
X124866289Y-96595524D01*
X124911777Y-96621786D01*
X125003215Y-96674577D01*
X125155942Y-96715500D01*
X125155944Y-96715500D01*
X125314054Y-96715500D01*
X125314056Y-96715500D01*
X125466783Y-96674577D01*
X125603715Y-96595520D01*
X125715519Y-96483716D01*
X125794576Y-96346784D01*
X125835499Y-96194057D01*
X125835499Y-96035943D01*
X125794576Y-95883216D01*
X125740470Y-95789500D01*
X125715523Y-95746290D01*
X125715517Y-95746282D01*
X125603714Y-95634479D01*
X125572443Y-95616425D01*
X125524228Y-95565857D01*
X125511006Y-95497250D01*
X125536974Y-95432386D01*
X125593888Y-95391858D01*
X125634134Y-95385038D01*
X144010000Y-95340000D01*
X143991252Y-91862368D01*
X144010575Y-91795227D01*
X144063131Y-91749188D01*
X144115354Y-91737703D01*
X148021058Y-91741092D01*
G37*
%TD.AperFunction*%
%TD*%
%TA.AperFunction,Conductor*%
%TO.N,Vdrive*%
G36*
X140834983Y-81249777D02*
G01*
X140901987Y-81269581D01*
X140947648Y-81322467D01*
X140958756Y-81375011D01*
X140901218Y-87157500D01*
X140880867Y-87224340D01*
X140827611Y-87269567D01*
X140777494Y-87280266D01*
X138835771Y-87284491D01*
X138768689Y-87264952D01*
X138722819Y-87212248D01*
X138712725Y-87143111D01*
X138728115Y-87098489D01*
X138742984Y-87072736D01*
X138780500Y-86932726D01*
X138780500Y-86787776D01*
X138742984Y-86647766D01*
X138670509Y-86522236D01*
X138568015Y-86419742D01*
X138568013Y-86419741D01*
X138568011Y-86419739D01*
X138442488Y-86347268D01*
X138442489Y-86347268D01*
X138431006Y-86344191D01*
X138302475Y-86309751D01*
X138157525Y-86309751D01*
X138028993Y-86344191D01*
X138017511Y-86347268D01*
X137891988Y-86419739D01*
X137891982Y-86419744D01*
X137789493Y-86522233D01*
X137789488Y-86522239D01*
X137717017Y-86647762D01*
X137717016Y-86647766D01*
X137679500Y-86787776D01*
X137679500Y-86932726D01*
X137716949Y-87072485D01*
X137717017Y-87072739D01*
X137733405Y-87101124D01*
X137749878Y-87169025D01*
X137727025Y-87235052D01*
X137672104Y-87278242D01*
X137626288Y-87287124D01*
X122519999Y-87320000D01*
X122529997Y-89819490D01*
X122529996Y-89820607D01*
X122493787Y-97055861D01*
X122473768Y-97122801D01*
X122420735Y-97168291D01*
X122351528Y-97177888D01*
X122337704Y-97175017D01*
X122242475Y-97149500D01*
X122097525Y-97149500D01*
X121968993Y-97183940D01*
X121957511Y-97187017D01*
X121831988Y-97259488D01*
X121831982Y-97259493D01*
X121729493Y-97361982D01*
X121729488Y-97361988D01*
X121657017Y-97487511D01*
X121657016Y-97487515D01*
X121619500Y-97627525D01*
X121619500Y-97772475D01*
X121635580Y-97832485D01*
X121657017Y-97912488D01*
X121729488Y-98038011D01*
X121729490Y-98038013D01*
X121729491Y-98038015D01*
X121831985Y-98140509D01*
X121831986Y-98140510D01*
X121831988Y-98140511D01*
X121957511Y-98212982D01*
X121957512Y-98212982D01*
X121957515Y-98212984D01*
X122097525Y-98250500D01*
X122097528Y-98250500D01*
X122242472Y-98250500D01*
X122242475Y-98250500D01*
X122331236Y-98226716D01*
X122401083Y-98228379D01*
X122458945Y-98267541D01*
X122486450Y-98331769D01*
X122487325Y-98347112D01*
X122423327Y-111135121D01*
X122403308Y-111202061D01*
X122350275Y-111247551D01*
X122299329Y-111258500D01*
X122199525Y-111258500D01*
X122070993Y-111292940D01*
X122059511Y-111296017D01*
X121933988Y-111368488D01*
X121933982Y-111368493D01*
X121831493Y-111470982D01*
X121831488Y-111470988D01*
X121759017Y-111596511D01*
X121759016Y-111596515D01*
X121731427Y-111699480D01*
X121728952Y-111708715D01*
X121692586Y-111768375D01*
X121629739Y-111798904D01*
X121609272Y-111800621D01*
X109380000Y-111809999D01*
X109380000Y-117089998D01*
X109380000Y-117090000D01*
X112496294Y-117081246D01*
X112558638Y-117097859D01*
X112567515Y-117102984D01*
X112707525Y-117140500D01*
X112707528Y-117140500D01*
X112852472Y-117140500D01*
X112852475Y-117140500D01*
X112992485Y-117102984D01*
X113004130Y-117096260D01*
X113065781Y-117079646D01*
X116375652Y-117070349D01*
X116442746Y-117089846D01*
X116488649Y-117142521D01*
X116500000Y-117194349D01*
X116500000Y-118534942D01*
X116480315Y-118601981D01*
X116427511Y-118647736D01*
X116358353Y-118657680D01*
X116343907Y-118654717D01*
X116258021Y-118631704D01*
X116212475Y-118619500D01*
X116067525Y-118619500D01*
X115938993Y-118653940D01*
X115927511Y-118657017D01*
X115801988Y-118729488D01*
X115801982Y-118729493D01*
X115699493Y-118831982D01*
X115699488Y-118831988D01*
X115627017Y-118957511D01*
X115627016Y-118957515D01*
X115589500Y-119097525D01*
X115589500Y-119242475D01*
X115627016Y-119382485D01*
X115627017Y-119382488D01*
X115699488Y-119508011D01*
X115699490Y-119508013D01*
X115699491Y-119508015D01*
X115801985Y-119610509D01*
X115886805Y-119659480D01*
X115918212Y-119677613D01*
X115966427Y-119728181D01*
X115979649Y-119796788D01*
X115953681Y-119861652D01*
X115918212Y-119892387D01*
X115801985Y-119959491D01*
X115801982Y-119959493D01*
X115699493Y-120061982D01*
X115699488Y-120061988D01*
X115627017Y-120187511D01*
X115627016Y-120187515D01*
X115589500Y-120327525D01*
X115589500Y-120472475D01*
X115627016Y-120612485D01*
X115627017Y-120612488D01*
X115699488Y-120738011D01*
X115699490Y-120738013D01*
X115699491Y-120738015D01*
X115801985Y-120840509D01*
X115801986Y-120840510D01*
X115801988Y-120840511D01*
X115927511Y-120912982D01*
X115927512Y-120912982D01*
X115927515Y-120912984D01*
X116067525Y-120950500D01*
X116067528Y-120950500D01*
X116212472Y-120950500D01*
X116212475Y-120950500D01*
X116343908Y-120915282D01*
X116413756Y-120916945D01*
X116471619Y-120956107D01*
X116499123Y-121020335D01*
X116500000Y-121035057D01*
X116500000Y-123386400D01*
X116480315Y-123453439D01*
X116427511Y-123499194D01*
X116376401Y-123510399D01*
X107344165Y-123539598D01*
X107277062Y-123520131D01*
X107231137Y-123467475D01*
X107219764Y-123415837D01*
X107210000Y-118260000D01*
X107210000Y-117790000D01*
X107210000Y-117789951D01*
X107161892Y-110477525D01*
X120929500Y-110477525D01*
X120929500Y-110622475D01*
X120958178Y-110729500D01*
X120967017Y-110762488D01*
X121039488Y-110888011D01*
X121039490Y-110888013D01*
X121039491Y-110888015D01*
X121141985Y-110990509D01*
X121141986Y-110990510D01*
X121141988Y-110990511D01*
X121267511Y-111062982D01*
X121267512Y-111062982D01*
X121267515Y-111062984D01*
X121407525Y-111100500D01*
X121407528Y-111100500D01*
X121552472Y-111100500D01*
X121552475Y-111100500D01*
X121692485Y-111062984D01*
X121818015Y-110990509D01*
X121920509Y-110888015D01*
X121992984Y-110762485D01*
X122030500Y-110622475D01*
X122030500Y-110477525D01*
X121992984Y-110337515D01*
X121987615Y-110328216D01*
X121920511Y-110211988D01*
X121920506Y-110211982D01*
X121818017Y-110109493D01*
X121818011Y-110109488D01*
X121692488Y-110037017D01*
X121692489Y-110037017D01*
X121681006Y-110033940D01*
X121552475Y-109999500D01*
X121407525Y-109999500D01*
X121278993Y-110033940D01*
X121267511Y-110037017D01*
X121141988Y-110109488D01*
X121141982Y-110109493D01*
X121039493Y-110211982D01*
X121039488Y-110211988D01*
X120967017Y-110337511D01*
X120967016Y-110337515D01*
X120929500Y-110477525D01*
X107161892Y-110477525D01*
X107161844Y-110470214D01*
X107152352Y-109027525D01*
X119099500Y-109027525D01*
X119099500Y-109172475D01*
X119115323Y-109231525D01*
X119137017Y-109312488D01*
X119209488Y-109438011D01*
X119209490Y-109438013D01*
X119209491Y-109438015D01*
X119311985Y-109540509D01*
X119311986Y-109540510D01*
X119311988Y-109540511D01*
X119437511Y-109612982D01*
X119437512Y-109612982D01*
X119437515Y-109612984D01*
X119577525Y-109650500D01*
X119577528Y-109650500D01*
X119722472Y-109650500D01*
X119722475Y-109650500D01*
X119862485Y-109612984D01*
X119988015Y-109540509D01*
X120090509Y-109438015D01*
X120162984Y-109312485D01*
X120200500Y-109172475D01*
X120200500Y-109027525D01*
X120162984Y-108887515D01*
X120090509Y-108761985D01*
X119988015Y-108659491D01*
X119988013Y-108659490D01*
X119988011Y-108659488D01*
X119862488Y-108587017D01*
X119862489Y-108587017D01*
X119851006Y-108583940D01*
X119722475Y-108549500D01*
X119577525Y-108549500D01*
X119448993Y-108583940D01*
X119437511Y-108587017D01*
X119311988Y-108659488D01*
X119311982Y-108659493D01*
X119209493Y-108761982D01*
X119209488Y-108761988D01*
X119137017Y-108887511D01*
X119132583Y-108904055D01*
X119099500Y-109027525D01*
X107152352Y-109027525D01*
X107152304Y-109020214D01*
X107140823Y-107275150D01*
X107160066Y-107207982D01*
X107212568Y-107161881D01*
X107265149Y-107150334D01*
X118280922Y-107179762D01*
X118369999Y-107180000D01*
X118369999Y-107179999D01*
X118370000Y-107180000D01*
X118379593Y-105400506D01*
X118382359Y-104887525D01*
X120359500Y-104887525D01*
X120359500Y-105032475D01*
X120397016Y-105172485D01*
X120397017Y-105172488D01*
X120469488Y-105298011D01*
X120469490Y-105298013D01*
X120469491Y-105298015D01*
X120571985Y-105400509D01*
X120571986Y-105400510D01*
X120571988Y-105400511D01*
X120697511Y-105472982D01*
X120697512Y-105472982D01*
X120697515Y-105472984D01*
X120837525Y-105510500D01*
X120837528Y-105510500D01*
X120982472Y-105510500D01*
X120982475Y-105510500D01*
X121122485Y-105472984D01*
X121248015Y-105400509D01*
X121350509Y-105298015D01*
X121422984Y-105172485D01*
X121422986Y-105172477D01*
X121425233Y-105167053D01*
X121469071Y-105112648D01*
X121535364Y-105090579D01*
X121539797Y-105090500D01*
X121612472Y-105090500D01*
X121612475Y-105090500D01*
X121752485Y-105052984D01*
X121878015Y-104980509D01*
X121980509Y-104878015D01*
X122052984Y-104752485D01*
X122090500Y-104612475D01*
X122090500Y-104467525D01*
X122052984Y-104327515D01*
X121982240Y-104204984D01*
X121980511Y-104201988D01*
X121980506Y-104201982D01*
X121878017Y-104099493D01*
X121878011Y-104099488D01*
X121752488Y-104027017D01*
X121752489Y-104027017D01*
X121741006Y-104023940D01*
X121612475Y-103989500D01*
X121467525Y-103989500D01*
X121338993Y-104023940D01*
X121327511Y-104027017D01*
X121201988Y-104099488D01*
X121201982Y-104099493D01*
X121099493Y-104201982D01*
X121099488Y-104201988D01*
X121027017Y-104327511D01*
X121024763Y-104332954D01*
X120980921Y-104387357D01*
X120914626Y-104409421D01*
X120910202Y-104409500D01*
X120837525Y-104409500D01*
X120708993Y-104443940D01*
X120697511Y-104447017D01*
X120571988Y-104519488D01*
X120571982Y-104519493D01*
X120469493Y-104621982D01*
X120469488Y-104621988D01*
X120397017Y-104747511D01*
X120397016Y-104747515D01*
X120359500Y-104887525D01*
X118382359Y-104887525D01*
X118382406Y-104878730D01*
X118396321Y-102297324D01*
X118431872Y-95702525D01*
X118684499Y-95702525D01*
X118684499Y-95847475D01*
X118722015Y-95987485D01*
X118722016Y-95987488D01*
X118794487Y-96113011D01*
X118794489Y-96113013D01*
X118794490Y-96113015D01*
X118896984Y-96215509D01*
X118896985Y-96215510D01*
X118896987Y-96215511D01*
X119022510Y-96287982D01*
X119022511Y-96287982D01*
X119022514Y-96287984D01*
X119162524Y-96325500D01*
X119162527Y-96325500D01*
X119307471Y-96325500D01*
X119307474Y-96325500D01*
X119447484Y-96287984D01*
X119573014Y-96215509D01*
X119675508Y-96113015D01*
X119747983Y-95987485D01*
X119785499Y-95847475D01*
X119785499Y-95702525D01*
X119747983Y-95562515D01*
X119675508Y-95436985D01*
X119573014Y-95334491D01*
X119573012Y-95334490D01*
X119573010Y-95334488D01*
X119447487Y-95262017D01*
X119447488Y-95262017D01*
X119436005Y-95258940D01*
X119307474Y-95224500D01*
X119162524Y-95224500D01*
X119033992Y-95258940D01*
X119022510Y-95262017D01*
X118896987Y-95334488D01*
X118896981Y-95334493D01*
X118794492Y-95436982D01*
X118794487Y-95436988D01*
X118722016Y-95562511D01*
X118722015Y-95562515D01*
X118684499Y-95702525D01*
X118431872Y-95702525D01*
X118488879Y-85127776D01*
X130679900Y-85127776D01*
X130679900Y-85272726D01*
X130717416Y-85412736D01*
X130717417Y-85412739D01*
X130789888Y-85538262D01*
X130789890Y-85538264D01*
X130789891Y-85538266D01*
X130892385Y-85640760D01*
X130892386Y-85640761D01*
X130892388Y-85640762D01*
X131017911Y-85713233D01*
X131017912Y-85713233D01*
X131017915Y-85713235D01*
X131157925Y-85750751D01*
X131157928Y-85750751D01*
X131302872Y-85750751D01*
X131302875Y-85750751D01*
X131442885Y-85713235D01*
X131568415Y-85640760D01*
X131670909Y-85538266D01*
X131743384Y-85412736D01*
X131780900Y-85272726D01*
X131780900Y-85127776D01*
X135079900Y-85127776D01*
X135079900Y-85272726D01*
X135117416Y-85412736D01*
X135117417Y-85412739D01*
X135189888Y-85538262D01*
X135189890Y-85538264D01*
X135189891Y-85538266D01*
X135292385Y-85640760D01*
X135292386Y-85640761D01*
X135292388Y-85640762D01*
X135417911Y-85713233D01*
X135417912Y-85713233D01*
X135417915Y-85713235D01*
X135557925Y-85750751D01*
X135557928Y-85750751D01*
X135702872Y-85750751D01*
X135702875Y-85750751D01*
X135842885Y-85713235D01*
X135968415Y-85640760D01*
X136070909Y-85538266D01*
X136143384Y-85412736D01*
X136180900Y-85272726D01*
X136180900Y-85127776D01*
X136143384Y-84987766D01*
X136142270Y-84985837D01*
X136070911Y-84862239D01*
X136070906Y-84862233D01*
X135968417Y-84759744D01*
X135968411Y-84759739D01*
X135842888Y-84687268D01*
X135842889Y-84687268D01*
X135831406Y-84684191D01*
X135702875Y-84649751D01*
X135557925Y-84649751D01*
X135429393Y-84684191D01*
X135417911Y-84687268D01*
X135292388Y-84759739D01*
X135292382Y-84759744D01*
X135189893Y-84862233D01*
X135189888Y-84862239D01*
X135117417Y-84987762D01*
X135117416Y-84987766D01*
X135079900Y-85127776D01*
X131780900Y-85127776D01*
X131743384Y-84987766D01*
X131742270Y-84985837D01*
X131670911Y-84862239D01*
X131670906Y-84862233D01*
X131568417Y-84759744D01*
X131568411Y-84759739D01*
X131442888Y-84687268D01*
X131442889Y-84687268D01*
X131431406Y-84684191D01*
X131302875Y-84649751D01*
X131157925Y-84649751D01*
X131029393Y-84684191D01*
X131017911Y-84687268D01*
X130892388Y-84759739D01*
X130892382Y-84759744D01*
X130789893Y-84862233D01*
X130789888Y-84862239D01*
X130717417Y-84987762D01*
X130717416Y-84987766D01*
X130679900Y-85127776D01*
X118488879Y-85127776D01*
X118497774Y-83477776D01*
X131919900Y-83477776D01*
X131919900Y-83622726D01*
X131957416Y-83762736D01*
X131957417Y-83762739D01*
X132029888Y-83888262D01*
X132029890Y-83888264D01*
X132029891Y-83888266D01*
X132132385Y-83990760D01*
X132132386Y-83990761D01*
X132132388Y-83990762D01*
X132257911Y-84063233D01*
X132257912Y-84063233D01*
X132257915Y-84063235D01*
X132397925Y-84100751D01*
X132397928Y-84100751D01*
X132542872Y-84100751D01*
X132542875Y-84100751D01*
X132682885Y-84063235D01*
X132808415Y-83990760D01*
X132910909Y-83888266D01*
X132983384Y-83762736D01*
X133020900Y-83622726D01*
X133020900Y-83477776D01*
X133779900Y-83477776D01*
X133779900Y-83622726D01*
X133817416Y-83762736D01*
X133817417Y-83762739D01*
X133889888Y-83888262D01*
X133889890Y-83888264D01*
X133889891Y-83888266D01*
X133992385Y-83990760D01*
X133992386Y-83990761D01*
X133992388Y-83990762D01*
X134117911Y-84063233D01*
X134117912Y-84063233D01*
X134117915Y-84063235D01*
X134257925Y-84100751D01*
X134257928Y-84100751D01*
X134402872Y-84100751D01*
X134402875Y-84100751D01*
X134542885Y-84063235D01*
X134668415Y-83990760D01*
X134770909Y-83888266D01*
X134843384Y-83762736D01*
X134880900Y-83622726D01*
X134880900Y-83477776D01*
X134843384Y-83337766D01*
X134770909Y-83212236D01*
X134668415Y-83109742D01*
X134668413Y-83109741D01*
X134668411Y-83109739D01*
X134542888Y-83037268D01*
X134542889Y-83037268D01*
X134531406Y-83034191D01*
X134402875Y-82999751D01*
X134257925Y-82999751D01*
X134129393Y-83034191D01*
X134117911Y-83037268D01*
X133992388Y-83109739D01*
X133992382Y-83109744D01*
X133889893Y-83212233D01*
X133889888Y-83212239D01*
X133817417Y-83337762D01*
X133817416Y-83337766D01*
X133779900Y-83477776D01*
X133020900Y-83477776D01*
X132983384Y-83337766D01*
X132910909Y-83212236D01*
X132808415Y-83109742D01*
X132808413Y-83109741D01*
X132808411Y-83109739D01*
X132682888Y-83037268D01*
X132682889Y-83037268D01*
X132671406Y-83034191D01*
X132542875Y-82999751D01*
X132397925Y-82999751D01*
X132269393Y-83034191D01*
X132257911Y-83037268D01*
X132132388Y-83109739D01*
X132132382Y-83109744D01*
X132029893Y-83212233D01*
X132029888Y-83212239D01*
X131957417Y-83337762D01*
X131957416Y-83337766D01*
X131919900Y-83477776D01*
X118497774Y-83477776D01*
X118509333Y-81333548D01*
X118529378Y-81266619D01*
X118582428Y-81221150D01*
X118633551Y-81210220D01*
X140834983Y-81249777D01*
G37*
%TD.AperFunction*%
%TD*%
M02*
