%TF.GenerationSoftware,KiCad,Pcbnew,9.0.6*%
%TF.CreationDate,2026-02-16T15:04:55+01:00*%
%TF.ProjectId,WaterSensor,57617465-7253-4656-9e73-6f722e6b6963,rev?*%
%TF.SameCoordinates,Original*%
%TF.FileFunction,Copper,L4,Bot*%
%TF.FilePolarity,Positive*%
%FSLAX46Y46*%
G04 Gerber Fmt 4.6, Leading zero omitted, Abs format (unit mm)*
G04 Created by KiCad (PCBNEW 9.0.6) date 2026-02-16 15:04:55*
%MOMM*%
%LPD*%
G01*
G04 APERTURE LIST*
%TA.AperFunction,ComponentPad*%
%ADD10C,2.362200*%
%TD*%
%TA.AperFunction,ComponentPad*%
%ADD11C,1.574800*%
%TD*%
%TA.AperFunction,ViaPad*%
%ADD12C,0.600000*%
%TD*%
%TA.AperFunction,Conductor*%
%ADD13C,0.200000*%
%TD*%
%TA.AperFunction,Conductor*%
%ADD14C,0.100000*%
%TD*%
%TA.AperFunction,Conductor*%
%ADD15C,0.500000*%
%TD*%
%TA.AperFunction,Conductor*%
%ADD16C,0.300000*%
%TD*%
G04 APERTURE END LIST*
D10*
%TO.P,J2,1,Pin_1*%
%TO.N,GND*%
X116700000Y-86210251D03*
%TO.P,J2,2,Pin_2*%
%TO.N,PS_IN*%
X116700000Y-91710250D03*
%TD*%
D11*
%TO.P,J7,1,Pin_1*%
%TO.N,/DAC_PROT&SWITCH/BLKA_PWR*%
X167500000Y-138100000D03*
%TO.P,J7,2,Pin_2*%
%TO.N,/DAC_PROT&SWITCH/GW_DAC_IN_A*%
X167500000Y-141099999D03*
%TO.P,J7,3,Pin_3*%
%TO.N,/DAC_PROT&SWITCH/FW_DAC_IN_A*%
X167500000Y-144099998D03*
%TD*%
%TO.P,J5,1,Pin_1*%
%TO.N,/BLK-C-Water/+12V_BLK9C-2*%
X167515999Y-104117001D03*
%TO.P,J5,2,Pin_2*%
%TO.N,/BLK-C-Water/+12V_BLK9C-3*%
X167515999Y-107117000D03*
%TO.P,J5,3,Pin_3*%
%TO.N,/BLK-C-Water/+12V_BLK9C-4*%
X167515999Y-110116999D03*
%TO.P,J5,4,Pin_4*%
%TO.N,/BLK-C-Water/+12V_BLK9C-5*%
X167515999Y-113116998D03*
%TD*%
%TO.P,J4,1,Pin_1*%
%TO.N,/BLK-C-Water/BLKC_PWR*%
X167539999Y-82700002D03*
%TO.P,J4,2,Pin_2*%
%TO.N,/BLK-C-Water/+12V_BLK8C-2*%
X167539999Y-85700001D03*
%TO.P,J4,3,Pin_3*%
%TO.N,/BLK-C-Water/+12V_BLK8C-3*%
X167539999Y-88700000D03*
%TO.P,J4,4,Pin_4*%
%TO.N,/BLK-C-Water/+12V_BLK8C-4*%
X167539999Y-91699999D03*
%TO.P,J4,5,Pin_5*%
%TO.N,/BLK-C-Water/+12V_BLK8C-5*%
X167539999Y-94699998D03*
%TD*%
%TO.P,J8,1,Pin_1*%
%TO.N,/DAC_PROT&SWITCH/BLKB_PWR*%
X167539799Y-122560401D03*
%TO.P,J8,2,Pin_2*%
%TO.N,/VIConverter/IoutGW*%
X167539799Y-125560400D03*
%TO.P,J8,3,Pin_3*%
%TO.N,/VIConverter/IoutFW*%
X167539799Y-128560399D03*
%TD*%
D10*
%TO.P,J3,1,Pin_1*%
%TO.N,/LIN_BUS*%
X108439600Y-86189750D03*
%TO.P,J3,2,Pin_2*%
%TO.N,GND*%
X108439600Y-91689749D03*
%TD*%
D12*
%TO.N,GND*%
X116200000Y-104170000D03*
X138173650Y-118569999D03*
X158570000Y-129300000D03*
X151210000Y-119620000D03*
X143040000Y-101550000D03*
X123760000Y-108560000D03*
X133430400Y-92650251D03*
X143160000Y-96830000D03*
X136673650Y-118599999D03*
X136750000Y-103750000D03*
X114530000Y-129300000D03*
X108980000Y-100900000D03*
X162280000Y-139210000D03*
X137500000Y-124090000D03*
X139010000Y-135510000D03*
X149070000Y-111790000D03*
X140180000Y-130340000D03*
X122272000Y-111809000D03*
X142483000Y-107004000D03*
X141680000Y-86860000D03*
X114190000Y-97700000D03*
X126430000Y-97620000D03*
X145840000Y-133410000D03*
X117150000Y-117710000D03*
X120910000Y-104960000D03*
X132470400Y-83550251D03*
X142670000Y-139930000D03*
X151200000Y-100050000D03*
X132140000Y-116770000D03*
X123773000Y-118925000D03*
X151210000Y-123120000D03*
X129070000Y-103010000D03*
X107450000Y-100910000D03*
X119650000Y-109100000D03*
X125964000Y-119794000D03*
X131230400Y-85200251D03*
X135630400Y-85200251D03*
X125540000Y-93970000D03*
X121100000Y-133970000D03*
X151200000Y-107200000D03*
X121540000Y-104540000D03*
X151200000Y-112510000D03*
X134178299Y-111402112D03*
X123485000Y-103210000D03*
X118130000Y-121960000D03*
X158260000Y-92600000D03*
X131530000Y-117720000D03*
X134330400Y-83550251D03*
X132160000Y-117730000D03*
X139880000Y-113960000D03*
X136130000Y-111280000D03*
X150620000Y-125620000D03*
X155400000Y-134110000D03*
X139240000Y-96390000D03*
X139360000Y-100430000D03*
X157080000Y-88800000D03*
X133090028Y-134140127D03*
X126470000Y-128600000D03*
X112810000Y-115320000D03*
X148420000Y-111770000D03*
X129566000Y-122394000D03*
X121110000Y-130890000D03*
X121120000Y-137100000D03*
X130050000Y-96830000D03*
X138230000Y-86860251D03*
X151270000Y-103700000D03*
X141300000Y-112200000D03*
X147770000Y-111780000D03*
X133000000Y-120190000D03*
X151200000Y-96510000D03*
X127540000Y-93500000D03*
X135470000Y-139420000D03*
X151200000Y-116110000D03*
X136020000Y-120400000D03*
X119234999Y-95775000D03*
X128555000Y-109304000D03*
X126220000Y-145620000D03*
X129040000Y-93510000D03*
X123650000Y-107110000D03*
X143280000Y-94420000D03*
X112780000Y-116590000D03*
%TO.N,NRST*%
X121480000Y-110550000D03*
X119630000Y-112860000D03*
%TO.N,+5V*%
X124940000Y-133980000D03*
X121305025Y-123855025D03*
X149430000Y-96190000D03*
X128530000Y-134130000D03*
%TO.N,+3.3V*%
X124529975Y-114599975D03*
X126090000Y-102110000D03*
X112785000Y-114020000D03*
X131480000Y-116070000D03*
X125710000Y-111790000D03*
X127810000Y-101030000D03*
X147410000Y-96830000D03*
X145640000Y-95330000D03*
X126620000Y-102590000D03*
X125290000Y-110560000D03*
X132520000Y-96430000D03*
X139380675Y-102140195D03*
X117010000Y-129320000D03*
X122295000Y-117160000D03*
X126355785Y-111452785D03*
X143110000Y-103670000D03*
X140753650Y-117589999D03*
X137250000Y-112180000D03*
X143960000Y-103460000D03*
X137300000Y-112870000D03*
X118615000Y-120140000D03*
X127530000Y-100440000D03*
X136710000Y-112680000D03*
X126270000Y-116270000D03*
X118625000Y-117010000D03*
X139170000Y-102860000D03*
%TO.N,PS_RAW*%
X155400000Y-130270000D03*
X148060000Y-124340000D03*
X146890000Y-124580000D03*
X131120000Y-89110000D03*
X162040000Y-88080000D03*
X156640000Y-129910000D03*
X149690000Y-134340000D03*
X149800000Y-133410000D03*
%TO.N,Vdrive*%
X139940000Y-85590000D03*
X115450000Y-122500000D03*
%TO.N,USART1_TX*%
X116140000Y-119170000D03*
X132030000Y-114370000D03*
%TO.N,USART1_RX*%
X116140000Y-120400000D03*
X133350000Y-114320000D03*
%TO.N,/USB_D-*%
X119098300Y-123830000D03*
X120298300Y-123830000D03*
%TO.N,/VIConverter/IoutGW*%
X155380000Y-128860000D03*
%TO.N,Net-(Q1-C)*%
X154854000Y-101420000D03*
X153600000Y-101420000D03*
%TO.N,Net-(Q2-C)*%
X156331000Y-97763000D03*
X153650000Y-97770000D03*
%TO.N,Net-(Q3-C)*%
X153550000Y-94130000D03*
X156165000Y-94310000D03*
%TO.N,Net-(Q5-C)*%
X154590000Y-118189000D03*
X157520000Y-112970000D03*
%TO.N,Net-(Q6-C)*%
X157040000Y-125350000D03*
X157897851Y-117585421D03*
%TO.N,Net-(Q7-C)*%
X154564000Y-123969000D03*
X155882000Y-123988000D03*
%TO.N,Net-(Q8-C)*%
X155420000Y-118530000D03*
X155871000Y-116871000D03*
%TO.N,+12V*%
X158270000Y-98140000D03*
X158380000Y-102160000D03*
X158310000Y-122300000D03*
X157660000Y-91530000D03*
X157200000Y-126630000D03*
X158280000Y-93980000D03*
X158410000Y-114180000D03*
X158410000Y-118200000D03*
X157080000Y-90180000D03*
X157730000Y-106180000D03*
X158410000Y-110200000D03*
%TO.N,FW_DAC_IN_B*%
X133090000Y-129430000D03*
X131620999Y-129430000D03*
%TO.N,Out1*%
X150700000Y-136310000D03*
X146810000Y-137030000D03*
%TO.N,O2Out1*%
X144404201Y-127295112D03*
X148380000Y-126830000D03*
%TO.N,IN_B*%
X130350000Y-127200000D03*
X129410000Y-128140000D03*
%TO.N,BLKC_SEL_B*%
X148420000Y-106050000D03*
X140721000Y-107750000D03*
%TO.N,BLKC_SEL_C*%
X139628500Y-107111500D03*
X149780000Y-104780000D03*
%TO.N,USART2_TX*%
X128015000Y-108437000D03*
X125470000Y-99580000D03*
%TO.N,EN_LIN*%
X122170000Y-97700000D03*
X136530000Y-104750000D03*
%TO.N,IN_A*%
X129470000Y-125330000D03*
X129560000Y-135200000D03*
%TO.N,USART2_RX*%
X125234999Y-96115000D03*
X130560000Y-110410000D03*
%TO.N,BLKC_SEL_A*%
X147080000Y-108250000D03*
X144072000Y-108658000D03*
%TD*%
D13*
%TO.N,NRST*%
X119630000Y-112860000D02*
X119630000Y-112400000D01*
X119630000Y-112400000D02*
X121480000Y-110550000D01*
%TO.N,USART1_TX*%
X127600000Y-118200000D02*
X118089000Y-118200000D01*
X118089000Y-118200000D02*
X117119000Y-119170000D01*
X132030000Y-114370000D02*
X131680000Y-114720000D01*
X117119000Y-119170000D02*
X116140000Y-119170000D01*
X131680000Y-114720000D02*
X131080000Y-114720000D01*
X131080000Y-114720000D02*
X127600000Y-118200000D01*
%TO.N,USART1_RX*%
X125578521Y-121270000D02*
X117010000Y-121270000D01*
X133350000Y-114320000D02*
X133350000Y-114600000D01*
X131770364Y-115369000D02*
X131189636Y-115369000D01*
X133350000Y-114320000D02*
X133220000Y-114450000D01*
X132581000Y-115369000D02*
X131770364Y-115369000D01*
X130779000Y-115779636D02*
X130779000Y-116069521D01*
X131189636Y-115369000D02*
X130779000Y-115779636D01*
X133350000Y-114600000D02*
X132581000Y-115369000D01*
X117010000Y-121270000D02*
X116140000Y-120400000D01*
X130779000Y-116069521D02*
X125578521Y-121270000D01*
D14*
%TO.N,/USB_D-*%
X120298300Y-123830000D02*
X119098300Y-123830000D01*
D15*
%TO.N,/VIConverter/IoutGW*%
X166159600Y-125560400D02*
X167539799Y-125560400D01*
X164060000Y-127660000D02*
X166159600Y-125560400D01*
X156580000Y-127660000D02*
X164060000Y-127660000D01*
X155380000Y-128860000D02*
X156580000Y-127660000D01*
D16*
%TO.N,Net-(Q1-C)*%
X154854000Y-101420000D02*
X153600000Y-101420000D01*
%TO.N,Net-(Q2-C)*%
X156324000Y-97770000D02*
X156331000Y-97763000D01*
X153650000Y-97770000D02*
X156324000Y-97770000D01*
%TO.N,Net-(Q3-C)*%
X156165000Y-94310000D02*
X153730000Y-94310000D01*
X153730000Y-94310000D02*
X153550000Y-94130000D01*
%TO.N,Net-(Q5-C)*%
X154590000Y-118189000D02*
X154590000Y-116590000D01*
X157520000Y-113660000D02*
X157520000Y-112970000D01*
X154590000Y-116590000D02*
X157520000Y-113660000D01*
%TO.N,Net-(Q6-C)*%
X156496000Y-124806000D02*
X156496000Y-118987272D01*
X156496000Y-118987272D02*
X157897851Y-117585421D01*
X157040000Y-125350000D02*
X156496000Y-124806000D01*
%TO.N,Net-(Q7-C)*%
X154564000Y-123969000D02*
X154583000Y-123988000D01*
X154583000Y-123988000D02*
X155882000Y-123988000D01*
%TO.N,Net-(Q8-C)*%
X155871000Y-116871000D02*
X155871000Y-118079000D01*
X155871000Y-118079000D02*
X155420000Y-118530000D01*
%TO.N,FW_DAC_IN_B*%
X133090000Y-129430000D02*
X131620999Y-129430000D01*
%TO.N,Out1*%
X147530000Y-136310000D02*
X146810000Y-137030000D01*
X150700000Y-136310000D02*
X147530000Y-136310000D01*
%TO.N,O2Out1*%
X144404201Y-127295112D02*
X147914888Y-127295112D01*
X147914888Y-127295112D02*
X148380000Y-126830000D01*
D13*
%TO.N,IN_B*%
X129410000Y-128140000D02*
X130350000Y-127200000D01*
%TO.N,BLKC_SEL_B*%
X148420000Y-106848521D02*
X148420000Y-106050000D01*
X147632521Y-107636000D02*
X148420000Y-106848521D01*
X140835000Y-107636000D02*
X147632521Y-107636000D01*
X140721000Y-107750000D02*
X140835000Y-107636000D01*
%TO.N,BLKC_SEL_C*%
X139628500Y-107111500D02*
X141960000Y-104780000D01*
X141960000Y-104780000D02*
X149780000Y-104780000D01*
%TO.N,USART2_TX*%
X127730000Y-108152000D02*
X127730000Y-102370000D01*
X125470000Y-100110000D02*
X125470000Y-99580000D01*
X128015000Y-108437000D02*
X127730000Y-108152000D01*
X127730000Y-102370000D02*
X125470000Y-100110000D01*
%TO.N,EN_LIN*%
X135390000Y-104750000D02*
X125970000Y-95330000D01*
X136530000Y-104750000D02*
X135390000Y-104750000D01*
X122440000Y-95330000D02*
X122170000Y-95600000D01*
X122170000Y-95600000D02*
X122170000Y-97700000D01*
X125970000Y-95330000D02*
X122440000Y-95330000D01*
%TO.N,IN_A*%
X129550000Y-129310000D02*
X128809000Y-128569000D01*
X129550000Y-135190000D02*
X129550000Y-129310000D01*
X128809000Y-128569000D02*
X128809000Y-125991000D01*
X128809000Y-125991000D02*
X129470000Y-125330000D01*
X129560000Y-135200000D02*
X129550000Y-135190000D01*
%TO.N,USART2_RX*%
X125239999Y-96110000D02*
X125234999Y-96115000D01*
X130560000Y-109620000D02*
X128511000Y-107571000D01*
X128511000Y-98311000D02*
X126310000Y-96110000D01*
X130560000Y-110410000D02*
X130560000Y-109620000D01*
X128511000Y-107571000D02*
X128511000Y-98311000D01*
X126310000Y-96110000D02*
X125239999Y-96110000D01*
%TO.N,BLKC_SEL_A*%
X144480000Y-108250000D02*
X144072000Y-108658000D01*
X147080000Y-108250000D02*
X144480000Y-108250000D01*
%TD*%
M02*
